<svg width="49" height="48" viewBox="0 0 49 48" fill="none" xmlns="http://www.w3.org/2000/svg">
<g clip-path="url(#clip0_4008_77556)">
<rect x="0.5" width="48" height="48" rx="22" fill="black"/>
<path d="M33.6216 15.8918H43.2959V39.5996H33.6216V29.2359H14.9741V39.5996H5.2998V15.8918H14.9741V24.5621H33.6216V15.8918Z" fill="#A2E5F4"/>
<path d="M14.0716 26.5354H34.5217V34.4638H14.0716V26.5354Z" fill="#A2E5F4"/>
<path d="M13.0048 10.6604C13.0048 10.0746 13.5555 9.59961 14.2348 9.59961H35.1448C35.8241 9.59961 36.3748 10.0746 36.3748 10.6604V17.2905C36.3748 17.8764 35.8241 18.3513 35.1448 18.3513H14.2348C13.5555 18.3513 13.0048 17.8764 13.0048 17.2905V10.6604Z" fill="#A2E5F4"/>
<path d="M48.5234 32.1554V20.5528H53.0006V31.2086C53.0006 32.0378 53.2373 32.7927 53.7109 33.4734C54.1844 34.1541 54.8158 34.6987 55.6051 35.1071C56.3943 35.5031 57.2625 35.7011 58.2096 35.7011C59.1711 35.7011 60.0392 35.5031 60.8141 35.1071C61.6034 34.6987 62.2276 34.1541 62.6868 33.4734C63.1604 32.7927 63.3971 32.0378 63.3971 31.2086V20.5528H67.8743L67.8959 39.1169H63.4187L63.3971 37.112C62.6653 37.8793 61.7541 38.4858 60.6635 38.9313C59.5729 39.3768 58.4033 39.5996 57.1549 39.5996C55.562 39.5996 54.1127 39.2655 52.8068 38.5971C51.501 37.9288 50.4606 37.0316 49.6857 35.9053C48.9108 34.7791 48.5234 33.5291 48.5234 32.1554Z" fill="#A2E5F4"/>
<path d="M88.6864 11.2707H93.1636V39.1169H88.6864V36.388C87.9832 37.3533 87.0648 38.133 85.9311 38.7271C84.7975 39.3088 83.4701 39.5996 81.949 39.5996C80.3849 39.5996 78.9212 39.3459 77.5579 38.8385C76.1947 38.3311 74.9893 37.6318 73.9417 36.7407C72.9085 35.8373 72.0977 34.7977 71.5094 33.6219C70.921 32.4462 70.6269 31.1839 70.6269 29.8349C70.6269 28.4859 70.921 27.2235 71.5094 26.0478C72.0977 24.8597 72.9085 23.8201 73.9417 22.929C74.9893 22.0255 76.1947 21.3201 77.5579 20.8127C78.9212 20.3052 80.3849 20.0515 81.949 20.0515C83.4701 20.0515 84.7975 20.3486 85.9311 20.9426C87.0648 21.5243 87.9832 22.2916 88.6864 23.2446V11.2707ZM81.9921 35.8682C83.2549 35.8682 84.3598 35.6021 85.3069 35.07C86.254 34.5254 86.9859 33.7952 87.5025 32.8794C88.0334 31.9635 88.2989 30.9487 88.2989 29.8349C88.2989 28.7086 88.0334 27.6876 87.5025 26.7718C86.9715 25.8559 86.2325 25.1319 85.2854 24.5998C84.3526 24.0552 83.2549 23.7829 81.9921 23.7829C80.7436 23.7829 79.6028 24.0552 78.5696 24.5998C77.5507 25.1443 76.7328 25.8745 76.1157 26.7903C75.513 27.7062 75.2117 28.721 75.2117 29.8349C75.2117 30.9611 75.5202 31.9821 76.1373 32.8979C76.7687 33.8014 77.5938 34.5254 78.6126 35.07C79.6458 35.6021 80.7723 35.8682 81.9921 35.8682Z" fill="#A2E5F4"/>
<path d="M114.772 20.5528H119.25V39.1169H114.751L114.579 36.4251C113.947 37.3781 113.093 38.1454 112.017 38.7271C110.941 39.3088 109.671 39.5996 108.207 39.5996C106.629 39.5996 105.143 39.3459 103.751 38.8385C102.36 38.3187 101.133 37.6009 100.071 36.685C99.0232 35.7692 98.2052 34.7172 97.6169 33.5291C97.0285 32.3286 96.7344 31.0415 96.7344 29.6678C96.7344 28.3435 97.0213 27.0997 97.5954 25.9364C98.1693 24.7606 98.9658 23.7334 99.9846 22.8547C101.003 21.976 102.18 21.2891 103.515 20.7941C104.864 20.2867 106.306 20.033 107.841 20.033C109.405 20.033 110.783 20.3424 111.974 20.9612C113.179 21.5676 114.177 22.3473 114.966 23.3003L114.772 20.5528ZM108.1 35.8682C109.362 35.8682 110.467 35.6021 111.414 35.07C112.362 34.5254 113.093 33.7952 113.61 32.8794C114.141 31.9635 114.406 30.9487 114.406 29.8349C114.406 28.7086 114.141 27.6876 113.61 26.7718C113.079 25.8559 112.34 25.1319 111.393 24.5998C110.46 24.0552 109.362 23.7829 108.1 23.7829C106.851 23.7829 105.71 24.0552 104.677 24.5998C103.644 25.1443 102.826 25.8745 102.223 26.7903C101.621 27.7062 101.319 28.721 101.319 29.8349C101.319 30.9611 101.628 31.9821 102.245 32.8979C102.876 33.8014 103.701 34.5254 104.72 35.07C105.753 35.6021 106.88 35.8682 108.1 35.8682Z" fill="#A2E5F4"/>
<path d="M122.305 39.1169L130.184 29.7977L122.348 20.5156H127.88L132.939 26.4933L138.019 20.5156H143.529L135.715 29.7977L143.594 39.1169H138.062L132.939 33.065L127.837 39.1169H122.305Z" fill="#A2E5F4"/>
<path d="M147.088 20.5528H151.565V39.1169H147.088V20.5528ZM149.369 17.861C148.681 17.861 148.107 17.6691 147.647 17.2855C147.188 16.9018 146.959 16.4191 146.959 15.8375C146.959 15.2682 147.188 14.7917 147.647 14.408C148.107 14.012 148.673 13.814 149.348 13.814C150.008 13.814 150.568 14.012 151.027 14.408C151.486 14.7917 151.716 15.2682 151.716 15.8375C151.716 16.4191 151.486 16.9018 151.027 17.2855C150.582 17.6691 150.03 17.861 149.369 17.861Z" fill="#A2E5F4"/>
<path d="M165.808 39.5996C163.827 39.5996 162.019 39.1603 160.383 38.2816C158.762 37.4028 157.463 36.2271 156.487 34.7544C155.526 33.2692 155.045 31.6294 155.045 29.8349C155.045 28.4735 155.325 27.2049 155.885 26.0292C156.444 24.8411 157.212 23.8015 158.188 22.9104C159.178 22.007 160.326 21.3015 161.632 20.7941C162.938 20.2867 164.33 20.033 165.808 20.033C167.788 20.033 169.589 20.4723 171.211 21.351C172.846 22.2297 174.145 23.4116 175.107 24.8968C176.082 26.3819 176.57 28.0279 176.57 29.8349C176.57 31.1839 176.29 32.4462 175.731 33.6219C175.171 34.7977 174.396 35.8373 173.406 36.7407C172.43 37.6318 171.289 38.3311 169.984 38.8385C168.692 39.3459 167.3 39.5996 165.808 39.5996ZM165.808 35.7383C166.999 35.7383 168.068 35.466 169.015 34.9214C169.962 34.3769 170.708 33.6591 171.254 32.768C171.813 31.8645 172.093 30.8868 172.093 29.8349C172.093 28.7581 171.806 27.768 171.232 26.8646C170.672 25.9611 169.919 25.2433 168.972 24.7111C168.025 24.1666 166.97 23.8943 165.808 23.8943C164.631 23.8943 163.562 24.1666 162.601 24.7111C161.653 25.2557 160.9 25.9797 160.34 26.8832C159.795 27.7866 159.522 28.7705 159.522 29.8349C159.522 30.9363 159.809 31.9326 160.383 32.8237C160.957 33.7148 161.718 34.4264 162.665 34.9586C163.627 35.4784 164.674 35.7383 165.808 35.7383Z" fill="#A2E5F4"/>
<path d="M178.767 32.1554V20.5528H183.244V31.2086C183.244 32.0378 183.48 32.7927 183.954 33.4734C184.428 34.1541 185.059 34.6987 185.848 35.1071C186.637 35.5031 187.506 35.7011 188.453 35.7011C189.414 35.7011 190.282 35.5031 191.057 35.1071C191.847 34.6987 192.471 34.1541 192.93 33.4734C193.404 32.7927 193.64 32.0378 193.64 31.2086V20.5528H198.118L198.139 39.1169H193.662L193.64 37.112C192.908 37.8793 191.997 38.4858 190.907 38.9313C189.816 39.3768 188.647 39.5996 187.398 39.5996C185.805 39.5996 184.356 39.2655 183.05 38.5971C181.744 37.9288 180.704 37.0316 179.929 35.9053C179.154 34.7791 178.767 33.5291 178.767 32.1554Z" fill="#A2E5F4"/>
<path d="M208.913 39.4697C207.78 39.4078 206.675 39.2098 205.598 38.8756C204.522 38.5415 203.575 38.0897 202.757 37.5204C201.954 36.9387 201.351 36.2581 200.949 35.4784L204.759 34.0675C204.946 34.4016 205.268 34.7296 205.728 35.0514C206.201 35.3732 206.754 35.6393 207.385 35.8496C208.016 36.0477 208.677 36.1467 209.365 36.1467C210.04 36.1467 210.664 36.0662 211.238 35.9053C211.826 35.7321 212.307 35.4722 212.68 35.1256C213.053 34.7791 213.24 34.3645 213.24 33.8818C213.24 33.3373 213.025 32.9165 212.594 32.6195C212.178 32.3101 211.654 32.0749 211.023 31.914C210.391 31.7532 209.76 31.5984 209.129 31.4499C207.722 31.1777 206.431 30.8064 205.254 30.3361C204.092 29.8534 203.166 29.2408 202.477 28.4982C201.789 27.7433 201.444 26.8213 201.444 25.7322C201.444 24.5441 201.817 23.5168 202.563 22.6505C203.31 21.7718 204.285 21.0973 205.491 20.627C206.711 20.1567 208.009 19.9216 209.387 19.9216C211.109 19.9216 212.687 20.2372 214.122 20.8684C215.557 21.4995 216.655 22.3659 217.416 23.4673L213.864 25.2866C213.649 24.9153 213.326 24.5812 212.895 24.2842C212.465 23.9871 211.977 23.752 211.432 23.5787C210.886 23.3931 210.32 23.2879 209.731 23.2631C208.999 23.2384 208.318 23.3126 207.686 23.4859C207.069 23.6468 206.574 23.9067 206.201 24.2656C205.828 24.6245 205.642 25.0824 205.642 25.6394C205.642 26.1839 205.864 26.5923 206.309 26.8646C206.754 27.1245 207.313 27.3349 207.988 27.4958C208.677 27.6567 209.38 27.8361 210.097 28.0341C211.374 28.3807 212.573 28.8076 213.692 29.3151C214.811 29.8101 215.715 30.4227 216.404 31.1529C217.093 31.8831 217.423 32.7742 217.394 33.8262C217.394 34.9895 216.985 36.0105 216.167 36.8892C215.364 37.7679 214.316 38.4363 213.025 38.8942C211.733 39.3521 210.363 39.5439 208.913 39.4697Z" fill="#A2E5F4"/>
</g>
<defs>
<clipPath id="clip0_4008_77556">
<rect x="0.5" width="48" height="48" rx="22" fill="white"/>
</clipPath>
</defs>
</svg>
