<svg xmlns="http://www.w3.org/2000/svg" width="24" height="17" viewBox="0 0 24 17" fill="none">
<path d="M20.6366 14.5049C21.3826 14.5049 21.9759 14.0355 22.5086 13.3791C23.5992 12.0355 21.8087 10.9617 21.1258 10.4358C20.4315 9.90123 19.6564 9.59839 18.8705 9.5273M17.875 7.53624C19.2495 7.53624 20.3638 6.42196 20.3638 5.04742C20.3638 3.67288 19.2495 2.55859 17.875 2.55859" stroke="#79C4EC" stroke-width="0.995529" stroke-linecap="round"/>
<path d="M3.16718 14.5049C2.42123 14.5049 1.8279 14.0355 1.29517 13.3791C0.204613 12.0355 1.99515 10.9617 2.67806 10.4358C3.37227 9.90123 4.1474 9.59839 4.93329 9.5273M5.43105 7.53624C4.05651 7.53624 2.94223 6.42196 2.94223 5.04742C2.94223 3.67288 4.05651 2.55859 5.43105 2.55859" stroke="#79C4EC" stroke-width="0.995529" stroke-linecap="round"/>
<path d="M8.00292 11.6297C6.98571 12.2586 4.31864 13.543 5.94306 15.1501C6.73658 15.9351 7.62035 16.4966 8.73147 16.4966H15.0717C16.1829 16.4966 17.0666 15.9351 17.8601 15.1501C19.4846 13.543 16.8175 12.2586 15.8003 11.6297C13.4149 10.1547 10.3883 10.1547 8.00292 11.6297Z" stroke="#79C4EC" stroke-width="0.995529" stroke-linecap="round" stroke-linejoin="round"/>
<path d="M15.3867 4.05271C15.3867 5.97707 13.8267 7.53706 11.9023 7.53706C9.97797 7.53706 8.41797 5.97707 8.41797 4.05271C8.41797 2.12836 9.97797 0.568359 11.9023 0.568359C13.8267 0.568359 15.3867 2.12836 15.3867 4.05271Z" stroke="#79C4EC" stroke-width="0.995529"/>
</svg>