<svg width="27" height="26" viewBox="0 0 27 26" fill="none" xmlns="http://www.w3.org/2000/svg">
<rect x="0.275391" y="0.0844727" width="25.8309" height="25.8309" rx="12.9155" fill="#FBEEEF" fill-opacity="0.08"/>
<g clip-path="url(#clip0_4906_75008)">
<path d="M18.0112 7.8295C16.2795 6.76725 14.768 7.19532 13.8601 7.87719C13.4878 8.15678 13.3016 8.29657 13.1921 8.29657C13.0826 8.29657 12.8964 8.15678 12.5241 7.87719C11.6162 7.19532 10.1047 6.76725 8.37298 7.8295C6.10027 9.22358 5.58601 13.8227 10.8283 17.7028C11.8268 18.4419 12.326 18.8114 13.1921 18.8114C14.0582 18.8114 14.5574 18.4419 15.5559 17.7028C20.7982 13.8227 20.2839 9.22358 18.0112 7.8295Z" stroke="#D6545C" stroke-width="0.968659" stroke-linecap="round"/>
</g>
<defs>
<clipPath id="clip0_4906_75008">
<rect width="15.4985" height="15.4985" fill="white" transform="translate(5.44141 5.25049)"/>
</clipPath>
</defs>
</svg>
