<svg xmlns="http://www.w3.org/2000/svg" width="19" height="18" viewBox="0 0 19 18" fill="none">
  <g clip-path="url(#clip0_4906_75033)">
    <path d="M9.52539 18C14.496 18 18.5254 13.9706 18.5254 9C18.5254 4.02944 14.496 0 9.52539 0C4.55483 0 0.525391 4.02944 0.525391 9C0.525391 13.9706 4.55483 18 9.52539 18Z" fill="url(#paint0_linear_4906_75033)"/>
    <path d="M7.87426 13.1212C7.58316 13.1212 7.63273 13.0126 7.53395 12.7317L6.67578 9.91078L13.2743 6" fill="#C8DAEA"/>
    <path d="M7.87305 13.1259C8.0998 13.1259 8.19859 13.0222 8.32164 12.8992L9.52012 11.7306L8.02105 10.8281" fill="#A9C9DD"/>
    <path d="M8.02667 10.8351L11.6513 13.5129C12.0654 13.7397 12.3664 13.6216 12.4651 13.1283L13.9396 6.16986C14.0925 5.56341 13.7079 5.28708 13.3135 5.46954L4.64394 8.81325C4.05226 9.04986 4.05718 9.38032 4.5353 9.52833L6.75929 10.2237L11.9079 6.97388C12.1494 6.82587 12.3766 6.90497 12.1892 7.06775" fill="url(#paint1_linear_4906_75033)"/>
  </g>
  <defs>
    <linearGradient id="paint0_linear_4906_75033" x1="12.1633" y1="2.84536" x2="7.66335" y2="13.3446" gradientUnits="userSpaceOnUse">
      <stop stop-color="#37AEE2"/>
      <stop offset="1" stop-color="#1E96C8"/>
    </linearGradient>
    <linearGradient id="paint1_linear_4906_75033" x1="10.1548" y1="9.22349" x2="11.5632" y2="12.4284" gradientUnits="userSpaceOnUse">
      <stop stop-color="#EFF7FC"/>
      <stop offset="1" stop-color="white"/>
    </linearGradient>
    <clipPath id="clip0_4906_75033">
      <rect width="18" height="18" fill="white" transform="translate(0.525391)"/>
    </clipPath>
  </defs>
</svg>