<svg width="41" height="41" viewBox="0 0 41 41" fill="none" xmlns="http://www.w3.org/2000/svg">
<g clip-path="url(#clip0_603_569)">
<g clip-path="url(#clip1_603_569)">
<path d="M28.3949 11.5368H36.9039V35.1266H28.3949V24.8145H11.9934V35.1266H3.48438V11.5368H11.9934V20.1639H28.3949V11.5368Z" fill="#F2F1F1"/>
<path d="M11.1996 22.1274H29.1866V30.0164H11.1996V22.1274Z" fill="#F2F1F1"/>
<path d="M10.2613 6.33141C10.2613 5.74846 10.7457 5.27588 11.3431 5.27588H29.7346C30.3321 5.27588 30.8165 5.74846 30.8165 6.33141V12.9285C30.8165 13.5114 30.3321 13.984 29.7346 13.984H11.3431C10.7457 13.984 10.2613 13.5114 10.2613 12.9285V6.33141Z" fill="#F2F1F1"/>
<path d="M41.5018 27.7194V16.1745H45.4397V26.7774C45.4397 27.6024 45.648 28.3536 46.0645 29.0309C46.481 29.7082 47.0363 30.2501 47.7305 30.6564C48.4247 31.0505 49.1883 31.2475 50.0214 31.2475C50.867 31.2475 51.6306 31.0505 52.3122 30.6564C53.0064 30.2501 53.5554 29.7082 53.9593 29.0309C54.3758 28.3536 54.5841 27.6024 54.5841 26.7774V16.1745H58.522L58.5409 34.6464H54.603L54.5841 32.6514C53.9404 33.4149 53.1389 34.0183 52.1796 34.4616C51.2204 34.905 50.1917 35.1266 49.0937 35.1266C47.6927 35.1266 46.4179 34.7941 45.2693 34.1291C44.1208 33.4642 43.2057 32.5714 42.5241 31.4507C41.8426 30.3301 41.5018 29.0863 41.5018 27.7194Z" fill="#F2F1F1"/>
<path d="M76.8273 6.93863H80.7652V34.6464H76.8273V31.931C76.2088 32.8915 75.401 33.6674 74.4039 34.2585C73.4068 34.8372 72.2393 35.1266 70.9014 35.1266C69.5257 35.1266 68.2383 34.8742 67.0392 34.3693C65.8402 33.8644 64.7799 33.1686 63.8586 32.282C62.9498 31.383 62.2367 30.3486 61.7192 29.1787C61.2017 28.0088 60.943 26.7527 60.943 25.4105C60.943 24.0682 61.2017 22.8121 61.7192 21.6422C62.2367 20.46 62.9498 19.4256 63.8586 18.5389C64.7799 17.64 65.8402 16.938 67.0392 16.4331C68.2383 15.9283 69.5257 15.6758 70.9014 15.6758C72.2393 15.6758 73.4068 15.9714 74.4039 16.5625C75.401 17.1412 76.2088 17.9047 76.8273 18.853V6.93863ZM70.9393 31.4138C72.05 31.4138 73.0218 31.149 73.8549 30.6195C74.6879 30.0777 75.3316 29.3511 75.786 28.4398C76.253 27.5286 76.4865 26.5188 76.4865 25.4105C76.4865 24.2898 76.253 23.2739 75.786 22.3626C75.319 21.4513 74.669 20.7309 73.8359 20.2014C73.0155 19.6596 72.05 19.3886 70.9393 19.3886C69.8412 19.3886 68.8378 19.6596 67.929 20.2014C67.0329 20.7432 66.3135 21.4698 65.7707 22.3811C65.2406 23.2923 64.9756 24.3021 64.9756 25.4105C64.9756 26.5311 65.2469 27.547 65.7897 28.4583C66.345 29.3573 67.0708 30.0777 67.9669 30.6195C68.8756 31.149 69.8664 31.4138 70.9393 31.4138Z" fill="#F2F1F1"/>
<path d="M99.7712 16.1745H103.709V34.6464H99.7523L99.6009 31.9679C99.0455 32.9162 98.2945 33.6797 97.3479 34.2585C96.4013 34.8372 95.2843 35.1266 93.9969 35.1266C92.6085 35.1266 91.3021 34.8742 90.0779 34.3693C88.8536 33.8521 87.7744 33.1378 86.8404 32.2266C85.919 31.3153 85.1996 30.2685 84.6821 29.0863C84.1646 27.8918 83.9059 26.6111 83.9059 25.2442C83.9059 23.9265 84.1583 22.6889 84.6632 21.5314C85.1681 20.3615 85.8685 19.3394 86.7647 18.465C87.6608 17.5907 88.6958 16.9073 89.8696 16.4147C91.056 15.9098 92.3245 15.6573 93.675 15.6573C95.0508 15.6573 96.2624 15.9652 97.31 16.5809C98.3702 17.1843 99.2474 17.9602 99.9416 18.9084L99.7712 16.1745ZM93.9022 31.4138C95.0129 31.4138 95.9848 31.149 96.8178 30.6195C97.6508 30.0777 98.2945 29.3511 98.7489 28.4398C99.2159 27.5286 99.4494 26.5188 99.4494 25.4105C99.4494 24.2898 99.2159 23.2739 98.7489 22.3626C98.2819 21.4513 97.6319 20.7309 96.7989 20.2014C95.9785 19.6596 95.0129 19.3886 93.9022 19.3886C92.8041 19.3886 91.8007 19.6596 90.8919 20.2014C89.9832 20.7432 89.2638 21.4698 88.7337 22.3811C88.2036 23.2923 87.9385 24.3021 87.9385 25.4105C87.9385 26.5311 88.2099 27.547 88.7526 28.4583C89.3079 29.3573 90.0337 30.0777 90.9298 30.6195C91.8386 31.149 92.8294 31.4138 93.9022 31.4138Z" fill="#F2F1F1"/>
<path d="M106.397 34.6464L113.326 25.3735L106.435 16.1376H111.3L115.75 22.0855L120.218 16.1376H125.064L118.192 25.3735L125.121 34.6464H120.255L115.75 28.6245L111.263 34.6464H106.397Z" fill="#F2F1F1"/>
<path d="M128.194 16.1745H132.132V34.6464H128.194V16.1745ZM130.201 13.4961C129.595 13.4961 129.091 13.3053 128.687 12.9235C128.283 12.5418 128.081 12.0615 128.081 11.4827C128.081 10.9162 128.283 10.4421 128.687 10.0604C129.091 9.66631 129.589 9.46927 130.182 9.46927C130.763 9.46927 131.255 9.66631 131.659 10.0604C132.063 10.4421 132.265 10.9162 132.265 11.4827C132.265 12.0615 132.063 12.5418 131.659 12.9235C131.268 13.3053 130.782 13.4961 130.201 13.4961Z" fill="#F2F1F1"/>
<path d="M144.66 35.1266C142.918 35.1266 141.328 34.6895 139.889 33.8151C138.462 32.9408 137.32 31.7709 136.462 30.3055C135.616 28.8277 135.193 27.1961 135.193 25.4105C135.193 24.0559 135.44 22.7936 135.932 21.6237C136.424 20.4415 137.099 19.4071 137.958 18.5205C138.828 17.6215 139.838 16.9196 140.987 16.4147C142.135 15.9098 143.36 15.6573 144.66 15.6573C146.401 15.6573 147.985 16.0945 149.412 16.9688C150.851 17.8432 151.993 19.0192 152.838 20.4969C153.697 21.9747 154.126 23.6125 154.126 25.4105C154.126 26.7527 153.88 28.0088 153.387 29.1787C152.895 30.3486 152.214 31.383 151.343 32.282C150.485 33.1686 149.481 33.8644 148.333 34.3693C147.197 34.8742 145.972 35.1266 144.66 35.1266ZM144.66 31.2845C145.707 31.2845 146.648 31.0136 147.481 30.4717C148.314 29.9299 148.97 29.2156 149.45 28.329C149.942 27.43 150.188 26.4572 150.188 25.4105C150.188 24.3391 149.935 23.3539 149.431 22.455C148.938 21.556 148.276 20.8418 147.443 20.3122C146.61 19.7704 145.682 19.4995 144.66 19.4995C143.625 19.4995 142.684 19.7704 141.839 20.3122C141.006 20.8541 140.343 21.5745 139.851 22.4734C139.371 23.3724 139.131 24.3514 139.131 25.4105C139.131 26.5064 139.384 27.4978 139.889 28.3844C140.394 29.2711 141.062 29.9791 141.896 30.5087C142.741 31.0259 143.663 31.2845 144.66 31.2845Z" fill="#F2F1F1"/>
<path d="M156.058 27.7194V16.1745H159.995V26.7774C159.995 27.6024 160.204 28.3536 160.62 29.0309C161.037 29.7082 161.592 30.2501 162.286 30.6564C162.98 31.0505 163.744 31.2475 164.577 31.2475C165.423 31.2475 166.186 31.0505 166.868 30.6564C167.562 30.2501 168.111 29.7082 168.515 29.0309C168.932 28.3536 169.14 27.6024 169.14 26.7774V16.1745H173.078L173.097 34.6464H169.159L169.14 32.6514C168.496 33.4149 167.695 34.0183 166.735 34.4616C165.776 34.905 164.748 35.1266 163.649 35.1266C162.248 35.1266 160.974 34.7941 159.825 34.1291C158.677 33.4642 157.761 32.5714 157.08 31.4507C156.398 30.3301 156.058 29.0863 156.058 27.7194Z" fill="#F2F1F1"/>
<path d="M182.573 34.9973C181.576 34.9358 180.604 34.7387 179.658 34.4062C178.711 34.0737 177.878 33.6243 177.159 33.0578C176.452 32.479 175.922 31.8017 175.568 31.0259L178.919 29.622C179.083 29.9545 179.367 30.2809 179.771 30.601C180.188 30.9212 180.674 31.186 181.229 31.3953C181.784 31.5924 182.365 31.6909 182.971 31.6909C183.564 31.6909 184.113 31.6108 184.618 31.4507C185.135 31.2783 185.558 31.0197 185.886 30.6749C186.215 30.3301 186.379 29.9176 186.379 29.4373C186.379 28.8955 186.189 28.4768 185.811 28.1812C185.445 27.8734 184.984 27.6394 184.429 27.4793C183.873 27.3192 183.318 27.1653 182.763 27.0175C181.526 26.7466 180.39 26.3771 179.355 25.9092C178.332 25.4289 177.518 24.8194 176.912 24.0805C176.307 23.3293 176.004 22.4119 176.004 21.3282C176.004 20.146 176.332 19.1239 176.988 18.2619C177.645 17.3875 178.503 16.7164 179.563 16.2484C180.636 15.7805 181.778 15.5465 182.99 15.5465C184.504 15.5465 185.893 15.8605 187.155 16.4886C188.417 17.1166 189.383 17.9786 190.052 19.0746L186.928 20.8849C186.738 20.5154 186.454 20.1829 186.076 19.8874C185.697 19.5918 185.268 19.3579 184.788 19.1854C184.309 19.0007 183.81 18.8961 183.293 18.8714C182.649 18.8468 182.049 18.9207 181.494 19.0931C180.951 19.2532 180.516 19.5118 180.188 19.8689C179.86 20.226 179.696 20.6817 179.696 21.2358C179.696 21.7777 179.891 22.184 180.282 22.455C180.674 22.7136 181.166 22.9229 181.759 23.083C182.365 23.2431 182.983 23.4217 183.615 23.6187C184.738 23.9635 185.792 24.3883 186.776 24.8932C187.761 25.3858 188.556 25.9954 189.162 26.722C189.768 27.4485 190.058 28.3352 190.033 29.3819C190.033 30.5395 189.673 31.5554 188.953 32.4297C188.247 33.3041 187.325 33.9691 186.189 34.4247C185.053 34.8803 183.848 35.0712 182.573 34.9973Z" fill="#F2F1F1"/>
</g>
</g>
<defs>
<clipPath id="clip0_603_569">
<rect width="40" height="40" fill="white" transform="translate(0.5 0.5)"/>
</clipPath>
<clipPath id="clip1_603_569">
<rect width="40" height="37.6119" fill="white" transform="translate(0.5 1.69385)"/>
</clipPath>
</defs>
</svg>
