<svg width="350" height="350" viewBox="0 0 350 350" fill="none" xmlns="http://www.w3.org/2000/svg">
<path d="M257.47 249.6C259.87 255.4 263.27 261 267.67 266.4C272.07 271.6 275.87 275.5 279.07 278.1C274.27 288.1 268.37 295.4 261.37 300C255.57 303.8 249.37 306 242.77 306.6C239.17 307 235.07 306.7 230.47 305.7C225.87 304.7 221.07 301.9 216.07 297.3C211.27 292.5 206.47 284.9 201.67 274.5C200.27 271.1 197.17 268.7 192.37 267.3C187.57 265.9 182.47 265.1 177.07 264.9C171.67 264.5 167.27 264.3 163.87 264.3C160.47 264.3 156.27 264.4 151.27 264.6C146.47 264.8 142.07 265.6 138.07 267C134.07 268.4 131.67 270.9 130.87 274.5C130.07 277.7 129.97 281 130.57 284.4C131.17 287.8 132.47 290 134.47 291C131.07 294.2 127.67 297 124.27 299.4C121.07 301.8 117.77 303.7 114.37 305.1C110.17 306.9 105.77 307.8 101.17 307.8C96.7703 307.8 91.7703 306.8 86.1703 304.8C83.5703 303.8 80.8703 302 78.0703 299.4C75.2703 296.8 73.3703 293.2 72.3703 288.6C71.3703 284 72.1703 278.2 74.7703 271.2C74.9703 270.6 75.9703 267.4 77.7703 261.6C79.5703 255.8 81.8703 248.2 84.6703 238.8C87.6703 229.2 90.8703 218.6 94.2703 207C97.8703 195.4 101.47 183.5 105.07 171.3C108.87 158.9 112.47 147 115.87 135.6C119.47 124.2 122.67 113.9 125.47 104.7C128.27 95.5 130.47 88.2 132.07 82.8C133.67 77.4 134.47 74.7 134.47 74.7C136.27 73.7 139.57 72.5 144.37 71.1C149.37 69.5 154.67 68.6 160.27 68.4C166.47 68 172.47 68.8 178.27 70.8C184.27 72.8 188.87 76.8 192.07 82.8C193.47 85.2 195.57 89.8 198.37 96.6C201.17 103.4 204.47 111.6 208.27 121.2C212.07 130.8 216.07 141.1 220.27 152.1C224.47 162.9 228.57 173.7 232.57 184.5C236.77 195.1 240.57 205 243.97 214.2C247.37 223.4 250.27 231.2 252.67 237.6C255.07 243.8 256.67 247.8 257.47 249.6ZM162.97 210.9C168.17 210.5 171.17 209 171.97 206.4C172.97 203.8 173.57 200.8 173.77 197.4C173.77 195.2 173.37 192.5 172.57 189.3C171.97 186.1 170.97 183.3 169.57 180.9C168.37 178.3 166.77 177 164.77 177C161.97 177 158.87 179 155.47 183C152.27 186.8 150.47 190.7 150.07 194.7C149.47 198.5 149.77 202.2 150.97 205.8C152.37 209.4 156.37 211.1 162.97 210.9Z" fill="url(#paint0_linear_4533_21471)"/>
<defs>
<linearGradient id="paint0_linear_4533_21471" x1="291.168" y1="234.81" x2="59.8324" y2="234.81" gradientUnits="userSpaceOnUse">
<stop stop-color="#79C4EC"/>
<stop offset="1" stop-color="#4D5CDD"/>
</linearGradient>
</defs>
</svg>
