<svg xmlns="http://www.w3.org/2000/svg" width="34" height="34" viewBox="0 0 34 34" fill="none">
  <path d="M32.5969 8.63718C33.0111 8.63718 33.3469 8.30139 33.3469 7.88718C33.3469 7.47296 33.0111 7.13718 32.5969 7.13718V8.63718ZM20.1194 7.13718C19.7052 7.13718 19.3694 7.47296 19.3694 7.88718C19.3694 8.30139 19.7052 8.63718 20.1194 8.63718V7.13718ZM27.1081 1.64844C27.1081 1.23422 26.7723 0.898438 26.3581 0.898438C25.9439 0.898438 25.6081 1.23422 25.6081 1.64844H27.1081ZM25.6081 14.1259C25.6081 14.5401 25.9439 14.8759 26.3581 14.8759C26.7723 14.8759 27.1081 14.5401 27.1081 14.1259H25.6081ZM32.5969 7.13718H26.3581V8.63718H32.5969V7.13718ZM26.3581 7.13718H20.1194V8.63718H26.3581V7.13718ZM25.6081 1.64844V7.88718H27.1081V1.64844H25.6081ZM25.6081 7.88718V14.1259H27.1081V7.88718H25.6081Z" fill="#A5A5A5"/>
  <path d="M16.2201 3.21094C9.23528 3.21094 5.74288 3.21094 3.57298 5.38084C1.40308 7.55074 1.40308 11.0431 1.40308 18.0279C1.40308 25.0127 1.40308 28.5051 3.57298 30.675C5.74288 32.8449 9.23528 32.845 16.2201 32.845C23.2049 32.845 26.6973 32.8449 28.8672 30.675C31.0371 28.5051 31.0371 25.0127 31.0371 18.0279V17.2481" stroke="#A5A5A5" stroke-width="1.5" stroke-linecap="round"/>
  <path d="M1.40308 20.5784C2.36855 20.4382 3.34464 20.3689 4.32236 20.3714C8.45855 20.284 12.4934 21.5727 15.7071 24.0078C18.6875 26.2661 20.7817 29.3742 21.679 32.8447" stroke="#A5A5A5" stroke-width="1.5" stroke-linejoin="round"/>
  <path d="M31.0372 24.8822C29.2038 23.9536 27.3076 23.4825 25.4008 23.4845C22.5127 23.4731 19.6538 24.5346 17 26.6037" stroke="#A5A5A5" stroke-width="1.5" stroke-linejoin="round"/>
</svg>