<svg width="41" height="41" viewBox="0 0 41 41" fill="none" xmlns="http://www.w3.org/2000/svg">
<path d="M40.5 20.8163C40.5 31.862 31.5458 40.8164 20.5001 40.8164C9.4543 40.8164 0.5 31.862 0.5 20.8163C0.5 9.77065 9.4543 0.816406 20.5001 0.816406C31.5457 0.816406 40.5 9.77065 40.5 20.8163Z" fill="#40ABF8" fill-opacity="0.2"/>
<path d="M24.6782 16.3008H28.752V28.664H24.6782V23.2595H16.8258V28.664H12.752V16.3008H16.8258V20.8222H24.6782V16.3008Z" fill="#F4F2F2"/>
<rect x="16.4453" y="21.8516" width="8.61149" height="4.13453" fill="#F4F2F2"/>
<path d="M15.9961 13.5568C15.9961 13.2601 16.2366 13.0195 16.5334 13.0195H25.2999C25.5966 13.0195 25.8371 13.2601 25.8371 13.5568V17.0461C25.8371 17.3428 25.5966 17.5834 25.2999 17.5834H16.5334C16.2366 17.5834 15.9961 17.3428 15.9961 17.0461V13.5568Z" fill="#F4F2F2"/>
</svg>
