<svg xmlns="http://www.w3.org/2000/svg" width="20" height="19" viewBox="0 0 20 19" fill="none">
<path fill-rule="evenodd" clip-rule="evenodd" d="M9.58311 18.1713C9.15754 17.7384 9.16352 17.0424 9.59647 16.6168L15.7417 10.5763L1.57315 10.5763C0.966057 10.5763 0.473911 10.0842 0.473911 9.4771C0.473911 8.87001 0.966057 8.37786 1.57315 8.37786L15.7306 8.37786L9.59875 2.3854C9.16456 1.96108 9.15656 1.26513 9.58088 0.830946C10.0052 0.396761 10.7011 0.388762 11.1353 0.813078L19.1964 8.69094C19.4076 8.89738 19.5269 9.18014 19.5273 9.47551C19.5278 9.77087 19.4093 10.054 19.1987 10.261L11.1376 18.1847C10.7047 18.6103 10.0087 18.6043 9.58311 18.1713Z" fill="#5F5F5F"/>
</svg>