<svg width="37" height="37" viewBox="0 0 37 37" fill="none" xmlns="http://www.w3.org/2000/svg">
<path d="M12.0197 20.1115C11.8725 21.0766 12.5307 21.7465 13.3366 22.0803C16.4262 23.3602 20.7257 23.3602 23.8153 22.0803C24.6212 21.7465 25.2794 21.0766 25.1322 20.1115C25.0417 19.5184 24.5943 19.0245 24.2628 18.5422C23.8287 17.9028 23.7855 17.2053 23.7855 16.4633C23.7855 13.5957 21.4531 11.271 18.5759 11.271C15.6988 11.271 13.3664 13.5957 13.3664 16.4633C13.3664 17.2053 13.3232 17.9028 12.8891 18.5422C12.5576 19.0245 12.1102 19.5184 12.0197 20.1115Z" stroke="#A7A8A8" stroke-width="1.03846" stroke-linecap="round" stroke-linejoin="round"/>
<path d="M15.8066 23.04C16.1241 24.2344 17.2435 25.117 18.5759 25.117C19.9082 25.117 21.0277 24.2344 21.3451 23.04" stroke="#A7A8A8" stroke-width="1.03846" stroke-linecap="round" stroke-linejoin="round"/>
<path d="M21.7997 15.8684C20.795 15.8684 19.938 15.5326 19.2288 14.8612C18.5196 14.1605 18.165 13.2847 18.165 12.2337C18.165 11.1244 18.5196 10.2486 19.2288 9.6063C19.938 8.93485 20.795 8.59912 21.7997 8.59912C22.8043 8.59912 23.6613 8.93485 24.3705 9.6063C25.0797 10.2486 25.4343 11.1244 25.4343 12.2337C25.4343 13.2847 25.0797 14.1605 24.3705 14.8612C23.6613 15.5326 22.8043 15.8684 21.7997 15.8684Z" fill="#DB8000"/>
</svg>
