<svg xmlns="http://www.w3.org/2000/svg" width="13" height="13" viewBox="0 0 13 13" fill="none">
  <path opacity="0.2" d="M6.77344 12.3145C10.0871 12.3145 12.7734 9.62816 12.7734 6.31445C12.7734 3.00074 10.0871 0.314453 6.77344 0.314453C3.45973 0.314453 0.773438 3.00074 0.773438 6.31445C0.773438 9.62816 3.45973 12.3145 6.77344 12.3145Z" fill="#F3BA2F"/>
  <path fill-rule="evenodd" clip-rule="evenodd" d="M5.5191 5.79905L6.77409 4.54461L8.02959 5.80007L8.75941 5.06976L6.77409 3.08398L4.78876 5.06924L5.5191 5.79905ZM3.54297 6.31475L4.27304 5.58471L5.0031 6.31475L4.27304 7.0448L3.54297 6.31475ZM6.77511 8.08539L5.52012 6.83044L4.78876 7.55973L4.78978 7.56075L6.77511 9.5455L8.76043 7.55973L8.76094 7.55922L8.03061 6.82993L6.77511 8.08539ZM8.54417 6.3152L9.27424 5.58516L10.0043 6.3152L9.27424 7.04525L8.54417 6.3152ZM6.77431 5.57332L7.51486 6.31434H7.51537L7.51486 6.31486L6.77431 7.05588L6.03377 6.31588L6.03275 6.31434L6.03377 6.31332L6.16341 6.1837L6.22669 6.12092L6.77431 5.57332Z" fill="#F3BA2F"/>
</svg>