<svg xmlns="http://www.w3.org/2000/svg" width="41" height="40" viewBox="0 0 41 40" fill="none">
  <path opacity="0.2" d="M20.5 40C31.5457 40 40.5 31.0457 40.5 20C40.5 8.9543 31.5457 0 20.5 0C9.4543 0 0.5 8.9543 0.5 20C0.5 31.0457 9.4543 40 20.5 40Z" fill="#F3BA2F"/>
  <path fill-rule="evenodd" clip-rule="evenodd" d="M15.6462 18.0046L20.5018 13.1512L25.3594 18.0086L28.1831 15.183L20.5018 7.5L12.8206 15.181L15.6462 18.0046ZM8 20L10.8246 17.1754L13.6493 20L10.8246 22.8245L8 20ZM20.5021 26.8496L15.6465 21.9942L12.8169 24.8158L12.8208 24.8197L20.5021 32.4988L28.1833 24.8158L28.1853 24.8138L25.3596 21.9922L20.5021 26.8496ZM27.3506 20L30.1752 17.1754L32.9999 20L30.1752 22.8245L27.3506 20ZM20.5029 17.1338L23.3681 20.0008H23.37L23.3681 20.0028L20.5029 22.8699L17.6377 20.0068L17.6338 20.0008L17.6377 19.9969L18.1393 19.4954L18.3841 19.2525L20.5029 17.1338Z" fill="#F3BA2F"/>
</svg>