<svg xmlns="http://www.w3.org/2000/svg" width="30" height="31" viewBox="0 0 30 31" fill="none">
  <path fill-rule="evenodd" clip-rule="evenodd" d="M8.75 5.5225C8.075 5.55125 7.59 5.615 7.16125 5.76C6.42798 6.00552 5.76165 6.41777 5.21464 6.96435C4.66763 7.51092 4.25485 8.17693 4.00875 8.91C3.75 9.68625 3.75 10.6438 3.75 12.5613C3.75 12.68 3.75 12.74 3.76625 12.7875C3.7816 12.8335 3.80743 12.8753 3.84171 12.9095C3.87598 12.9438 3.91777 12.9697 3.96375 12.985C4.01125 13.0012 4.07125 13.0013 4.19125 13.0013H25.8088C25.9287 13.0013 25.9888 13.0012 26.0363 12.985C26.0822 12.9697 26.124 12.9438 26.1583 12.9095C26.1926 12.8753 26.2184 12.8335 26.2337 12.7875C26.25 12.7387 26.25 12.6788 26.25 12.5588C26.25 10.6425 26.25 9.68375 25.9912 8.91125C25.7455 8.17771 25.3328 7.51121 24.7858 6.96418C24.2388 6.41715 23.5723 6.00452 22.8387 5.75875C22.41 5.615 21.9237 5.55125 21.25 5.5225V8.625C21.25 9.12228 21.0525 9.59919 20.7008 9.95083C20.3492 10.3025 19.8723 10.5 19.375 10.5C18.8777 10.5 18.4008 10.3025 18.0492 9.95083C17.6975 9.59919 17.5 9.12228 17.5 8.625V5.5H12.5V8.625C12.5 9.12228 12.3025 9.59919 11.9508 9.95083C11.5992 10.3025 11.1223 10.5 10.625 10.5C10.1277 10.5 9.65081 10.3025 9.29917 9.95083C8.94754 9.59919 8.75 9.12228 8.75 8.625V5.5225Z" fill="#5F5F5F"/>
  <path d="M3.75 14.875C3.75 14.58 3.75 14.4325 3.84125 14.3412C3.9325 14.25 4.08 14.25 4.375 14.25H25.625C25.92 14.25 26.0675 14.25 26.1588 14.3412C26.25 14.4325 26.25 14.58 26.25 14.875V15.5C26.25 20.2137 26.25 22.5712 24.785 24.035C23.3212 25.5 20.9637 25.5 16.25 25.5H13.75C9.03625 25.5 6.67875 25.5 5.215 24.035C3.75 22.5712 3.75 20.2137 3.75 15.5V14.875Z" fill="#C9C9C9" fill-opacity="0.25"/>
  <path d="M10.625 3.625V8.625M19.375 3.625V8.625" stroke="#5F5F5F" stroke-width="1.25" stroke-linecap="round"/>
</svg>