<svg width="25" height="25" viewBox="0 0 25 25" fill="none" xmlns="http://www.w3.org/2000/svg">
<mask id="path-1-inside-1_2051_60000" fill="white">
<path d="M0.868164 12.1328C0.868164 5.5054 6.24075 0.132812 12.8682 0.132812C19.4956 0.132812 24.8682 5.5054 24.8682 12.1328C24.8682 18.7602 19.4956 24.1328 12.8682 24.1328C6.24075 24.1328 0.868164 18.7602 0.868164 12.1328Z"/>
</mask>
<path d="M0.868164 12.1328C0.868164 5.5054 6.24075 0.132812 12.8682 0.132812C19.4956 0.132812 24.8682 5.5054 24.8682 12.1328C24.8682 18.7602 19.4956 24.1328 12.8682 24.1328C6.24075 24.1328 0.868164 18.7602 0.868164 12.1328Z" fill="#242424"/>
<path d="M0.868164 11.4661C0.868164 4.83873 6.24075 -0.533854 12.8682 -0.533854C19.4956 -0.533854 24.8682 4.83873 24.8682 11.4661V12.1328C24.8682 5.87359 19.4956 0.799479 12.8682 0.799479C6.24075 0.799479 0.868164 5.87359 0.868164 12.1328V11.4661ZM24.8682 24.1328H0.868164H24.8682ZM0.868164 24.1328V0.132812V24.1328ZM24.8682 0.132812V24.1328V0.132812Z" fill="#383B42" fill-opacity="0.5" mask="url(#path-1-inside-1_2051_60000)"/>
<path d="M16.7573 8.24219L8.97949 16.02M8.97949 8.24219L16.7573 16.02" stroke="#707171" stroke-width="1.33333" stroke-linecap="round" stroke-linejoin="round"/>
</svg>
