<svg xmlns="http://www.w3.org/2000/svg" width="12" height="12" viewBox="0 0 12 12" fill="none">
  <path d="M9.1808 9.81445H9.18555M9.1808 9.81445C8.86945 10.1232 8.30521 10.0463 7.90951 10.0463C7.4238 10.0463 7.1899 10.1413 6.84326 10.488C6.54809 10.7831 6.15241 11.3144 5.68556 11.3145C5.2187 11.3144 4.82301 10.7831 4.52783 10.488C4.18119 10.1413 3.94729 10.0463 3.46158 10.0463C3.06589 10.0463 2.50164 10.1232 2.19029 9.81445C1.87645 9.50324 1.95369 8.93665 1.95369 8.53841C1.95369 8.03516 1.84362 7.80375 1.48524 7.44537C0.952115 6.91226 0.685555 6.64568 0.685547 6.31444C0.685551 5.98321 0.952109 5.71665 1.48522 5.18354C1.80515 4.86361 1.95369 4.54659 1.95369 4.09048C1.95369 3.69478 1.87679 3.13052 2.18555 2.81918C2.49676 2.50535 3.06335 2.58258 3.46159 2.58258C3.91768 2.58258 4.23471 2.43406 4.55462 2.11414C5.08775 1.58101 5.35431 1.31445 5.68555 1.31445C6.01679 1.31445 6.28335 1.58101 6.81647 2.11414C7.13632 2.43399 7.45328 2.58258 7.90951 2.58258C8.30521 2.58258 8.86948 2.50569 9.18082 2.81445C9.49464 3.12567 9.41741 3.69225 9.41741 4.09048C9.41741 4.59374 9.52748 4.82514 9.88587 5.18354C10.419 5.71665 10.6855 5.98321 10.6855 6.31444C10.6855 6.64568 10.419 6.91226 9.88586 7.44537C9.52746 7.80374 9.41741 8.03517 9.41741 8.53841C9.41741 8.93665 9.49464 9.50324 9.1808 9.81445Z" stroke="#7AE7E7" stroke-width="0.75"/>
  <path d="M4.18555 6.76088C4.18555 6.76088 4.78555 7.08678 5.08555 7.56445C5.08555 7.56445 5.98555 5.68945 7.18555 5.06445" stroke="#7AE7E7" stroke-width="0.75" stroke-linecap="round" stroke-linejoin="round"/>
</svg>