<svg xmlns="http://www.w3.org/2000/svg" width="20" height="16" viewBox="0 0 20 16" fill="currentColor">
  <path d="M17.3117 13C17.9361 13 18.4328 12.6071 18.8787 12.0576C19.7916 10.9329 18.2928 10.034 17.7211 9.59383C17.14 9.14635 16.4912 8.89285 15.8333 8.83333M15 7.16667C16.1506 7.16667 17.0833 6.23393 17.0833 5.08333C17.0833 3.93274 16.1506 3 15 3" stroke="currentColor" stroke-linecap="round"/>
  <path d="M2.68797 13C2.06355 13 1.5669 12.6071 1.12096 12.0576C0.208082 10.9329 1.7069 10.034 2.27855 9.59383C2.85965 9.14635 3.50849 8.89285 4.16634 8.83333M4.58301 7.16667C3.43241 7.16667 2.49967 6.23393 2.49967 5.08333C2.49967 3.93274 3.43241 3 4.58301 3" stroke="currentColor" stroke-linecap="round"/>
  <path d="M6.73618 10.593C5.8847 11.1195 3.65216 12.1946 5.01192 13.5398C5.67616 14.197 6.41594 14.667 7.34603 14.667H12.6533C13.5834 14.667 14.3232 14.197 14.9874 13.5398C16.3472 12.1946 14.1147 11.1195 13.2632 10.593C11.2665 9.35833 8.73289 9.35833 6.73618 10.593Z" stroke="currentColor" stroke-linecap="round" stroke-linejoin="round"/>
  <path d="M12.9163 4.25016C12.9163 5.86099 11.6105 7.16683 9.99967 7.16683C8.38884 7.16683 7.08301 5.86099 7.08301 4.25016C7.08301 2.63933 8.38884 1.3335 9.99967 1.3335C11.6105 1.3335 12.9163 2.63933 12.9163 4.25016Z" stroke="currentColor"/>
</svg>