<svg xmlns="http://www.w3.org/2000/svg" width="15" height="16" viewBox="0 0 15 16" fill="none">
  <path d="M5.50098 10.0039C5.50098 8.11829 5.50098 7.17548 6.08676 6.58969C6.67255 6.00391 7.61536 6.00391 9.50098 6.00391L10.1676 6.00391C12.0533 6.00391 12.9961 6.00391 13.5819 6.58969C14.1676 7.17548 14.1676 8.11829 14.1676 10.0039V10.6706C14.1676 12.5562 14.1676 13.499 13.5819 14.0848C12.9961 14.6706 12.0533 14.6706 10.1676 14.6706H9.50098C7.61536 14.6706 6.67255 14.6706 6.08676 14.0848C5.50098 13.499 5.50098 12.5562 5.50098 10.6706L5.50098 10.0039Z" stroke="#79C4EC" stroke-linecap="round" stroke-linejoin="round"/>
  <path d="M10.8339 6.0026C10.8323 4.03121 10.8025 3.01008 10.2287 2.31089C10.1179 2.17586 9.99406 2.05205 9.85903 1.94124C9.12147 1.33594 8.02564 1.33594 5.83399 1.33594C3.64233 1.33594 2.5465 1.33594 1.80894 1.94124C1.67391 2.05205 1.5501 2.17586 1.43929 2.31089C0.833985 3.04846 0.833985 4.14428 0.833984 6.33594C0.833984 8.52759 0.833984 9.62342 1.43929 10.361C1.5501 10.496 1.67391 10.6198 1.80894 10.7306C2.50812 11.3044 3.52926 11.3343 5.50065 11.3359" stroke="#79C4EC" stroke-linecap="round" stroke-linejoin="round"/>
</svg>