<svg xmlns="http://www.w3.org/2000/svg" width="22" height="22" viewBox="0 0 22 22" fill="current">
  <path d="M17 1V9M21 5L13 5" stroke="#818282" stroke-width="1.25" stroke-linecap="round" stroke-linejoin="round"/>
  <path d="M1 5C1 3.59987 1 2.8998 1.27248 2.36502C1.51217 1.89462 1.89462 1.51217 2.36502 1.27248C2.8998 1 3.59987 1 5 1C6.40013 1 7.1002 1 7.63498 1.27248C8.10538 1.51217 8.48783 1.89462 8.72752 2.36502C9 2.8998 9 3.59987 9 5C9 6.40013 9 7.1002 8.72752 7.63498C8.48783 8.10538 8.10538 8.48783 7.63498 8.72752C7.1002 9 6.40013 9 5 9C3.59987 9 2.8998 9 2.36502 8.72752C1.89462 8.48783 1.51217 8.10538 1.27248 7.63498C1 7.1002 1 6.40013 1 5Z" stroke="#909292" stroke-width="1.25"/>
  <path d="M1 17C1 15.5999 1 14.8998 1.27248 14.365C1.51217 13.8946 1.89462 13.5122 2.36502 13.2725C2.8998 13 3.59987 13 5 13C6.40013 13 7.1002 13 7.63498 13.2725C8.10538 13.5122 8.48783 13.8946 8.72752 14.365C9 14.8998 9 15.5999 9 17C9 18.4001 9 19.1002 8.72752 19.635C8.48783 20.1054 8.10538 20.4878 7.63498 20.7275C7.1002 21 6.40013 21 5 21C3.59987 21 2.8998 21 2.36502 20.7275C1.89462 20.4878 1.51217 20.1054 1.27248 19.635C1 19.1002 1 18.4001 1 17Z" stroke="#909292" stroke-width="1.25"/>
  <path d="M13 17C13 15.5999 13 14.8998 13.2725 14.365C13.5122 13.8946 13.8946 13.5122 14.365 13.2725C14.8998 13 15.5999 13 17 13C18.4001 13 19.1002 13 19.635 13.2725C20.1054 13.5122 20.4878 13.8946 20.7275 14.365C21 14.8998 21 15.5999 21 17C21 18.4001 21 19.1002 20.7275 19.635C20.4878 20.1054 20.1054 20.4878 19.635 20.7275C19.1002 21 18.4001 21 17 21C15.5999 21 14.8998 21 14.365 20.7275C13.8946 20.4878 13.5122 20.1054 13.2725 19.635C13 19.1002 13 18.4001 13 17Z" stroke="#909292" stroke-width="1.25"/>
</svg>