<svg xmlns="http://www.w3.org/2000/svg" width="24" height="25" viewBox="0 0 24 25" fill="none">
  <path d="M8 10.8359C8 12.4272 8.63214 13.9534 9.75736 15.0786C10.8826 16.2038 12.4087 16.8359 14 16.8359C15.5913 16.8359 17.1174 16.2038 18.2426 15.0786C19.3679 13.9534 20 12.4272 20 10.8359C20 9.24464 19.3679 7.71852 18.2426 6.5933C17.1174 5.46808 15.5913 4.83594 14 4.83594C12.4087 4.83594 10.8826 5.46808 9.75736 6.5933C8.63214 7.71852 8 9.24464 8 10.8359Z" fill="#FDD821"/>
  <path d="M14 4.83594C17.3137 4.83594 20 7.52227 20 10.8359C20 14.1496 17.3137 16.8359 14 16.8359C10.6863 16.8359 8 14.1496 8 10.8359C8 7.52227 10.6863 4.83594 14 4.83594ZM14 5.16927C10.8703 5.16927 8.33333 7.70627 8.33333 10.8359C8.33333 13.9656 10.8703 16.5026 14 16.5026C17.1297 16.5026 19.6667 13.9656 19.6667 10.8359C19.6667 7.70627 17.1297 5.16927 14 5.16927Z" fill="#B2181A"/>
  <path d="M14.0001 7.0625C14.4368 8.22083 14.8858 9.03017 15.3468 9.4915C15.8081 9.9525 16.6161 10.3998 17.7714 10.8338C16.4931 11.1842 15.6374 11.5758 15.2048 12.0082C14.7721 12.4408 14.3704 13.3065 14.0001 14.6048C13.5241 13.2502 13.0611 12.3482 12.6111 11.8982C12.1611 11.4482 11.3671 11.0935 10.2288 10.8338C11.4491 10.3638 12.2721 9.9165 12.6971 9.4915C13.1224 9.06617 13.5568 8.2565 14.0001 7.0625Z" fill="#FA1C3D"/>
  <path d="M17.7714 10.8338C16.4931 11.1842 15.6374 11.5758 15.2048 12.0082C14.7721 12.4408 14.3704 13.3065 14.0001 14.6048C13.5241 13.2502 13.0611 12.3482 12.6111 11.8982C12.1611 11.4482 11.3671 11.0935 10.2288 10.8338C11.4491 10.3638 12.2721 9.9165 12.6971 9.4915C13.1224 9.06617 13.5568 8.2565 14.0001 7.0625C14.4368 8.22083 14.8858 9.03017 15.3468 9.4915C15.8081 9.9525 16.6161 10.3998 17.7714 10.8338ZM14.0458 8.0465L14.0038 7.95183L13.9828 8.00083C13.6351 8.79817 13.2878 9.37217 12.9328 9.72717C12.5971 10.0628 12.0588 10.3985 11.3128 10.7415L11.2478 10.7705L11.2591 10.7745C11.9204 10.9985 12.4278 11.2718 12.7824 11.6002L12.8468 11.6622C13.1968 12.0122 13.5408 12.5858 13.8864 13.3878L13.9728 13.5925L13.9868 13.5528C14.2721 12.7635 14.5791 12.1902 14.9158 11.8282L14.9691 11.7725C15.3274 11.4145 15.9144 11.0952 16.7354 10.8058L16.7854 10.7882L16.6594 10.7302C16.0181 10.4288 15.5251 10.1175 15.1784 9.79217L15.1111 9.72717C14.7408 9.3565 14.3878 8.79717 14.0458 8.0465Z" fill="#B2181A"/>
  <path d="M4.33325 13.8359C4.33325 15.4272 4.96539 16.9534 6.09061 18.0786C7.21583 19.2038 8.74195 19.8359 10.3333 19.8359C11.9246 19.8359 13.4507 19.2038 14.5759 18.0786C15.7011 16.9534 16.3333 15.4272 16.3333 13.8359C16.3333 12.2446 15.7011 10.7185 14.5759 9.5933C13.4507 8.46808 11.9246 7.83594 10.3333 7.83594C8.74195 7.83594 7.21583 8.46808 6.09061 9.5933C4.96539 10.7185 4.33325 12.2446 4.33325 13.8359Z" fill="#FDD821"/>
  <path d="M10.3333 7.83594C13.6469 7.83594 16.3333 10.5223 16.3333 13.8359C16.3333 17.1496 13.6469 19.8359 10.3333 19.8359C7.01959 19.8359 4.33325 17.1496 4.33325 13.8359C4.33325 10.5223 7.01959 7.83594 10.3333 7.83594ZM10.3333 8.16927C7.20359 8.16927 4.66659 10.7063 4.66659 13.8359C4.66659 16.9656 7.20359 19.5026 10.3333 19.5026C13.4629 19.5026 15.9999 16.9656 15.9999 13.8359C15.9999 10.7063 13.4629 8.16927 10.3333 8.16927Z" fill="#B2181A"/>
  <path d="M10.3333 10.0625C10.77 11.2208 11.219 12.0302 11.68 12.4915C12.1413 12.9525 12.9493 13.3998 14.1047 13.8338C12.8263 14.1842 11.9707 14.5758 11.538 15.0082C11.1053 15.4408 10.7037 16.3065 10.3333 17.6048C9.85734 16.2502 9.39434 15.3482 8.94434 14.8982C8.49434 14.4482 7.70035 14.0935 6.56201 13.8338C7.78235 13.3638 8.60535 12.9165 9.03034 12.4915C9.45568 12.0662 9.89001 11.2565 10.3333 10.0625Z" fill="#FA1C3D"/>
  <path d="M14.1047 13.8338C12.8263 14.1842 11.9707 14.5758 11.538 15.0082C11.1053 15.4408 10.7037 16.3065 10.3333 17.6048C9.85734 16.2502 9.39434 15.3482 8.94434 14.8982C8.49434 14.4482 7.70035 14.0935 6.56201 13.8338C7.78235 13.3638 8.60535 12.9165 9.03034 12.4915C9.45568 12.0662 9.89001 11.2565 10.3333 10.0625C10.77 11.2208 11.219 12.0302 11.68 12.4915C12.1413 12.9525 12.9493 13.3998 14.1047 13.8338ZM10.379 11.0465L10.337 10.9518L10.316 11.0008C9.96834 11.7982 9.62101 12.3722 9.26601 12.7272C8.93035 13.0628 8.39201 13.3985 7.64601 13.7415L7.58101 13.7705L7.59234 13.7745C8.25368 13.9985 8.76101 14.2718 9.11568 14.6002L9.18001 14.6622C9.53001 15.0122 9.87401 15.5858 10.2197 16.3878L10.306 16.5925L10.32 16.5528C10.6053 15.7635 10.9123 15.1902 11.249 14.8282L11.3023 14.7725C11.6607 14.4145 12.2477 14.0952 13.0687 13.8058L13.1187 13.7882L12.9927 13.7302C12.3513 13.4288 11.8583 13.1175 11.5117 12.7922L11.4443 12.7272C11.074 12.3565 10.721 11.7972 10.379 11.0465Z" fill="#B2181A"/>
</svg>