<svg xmlns="http://www.w3.org/2000/svg" width="13" height="16" viewBox="0 0 13 16" fill="none">
  <path d="M11.501 3.66406L11.0878 10.3475C10.9823 12.055 10.9295 12.9088 10.5015 13.5226C10.2899 13.8261 10.0174 14.0823 9.70145 14.2747C9.06238 14.6641 8.20697 14.6641 6.49614 14.6641C4.78305 14.6641 3.92651 14.6641 3.28701 14.274C2.97084 14.0812 2.69831 13.8246 2.48677 13.5206C2.05889 12.9058 2.00728 12.0508 1.90405 10.3408L1.50098 3.66406" stroke="#E49591" stroke-linecap="round"/>
  <path d="M4.50098 7.82422H8.50098" stroke="#E49591" stroke-linecap="round"/>
  <path d="M5.50098 10.4375H7.50098" stroke="#E49591" stroke-linecap="round"/>
  <path d="M0.500977 3.66536H12.501M9.20467 3.66536L8.74955 2.72652C8.44723 2.10287 8.29607 1.79105 8.03533 1.59657C7.97749 1.55343 7.91625 1.51506 7.8522 1.48183C7.56346 1.33203 7.21693 1.33203 6.52387 1.33203C5.8134 1.33203 5.45817 1.33203 5.16464 1.48811C5.09958 1.5227 5.03751 1.56263 4.97905 1.60748C4.71528 1.80983 4.56794 2.13307 4.27325 2.77954L3.86947 3.66536" stroke="#E49591" stroke-linecap="round"/>
</svg>