<svg xmlns="http://www.w3.org/2000/svg" width="63" height="63" viewBox="0 0 63 63" fill="none">
  <path d="M6 49.5C6 45.2574 6 43.136 7.31802 41.818C8.63604 40.5 10.7574 40.5 15 40.5H16.5C19.3284 40.5 20.7426 40.5 21.6213 41.3787C22.5 42.2574 22.5 43.6716 22.5 46.5V61.5H6V49.5Z" stroke="#2A3C46" stroke-width="1.73494" stroke-linecap="round" stroke-linejoin="round"/>
  <path d="M40.5 52.5C40.5 49.6716 40.5 48.2574 41.3787 47.3787C42.2574 46.5 43.6716 46.5 46.5 46.5H48C52.2426 46.5 54.364 46.5 55.682 47.818C57 49.136 57 51.2574 57 55.5V61.5H40.5V52.5Z" stroke="#2A3C46" stroke-width="1.73494" stroke-linecap="round" stroke-linejoin="round"/>
  <path d="M1.5 61.5H61.5" stroke="#2A3C46" stroke-width="1.73494" stroke-linecap="round" stroke-linejoin="round"/>
  <path d="M22.5 43.5C22.5 39.2574 22.5 37.136 23.818 35.818C25.136 34.5 27.2574 34.5 31.5 34.5C35.7426 34.5 37.864 34.5 39.182 35.818C40.5 37.136 40.5 39.2574 40.5 43.5V61.5H22.5V43.5Z" stroke="#2A3C46" stroke-width="1.73494" stroke-linecap="round" stroke-linejoin="round"/>
  <path d="M33.5732 3.23301L35.6849 7.49145C35.9729 8.08424 36.7408 8.65284 37.3887 8.76172L41.2163 9.40291C43.664 9.81423 44.24 11.6047 42.4762 13.371L39.5005 16.3713C38.9966 16.8794 38.7206 17.8593 38.8766 18.561L39.7285 22.275C40.4004 25.2148 38.8526 26.352 36.2729 24.8155L32.6853 22.6742C32.0373 22.2871 30.9695 22.2871 30.3095 22.6742L26.7219 24.8155C24.1542 26.352 22.5944 25.2027 23.2663 22.275L24.1182 18.561C24.2742 17.8593 23.9982 16.8794 23.4943 16.3713L20.5186 13.371C18.7668 11.6047 19.3307 9.81423 21.7785 9.40291L25.606 8.76172C26.242 8.65284 27.0099 8.08424 27.2979 7.49145L29.4096 3.23301C30.5615 0.922329 32.4333 0.922329 33.5732 3.23301Z" stroke="#2A3C46" stroke-width="1.73494" stroke-linecap="round" stroke-linejoin="round"/>
</svg>