<svg xmlns="http://www.w3.org/2000/svg" width="14" height="14" viewBox="0 0 14 14" fill="none">
  <g clip-path="url(#clip0_5509_23426)">
    <path fill-rule="evenodd" clip-rule="evenodd" d="M3.03863 1.43025L0.759371 6.38335C0.750697 6.40177 0.747949 6.42259 0.751527 6.44274C0.755105 6.46289 0.764822 6.48134 0.779257 6.49537L6.935 12.598C6.95248 12.6153 6.97577 12.625 7 12.625C7.02423 12.625 7.04752 12.6153 7.065 12.598L13.2207 6.49575C13.2352 6.48172 13.2449 6.46328 13.2485 6.44312C13.2521 6.42297 13.2493 6.40216 13.2406 6.38373L10.9614 1.43063C10.954 1.414 10.9422 1.39991 10.9273 1.39004C10.9124 1.38018 10.8951 1.37496 10.8774 1.37501H3.12334C3.10557 1.37478 3.08812 1.37987 3.07309 1.38968C3.05806 1.39948 3.04609 1.41357 3.03863 1.43025V1.43025V1.43025Z" fill="#50AF95"/>
    <path fill-rule="evenodd" clip-rule="evenodd" d="M7.67832 6.87741C7.63554 6.881 7.41451 6.89574 6.92148 6.89574C6.52933 6.89574 6.2509 6.88259 6.15322 6.87741C4.63775 6.8029 3.50659 6.50806 3.50659 6.15504C3.50659 5.80203 4.63775 5.50758 6.15322 5.43188V6.58376C6.25233 6.59173 6.5361 6.61046 6.92825 6.61046C7.39883 6.61046 7.63447 6.58854 7.67689 6.58416V5.43267C9.18916 5.50798 10.3178 5.80282 10.3178 6.15504C10.3178 6.50726 9.18951 6.80211 7.67689 6.87701L7.67832 6.87741ZM7.67832 5.31354V4.28278H9.78879V2.71094H4.04276V4.28278H6.15287V5.31314C4.43776 5.4012 3.14795 5.78091 3.14795 6.23592C3.14795 6.69094 4.43776 7.07026 6.15287 7.15871V10.4618H7.67796V7.15751C9.38915 7.06946 10.6768 6.69015 10.6768 6.23553C10.6768 5.78091 9.39022 5.40159 7.67796 5.31314L7.67832 5.31354Z" fill="white"/>
  </g>
  <defs>
    <clipPath id="clip0_5509_23426">
      <rect width="12.5" height="12.5" fill="white" transform="translate(0.75 0.75)"/>
    </clipPath>
  </defs>
</svg>