<svg xmlns="http://www.w3.org/2000/svg" width="26" height="26" viewBox="0 0 26 26" fill="none">
<g clip-path="url(#clip0_5160_5035)">
<path fill-rule="evenodd" clip-rule="evenodd" d="M5.07727 1.86051L0.518741 11.7667C0.501395 11.8035 0.495898 11.8452 0.503054 11.8855C0.51021 11.9258 0.529645 11.9627 0.558515 11.9907L12.87 24.1959C12.905 24.2306 12.9515 24.25 13 24.25C13.0485 24.25 13.095 24.2306 13.13 24.1959L25.4415 11.9915C25.4704 11.9634 25.4898 11.9266 25.4969 11.8862C25.5041 11.8459 25.4986 11.8043 25.4813 11.7675L20.9227 1.86127C20.908 1.828 20.8844 1.79982 20.8546 1.78009C20.8248 1.76036 20.7902 1.74992 20.7548 1.75001H5.24667C5.21114 1.74956 5.17624 1.75975 5.14618 1.77935C5.11612 1.79896 5.09219 1.82714 5.07727 1.86051V1.86051V1.86051Z" fill="#50AF95"/>
<path fill-rule="evenodd" clip-rule="evenodd" d="M14.3557 12.7587C14.2701 12.7659 13.828 12.7954 12.842 12.7954C12.0577 12.7954 11.5008 12.7691 11.3055 12.7587C8.27453 12.6097 6.01219 12.02 6.01219 11.314C6.01219 10.608 8.27453 10.0191 11.3055 9.86766V12.1714C11.5037 12.1874 12.0712 12.2248 12.8555 12.2248C13.7967 12.2248 14.268 12.181 14.3528 12.1722V9.86925C17.3773 10.0199 19.6347 10.6096 19.6347 11.314C19.6347 12.0184 17.3781 12.6081 14.3528 12.7579L14.3557 12.7587ZM14.3557 9.63099V7.56946H18.5766V4.42578H7.08454V7.56946H11.3048V9.63019C7.87454 9.8063 5.29492 10.5657 5.29492 11.4758C5.29492 12.3858 7.87454 13.1444 11.3048 13.3213V19.9274H14.355V13.3189C17.7773 13.1428 20.3527 12.3842 20.3527 11.475C20.3527 10.5657 17.7795 9.80709 14.355 9.63019L14.3557 9.63099Z" fill="white"/>
</g>
<defs>
<clipPath id="clip0_5160_5035">
<rect width="25" height="25" fill="white" transform="translate(0.5 0.5)"/>
</clipPath>
</defs>
</svg>