<svg width="44" height="44" viewBox="0 0 44 44" fill="none" xmlns="http://www.w3.org/2000/svg">
<rect x="0.709609" y="0.51332" width="42.7766" height="42.7766" rx="21.3883" stroke="#2A3C46" stroke-opacity="0.8" stroke-width="1.02664"/>
<path d="M16.9639 16.7688C20.9564 15.4 23.2378 15.4 27.2303 16.7688" stroke="#79C4EC" stroke-width="1.36885" stroke-linecap="round" stroke-linejoin="round"/>
<path d="M16.9639 27.0352C20.5571 28.404 23.637 28.404 27.2303 27.0352" stroke="#79C4EC" stroke-width="1.36885" stroke-linecap="round" stroke-linejoin="round"/>
<path d="M18.8708 27.6767C18.8708 28.8317 16.6933 31.1416 16.1348 31.1416C14.4582 31.1416 12.9693 29.2163 12.2242 27.6767C11.4792 25.7514 11.6658 20.9398 13.8997 14.3946C15.5282 13.2223 17.1638 12.8469 18.8709 12.6621L20.0442 15.742" stroke="#79C4EC" stroke-width="1.36885" stroke-linecap="round" stroke-linejoin="round"/>
<path d="M25.3246 27.6767C25.3246 28.8317 27.502 31.1416 28.0605 31.1416C29.7371 31.1416 31.226 29.2163 31.9711 27.6767C32.7161 25.7514 32.5296 20.9398 30.2956 14.3946C28.6671 13.2223 27.0316 12.8469 25.3244 12.6621L24.1511 15.742" stroke="#79C4EC" stroke-width="1.36885" stroke-linecap="round" stroke-linejoin="round"/>
<path d="M17.4879 21.9023H17.4775M26.7173 21.9023H26.7069" stroke="#79C4EC" stroke-width="1.36885" stroke-linecap="round" stroke-linejoin="round"/>
</svg>
