<svg xmlns="http://www.w3.org/2000/svg" width="21" height="20" viewBox="0 0 21 20" fill="none">
  <g style="mix-blend-mode:luminosity" clip-path="url(#clip0_2715_100612)">
    <path d="M17.8266 3.64039C16.515 3.0267 15.1274 2.59064 13.7005 2.34375C13.5228 2.66508 13.3151 3.09727 13.1719 3.44109C11.6335 3.20977 10.1092 3.20977 8.59905 3.44109C8.45593 3.09734 8.24359 2.66508 8.06421 2.34375C6.63592 2.59075 5.24715 3.02792 3.93492 3.64359C1.32367 7.58961 0.615776 11.4375 0.969682 15.2309C2.70163 16.5243 4.38007 17.31 6.03023 17.8241C6.44033 17.2602 6.80286 16.6631 7.11405 16.0391C6.52158 15.8135 5.9504 15.5355 5.40734 15.2084C5.55025 15.1025 5.6898 14.9921 5.82577 14.8774C9.11655 16.4166 12.6922 16.4166 15.9437 14.8774C16.0803 14.9914 16.2198 15.1017 16.3621 15.2084C15.8182 15.5364 15.2459 15.8149 14.6523 16.0407C14.9652 16.6673 15.3271 17.2649 15.7361 17.8257C17.3878 17.3116 19.0678 16.5259 20.7998 15.2309C21.2151 10.8334 20.0904 7.02086 17.8266 3.64039ZM7.56241 12.898C6.57452 12.898 5.76437 11.9758 5.76437 10.8527C5.76437 9.72968 6.55726 8.80586 7.56241 8.80586C8.56765 8.80586 9.37773 9.72804 9.36046 10.8527C9.36202 11.9758 8.56765 12.898 7.56241 12.898ZM14.207 12.898C13.2191 12.898 12.4091 11.9758 12.4091 10.8527C12.4091 9.72968 13.2019 8.80586 14.207 8.80586C15.2123 8.80586 16.0223 9.72804 16.0051 10.8527C16.0051 11.9758 15.2123 12.898 14.207 12.898Z" fill="#5865F2"/>
    <path d="M17.8266 3.64039C16.515 3.0267 15.1274 2.59064 13.7005 2.34375C13.5228 2.66508 13.3151 3.09727 13.1719 3.44109C11.6335 3.20977 10.1092 3.20977 8.59905 3.44109C8.45593 3.09734 8.24359 2.66508 8.06421 2.34375C6.63592 2.59075 5.24715 3.02792 3.93492 3.64359C1.32367 7.58961 0.615776 11.4375 0.969682 15.2309C2.70163 16.5243 4.38007 17.31 6.03023 17.8241C6.44033 17.2602 6.80286 16.6631 7.11405 16.0391C6.52158 15.8135 5.9504 15.5355 5.40734 15.2084C5.55025 15.1025 5.6898 14.9921 5.82577 14.8774C9.11655 16.4166 12.6922 16.4166 15.9437 14.8774C16.0803 14.9914 16.2198 15.1017 16.3621 15.2084C15.8182 15.5364 15.2459 15.8149 14.6523 16.0407C14.9652 16.6673 15.3271 17.2649 15.7361 17.8257C17.3878 17.3116 19.0678 16.5259 20.7998 15.2309C21.2151 10.8334 20.0904 7.02086 17.8266 3.64039ZM7.56241 12.898C6.57452 12.898 5.76437 11.9758 5.76437 10.8527C5.76437 9.72968 6.55726 8.80586 7.56241 8.80586C8.56765 8.80586 9.37773 9.72804 9.36046 10.8527C9.36202 11.9758 8.56765 12.898 7.56241 12.898ZM14.207 12.898C13.2191 12.898 12.4091 11.9758 12.4091 10.8527C12.4091 9.72968 13.2019 8.80586 14.207 8.80586C15.2123 8.80586 16.0223 9.72804 16.0051 10.8527C16.0051 11.9758 15.2123 12.898 14.207 12.898Z" fill="#5865F2"/>
  </g>
  <defs>
    <clipPath id="clip0_2715_100612">
      <rect width="20" height="20" fill="white" transform="translate(0.884766)"/>
    </clipPath>
  </defs>
</svg>