<svg width="24" height="24" viewBox="0 0 24 24" fill="none" xmlns="http://www.w3.org/2000/svg">
<g id="earn 1" clip-path="url(#clip0_4435_54405)">
<g id="Clip path group">
<mask id="mask0_4435_54405" style="mask-type:luminance" maskUnits="userSpaceOnUse" x="-1" y="0" width="25" height="24">
<g id="clip0_3979_68774">
<path id="Vector" d="M23.9946 0H-0.00537109V24H23.9946V0Z" fill="white"/>
</g>
</mask>
<g mask="url(#mask0_4435_54405)">
<g id="Group">
<g id="Group_2" filter="url(#filter0_d_4435_54405)">
<path id="Vector_2" d="M20.9373 17.0851C20.281 13.1363 18.2378 10.1958 16.4616 8.46861C15.9447 7.96601 15.6863 7.71473 15.1154 7.48213C14.5445 7.24957 14.0538 7.24957 13.0724 7.24957H10.9169C9.93543 7.24957 9.44471 7.24957 8.87383 7.48213C8.30295 7.71473 8.04455 7.96601 7.52767 8.46861C5.75143 10.1958 3.70823 13.1363 3.0519 17.0851C2.56356 20.0232 5.27391 22.2498 8.30295 22.2498H15.6863C18.7153 22.2498 21.4257 20.0232 20.9373 17.0851Z" stroke="#00820D" stroke-width="1.50001" stroke-linecap="round"/>
<path id="Vector_3" d="M12.6582 11.25C12.6582 10.8358 12.3224 10.5 11.9082 10.5C11.4939 10.5 11.1582 10.8358 11.1582 11.25H12.6582ZM11.1582 18.2501C11.1582 18.6643 11.4939 19.0001 11.9082 19.0001C12.3224 19.0001 12.6582 18.6643 12.6582 18.2501H11.1582ZM12.9808 13.2039C13.2314 13.5336 13.7019 13.5978 14.0317 13.3471C14.3615 13.0965 14.4256 12.626 14.175 12.2962L12.9808 13.2039ZM10.7423 16.3523C10.4336 16.0761 9.95952 16.1024 9.68328 16.411C9.40704 16.7196 9.43332 17.1938 9.74196 17.47L10.7423 16.3523ZM11.9082 13.8994C11.2608 13.8994 10.9662 13.7937 10.8489 13.7148C10.7952 13.6785 10.7451 13.6375 10.7451 13.4395H9.24512C9.24512 14.0211 9.45596 14.585 10.0108 14.9588C10.5023 15.2899 11.1642 15.3994 11.9082 15.3994V13.8994ZM10.7451 13.4395C10.7451 13.344 10.796 13.196 11.0007 13.0449C11.2053 12.894 11.5236 12.778 11.9082 12.778V11.2779C11.2361 11.2779 10.598 11.4779 10.1101 11.8379C9.62252 12.1976 9.24512 12.7554 9.24512 13.4395H10.7451ZM13.2451 16.0609C13.2451 16.2829 13.1662 16.4006 12.9976 16.5018C12.7836 16.6304 12.4163 16.7224 11.9082 16.7224V18.2225C12.5526 18.2225 13.2288 18.1128 13.77 17.7877C14.3568 17.4352 14.7451 16.8472 14.7451 16.0609H13.2451ZM11.9082 15.3994C12.5615 15.3994 12.9022 15.4999 13.0636 15.6052C13.1577 15.6666 13.2451 15.7563 13.2451 16.0609H14.7451C14.7451 15.3573 14.4847 14.7412 13.8831 14.3488C13.3489 14.0005 12.6461 13.8994 11.9082 13.8994V15.3994ZM12.6582 12.028V11.25H11.1582V12.028H12.6582ZM11.1582 17.4725V18.2501H12.6582V17.4725H11.1582ZM11.9082 12.778C12.443 12.778 12.8238 12.9974 12.9808 13.2039L14.175 12.2962C13.6768 11.6408 12.8077 11.2779 11.9082 11.2779V12.778ZM11.9082 16.7224C11.3748 16.7224 10.9602 16.5473 10.7423 16.3523L9.74196 17.47C10.286 17.9569 11.0804 18.2225 11.9082 18.2225V16.7224Z" fill="#00820D"/>
<path id="Vector_4" d="M7.25029 4.69292C7.04397 4.3926 6.74493 3.98502 7.36265 3.89207C7.99757 3.79653 8.65689 4.23116 9.30221 4.22224C9.88605 4.21416 10.1835 3.95522 10.5026 3.5855C10.8386 3.19619 11.3589 2.25 11.9936 2.25C12.6284 2.25 13.1487 3.19619 13.4848 3.5855C13.8038 3.95522 14.1013 4.21416 14.6851 4.22224C15.3304 4.23116 15.9898 3.79653 16.6247 3.89207C17.2424 3.98502 16.9434 4.3926 16.737 4.69292L15.8042 6.05068C15.4052 6.63152 15.2056 6.92192 14.7881 7.086C14.3706 7.25008 13.831 7.25008 12.7518 7.25008H11.2355C10.1563 7.25008 9.61677 7.25008 9.19921 7.086C8.78169 6.92192 8.58217 6.63152 8.18313 6.05068L7.25029 4.69292Z" stroke="#00820D" stroke-width="1.50001"/>
</g>
</g>
</g>
</g>
</g>
<defs>
<filter id="filter0_d_4435_54405" x="-20.6127" y="-7.64292" width="65.2146" height="67.2143" filterUnits="userSpaceOnUse" color-interpolation-filters="sRGB">
<feFlood flood-opacity="0" result="BackgroundImageFix"/>
<feColorMatrix in="SourceAlpha" type="matrix" values="0 0 0 0 0 0 0 0 0 0 0 0 0 0 0 0 0 0 127 0" result="hardAlpha"/>
<feOffset dy="13.7144"/>
<feGaussianBlur stdDeviation="11.4286"/>
<feComposite in2="hardAlpha" operator="out"/>
<feColorMatrix type="matrix" values="0 0 0 0 0.456424 0 0 0 0 0.687181 0 0 0 0 0.70191 0 0 0 0.3 0"/>
<feBlend mode="normal" in2="BackgroundImageFix" result="effect1_dropShadow_4435_54405"/>
<feBlend mode="normal" in="SourceGraphic" in2="effect1_dropShadow_4435_54405" result="shape"/>
</filter>
<clipPath id="clip0_4435_54405">
<rect width="24" height="24" fill="white" transform="translate(-0.00537109)"/>
</clipPath>
</defs>
</svg>
