<svg xmlns="http://www.w3.org/2000/svg" width="19" height="19" viewBox="0 0 19 19" fill="none">
  <path d="M5.37598 9.19482H10.4298M5.37598 5.82561H7.90288" stroke="#EBEDED" stroke-width="1.01076" stroke-linecap="round" stroke-linejoin="round"/>
  <path d="M6.21875 15.9328C7.10349 16.6653 8.16826 17.132 9.38877 17.2121C10.3504 17.2752 11.3544 17.275 12.3141 17.2121C12.6445 17.1904 13.0047 17.1126 13.315 16.9865C13.6601 16.8462 13.8328 16.7761 13.9205 16.7867C14.0082 16.7973 14.1354 16.89 14.39 17.0752C14.8387 17.4018 15.4041 17.6363 16.2425 17.6162C16.6665 17.606 16.8785 17.6009 16.9734 17.4412C17.0683 17.2816 16.9501 17.0605 16.7137 16.6185C16.3858 16.0054 16.1781 15.3035 16.4929 14.7411C17.035 13.9378 17.4954 12.9865 17.5627 11.959C17.5989 11.407 17.5989 10.8352 17.5627 10.2832C17.5179 9.59858 17.3517 8.94778 17.0854 8.35205" stroke="#EBEDED" stroke-width="1.01076" stroke-linecap="round" stroke-linejoin="round"/>
  <path d="M9.45679 13.816C12.4516 13.6188 14.8372 11.2219 15.0335 8.21274C15.0719 7.62387 15.0719 7.01405 15.0335 6.42518C14.8372 3.41605 12.4516 1.01913 9.45679 0.821898C8.43506 0.754611 7.36832 0.754748 6.34868 0.821898C3.35382 1.01913 0.968267 3.41605 0.771974 6.42518C0.733561 7.01405 0.733561 7.62387 0.771974 8.21274C0.843466 9.3087 1.33271 10.3234 1.90868 11.1803C2.2431 11.7802 2.0224 12.5288 1.67406 13.1828C1.4229 13.6543 1.29732 13.8901 1.39815 14.0604C1.49898 14.2307 1.72421 14.2362 2.17467 14.247C3.06549 14.2685 3.66619 14.0183 4.14301 13.67C4.41345 13.4724 4.54867 13.3736 4.64186 13.3623C4.73506 13.3509 4.91846 13.4257 5.2852 13.5754C5.61482 13.7099 5.99755 13.7929 6.34868 13.816C7.36832 13.8832 8.43506 13.8833 9.45679 13.816Z" stroke="#EBEDED" stroke-width="1.01076" stroke-linejoin="round"/>
</svg>