<svg xmlns="http://www.w3.org/2000/svg" width="13" height="13" viewBox="0 0 13 13" fill="none">
  <path opacity="0.2" fill-rule="evenodd" clip-rule="evenodd" d="M6.80078 12.5352C10.1145 12.5352 12.8008 9.84886 12.8008 6.53516C12.8008 3.22145 10.1145 0.535156 6.80078 0.535156C3.48707 0.535156 0.800781 3.22145 0.800781 6.53516C0.800781 9.84886 3.48707 12.5352 6.80078 12.5352Z" fill="#F04086"/>
  <path fill-rule="evenodd" clip-rule="evenodd" d="M8.34433 6.42804C8.7377 6.48573 9.03887 6.62996 9.24786 6.86073C9.45951 7.09836 9.57456 7.40724 9.57019 7.72611C9.57019 8.20826 9.40779 8.60139 9.06184 8.86743C8.71588 9.13348 8.21687 9.30457 7.56433 9.30457H4.99794V7.72216H6.12981V8.41446H7.4659C7.77151 8.41446 8.00182 8.33139 8.15487 8.20529C8.30791 8.07919 8.38469 7.87842 8.38469 7.64304C8.38469 7.40765 8.30693 7.24842 8.15487 7.12529C8.0028 7.00216 7.77249 6.9804 7.4659 6.9804H3.57031V6.09029H4.99745V3.76611H7.48313C8.14109 3.76611 8.62681 3.85166 8.95013 4.11227C9.27345 4.37287 9.42994 4.70419 9.42994 5.19177C9.43168 5.48502 9.33024 5.76946 9.14353 5.99485C8.95948 6.22183 8.68881 6.36375 8.34433 6.41963V6.42804ZM6.12981 6.08831H7.32368C7.93735 6.08831 8.24394 5.84749 8.24394 5.37128C8.24394 4.89507 7.93735 4.65425 7.32368 4.65425H6.12981V6.08831Z" fill="#F04086"/>
</svg>