<svg width="41" height="41" viewBox="0 0 41 41" fill="none" xmlns="http://www.w3.org/2000/svg">
<path d="M40.5 20.8163C40.5 31.862 31.5458 40.8164 20.5001 40.8164C9.4543 40.8164 0.5 31.862 0.5 20.8163C0.5 9.77065 9.4543 0.816406 20.5001 0.816406C31.5457 0.816406 40.5 9.77065 40.5 20.8163Z" fill="#9AA1BC" fill-opacity="0.3"/>
<g opacity="0.8">
<path d="M20.4978 8.31641L20.334 8.86328V24.7322L20.4978 24.8928L27.9954 20.5387L20.4978 8.31641Z" fill="#62688F"/>
<path d="M20.4976 8.31641L13 20.5387L20.4976 24.8928V17.1905V8.31641Z" fill="#8A92B2"/>
<path d="M20.4966 27.2855L20.4043 27.3961V33.0489L20.4966 33.3137L27.9987 22.9336L20.4966 27.2855Z" fill="#62688F"/>
<path d="M20.4976 33.3138V27.2855L13 22.9336L20.4976 33.3138Z" fill="#8A92B2"/>
<path d="M20.4971 24.8936L27.9946 20.5395L20.4971 17.1914V24.8936Z" fill="#454A75"/>
<path d="M13 20.5395L20.4975 24.8936V17.1914L13 20.5395Z" fill="#62688F"/>
</g>
</svg>
