<svg xmlns="http://www.w3.org/2000/svg" width="21" height="20" viewBox="0 0 21 20" fill="none">
  <g style="mix-blend-mode:luminosity">
    <path d="M20.3848 9.99993C20.3848 4.47653 15.9082 0 10.3848 0C4.86133 0 0.384766 4.47653 0.384766 9.99993C0.384766 14.9917 4.03945 19.1288 8.82305 19.8792V12.8929H6.28594V9.99993H8.82305V7.79721C8.82305 5.29293 10.3133 3.90701 12.5984 3.90701C13.6941 3.90701 14.8395 4.10427 14.8395 4.10427V6.56441H13.5793C12.3355 6.56441 11.952 7.33706 11.952 8.12612V9.99993H14.7246L14.2809 12.8929H11.952V19.8792C16.7301 19.1288 20.3848 14.9917 20.3848 9.99993Z" fill="#1877F2"/>
    <path d="M14.2748 12.8931L14.7189 10.0002H11.9463V8.12634C11.9463 7.33728 12.3354 6.56463 13.5736 6.56463H14.8338V4.10449C14.8338 4.10449 13.6885 3.90723 12.5928 3.90723C10.308 3.90723 8.81738 5.29355 8.81738 7.79744V10.0002H6.28027V12.8931H8.81738V19.8794C9.32715 19.9614 9.84746 20.0001 10.3791 20.0001C10.9107 20.0001 11.4311 19.9563 11.9408 19.8794V12.8931H14.2748Z" fill="white"/>
  </g>
</svg>