<svg xmlns="http://www.w3.org/2000/svg" width="24" height="25" viewBox="0 0 24 25" fill="none">
  <path d="M18.3967 10.9852L12.9277 7.26141C10.5592 5.86491 7.14668 5.51916 5.06243 6.51741C2.61593 7.68891 3.02243 9.88041 5.26043 11.4134L10.2974 14.8634C12.5354 16.3964 16.2292 17.0137 18.6757 15.8422C20.8717 14.7989 20.7502 12.6209 18.3967 10.9852Z" fill="#F8F7C5"/>
  <path d="M10.4716 8.9296C10.0036 8.65885 9.87758 8.5816 9.74858 8.50285L10.4633 8.09035C10.6448 7.98535 10.7221 7.8436 10.6943 7.70635V7.0996C10.7401 6.72685 9.92333 6.36085 9.30983 6.71485C8.26133 7.3201 8.54183 7.1581 8.00183 7.4701L6.68558 6.71035C6.05483 6.34585 5.19758 6.7231 5.29958 7.1101C5.29958 7.28635 5.29883 7.64635 5.29958 7.7491C5.30033 7.8691 5.37983 7.98985 5.53958 8.08135L6.27083 8.5036C6.25733 8.5111 5.47208 8.95735 5.39333 9.05635C5.32658 9.1396 5.30333 9.2191 5.31233 9.29335C5.31308 9.4546 5.31383 9.8491 5.31233 9.9571C5.30558 10.4011 6.23633 10.5661 6.70208 10.2968L8.01083 9.5416L9.32708 10.3013C9.91208 10.6388 10.6388 10.3598 10.7071 10.0298C10.7116 9.5461 10.7108 9.36385 10.7101 9.3001C10.7348 9.17635 10.6696 9.04435 10.4716 8.9296ZM14.5253 11.6093C14.5141 11.7616 14.3918 12.4771 14.3626 12.6143C14.3371 12.7336 14.2336 12.8446 14.0566 12.9293C13.6621 13.1183 13.1258 13.0748 12.7651 12.8273C12.5971 12.7126 12.5138 12.5851 12.5123 12.4636C12.5108 12.3233 12.6316 11.5403 12.6886 11.3896C12.6976 11.3656 12.7216 11.3431 12.7381 11.3198C12.6368 11.4841 12.6878 11.6723 12.9301 11.8381C13.2916 12.0856 13.8271 12.1291 14.2216 11.9401C14.4053 11.8523 14.5058 11.7346 14.5253 11.6093Z" fill="#225B49"/>
  <path d="M17.2207 14.1906C16.8262 14.3796 16.29 14.3361 15.9292 14.0886C15.687 13.9228 15.636 13.7346 15.7372 13.5703C15.7215 13.5936 15.6975 13.6153 15.6877 13.6401C15.6307 13.7908 15.51 14.5738 15.5115 14.7141C15.513 14.8363 15.5962 14.9631 15.7642 15.0778C16.1257 15.3253 16.6612 15.3688 17.0557 15.1798C17.2327 15.0951 17.337 14.9841 17.3617 14.8648C17.391 14.7276 17.5132 14.0121 17.5245 13.8598C17.5057 13.9843 17.4052 14.1021 17.2207 14.1906Z" fill="#F05A28"/>
  <path d="M17.2771 13.4641C16.8953 13.2023 16.3696 13.1776 15.9856 13.3613C15.6391 13.5271 15.5618 13.8331 15.9286 14.0843C16.2901 14.3318 16.8256 14.3753 17.2201 14.1863C17.6093 14.0003 17.6251 13.7026 17.2771 13.4641Z" fill="#FF7344"/>
  <path d="M9.32555 9.59158L8.0093 8.83183L6.70055 9.58708C6.09605 9.93583 4.9988 9.54733 5.39255 9.05608C5.47205 8.95708 6.8693 8.17333 6.8558 8.16583L5.5388 7.37158C4.78805 6.93808 5.90855 6.26158 6.68555 6.71008L8.0018 7.46983C8.54255 7.15783 8.2613 7.31983 9.3098 6.71458C10.083 6.26833 11.1803 6.96583 10.4633 7.38058L9.1553 8.15308C9.1928 8.13133 9.1928 8.17483 9.1553 8.15308C9.92405 8.59708 9.5888 8.42008 10.4715 8.93008C11.2133 9.35833 10.0845 10.0296 9.32555 9.59158ZM14.277 11.2183C13.8953 10.9566 13.3695 10.9318 12.9855 11.1156C12.639 11.2813 12.5618 11.5873 12.9285 11.8386C13.29 12.0861 13.8255 12.1296 14.22 11.9406C14.4413 11.8348 14.52 11.6938 14.5253 11.5993C14.5328 11.4718 14.4518 11.3376 14.277 11.2183Z" fill="#569080"/>
  <path d="M17.2207 11.9406C16.8262 12.1296 16.29 12.0861 15.9292 11.8386C15.687 11.6728 15.636 11.4846 15.7372 11.3203C15.7215 11.3436 15.6975 11.3653 15.6877 11.3901C15.6307 11.5408 15.51 12.3238 15.5115 12.4641C15.513 12.5863 15.5962 12.7131 15.7642 12.8278C16.1257 13.0753 16.6612 13.1188 17.0557 12.9298C17.2327 12.8451 17.337 12.7341 17.3617 12.6148C17.391 12.4776 17.5132 11.7621 17.5245 11.6098C17.5057 11.7343 17.4052 11.8521 17.2207 11.9406Z" fill="#569080"/>
  <path d="M17.2771 11.2141C16.8953 10.9523 16.3696 10.9276 15.9856 11.1113C15.6391 11.2771 15.5618 11.5831 15.9286 11.8343C16.2901 12.0818 16.8256 12.1253 17.2201 11.9363C17.4413 11.8306 17.5201 11.6896 17.5253 11.5951C17.5328 11.4676 17.4518 11.3333 17.2771 11.2141Z" fill="#7BD6C4"/>
  <path d="M14.2207 14.1906C13.8262 14.3796 13.29 14.3361 12.9292 14.0886C12.687 13.9228 12.636 13.7346 12.7372 13.5703C12.7215 13.5936 12.6975 13.6153 12.6877 13.6401C12.6307 13.7908 12.51 14.5738 12.5115 14.7141C12.513 14.8363 12.5962 14.9631 12.7642 15.0778C13.1257 15.3253 13.6612 15.3688 14.0557 15.1798C14.2327 15.0951 14.337 14.9841 14.3617 14.8648C14.391 14.7276 14.5132 14.0121 14.5245 13.8598C14.5057 13.9843 14.4052 14.1021 14.2207 14.1906Z" fill="#F28103"/>
  <path d="M14.2771 13.4641C13.8953 13.2023 13.3696 13.1776 12.9856 13.3613C12.6391 13.5271 12.5618 13.8331 12.9286 14.0843C13.2901 14.3318 13.8256 14.3753 14.2201 14.1863C14.4413 14.0806 14.5201 13.9396 14.5253 13.8451C14.5328 13.7176 14.4518 13.5833 14.2771 13.4641Z" fill="#F29227"/>
  <path d="M20.244 13.8301C20.211 14.6318 19.692 15.3571 18.6757 15.8401C16.2292 17.0123 12.5355 16.3951 10.2975 14.8613L5.26047 11.4113C4.11222 10.6246 3.44622 9.66456 3.40047 8.75781C3.40047 8.75931 3.40047 8.76006 3.40047 8.76156C3.28497 9.58506 3.23397 10.8998 3.19572 11.2321C3.08472 12.2003 3.70647 13.2916 5.04372 14.2081L10.0807 17.6581C12.3135 19.1873 16.0072 19.8106 18.459 18.6368C19.3815 18.1951 19.896 17.5598 20.0122 16.8518C20.082 16.4168 20.25 14.7391 20.25 13.9973C20.25 13.9463 20.2485 13.8901 20.244 13.8301Z" fill="#AD9A74"/>
</svg>