<svg xmlns="http://www.w3.org/2000/svg" width="14" height="16" viewBox="0 0 14 16" fill="none">
  <path d="M3.23578 11.7986C3.26193 12.0562 3.49192 12.2438 3.74948 12.2176C4.00704 12.1915 4.19463 11.9615 4.16848 11.7039L3.23578 11.7986ZM2.49936 13.1615C2.24268 13.1953 2.06198 13.4307 2.09574 13.6874C2.1295 13.9441 2.36494 14.1248 2.62161 14.091L2.49936 13.1615ZM13.375 11.47C13.6339 11.47 13.8438 11.2602 13.8438 11.0013C13.8438 10.7424 13.6339 10.5325 13.375 10.5325V11.47ZM10.1966 15.5013C10.1966 15.7602 10.4064 15.97 10.6653 15.97C10.9242 15.97 11.1341 15.7602 11.1341 15.5013H10.1966ZM12.6008 13.72C12.8597 13.72 13.0696 13.5102 13.0696 13.2513C13.0696 12.9924 12.8597 12.7825 12.6008 12.7825V13.72ZM10.8921 11.221L11.2182 11.5576L11.2182 11.5576L10.8921 11.221ZM8.35484 15.97C8.61372 15.97 8.82359 15.7602 8.82359 15.5013C8.82359 15.2424 8.61372 15.0325 8.35484 15.0325V15.97ZM6.03226 15.0325C5.77337 15.0325 5.56351 15.2424 5.56351 15.5013C5.56351 15.7602 5.77337 15.97 6.03226 15.97V15.0325ZM6.03226 10.5325C5.77337 10.5325 5.56351 10.7424 5.56351 11.0013C5.56351 11.2602 5.77337 11.47 6.03226 11.47V10.5325ZM8.35484 11.47C8.61372 11.47 8.82359 11.2602 8.82359 11.0013C8.82359 10.7424 8.61372 10.5325 8.35484 10.5325V11.47ZM1.09375 14.0013V12.5013H0.15625V14.0013H1.09375ZM2.17339 15.0325C1.79558 15.0325 1.55793 15.0316 1.38443 15.009C1.22293 14.988 1.18917 14.9559 1.17791 14.9449L0.525602 15.6183C0.741103 15.8271 1.0032 15.9048 1.26335 15.9387C1.51149 15.971 1.82128 15.97 2.17339 15.97V15.0325ZM0.15625 14.0013C0.15625 14.3412 0.155191 14.6448 0.189045 14.8887C0.224987 15.1477 0.30802 15.4075 0.525602 15.6183L1.17791 14.9449C1.16874 14.9361 1.13839 14.9093 1.11764 14.7598C1.09481 14.5953 1.09375 14.3685 1.09375 14.0013H0.15625ZM3.25302 14.0013C3.25302 14.3685 3.25196 14.5953 3.22913 14.7598C3.20838 14.9093 3.17804 14.9361 3.16886 14.9449L3.82117 15.6183C4.03875 15.4075 4.12179 15.1477 4.15773 14.8887C4.19158 14.6448 4.19052 14.3412 4.19052 14.0013H3.25302ZM2.17339 15.97C2.5255 15.97 2.83528 15.971 3.08343 15.9387C3.34358 15.9048 3.60567 15.8271 3.82117 15.6183L3.16886 14.9449C3.15761 14.9559 3.12385 14.988 2.96235 15.009C2.78885 15.0316 2.55119 15.0325 2.17339 15.0325V15.97ZM2.17339 10.5325C1.82128 10.5325 1.51149 10.5316 1.26335 10.5639C1.0032 10.5978 0.741103 10.6755 0.525602 10.8843L1.17791 11.5576C1.18917 11.5467 1.22293 11.5146 1.38443 11.4936C1.55793 11.471 1.79558 11.47 2.17339 11.47V10.5325ZM1.09375 12.5013C1.09375 12.1341 1.09481 11.9073 1.11764 11.7428C1.13839 11.5933 1.16874 11.5665 1.17791 11.5576L0.525602 10.8843C0.30802 11.0951 0.224987 11.3549 0.189045 11.6139C0.155191 11.8578 0.15625 12.1614 0.15625 12.5013H1.09375ZM4.19052 14.0013C4.19052 13.6526 3.97995 13.4269 3.76627 13.3094C3.574 13.2036 3.35348 13.1653 3.18578 13.1493C3.00865 13.1323 2.83794 13.1358 2.71583 13.1427C2.65366 13.1461 2.60152 13.1506 2.56417 13.1543C2.54545 13.1562 2.53031 13.1578 2.51934 13.1591C2.51385 13.1597 2.50939 13.1603 2.50604 13.1607C2.50436 13.1609 2.50296 13.1611 2.50185 13.1612C2.50129 13.1613 2.5008 13.1614 2.50039 13.1614C2.50018 13.1614 2.49999 13.1615 2.49982 13.1615C2.49973 13.1615 2.49962 13.1615 2.49957 13.1615C2.49946 13.1615 2.49936 13.1615 2.56048 13.6263C2.62161 14.091 2.62151 14.0911 2.62142 14.0911C2.6214 14.0911 2.62131 14.0911 2.62126 14.0911C2.62116 14.0911 2.62107 14.0911 2.62101 14.0911C2.62087 14.0911 2.6208 14.0911 2.6208 14.0911C2.6208 14.0911 2.62107 14.0911 2.62159 14.091C2.62263 14.0909 2.6247 14.0907 2.62771 14.0903C2.63375 14.0896 2.64356 14.0885 2.6566 14.0872C2.68275 14.0846 2.72133 14.0813 2.76805 14.0787C2.86367 14.0734 2.98328 14.0717 3.09648 14.0825C3.2191 14.0942 3.2889 14.1167 3.31438 14.1308C3.32264 14.1353 3.30517 14.1278 3.28522 14.0987C3.26195 14.0647 3.25302 14.0271 3.25302 14.0013H4.19052ZM12.2137 11.47H13.375V10.5325H12.2137V11.47ZM11.1341 15.5013V13.2513H10.1966V15.5013H11.1341ZM11.1341 13.2513V12.5013H10.1966V13.2513H11.1341ZM12.6008 12.7825H10.6653V13.72H12.6008V12.7825ZM12.2137 10.5325C11.8616 10.5325 11.5518 10.5316 11.3037 10.5639C11.0435 10.5978 10.7814 10.6755 10.5659 10.8843L11.2182 11.5576C11.2295 11.5467 11.2632 11.5146 11.4247 11.4936C11.5982 11.471 11.8359 11.47 12.2137 11.47V10.5325ZM11.1341 12.5013C11.1341 12.1341 11.1351 11.9073 11.158 11.7428C11.1787 11.5933 11.2091 11.5665 11.2182 11.5576L10.5659 10.8843C10.3483 11.0951 10.2653 11.3549 10.2294 11.6139C10.1955 11.8578 10.1966 12.1614 10.1966 12.5013H11.1341ZM8.35484 15.0325H7.19355V15.97H8.35484V15.0325ZM7.19355 15.0325H6.03226V15.97H7.19355V15.0325ZM6.03226 11.47H7.19355V10.5325H6.03226V11.47ZM7.19355 11.47H8.35484V10.5325H7.19355V11.47ZM6.7248 11.0013V15.5013H7.6623V11.0013H6.7248ZM2.17339 11.47C2.54933 11.47 2.81644 11.4589 3.022 11.5197C3.10845 11.5453 3.14826 11.5753 3.1694 11.5993C3.18829 11.6208 3.2229 11.6718 3.23578 11.7986L4.16848 11.7039C4.13992 11.4226 4.04546 11.1758 3.87336 10.9802C3.70351 10.787 3.49042 10.6806 3.28778 10.6207C2.91516 10.5105 2.45934 10.5325 2.17339 10.5325V11.47Z" fill="#6EB2D7"/>
  <path d="M0.625 8.75V8.14722C0.625 5.92169 0.625 4.80892 0.976703 3.92018C1.54211 2.49141 2.73785 1.36441 4.25377 0.831509C5.19672 0.500025 6.37736 0.500025 8.73864 0.500025C10.0879 0.500025 10.7626 0.500024 11.3014 0.689443C12.1677 0.99396 12.8509 1.63796 13.174 2.4544C13.375 2.96225 13.375 3.59812 13.375 4.86985V8.01066V8.75" stroke="#6EB2D7" stroke-width="0.9375" stroke-linecap="round" stroke-linejoin="round"/>
  <path d="M0.625 8C0.625 6.61929 1.74429 5.5 3.125 5.5C3.62434 5.5 4.21303 5.58749 4.69852 5.45741C5.12989 5.34182 5.46682 5.00489 5.58241 4.57352C5.7125 4.08803 5.625 3.49934 5.625 3C5.625 1.61929 6.74429 0.5 8.125 0.5" stroke="#6EB2D7" stroke-width="0.9375" stroke-linecap="round" stroke-linejoin="round"/>
</svg>