<svg xmlns="http://www.w3.org/2000/svg" width="18" height="18" viewBox="0 0 18 18" fill="none">
  <path d="M1.08398 9.0026C1.08398 5.27065 1.08398 3.40468 2.24335 2.24531C3.40272 1.08594 5.2687 1.08594 9.00065 1.08594C12.7326 1.08594 14.5986 1.08594 15.7579 2.24531C16.9173 3.40468 16.9173 5.27065 16.9173 9.0026C16.9173 12.7346 16.9173 14.6005 15.7579 15.7599C14.5986 16.9193 12.7326 16.9193 9.00065 16.9193C5.2687 16.9193 3.40272 16.9193 2.24335 15.7599C1.08398 14.6005 1.08398 12.7346 1.08398 9.0026Z" fill="#1D2437"/>
  <path d="M1.08398 9.0026C1.08398 5.27065 1.08398 3.40468 2.24335 2.24531C3.40272 1.08594 5.2687 1.08594 9.00065 1.08594C12.7326 1.08594 14.5986 1.08594 15.7579 2.24531C16.9173 3.40468 16.9173 5.27065 16.9173 9.0026C16.9173 12.7346 16.9173 14.6005 15.7579 15.7599C14.5986 16.9193 12.7326 16.9193 9.00065 16.9193C5.2687 16.9193 3.40272 16.9193 2.24335 15.7599C1.08398 14.6005 1.08398 12.7346 1.08398 9.0026Z" stroke="#A5D7F2" stroke-width="1.25"/>
  <path d="M9.20247 13.168V9.0013C9.20247 8.60846 9.20247 8.41205 9.08044 8.29001C8.9584 8.16797 8.76198 8.16797 8.36914 8.16797" stroke="#A5D7F2" stroke-width="1.25" stroke-linecap="round" stroke-linejoin="round"/>
  <path d="M8.99398 5.66797H9.00146" stroke="#A5D7F2" stroke-width="1.66667" stroke-linecap="round" stroke-linejoin="round"/>
</svg>