<svg width="41" height="40" viewBox="0 0 41 40" fill="none" xmlns="http://www.w3.org/2000/svg">
<rect x="0.5" width="40" height="40" rx="20" fill="#F0F7FA" fill-opacity="0.05"/>
<path d="M22.9385 12.4257L17.3946 15.0869C16.9679 15.2917 16.512 15.3431 16.0473 15.2389C15.7431 15.1708 15.591 15.1367 15.4686 15.1228C13.9479 14.9491 13 16.1527 13 17.5367V18.2963C13 19.6803 13.9479 20.8839 15.4686 20.7102C15.591 20.6963 15.7431 20.6622 16.0473 20.5941C16.512 20.49 16.9679 20.5413 17.3946 20.7461L22.9385 23.4073C24.2112 24.0182 24.8475 24.3237 25.557 24.0856C26.2664 23.8475 26.51 23.3366 26.997 22.3149C28.3343 19.5091 28.3343 16.3239 26.997 13.5181C26.51 12.4964 26.2664 11.9855 25.557 11.7474C24.8475 11.5093 24.2112 11.8148 22.9385 12.4257Z" stroke="#436C82" stroke-width="1.25" stroke-linecap="round" stroke-linejoin="round"/>
<path d="M20.049 27.3092L18.8063 28.3335C16.0049 26.1118 16.3472 25.0522 16.3472 20.8335H17.292C17.6755 23.2176 18.5799 24.3469 19.8279 25.1644C20.5966 25.6679 20.7552 26.7272 20.049 27.3092Z" stroke="#436C82" stroke-width="1.25" stroke-linecap="round" stroke-linejoin="round"/>
<path d="M16.75 20.4165V15.4165" stroke="#436C82" stroke-width="1.25" stroke-linecap="round" stroke-linejoin="round"/>
</svg>
