<svg xmlns="http://www.w3.org/2000/svg" width="16" height="16" viewBox="0 0 16 16" fill="none">
  <path d="M10.5 12.6875C10.4387 14.2308 9.15258 15.5412 7.4297 15.499C7.02887 15.4892 6.53345 15.3495 5.5426 15.07C3.15801 14.3974 1.08796 13.267 0.591297 10.7346C0.500001 10.2691 0.500001 9.74533 0.500001 8.69772L0.500001 7.30228C0.500001 6.25467 0.500001 5.73087 0.591297 5.26537C1.08796 2.73303 3.15801 1.60261 5.5426 0.929999C6.53345 0.650514 7.02887 0.510771 7.4297 0.500965C9.15257 0.458817 10.4387 1.7692 10.5 3.31249" stroke="#818282" stroke-linecap="round"/>
  <path d="M6.33301 7.99984H15.4997M6.33301 7.99984C6.33301 7.41631 7.99493 6.32611 8.41634 5.9165M6.33301 7.99984C6.33301 8.58336 7.99493 9.67356 8.41634 10.0832" stroke="#636464" stroke-linecap="round" stroke-linejoin="round"/>
</svg>