<svg xmlns="http://www.w3.org/2000/svg" width="21" height="21" viewBox="0 0 21 21" fill="none">
  <path d="M6.03418 10.7163H11.67M6.03418 6.95911H8.85208" stroke="#909292" stroke-width="1.40895" stroke-linecap="round" stroke-linejoin="round"/>
  <path d="M6.97363 18.2305C7.96026 19.0474 9.14764 19.5679 10.5087 19.6572C11.5811 19.7275 12.7007 19.7274 13.7709 19.6572C14.1394 19.633 14.5411 19.5462 14.887 19.4056C15.2719 19.2492 15.4644 19.1709 15.5623 19.1828C15.6601 19.1947 15.802 19.298 16.0858 19.5045C16.5863 19.8687 17.2168 20.1303 18.1517 20.1078C18.6245 20.0964 18.8609 20.0908 18.9667 19.9127C19.0726 19.7346 18.9407 19.4882 18.6771 18.9952C18.3115 18.3115 18.0799 17.5288 18.4309 16.9016C19.0354 16.0058 19.5489 14.945 19.6239 13.7992C19.6642 13.1836 19.6642 12.546 19.6239 11.9304C19.5739 11.1669 19.3886 10.4412 19.0917 9.77686" stroke="#909292" stroke-width="1.40895" stroke-linecap="round" stroke-linejoin="round"/>
  <path d="M10.5852 15.8699C13.925 15.65 16.5852 12.9771 16.8041 9.62141C16.847 8.96473 16.847 8.28468 16.8041 7.628C16.5852 4.27235 13.925 1.5994 10.5852 1.37946C9.44584 1.30443 8.25625 1.30458 7.11919 1.37946C3.77945 1.5994 1.11919 4.27235 0.900292 7.628C0.857455 8.28468 0.857455 8.96473 0.900292 9.62141C0.980017 10.8436 1.5256 11.9752 2.16789 12.9307C2.54083 13.5996 2.29471 14.4345 1.90626 15.1638C1.62618 15.6896 1.48614 15.9526 1.59858 16.1425C1.71102 16.3324 1.96218 16.3385 2.46451 16.3506C3.45792 16.3746 4.1278 16.0955 4.65953 15.7071C4.96111 15.4868 5.1119 15.3766 5.21582 15.3639C5.31975 15.3513 5.52427 15.4347 5.93325 15.6016C6.30083 15.7516 6.72762 15.8442 7.11919 15.8699C8.25625 15.9448 9.44584 15.945 10.5852 15.8699Z" stroke="#909292" stroke-width="1.40895" stroke-linejoin="round"/>
</svg>