<svg width="32" height="33" viewBox="0 0 32 33" fill="none" xmlns="http://www.w3.org/2000/svg">
<g clip-path="url(#clip0_4542_143794)">
<rect y="0.5" width="32" height="32" fill="white"/>
<path d="M25.0031 7.25L17.1992 13.0461L18.6424 9.62647L25.0031 7.25Z" fill="#E2761B" stroke="#E2761B" stroke-width="0.25" stroke-linecap="round" stroke-linejoin="round"/>
<path d="M6.98828 7.25L14.7295 13.101L13.3569 9.62647L6.98828 7.25Z" fill="#E4761B" stroke="#E4761B" stroke-width="0.25" stroke-linecap="round" stroke-linejoin="round"/>
<path d="M22.1956 20.6855L20.1172 23.8699L24.5642 25.0934L25.8427 20.7561L22.1956 20.6855Z" fill="#E4761B" stroke="#E4761B" stroke-width="0.25" stroke-linecap="round" stroke-linejoin="round"/>
<path d="M6.16406 20.7561L7.43465 25.0934L11.8817 23.8699L9.80328 20.6855L6.16406 20.7561Z" fill="#E4761B" stroke="#E4761B" stroke-width="0.25" stroke-linecap="round" stroke-linejoin="round"/>
<path d="M11.6298 15.3049L10.3906 17.1794L14.8063 17.3755L14.6494 12.6304L11.6298 15.3049Z" fill="#E4761B" stroke="#E4761B" stroke-width="0.25" stroke-linecap="round" stroke-linejoin="round"/>
<path d="M20.36 15.3046L17.3012 12.5752L17.1992 17.3752L21.6071 17.1791L20.36 15.3046Z" fill="#E4761B" stroke="#E4761B" stroke-width="0.25" stroke-linecap="round" stroke-linejoin="round"/>
<path d="M11.8828 23.8695L14.5338 22.5753L12.2436 20.7871L11.8828 23.8695Z" fill="#E4761B" stroke="#E4761B" stroke-width="0.25" stroke-linecap="round" stroke-linejoin="round"/>
<path d="M17.457 22.5753L20.1159 23.8695L19.7472 20.7871L17.457 22.5753Z" fill="#E4761B" stroke="#E4761B" stroke-width="0.25" stroke-linecap="round" stroke-linejoin="round"/>
<path d="M20.1178 23.8698L17.459 22.5757L17.6708 24.309L17.6472 25.0384L20.1178 23.8698Z" fill="#D7C1B3" stroke="#D7C1B3" stroke-width="0.25" stroke-linecap="round" stroke-linejoin="round"/>
<path d="M11.8828 23.8698L14.3534 25.0384L14.3377 24.309L14.5338 22.5757L11.8828 23.8698Z" fill="#D7C1B3" stroke="#D7C1B3" stroke-width="0.25" stroke-linecap="round" stroke-linejoin="round"/>
<path d="M14.3915 19.642L12.1797 18.9911L13.7405 18.2773L14.3915 19.642Z" fill="#233447" stroke="#233447" stroke-width="0.25" stroke-linecap="round" stroke-linejoin="round"/>
<path d="M17.5996 19.642L18.2506 18.2773L19.8192 18.9911L17.5996 19.642Z" fill="#233447" stroke="#233447" stroke-width="0.25" stroke-linecap="round" stroke-linejoin="round"/>
<path d="M11.8812 23.8694L12.2576 20.6851L9.80273 20.7556L11.8812 23.8694Z" fill="#CD6116" stroke="#CD6116" stroke-width="0.25" stroke-linecap="round" stroke-linejoin="round"/>
<path d="M19.7402 20.6851L20.1167 23.8694L22.1951 20.7556L19.7402 20.6851Z" fill="#CD6116" stroke="#CD6116" stroke-width="0.25" stroke-linecap="round" stroke-linejoin="round"/>
<path d="M21.6071 17.1792L17.1992 17.3753L17.6071 19.6419L18.258 18.2772L19.8267 18.991L21.6071 17.1792Z" fill="#CD6116" stroke="#CD6116" stroke-width="0.25" stroke-linecap="round" stroke-linejoin="round"/>
<path d="M12.1789 18.991L13.7475 18.2772L14.3906 19.6419L14.8063 17.3753L10.3906 17.1792L12.1789 18.991Z" fill="#CD6116" stroke="#CD6116" stroke-width="0.25" stroke-linecap="round" stroke-linejoin="round"/>
<path d="M10.3906 17.1792L12.2416 20.787L12.1789 18.991L10.3906 17.1792Z" fill="#E4751F" stroke="#E4751F" stroke-width="0.25" stroke-linecap="round" stroke-linejoin="round"/>
<path d="M19.8265 18.991L19.748 20.787L21.6069 17.1792L19.8265 18.991Z" fill="#E4751F" stroke="#E4751F" stroke-width="0.25" stroke-linecap="round" stroke-linejoin="round"/>
<path d="M14.8063 17.375L14.3906 19.6417L14.9083 22.3162L15.0259 18.7946L14.8063 17.375Z" fill="#E4751F" stroke="#E4751F" stroke-width="0.25" stroke-linecap="round" stroke-linejoin="round"/>
<path d="M17.1981 17.375L16.9863 18.7868L17.0804 22.3162L17.6059 19.6417L17.1981 17.375Z" fill="#E4751F" stroke="#E4751F" stroke-width="0.25" stroke-linecap="round" stroke-linejoin="round"/>
<path d="M17.6075 19.6422L17.082 22.3167L17.4585 22.5755L19.7487 20.7873L19.8271 18.9912L17.6075 19.6422Z" fill="#F6851B" stroke="#F6851B" stroke-width="0.25" stroke-linecap="round" stroke-linejoin="round"/>
<path d="M12.1797 18.9912L12.2424 20.7873L14.5326 22.5755L14.9091 22.3167L14.3915 19.6422L12.1797 18.9912Z" fill="#F6851B" stroke="#F6851B" stroke-width="0.25" stroke-linecap="round" stroke-linejoin="round"/>
<path d="M17.6475 25.0383L17.671 24.3088L17.475 24.1363H14.5181L14.3377 24.3088L14.3534 25.0383L11.8828 23.8696L12.7456 24.5755L14.4946 25.7912H17.4985L19.2554 24.5755L20.1181 23.8696L17.6475 25.0383Z" fill="#C0AD9E" stroke="#C0AD9E" stroke-width="0.25" stroke-linecap="round" stroke-linejoin="round"/>
<path d="M17.4595 22.5752L17.083 22.3164H14.9104L14.534 22.5752L14.3379 24.3086L14.5183 24.136H17.4751L17.6712 24.3086L17.4595 22.5752Z" fill="#161616" stroke="#161616" stroke-width="0.25" stroke-linecap="round" stroke-linejoin="round"/>
<path d="M25.3335 13.4225L26.0002 10.2225L25.0041 7.25L17.459 12.85L20.3609 15.3049L24.4629 16.5049L25.3727 15.4461L24.9806 15.1637L25.608 14.5912L25.1217 14.2147L25.7492 13.7363L25.3335 13.4225Z" fill="#763D16" stroke="#763D16" stroke-width="0.25" stroke-linecap="round" stroke-linejoin="round"/>
<path d="M6 10.2225L6.66667 13.4225L6.24314 13.7363L6.87059 14.2147L6.39216 14.5912L7.01961 15.1637L6.62745 15.4461L7.52941 16.5049L11.6314 15.3049L14.5333 12.85L6.98824 7.25L6 10.2225Z" fill="#763D16" stroke="#763D16" stroke-width="0.25" stroke-linecap="round" stroke-linejoin="round"/>
<path d="M24.4637 16.5047L20.3618 15.3047L21.6088 17.1792L19.75 20.787L22.1971 20.7557H25.8441L24.4637 16.5047Z" fill="#F6851B" stroke="#F6851B" stroke-width="0.25" stroke-linecap="round" stroke-linejoin="round"/>
<path d="M11.6307 15.3047L7.52877 16.5047L6.16406 20.7557H9.80328L12.2425 20.787L10.3915 17.1792L11.6307 15.3047Z" fill="#F6851B" stroke="#F6851B" stroke-width="0.25" stroke-linecap="round" stroke-linejoin="round"/>
<path d="M17.2006 17.3755L17.4594 12.85L18.6515 9.62646H13.3574L14.5339 12.85L14.8084 17.3755L14.9025 18.8029L14.9104 22.3167H17.0829L17.0986 18.8029L17.2006 17.3755Z" fill="#F6851B" stroke="#F6851B" stroke-width="0.25" stroke-linecap="round" stroke-linejoin="round"/>
</g>
<defs>
<clipPath id="clip0_4542_143794">
<rect y="0.5" width="32" height="32" rx="6" fill="white"/>
</clipPath>
</defs>
</svg>
