<svg xmlns="http://www.w3.org/2000/svg" width="18" height="18" viewBox="0 0 18 18" fill="none">
  <path d="M5.24902 9.00049H10.249M5.24902 5.66715H7.74902" stroke="#818282" stroke-linecap="round" stroke-linejoin="round"/>
  <path d="M6.08301 15.667C6.95833 16.3917 8.01176 16.8535 9.21927 16.9327C10.1707 16.9951 11.164 16.995 12.1134 16.9327C12.4404 16.9112 12.7967 16.8343 13.1037 16.7095C13.4451 16.5707 13.6159 16.5013 13.7027 16.5118C13.7895 16.5224 13.9154 16.614 14.1672 16.7972C14.6112 17.1203 15.1706 17.3524 16.0001 17.3325C16.4195 17.3224 16.6292 17.3174 16.7231 17.1594C16.817 17.0014 16.7001 16.7827 16.4662 16.3454C16.1418 15.7388 15.9363 15.0444 16.2477 14.488C16.7841 13.6933 17.2396 12.7521 17.3062 11.7356C17.3419 11.1894 17.3419 10.6237 17.3062 10.0776C17.2618 9.40025 17.0974 8.75638 16.834 8.16699" stroke="#818282" stroke-linecap="round" stroke-linejoin="round"/>
  <path d="M9.28686 13.5726C12.2498 13.3775 14.61 11.0061 14.8042 8.02901C14.8422 7.44642 14.8422 6.84308 14.8042 6.26048C14.61 3.2834 12.2498 0.911998 9.28686 0.716869C8.27601 0.650299 7.22063 0.650434 6.21184 0.716869C3.24887 0.911998 0.888722 3.2834 0.694519 6.26048C0.656515 6.84308 0.656515 7.44642 0.694519 8.02901C0.76525 9.1133 1.24928 10.1172 1.81912 10.965C2.14998 11.5584 1.93163 12.2992 1.587 12.9462C1.33851 13.4127 1.21427 13.6459 1.31403 13.8144C1.41379 13.9829 1.63662 13.9883 2.08228 13.9991C2.96361 14.0203 3.55792 13.7728 4.02966 13.4281C4.29722 13.2327 4.431 13.1349 4.5232 13.1237C4.6154 13.1125 4.79685 13.1865 5.15969 13.3346C5.4858 13.4676 5.86445 13.5498 6.21184 13.5726C7.22063 13.6391 8.27601 13.6392 9.28686 13.5726Z" stroke="#818282" stroke-linejoin="round"/>
</svg>