<svg xmlns="http://www.w3.org/2000/svg" width="24" height="25" viewBox="0 0 24 25" fill="none">
  <g clip-path="url(#clip0_3985_150554)">
    <path d="M21.5378 24.1118H2.46223C1.54615 24.1118 0.803467 23.3692 0.803467 22.4531V3.37752C0.803467 2.46144 1.54611 1.71875 2.46223 1.71875H21.5378C22.4539 1.71875 23.1966 2.46139 23.1966 3.37752V22.4531C23.1966 23.3692 22.4539 24.1118 21.5378 24.1118Z" fill="#FFDC64"/>
    <path d="M17.3909 7.52564L19.0496 6.28158L20.7084 7.52564V1.30533C20.7084 1.0763 20.5227 0.890625 20.2937 0.890625H17.8056C17.5765 0.890625 17.3909 1.0763 17.3909 1.30533V7.52564Z" fill="#FF5050"/>
    <path d="M12 15.8197C10.3968 15.8197 9.09717 14.5201 9.09717 12.9169V8.77002C9.09717 7.16684 10.3968 5.86719 12 5.86719C13.6032 5.86719 14.9028 7.1668 14.9028 8.77002V12.9169C14.9028 14.5201 13.6032 15.8197 12 15.8197Z" fill="#AFB9D2"/>
    <path d="M12 15.82C10.3968 15.82 9.09717 14.5204 9.09717 12.9172V10.8438H14.9028V12.9172C14.9028 14.5204 13.6032 15.82 12 15.82Z" fill="#7F8499"/>
    <path d="M17.8056 0.890625C17.5765 0.890625 17.3909 1.0763 17.3909 1.30533V7.52564L19.0496 6.28158V0.890625H17.8056Z" fill="#C84146"/>
    <path d="M21.5378 1.32936H21.0971V1.30344C21.0971 0.860375 20.7367 0.5 20.2937 0.5H17.8056C17.3625 0.5 17.0021 0.860422 17.0021 1.30344V1.32936H2.46217C1.33319 1.32936 0.414673 2.24788 0.414673 3.37686V22.4525C0.414673 23.5815 1.33319 24.5 2.46217 24.5H21.5378C22.6667 24.5 23.5853 23.5815 23.5853 22.4525V3.37691C23.5853 2.24792 22.6667 1.32936 21.5378 1.32936ZM17.7797 1.30344C17.7797 1.28914 17.7913 1.27752 17.8056 1.27752H20.2937C20.308 1.27752 20.3196 1.28914 20.3196 1.30344V6.74619L19.2829 5.96867C19.2138 5.91683 19.1317 5.89091 19.0496 5.89091C18.9676 5.89091 18.8855 5.91683 18.8164 5.96867L17.7797 6.74623V1.30344ZM22.8078 22.4525C22.8078 23.1528 22.238 23.7225 21.5378 23.7225H2.46217C1.76191 23.7225 1.19219 23.1528 1.19219 22.4525V3.37691C1.19219 2.67664 1.76191 2.10692 2.46217 2.10692H17.0021V7.52375C17.0021 7.67103 17.0853 7.80566 17.2171 7.87147C17.3488 7.93737 17.5064 7.92313 17.6242 7.83477L19.0496 6.76564L20.4751 7.83477C20.5437 7.88623 20.6258 7.91253 20.7084 7.91253C20.7677 7.91253 20.8272 7.89898 20.8822 7.87147C21.0139 7.80566 21.0971 7.67103 21.0971 7.52375V2.10692H21.5378C22.238 2.10692 22.8078 2.67664 22.8078 3.37691V22.4525Z" fill="black"/>
    <path d="M16.5616 10.4528H15.2916V8.76813C15.2916 6.95312 13.815 5.47656 12 5.47656C10.1851 5.47656 8.70845 6.95317 8.70845 8.76813V10.4528H7.43846C7.22378 10.4528 7.04968 10.6269 7.04968 10.8416C7.04968 11.0563 7.22373 11.2304 7.43846 11.2304H7.46439V12.9151C7.46439 15.2851 9.29162 17.236 11.6113 17.4339V19.576H9.92659C9.7119 19.576 9.53781 19.75 9.53781 19.9647C9.53781 20.1795 9.71185 20.3535 9.92659 20.3535H14.0735C14.2882 20.3535 14.4623 20.1795 14.4623 19.9647C14.4623 19.75 14.2882 19.576 14.0735 19.576H12.3888V17.4339C14.7084 17.236 16.5357 15.2851 16.5357 12.9151V11.2304H16.5616C16.7763 11.2304 16.9504 11.0564 16.9504 10.8416C16.9504 10.6269 16.7763 10.4528 16.5616 10.4528ZM9.48596 8.76813C9.48596 7.82364 10.0097 6.99948 10.7819 6.56992V8.76813C10.7819 8.98281 10.9559 9.15691 11.1707 9.15691C11.3854 9.15691 11.5594 8.98286 11.5594 8.76813V6.29355C11.7026 6.26809 11.8497 6.25408 12.0001 6.25408C12.1504 6.25408 12.2975 6.26814 12.4407 6.29355V8.76813C12.4407 8.98281 12.6147 9.15691 12.8295 9.15691C13.0442 9.15691 13.2182 8.98286 13.2182 8.76813V6.56992C13.9903 6.99948 14.5142 7.82364 14.5142 8.76813V10.4528H9.48596V8.76813ZM9.48596 11.2303H14.5141V12.915C14.5141 14.3012 13.3862 15.4291 12 15.4291C10.6138 15.4291 9.48596 14.3012 9.48596 12.915V11.2303ZM15.7581 12.915C15.7581 14.9873 14.0723 16.6731 12 16.6731C9.92776 16.6731 8.2419 14.9873 8.2419 12.915V11.2303H8.7084V12.915C8.7084 14.73 10.185 16.2066 12 16.2066C13.8149 16.2066 15.2915 14.73 15.2915 12.915V11.2303H15.758V12.915H15.7581Z" fill="black"/>
  </g>
  <defs>
    <clipPath id="clip0_3985_150554">
      <rect width="24" height="24" fill="white" transform="translate(0 0.5)"/>
    </clipPath>
  </defs>
</svg>