<svg width="348" height="143" viewBox="0 0 348 143" fill="none" xmlns="http://www.w3.org/2000/svg">
<rect y="22.7422" width="154.954" height="121" rx="9.87755" transform="rotate(-6.89682 0 22.7422)" fill="#060B12"/>
<rect x="0.834634" y="23.3967" width="153.454" height="119.5" rx="9.12755" transform="rotate(-6.89682 0.834634 23.3967)" stroke="#2A3C46" stroke-opacity="0.7" stroke-width="1.5"/>
<g clip-path="url(#clip0_3894_50296)">
<path d="M39.3065 61.0467C40.0527 60.9564 40.5895 60.415 41.043 59.6939C41.9714 58.2177 40.0502 57.3602 39.3034 56.9167C38.5442 56.4659 37.7321 56.2568 36.9373 56.2807M35.7005 54.4093C37.0756 54.243 38.0555 52.9934 37.8891 51.6183C37.7228 50.2433 36.4732 49.2634 35.0981 49.4297" stroke="#2A3C46" stroke-opacity="0.7" stroke-width="0.963061" stroke-linecap="round"/>
<path d="M21.8297 63.1596C21.0835 63.2498 20.4331 62.852 19.8207 62.2598C18.5671 61.0476 20.2285 59.7567 20.848 59.148C21.4778 58.5292 22.2166 58.1324 22.9942 57.9662M23.2512 55.9141C21.8762 56.0804 20.6266 55.1005 20.4603 53.7255C20.2939 52.3504 21.2738 51.1008 22.6489 50.9345" stroke="#2A3C46" stroke-opacity="0.7" stroke-width="0.963061" stroke-linecap="round"/>
<path d="M26.3197 59.7017C25.3782 60.454 22.8655 62.0616 24.685 63.4728C25.5738 64.1621 26.5259 64.6169 27.6375 64.4824L33.9803 63.7152C35.0919 63.5808 35.908 62.9121 36.6069 62.0307C38.0375 60.2264 35.2139 59.2643 34.1202 58.7581C31.5554 57.5712 28.5275 57.9375 26.3197 59.7017Z" stroke="#2A3C46" stroke-opacity="0.7" stroke-width="0.963061" stroke-linecap="round" stroke-linejoin="round"/>
<path d="M32.7889 51.2206C33.0217 53.1458 31.6499 54.8951 29.7248 55.128C27.7996 55.3609 26.0502 53.989 25.8174 52.0639C25.5845 50.1388 26.9564 48.3894 28.8815 48.1565C30.8066 47.9236 32.556 49.2955 32.7889 51.2206Z" stroke="#2A3C46" stroke-opacity="0.7" stroke-width="0.963061"/>
</g>
<rect x="21.1191" y="84.2344" width="128.408" height="3.08673" rx="1.54337" transform="rotate(-6.89682 21.1191 84.2344)" fill="#2A3C46" fill-opacity="0.5"/>
<rect x="22.676" y="97.1016" width="112.357" height="3.08673" rx="1.54337" transform="rotate(-6.89682 22.676 97.1016)" fill="#2A3C46" fill-opacity="0.5"/>
<rect x="24.2327" y="109.977" width="95.6888" height="3.08673" rx="1.54337" transform="rotate(-6.89682 24.2327 109.977)" fill="#2A3C46" fill-opacity="0.5"/>
<rect x="78.7043" y="4" width="154.954" height="121" rx="9.87755" fill="#060B12"/>
<rect x="79.4543" y="4.75" width="153.454" height="119.5" rx="9.12755" stroke="#2A3C46" stroke-opacity="0.7" stroke-width="1.5"/>
<g clip-path="url(#clip1_3894_50296)">
<path d="M113.126 46.7492C113.878 46.7492 114.476 46.2762 115.013 45.6147C116.112 44.2607 114.307 43.1787 113.619 42.6488C112.919 42.1101 112.138 41.8049 111.346 41.7333M110.343 39.7269C111.728 39.7269 112.851 38.604 112.851 37.2189C112.851 35.8338 111.728 34.7109 110.343 34.7109" stroke="#2A3C46" stroke-opacity="0.7" stroke-width="0.963061" stroke-linecap="round"/>
<path d="M95.5221 46.7492C94.7704 46.7492 94.1725 46.2762 93.6357 45.6147C92.5368 44.2607 94.3411 43.1787 95.0292 42.6488C95.7288 42.1101 96.5099 41.8049 97.3018 41.7333M97.8034 39.7269C96.4183 39.7269 95.2954 38.604 95.2954 37.2189C95.2954 35.8338 96.4183 34.7109 97.8034 34.7109" stroke="#2A3C46" stroke-opacity="0.7" stroke-width="0.963061" stroke-linecap="round"/>
<path d="M100.396 43.8491C99.3705 44.4829 96.6829 45.7771 98.3198 47.3966C99.1194 48.1877 100.01 48.7535 101.13 48.7535H107.519C108.638 48.7535 109.529 48.1877 110.329 47.3966C111.965 45.7771 109.278 44.4829 108.253 43.8491C105.849 42.3628 102.799 42.3628 100.396 43.8491Z" stroke="#2A3C46" stroke-opacity="0.7" stroke-width="0.963061" stroke-linecap="round" stroke-linejoin="round"/>
<path d="M107.835 36.2143C107.835 38.1534 106.263 39.7254 104.324 39.7254C102.385 39.7254 100.813 38.1534 100.813 36.2143C100.813 34.2751 102.385 32.7031 104.324 32.7031C106.263 32.7031 107.835 34.2751 107.835 36.2143Z" stroke="#2A3C46" stroke-opacity="0.7" stroke-width="0.963061"/>
</g>
<rect x="92.2859" y="67.5859" width="128.408" height="3.08673" rx="1.54337" fill="#2A3C46" fill-opacity="0.5"/>
<rect x="92.2859" y="80.5469" width="112.357" height="3.08673" rx="1.54337" fill="#2A3C46" fill-opacity="0.5"/>
<rect x="92.2859" y="93.5156" width="95.6888" height="3.08673" rx="1.54337" fill="#2A3C46" fill-opacity="0.5"/>
<rect x="193.406" y="0.703125" width="154.954" height="122.303" rx="9.87755" transform="rotate(5.96113 193.406 0.703125)" fill="#060B12"/>
<rect x="194.074" y="1.52696" width="153.454" height="120.803" rx="9.12755" transform="rotate(5.96113 194.074 1.52696)" stroke="#2A3C46" stroke-opacity="0.7" stroke-width="1.5"/>
<g clip-path="url(#clip2_3894_50296)">
<path d="M223.202 46.8012C223.95 46.8793 224.593 46.4709 225.196 45.8688C226.43 44.6363 224.747 43.3727 224.118 42.7742C223.478 42.1657 222.733 41.7811 221.953 41.6276M221.163 39.5279C222.541 39.6717 223.774 38.6716 223.918 37.2939C224.062 35.9163 223.062 34.6829 221.684 34.5391" stroke="#2A3C46" stroke-opacity="0.7" stroke-width="0.963061" stroke-linecap="round"/>
<path d="M205.693 44.9707C204.945 44.8926 204.4 44.3601 203.935 43.6465C202.982 42.1857 204.889 41.2968 205.629 40.8413C206.38 40.3781 207.189 40.1557 207.984 40.1667M208.691 38.2233C207.314 38.0794 206.313 36.846 206.457 35.4684C206.601 34.0908 207.834 33.0906 209.212 33.2345" stroke="#2A3C46" stroke-opacity="0.7" stroke-width="0.963061" stroke-linecap="round"/>
<path d="M210.841 42.5966C209.755 43.1206 206.948 44.1287 208.408 45.9094C209.121 46.7793 209.948 47.4345 211.062 47.5508L217.416 48.2143C218.53 48.3306 219.474 47.8603 220.352 47.1566C222.148 45.7158 219.609 44.1495 218.656 43.4127C216.419 41.6848 213.386 41.368 210.841 42.5966Z" stroke="#2A3C46" stroke-opacity="0.7" stroke-width="0.963061" stroke-linecap="round" stroke-linejoin="round"/>
<path d="M219.034 35.7762C218.832 37.7048 217.105 39.1051 215.177 38.9037C213.248 38.7023 211.848 36.9755 212.049 35.0469C212.251 33.1182 213.977 31.7179 215.906 31.9193C217.835 32.1207 219.235 33.8475 219.034 35.7762Z" stroke="#2A3C46" stroke-opacity="0.7" stroke-width="0.963061"/>
</g>
<rect x="200.153" y="66.8594" width="128.408" height="3.08673" rx="1.54337" transform="rotate(5.28459 200.153 66.8594)" fill="#2A3C46" fill-opacity="0.5"/>
<rect x="198.959" y="79.7656" width="112.357" height="3.08673" rx="1.54337" transform="rotate(5.28459 198.959 79.7656)" fill="#2A3C46" fill-opacity="0.5"/>
<rect x="197.765" y="92.6797" width="95.6888" height="3.08673" rx="1.54337" transform="rotate(5.28459 197.765 92.6797)" fill="#2A3C46" fill-opacity="0.5"/>
<defs>
<clipPath id="clip0_3894_50296">
<rect width="24.0765" height="24.0765" fill="white" transform="translate(16.4487 45.625) rotate(-6.89682)"/>
</clipPath>
<clipPath id="clip1_3894_50296">
<rect width="24.0765" height="24.0765" fill="white" transform="translate(92.2859 28.6953)"/>
</clipPath>
<clipPath id="clip2_3894_50296">
<rect width="24.0765" height="24.0765" fill="white" transform="translate(204.35 26.6719) rotate(5.96113)"/>
</clipPath>
</defs>
</svg>
