<svg xmlns="http://www.w3.org/2000/svg" width="18" height="18" viewBox="0 0 18 18" fill="none">
  <path fill-rule="evenodd" clip-rule="evenodd" d="M9.32696 0.0937083C8.28873 0.0253348 7.2059 0.0254743 6.16979 0.0937083C2.89158 0.309598 0.284338 2.93251 0.0698679 6.22029C0.0300961 6.82998 0.0300961 7.46049 0.0698679 8.07019C0.14996 9.29798 0.689078 10.4003 1.2821 11.2882C1.42981 11.5773 1.36151 12.0387 1.0344 12.6528L1.01748 12.6846C0.908101 12.8898 0.79625 13.0996 0.731006 13.2805C0.661299 13.4738 0.580429 13.8043 0.775234 14.1333C0.9525 14.4327 1.23436 14.5389 1.44979 14.5802C1.62603 14.614 1.83989 14.619 2.03121 14.6235L2.06623 14.6244C3.09228 14.6491 3.82027 14.3549 4.39738 13.9333C4.48594 13.8686 4.55127 13.821 4.60212 13.7853C4.6792 13.8145 4.78097 13.8559 4.92259 13.9137C5.31581 14.0742 5.76092 14.1698 6.16979 14.1968C7.2059 14.265 8.28873 14.2651 9.32696 14.1968C12.6052 13.9809 15.2124 11.358 15.4269 8.07019C15.4667 7.46049 15.4667 6.82998 15.4269 6.22029C15.2124 2.93251 12.6052 0.309598 9.32696 0.0937083ZM5.24837 9.62581C4.90319 9.62581 4.62337 9.34599 4.62337 9.00081C4.62337 8.65564 4.90319 8.37581 5.24837 8.37581H10.2484C10.5935 8.37581 10.8734 8.65564 10.8734 9.00081C10.8734 9.34599 10.5935 9.62581 10.2484 9.62581H5.24837ZM5.24837 6.29248C4.90319 6.29248 4.62337 6.01266 4.62337 5.66748C4.62337 5.3223 4.90319 5.04248 5.24837 5.04248H7.74837C8.09355 5.04248 8.37337 5.3223 8.37337 5.66748C8.37337 6.01266 8.09355 6.29248 7.74837 6.29248H5.24837ZM9.41016 15.4445C13.319 15.1871 16.4203 12.061 16.6753 8.15197C16.7095 7.62779 16.7266 7.36571 16.8674 7.30522C16.9012 7.29072 16.9438 7.28323 16.9805 7.28535C17.1335 7.2942 17.23 7.51427 17.4228 7.95442C17.7051 8.59857 17.8813 9.30029 17.9296 10.0376C17.9672 10.611 17.9672 11.2039 17.9296 11.7773C17.8536 12.9376 17.3428 13.9773 16.7833 14.8122C16.6557 15.0639 16.7106 15.4784 17.0171 16.0516L17.0336 16.0825C17.136 16.2737 17.2426 16.4728 17.305 16.6453C17.3719 16.8302 17.4529 17.1552 17.2601 17.4796C17.0854 17.7736 16.8081 17.8766 16.6007 17.9162C16.4318 17.9484 16.2277 17.9532 16.0486 17.9574H16.0486L16.0148 17.9582C15.0413 17.9816 14.3486 17.7033 13.7992 17.3035C13.7341 17.2561 13.7016 17.2324 13.663 17.2202C13.6343 17.2111 13.6013 17.207 13.5713 17.2089C13.5308 17.2115 13.4938 17.2265 13.4197 17.2565L13.3388 17.2894C12.9649 17.4414 12.5423 17.5318 12.1541 17.5573C11.1774 17.6213 10.1568 17.6215 9.17812 17.5573C7.84972 17.4701 6.66151 16.9523 5.70615 16.1538C5.40967 15.906 5.26143 15.7822 5.25178 15.6797C5.24407 15.5979 5.2747 15.5214 5.33679 15.4675C5.41447 15.4001 5.63921 15.4149 6.08871 15.4445C7.17947 15.5163 8.31717 15.5165 9.41016 15.4445Z" fill="current"/>
</svg>