<svg xmlns="http://www.w3.org/2000/svg" width="18" height="18" viewBox="0 0 18 18" fill="none">
  <path d="M8.16602 9.83301H12.3327M5.66602 9.83301H5.6735M9.83268 13.1663H5.66602M12.3327 13.1663H12.3252" stroke="#818282" stroke-linecap="round" stroke-linejoin="round"/>
  <path d="M14 0.666504V2.33317M4 0.666504V2.33317" stroke="#818282" stroke-linecap="round" stroke-linejoin="round"/>
  <path d="M1.08301 9.2027C1.08301 5.57161 1.08301 3.75607 2.12644 2.62803C3.16987 1.5 4.84925 1.5 8.20801 1.5H9.79134C13.1501 1.5 14.8295 1.5 15.8729 2.62803C16.9163 3.75607 16.9163 5.57161 16.9163 9.2027V9.63063C16.9163 13.2617 16.9163 15.0773 15.8729 16.2053C14.8295 17.3333 13.1501 17.3333 9.79134 17.3333H8.20801C4.84925 17.3333 3.16987 17.3333 2.12644 16.2053C1.08301 15.0773 1.08301 13.2617 1.08301 9.63063V9.2027Z" stroke="#818282" stroke-linecap="round" stroke-linejoin="round"/>
  <path d="M1.5 5.6665H16.5" stroke="#818282" stroke-linecap="round" stroke-linejoin="round"/>
</svg>