<svg width="37" height="36" viewBox="0 0 37 36" fill="none" xmlns="http://www.w3.org/2000/svg">
<mask id="path-1-inside-1_3559_56270" fill="white">
<path d="M0.5 18C0.5 8.05888 8.55888 0 18.5 0C28.4411 0 36.5 8.05888 36.5 18C36.5 27.9411 28.4411 36 18.5 36C8.55888 36 0.5 27.9411 0.5 18Z"/>
</mask>
<path d="M0.5 18C0.5 8.05888 8.55888 0 18.5 0C28.4411 0 36.5 8.05888 36.5 18C36.5 27.9411 28.4411 36 18.5 36C8.55888 36 0.5 27.9411 0.5 18Z" fill="#242424"/>
<path d="M0.5 16C0.5 6.05887 8.55887 -2 18.5 -2C28.4411 -2 36.5 6.05887 36.5 16V18C36.5 9.16344 28.4411 2 18.5 2C8.55887 2 0.5 9.16344 0.5 18V16ZM36.5 36H0.5H36.5ZM0.5 36V0V36ZM36.5 0V36V0Z" fill="#383B42" fill-opacity="0.5" mask="url(#path-1-inside-1_3559_56270)"/>
<path d="M20.5 22C20.5 22 16.5 19.054 16.5 18C16.5 16.9459 20.5 14 20.5 14" stroke="#707171" stroke-width="1.5" stroke-linecap="round" stroke-linejoin="round"/>
</svg>
