<svg xmlns="http://www.w3.org/2000/svg" width="16" height="18" viewBox="0 0 16 18" fill="none">
  <path d="M3.48131 11.9012C2.30234 12.6032 -0.788863 14.0366 1.09388 15.8303C2.01359 16.7065 3.03791 17.3332 4.32572 17.3332H11.6743C12.9621 17.3332 13.9864 16.7065 14.9061 15.8303C16.7889 14.0366 13.6977 12.6032 12.5187 11.9012C9.75401 10.255 6.24599 10.255 3.48131 11.9012Z" stroke="#818282" stroke-linecap="round" stroke-linejoin="round"/>
  <path d="M11.75 4.4165C11.75 6.48757 10.0711 8.1665 8 8.1665C5.92893 8.1665 4.25 6.48757 4.25 4.4165C4.25 2.34544 5.92893 0.666504 8 0.666504C10.0711 0.666504 11.75 2.34544 11.75 4.4165Z" stroke="#818282"/>
</svg>