<svg xmlns="http://www.w3.org/2000/svg" width="18" height="19" viewBox="0 0 18 19" fill="none">
  <path d="M8.99992 17.8385C13.6023 17.8385 17.3332 14.1076 17.3332 9.50521C17.3332 4.90284 13.6023 1.17188 8.99989 1.17188C5.26852 1.17188 2.14514 3.62429 1.08325 7.00521H3.16659" stroke="#CBCDCD" stroke-width="1.25" stroke-linecap="round" stroke-linejoin="round"/>
  <path d="M8.99976 6.17188V9.50521L10.6664 11.1719" stroke="#CBCDCD" stroke-width="1.25" stroke-linecap="round" stroke-linejoin="round"/>
  <path d="M0.666504 9.50781C0.666504 9.78889 0.679175 10.0669 0.70395 10.3411M6.49984 17.8411C6.21517 17.7474 5.93709 17.6382 5.6665 17.5143M1.67433 13.6745C1.51363 13.3648 1.37027 13.0439 1.24565 12.713M3.02585 15.5966C3.28058 15.871 3.55239 16.1279 3.83946 16.3655" stroke="#CBCDCD" stroke-width="1.25" stroke-linecap="round" stroke-linejoin="round"/>
</svg>