<svg width="23" height="23" viewBox="0 0 23 23" fill="none" xmlns="http://www.w3.org/2000/svg">
<path d="M15.7104 3.26221L16.6523 4.17871C17.0731 4.58817 17.2835 4.7929 17.2095 4.96685C17.1354 5.14081 16.8379 5.14081 16.2427 5.14081H8.95284C5.22076 5.14081 2.19531 8.08457 2.19531 11.7159C2.19531 13.1129 2.64306 14.4081 3.40654 15.4731" stroke="#909292" stroke-width="1.40895" stroke-linecap="round" stroke-linejoin="round"/>
<path d="M7.46588 20.1694L6.52395 19.2529C6.10313 18.8434 5.89272 18.6387 5.96677 18.4647C6.04083 18.2908 6.33839 18.2908 6.93351 18.2908H14.2234C17.9555 18.2908 20.9809 15.347 20.9809 11.7157C20.9809 10.3187 20.5332 9.02351 19.7697 7.9585" stroke="#909292" stroke-width="1.40895" stroke-linecap="round" stroke-linejoin="round"/>
</svg>
