<svg width="28" height="28" viewBox="0 0 41 41" fill="none" xmlns="http://www.w3.org/2000/svg">
<rect x="0.5" y="0.5" width="40" height="40" rx="20" fill="#E9FBF3" fill-opacity="0.08"/>
<path d="M24.8865 11.5L25.8893 12.4757C26.3373 12.9117 26.5613 13.1296 26.4825 13.3148C26.4036 13.5 26.0868 13.5 25.4533 13.5H17.6923C13.719 13.5 10.498 16.634 10.498 20.5C10.498 21.9872 10.9747 23.3662 11.7875 24.5" stroke="#25D986" stroke-width="1.50526" stroke-linecap="round" stroke-linejoin="round"/>
<path d="M16.1096 29.5L15.1068 28.5243C14.6588 28.0883 14.4348 27.8704 14.5136 27.6852C14.5925 27.5 14.9092 27.5 15.5428 27.5H23.3038C27.2771 27.5 30.498 24.366 30.498 20.5C30.498 19.0128 30.0214 17.6338 29.2085 16.5" stroke="#25D986" stroke-width="1.50526" stroke-linecap="round" stroke-linejoin="round"/>
</svg>
