<svg xmlns="http://www.w3.org/2000/svg" width="44" height="44" viewBox="0 0 44 44" fill="none">
  <path d="M42 11.1707C42.6466 11.1707 43.1707 10.6466 43.1707 10C43.1707 9.35342 42.6466 8.82927 42 8.82927V11.1707ZM26 8.82927C25.3534 8.82927 24.8293 9.35342 24.8293 10C24.8293 10.6466 25.3534 11.1707 26 11.1707V8.82927ZM35.1707 2C35.1707 1.35342 34.6466 0.829268 34 0.829268C33.3534 0.829268 32.8293 1.35342 32.8293 2H35.1707ZM32.8293 18C32.8293 18.6466 33.3534 19.1707 34 19.1707C34.6466 19.1707 35.1707 18.6466 35.1707 18H32.8293ZM42 8.82927H34V11.1707H42V8.82927ZM34 8.82927H26V11.1707H34V8.82927ZM32.8293 2V10H35.1707V2H32.8293ZM32.8293 10V18H35.1707V10H32.8293Z" fill="#2A3C46" fill-opacity="0.8"/>
  <path d="M21 4C12.0433 4 7.56497 4 4.78249 6.78249C2 9.56497 2 14.0433 2 23C2 31.9567 2 36.435 4.78249 39.2175C7.56497 42 12.0433 42 21 42C29.9567 42 34.435 42 37.2175 39.2175C40 36.435 40 31.9567 40 23V22" stroke="#2A3C46" stroke-opacity="0.8" stroke-width="2.34146" stroke-linecap="round"/>
  <path d="M2 26.2709C3.23804 26.0911 4.48968 26.0022 5.74343 26.0053C11.0473 25.8933 16.2213 27.5459 20.3421 30.6684C24.164 33.5643 26.8495 37.5497 28 42" stroke="#2A3C46" stroke-opacity="0.8" stroke-width="2.34146" stroke-linejoin="round"/>
  <path d="M40 31.7924C37.6491 30.6017 35.2175 29.9976 32.7724 30.0001C29.069 29.9855 25.403 31.3467 22 34" stroke="#2A3C46" stroke-opacity="0.8" stroke-width="2.34146" stroke-linejoin="round"/>
</svg>