<svg xmlns="http://www.w3.org/2000/svg" width="18" height="18" viewBox="0 0 18 18" fill="none">
  <path d="M16.7642 4.95132L16.3529 4.23749C16.0418 3.69763 15.8863 3.4277 15.6217 3.32006C15.357 3.21243 15.0577 3.29736 14.4591 3.46723L13.4422 3.75365C13.0601 3.84178 12.6591 3.79178 12.3101 3.61249L12.0294 3.45051C11.7302 3.25886 11.5 2.97627 11.3726 2.64412L11.0943 1.81296C10.9113 1.26294 10.8198 0.987936 10.602 0.830638C10.3842 0.67334 10.0949 0.67334 9.51627 0.67334L8.58729 0.67334C8.00866 0.67334 7.71934 0.67334 7.50153 0.830638C7.28372 0.987936 7.19223 1.26294 7.00925 1.81296L6.73095 2.64412C6.60355 2.97627 6.37338 3.25886 6.07415 3.45051L5.79341 3.61249C5.44446 3.79178 5.0435 3.84178 4.66133 3.75365L3.64446 3.46723C3.04585 3.29736 2.74655 3.21243 2.4819 3.32006C2.21725 3.4277 2.06171 3.69763 1.75064 4.23749L1.33931 4.95132C1.04772 5.45737 0.901927 5.71039 0.930222 5.97974C0.958519 6.24909 1.1537 6.46614 1.54406 6.90026L2.40326 7.86085C2.61326 8.1267 2.76235 8.59001 2.76235 9.00654C2.76235 9.42334 2.61331 9.88652 2.40328 10.1524L1.54406 11.113C1.1537 11.5471 0.958521 11.7642 0.930224 12.0335C0.901927 12.3029 1.04773 12.5559 1.33931 13.062L1.75062 13.7758C2.0617 14.3156 2.21725 14.5856 2.4819 14.6932C2.74655 14.8008 3.04586 14.7159 3.64448 14.546L4.66129 14.2596C5.04353 14.1714 5.44456 14.2215 5.79356 14.4008L6.07426 14.5628C6.37343 14.7545 6.60354 15.037 6.73092 15.3691L7.00925 16.2004C7.19223 16.7504 7.28372 17.0254 7.50153 17.1827C7.71934 17.34 8.00866 17.34 8.58729 17.34H9.51627C10.0949 17.34 10.3842 17.34 10.602 17.1827C10.8198 17.0254 10.9113 16.7504 11.0943 16.2004L11.3726 15.3691C11.5 15.037 11.7301 14.7545 12.0293 14.5628L12.31 14.4008C12.659 14.2215 13.06 14.1714 13.4423 14.2596L14.4591 14.546C15.0577 14.7159 15.357 14.8008 15.6217 14.6932C15.8863 14.5856 16.0419 14.3156 16.3529 13.7758L16.3529 13.7758L16.7642 13.062C17.0558 12.5559 17.2016 12.3029 17.1733 12.0335C17.145 11.7642 16.9499 11.5471 16.5595 11.113L15.7003 10.1524C15.4903 9.88652 15.3412 9.42334 15.3412 9.00654C15.3412 8.59001 15.4903 8.1267 15.7003 7.86085L16.5595 6.90026C16.9499 6.46614 17.145 6.24909 17.1733 5.97974C17.2016 5.71039 17.0558 5.45737 16.7642 4.95132Z" stroke="#636464" stroke-linecap="round"/>
  <path d="M11.9329 9.00016C11.9329 10.611 10.6271 11.9168 9.01628 11.9168C7.40545 11.9168 6.09961 10.611 6.09961 9.00016C6.09961 7.38933 7.40545 6.0835 9.01628 6.0835C10.6271 6.0835 11.9329 7.38933 11.9329 9.00016Z" stroke="#636464"/>
</svg>