<svg width="65" height="65" viewBox="0 0 65 65" fill="none" xmlns="http://www.w3.org/2000/svg">
<rect x="0.5" y="0.5" width="64" height="64" rx="32" fill="#A5A5A5" fill-opacity="0.05"/>
<path d="M29.3008 34.4661C29.5274 34.8372 29.7963 35.1884 30.1074 35.5122C32.0395 37.523 34.9842 37.8373 37.2329 36.4552C37.6495 36.1991 38.0423 35.8848 38.4003 35.5122L43.5833 30.118C45.8733 27.7347 45.8733 23.8705 43.5833 21.4872C41.2933 19.1039 37.5805 19.1039 35.2905 21.4872L34.1488 22.6754" stroke="#79C4EC" stroke-width="2.4" stroke-linecap="round"/>
<path d="M30.8537 42.3236L29.7116 43.5122C27.4216 45.8955 23.7087 45.8955 21.4187 43.5122C19.1287 41.1289 19.1287 37.2648 21.4187 34.8814L26.6018 29.4872C28.8918 27.1039 32.6047 27.1039 34.8947 29.4872C35.2058 29.811 35.4746 30.1621 35.7012 30.5331" stroke="#79C4EC" stroke-width="2.4" stroke-linecap="round"/>
</svg>
