<svg xmlns="http://www.w3.org/2000/svg" width="16" height="16" viewBox="0 0 16 16" fill="none">
  <path d="M13.5535 2.9045C12.5042 2.41354 11.3941 2.0647 10.2526 1.86719C10.1104 2.12425 9.9443 2.47 9.82974 2.74506C8.59899 2.56 7.37956 2.56 6.17143 2.74506C6.05693 2.47006 5.88706 2.12425 5.74356 1.86719C4.60093 2.06479 3.48991 2.41452 2.44012 2.90706C0.351121 6.06387 -0.215192 9.14218 0.0679331 12.1769C1.4535 13.2116 2.79624 13.8402 4.11637 14.2515C4.44445 13.8003 4.73447 13.3227 4.98343 12.8234C4.50945 12.643 4.05251 12.4206 3.61806 12.1589C3.73239 12.0742 3.84403 11.9859 3.95281 11.8941C6.58543 13.1255 9.44593 13.1255 12.0472 11.8941C12.1564 11.9853 12.268 12.0736 12.3819 12.1589C11.9467 12.4213 11.4889 12.6441 11.014 12.8247C11.2644 13.326 11.5539 13.8041 11.8811 14.2527C13.2024 13.8415 14.5464 13.2129 15.932 12.1769C16.2642 8.65893 15.3645 5.60887 13.5535 2.9045ZM5.34212 10.3106C4.55181 10.3106 3.90368 9.57281 3.90368 8.67437C3.90368 7.77594 4.53799 7.03687 5.34212 7.03687C6.14631 7.03687 6.79437 7.77462 6.78056 8.67437C6.78181 9.57281 6.14631 10.3106 5.34212 10.3106ZM10.6578 10.3106C9.86749 10.3106 9.21943 9.57281 9.21943 8.67437C9.21943 7.77594 9.85368 7.03687 10.6578 7.03687C11.462 7.03687 12.1101 7.77462 12.0962 8.67437C12.0962 9.57281 11.462 10.3106 10.6578 10.3106Z" fill="#5865F2"/>
  <path d="M13.5535 2.9045C12.5042 2.41354 11.3941 2.0647 10.2526 1.86719C10.1104 2.12425 9.9443 2.47 9.82974 2.74506C8.59899 2.56 7.37956 2.56 6.17143 2.74506C6.05693 2.47006 5.88706 2.12425 5.74356 1.86719C4.60093 2.06479 3.48991 2.41452 2.44012 2.90706C0.351121 6.06387 -0.215192 9.14218 0.0679331 12.1769C1.4535 13.2116 2.79624 13.8402 4.11637 14.2515C4.44445 13.8003 4.73447 13.3227 4.98343 12.8234C4.50945 12.643 4.05251 12.4206 3.61806 12.1589C3.73239 12.0742 3.84403 11.9859 3.95281 11.8941C6.58543 13.1255 9.44593 13.1255 12.0472 11.8941C12.1564 11.9853 12.268 12.0736 12.3819 12.1589C11.9467 12.4213 11.4889 12.6441 11.014 12.8247C11.2644 13.326 11.5539 13.8041 11.8811 14.2527C13.2024 13.8415 14.5464 13.2129 15.932 12.1769C16.2642 8.65893 15.3645 5.60887 13.5535 2.9045ZM5.34212 10.3106C4.55181 10.3106 3.90368 9.57281 3.90368 8.67437C3.90368 7.77594 4.53799 7.03687 5.34212 7.03687C6.14631 7.03687 6.79437 7.77462 6.78056 8.67437C6.78181 9.57281 6.14631 10.3106 5.34212 10.3106ZM10.6578 10.3106C9.86749 10.3106 9.21943 9.57281 9.21943 8.67437C9.21943 7.77594 9.85368 7.03687 10.6578 7.03687C11.462 7.03687 12.1101 7.77462 12.0962 8.67437C12.0962 9.57281 11.462 10.3106 10.6578 10.3106Z" fill="#5865F2"/>
</svg>