<svg xmlns="http://www.w3.org/2000/svg" width="24" height="25" viewBox="0 0 24 25" fill="none">
  <path d="M19.65 19.7016C19.65 20.0316 19.38 20.3016 19.05 20.3016H5.85C5.52 20.3016 5.25 20.0316 5.25 19.7016V6.20156C5.25 5.87156 5.52 5.60156 5.85 5.60156H19.05C19.38 5.60156 19.65 5.87156 19.65 6.20156V19.7016Z" fill="#F7E6A3"/>
  <path d="M19.05 20.5969H5.84995C5.33995 20.5969 4.94995 20.2069 4.94995 19.6969V6.19687C4.94995 5.68687 5.33995 5.29688 5.84995 5.29688H19.05C19.56 5.29688 19.95 5.68687 19.95 6.19687V19.6969C19.95 20.2069 19.56 20.5969 19.05 20.5969ZM5.84995 5.89687C5.66995 5.89687 5.54995 6.01687 5.54995 6.19687V19.6969C5.54995 19.8769 5.66995 19.9969 5.84995 19.9969H19.05C19.23 19.9969 19.35 19.8769 19.35 19.6969V6.19687C19.35 6.01687 19.23 5.89687 19.05 5.89687H5.84995Z" fill="#231C1C"/>
  <path d="M3.44995 12.5031C3.44995 12.7395 3.49651 12.9736 3.58697 13.192C3.67743 13.4103 3.81001 13.6088 3.97716 13.7759C4.1443 13.9431 4.34273 14.0757 4.56112 14.1661C4.77951 14.2566 5.01357 14.3031 5.24995 14.3031C5.48633 14.3031 5.7204 14.2566 5.93878 14.1661C6.15717 14.0757 6.3556 13.9431 6.52274 13.7759C6.68989 13.6088 6.82248 13.4103 6.91293 13.192C7.00339 12.9736 7.04995 12.7395 7.04995 12.5031C7.04995 12.2667 7.00339 12.0327 6.91293 11.8143C6.82248 11.5959 6.68989 11.3975 6.52274 11.2303C6.3556 11.0632 6.15717 10.9306 5.93878 10.8401C5.7204 10.7497 5.48633 10.7031 5.24995 10.7031C5.01357 10.7031 4.77951 10.7497 4.56112 10.8401C4.34273 10.9306 4.1443 11.0632 3.97716 11.2303C3.81001 11.3975 3.67743 11.5959 3.58697 11.8143C3.49651 12.0327 3.44995 12.2667 3.44995 12.5031Z" fill="#E42710"/>
  <path d="M5.2499 14.5984C4.0799 14.5984 3.1499 13.6684 3.1499 12.4984C3.1499 11.3284 4.0799 10.3984 5.2499 10.3984C6.4199 10.3984 7.3499 11.3284 7.3499 12.4984C7.3499 13.6684 6.4199 14.5984 5.2499 14.5984ZM5.2499 10.9984C4.4099 10.9984 3.7499 11.6584 3.7499 12.4984C3.7499 13.3384 4.4099 13.9984 5.2499 13.9984C6.0899 13.9984 6.7499 13.3384 6.7499 12.4984C6.7499 11.6584 6.0899 10.9984 5.2499 10.9984Z" fill="#231C1C"/>
  <path d="M17.8501 12.5031C17.8501 12.9805 18.0397 13.4384 18.3773 13.7759C18.7149 14.1135 19.1727 14.3031 19.6501 14.3031C20.1275 14.3031 20.5853 14.1135 20.9229 13.7759C21.2605 13.4384 21.4501 12.9805 21.4501 12.5031C21.4501 12.0257 21.2605 11.5679 20.9229 11.2303C20.5853 10.8928 20.1275 10.7031 19.6501 10.7031C19.1727 10.7031 18.7149 10.8928 18.3773 11.2303C18.0397 11.5679 17.8501 12.0257 17.8501 12.5031Z" fill="#E42710"/>
  <path d="M19.65 14.5984C18.48 14.5984 17.55 13.6684 17.55 12.4984C17.55 11.3284 18.48 10.3984 19.65 10.3984C20.82 10.3984 21.75 11.3284 21.75 12.4984C21.75 13.6684 20.82 14.5984 19.65 14.5984ZM19.65 10.9984C18.81 10.9984 18.15 11.6584 18.15 12.4984C18.15 13.3384 18.81 13.9984 19.65 13.9984C20.49 13.9984 21.15 13.3384 21.15 12.4984C21.15 11.6584 20.49 10.9984 19.65 10.9984Z" fill="#231C1C"/>
  <path d="M17.85 16.6969C17.85 17.0269 17.58 17.2969 17.25 17.2969H7.65005C7.32005 17.2969 7.05005 17.0269 7.05005 16.6969V8.89688C7.05005 8.56688 7.32005 8.29688 7.65005 8.29688H17.25C17.58 8.29688 17.85 8.56688 17.85 8.89688V16.6969Z" fill="#6FB0BE"/>
  <path d="M17.25 17.6H7.65C7.14 17.6 6.75 17.21 6.75 16.7V8.9C6.75 8.39 7.14 8 7.65 8H17.25C17.76 8 18.15 8.39 18.15 8.9V16.7C18.15 17.21 17.76 17.6 17.25 17.6ZM7.65 8.6C7.47 8.6 7.35 8.72 7.35 8.9V16.7C7.35 16.88 7.47 17 7.65 17H17.25C17.43 17 17.55 16.88 17.55 16.7V8.9C17.55 8.72 17.43 8.6 17.25 8.6H7.65Z" fill="#231C1C"/>
  <path d="M10.6499 12.5031C10.6499 12.9805 10.8395 13.4384 11.1771 13.7759C11.5147 14.1135 11.9725 14.3031 12.4499 14.3031C12.9273 14.3031 13.3851 14.1135 13.7227 13.7759C14.0603 13.4384 14.2499 12.9805 14.2499 12.5031C14.2499 12.0257 14.0603 11.5679 13.7227 11.2303C13.3851 10.8928 12.9273 10.7031 12.4499 10.7031C11.9725 10.7031 11.5147 10.8928 11.1771 11.2303C10.8395 11.5679 10.6499 12.0257 10.6499 12.5031Z" fill="#E42710"/>
  <path d="M12.4501 14.5984C11.2801 14.5984 10.3501 13.6684 10.3501 12.4984C10.3501 11.3284 11.2801 10.3984 12.4501 10.3984C13.6201 10.3984 14.5501 11.3284 14.5501 12.4984C14.5501 13.6684 13.6201 14.5984 12.4501 14.5984ZM12.4501 10.9984C11.6101 10.9984 10.9501 11.6584 10.9501 12.4984C10.9501 13.3384 11.6101 13.9984 12.4501 13.9984C13.2901 13.9984 13.9501 13.3384 13.9501 12.4984C13.9501 11.6584 13.2901 10.9984 12.4501 10.9984Z" fill="#231C1C"/>
  <path d="M21.45 12.5016H3.44995L4.64995 7.10156H20.25L21.45 12.5016Z" fill="#E42710"/>
  <path d="M21.45 12.7969H3.44995C3.35995 12.7969 3.26995 12.7669 3.20995 12.6769C3.14995 12.6169 3.11995 12.5269 3.14995 12.4369L4.34995 7.03688C4.37995 6.88688 4.49995 6.79688 4.64995 6.79688H20.25C20.4 6.79688 20.52 6.88688 20.55 7.03688L21.75 12.4369C21.78 12.5269 21.75 12.6169 21.69 12.6769C21.63 12.7669 21.54 12.7969 21.45 12.7969ZM3.80995 12.1969H21.06L19.98 7.39688H4.88995L3.80995 12.1969Z" fill="#231C1C"/>
  <path d="M7.05005 12.5031C7.05005 12.9805 7.23969 13.4384 7.57726 13.7759C7.91482 14.1135 8.37266 14.3031 8.85005 14.3031C9.32744 14.3031 9.78528 14.1135 10.1228 13.7759C10.4604 13.4384 10.65 12.9805 10.65 12.5031C10.65 12.0257 10.4604 11.5679 10.1228 11.2303C9.78528 10.8928 9.32744 10.7031 8.85005 10.7031C8.37266 10.7031 7.91482 10.8928 7.57726 11.2303C7.23969 11.5679 7.05005 12.0257 7.05005 12.5031Z" fill="#FAF1C7"/>
  <path d="M8.85 14.5984C7.68 14.5984 6.75 13.6684 6.75 12.4984C6.75 11.3284 7.68 10.3984 8.85 10.3984C10.02 10.3984 10.95 11.3284 10.95 12.4984C10.95 13.6684 10.02 14.5984 8.85 14.5984ZM8.85 10.9984C8.01 10.9984 7.35 11.6584 7.35 12.4984C7.35 13.3384 8.01 13.9984 8.85 13.9984C9.69 13.9984 10.35 13.3384 10.35 12.4984C10.35 11.6584 9.69 10.9984 8.85 10.9984Z" fill="#231C1C"/>
  <path d="M14.25 12.5031C14.25 12.9805 14.4396 13.4384 14.7772 13.7759C15.1148 14.1135 15.5726 14.3031 16.05 14.3031C16.5274 14.3031 16.9852 14.1135 17.3228 13.7759C17.6604 13.4384 17.85 12.9805 17.85 12.5031C17.85 12.0257 17.6604 11.5679 17.3228 11.2303C16.9852 10.8928 16.5274 10.7031 16.05 10.7031C15.5726 10.7031 15.1148 10.8928 14.7772 11.2303C14.4396 11.5679 14.25 12.0257 14.25 12.5031Z" fill="#FAF1C7"/>
  <path d="M16.05 14.5984C14.88 14.5984 13.95 13.6684 13.95 12.4984C13.95 11.3284 14.88 10.3984 16.05 10.3984C17.22 10.3984 18.15 11.3284 18.15 12.4984C18.15 13.6684 17.22 14.5984 16.05 14.5984ZM16.05 10.9984C15.21 10.9984 14.55 11.6584 14.55 12.4984C14.55 13.3384 15.21 13.9984 16.05 13.9984C16.89 13.9984 17.55 13.3384 17.55 12.4984C17.55 11.6584 16.89 10.9984 16.05 10.9984Z" fill="#231C1C"/>
  <path d="M10.65 12.5016H7.05005L7.65005 7.10156H10.95L10.65 12.5016Z" fill="#FAF1C7"/>
  <path d="M10.6501 12.7969H7.05008C6.96008 12.7969 6.87008 12.7669 6.84008 12.7069C6.78008 12.6469 6.75008 12.5569 6.78008 12.4669L7.38008 7.06688C7.41008 6.91688 7.53008 6.79688 7.68008 6.79688H10.9801C11.0701 6.79688 11.1301 6.82688 11.1901 6.88688C11.2501 6.94688 11.2801 7.03688 11.2801 7.09688L10.9801 12.4969C10.9501 12.6769 10.8001 12.7969 10.6501 12.7969ZM7.38008 12.1969H10.3501L10.6201 7.39688H7.92008L7.38008 12.1969Z" fill="#231C1C"/>
  <path d="M17.85 12.5016H14.25L13.95 7.10156H17.25L17.85 12.5016Z" fill="#FAF1C7"/>
  <path d="M17.8499 12.7981H14.2499C14.0999 12.7981 13.9499 12.6781 13.9499 12.5281L13.6499 7.12813C13.6499 7.03813 13.6799 6.97813 13.7399 6.91813C13.7999 6.85813 13.8899 6.82812 13.9499 6.82812H17.2499C17.3999 6.82812 17.5199 6.94813 17.5499 7.09813L18.1499 12.4981C18.1499 12.5881 18.1199 12.6781 18.0899 12.7381C18.0599 12.7981 17.9399 12.7981 17.8499 12.7981ZM14.5199 12.1981H17.4899L16.9499 7.39813H14.2499L14.5199 12.1981Z" fill="#231C1C"/>
</svg>