<svg xmlns="http://www.w3.org/2000/svg" width="20" height="18" viewBox="0 0 20 18" fill="none">
  <path d="M9.98729 12.1243L12.9585 15.5024C14.0594 16.754 14.6098 17.3798 15.186 17.2275C15.7621 17.0751 15.9597 16.2515 16.3548 14.6043L18.5466 5.46708C19.1552 2.93013 19.4595 1.66166 18.7831 1.036C18.1067 0.410344 16.9343 0.875812 14.5896 1.80675L3.71118 6.12578C1.83583 6.87035 0.898158 7.24263 0.838628 7.88244C0.832539 7.94788 0.832438 8.01378 0.838326 8.07924C0.895895 8.71925 1.83243 9.09465 3.70549 9.84546C4.55417 10.1857 4.97851 10.3557 5.28276 10.6815C5.31696 10.7181 5.34985 10.7561 5.38136 10.7952C5.66169 11.1435 5.78131 11.6006 6.02056 12.5149L6.4683 14.2259C6.70111 15.1156 6.81752 15.5604 7.12239 15.621C7.42727 15.6817 7.69271 15.3128 8.2236 14.5751L9.98729 12.1243ZM9.98729 12.1243L9.69597 11.8207C9.36443 11.4751 9.19866 11.3024 9.19866 11.0877C9.19866 10.873 9.36443 10.7002 9.69597 10.3547L12.9712 6.94125" stroke="#607BDE" stroke-width="1.375" stroke-linecap="round" stroke-linejoin="round"/>
</svg>