<svg width="21" height="20" viewBox="0 0 21 20" fill="none" xmlns="http://www.w3.org/2000/svg">
<g style="mix-blend-mode:luminosity" clip-path="url(#clip0_2715_100607)">
<mask id="mask0_2715_100607" style="mask-type:luminance" maskUnits="userSpaceOnUse" x="0" y="-1" width="21" height="21">
<path d="M0.384766 9.999C0.384766 15.5219 4.86189 19.999 10.3848 19.999C15.9077 19.999 20.3848 15.5219 20.3848 9.999C20.3848 4.47611 15.9077 -0.00101662 10.3848 -0.00101662C4.86189 -0.00101662 0.384766 4.47611 0.384766 9.999Z" fill="white"/>
</mask>
<g mask="url(#mask0_2715_100607)">
<path d="M0.384766 9.999C0.384766 15.5219 4.86189 19.999 10.3848 19.999C15.9077 19.999 20.3848 15.5219 20.3848 9.999C20.3848 4.47611 15.9077 -0.00101662 10.3848 -0.00101662C4.86189 -0.00101662 0.384766 4.47611 0.384766 9.999Z" fill="url(#paint0_linear_2715_100607)"/>
</g>
<mask id="mask1_2715_100607" style="mask-type:luminance" maskUnits="userSpaceOnUse" x="-1" y="-2" width="23" height="24">
<path d="M-0.962891 -1.35035H21.6632V21.1836H-0.962891V-1.35035Z" fill="white"/>
</mask>
<g mask="url(#mask1_2715_100607)">
<path d="M7.1543 10.7293L8.34074 14.0132C8.34074 14.0132 8.48905 14.3203 8.64794 14.3203C8.80684 14.3203 11.1691 11.8627 11.1691 11.8627L13.7963 6.78852L7.19667 9.88174L7.1543 10.7293Z" fill="#C8DAEA"/>
</g>
<mask id="mask2_2715_100607" style="mask-type:luminance" maskUnits="userSpaceOnUse" x="-1" y="-2" width="23" height="24">
<path d="M-0.962891 -1.35035H21.6632V21.1836H-0.962891V-1.35035Z" fill="white"/>
</mask>
<g mask="url(#mask2_2715_100607)">
<path d="M8.7269 11.5751L8.49911 13.9956C8.49911 13.9956 8.40377 14.7372 9.14529 13.9956C9.88682 13.2541 10.5966 12.6821 10.5966 12.6821" fill="#A9C6D8"/>
</g>
<mask id="mask3_2715_100607" style="mask-type:luminance" maskUnits="userSpaceOnUse" x="-1" y="-2" width="23" height="24">
<path d="M-0.962891 -1.35035H21.6632V21.1836H-0.962891V-1.35035Z" fill="white"/>
</mask>
<g mask="url(#mask3_2715_100607)">
<path d="M7.17505 10.8484L4.73479 10.0532C4.73479 10.0532 4.44352 9.935 4.53708 9.66661C4.5564 9.61127 4.5953 9.56423 4.71182 9.48296C5.25267 9.1061 14.7207 5.70295 14.7207 5.70295C14.7207 5.70295 14.988 5.61295 15.1461 5.67278C15.2183 5.70016 15.2644 5.73109 15.3032 5.84397C15.3174 5.88507 15.3255 5.97245 15.3244 6.05939C15.3235 6.12211 15.3159 6.18016 15.3103 6.27126C15.2527 7.20177 13.5273 14.1457 13.5273 14.1457C13.5273 14.1457 13.424 14.552 13.0541 14.5659C12.9192 14.5709 12.7555 14.5436 12.5597 14.3752C11.8339 13.7508 9.3248 12.0646 8.77048 11.6938C8.73912 11.673 8.73031 11.6458 8.72497 11.6192C8.71717 11.5803 8.75887 11.5316 8.75887 11.5316C8.75887 11.5316 13.1277 7.64813 13.244 7.24067C13.2529 7.20906 13.2191 7.19346 13.1733 7.20711C12.8831 7.31389 7.85293 10.4902 7.29785 10.841C7.26539 10.8615 7.17437 10.8483 7.17437 10.8483" fill="white"/>
</g>
</g>
<defs>
<linearGradient id="paint0_linear_2715_100607" x1="10.3848" y1="19.9989" x2="10.3848" y2="-0.00110136" gradientUnits="userSpaceOnUse">
<stop stop-color="#1D93D2"/>
<stop offset="1" stop-color="#38B0E3"/>
</linearGradient>
<clipPath id="clip0_2715_100607">
<rect width="20" height="20" fill="white" transform="translate(0.384766)"/>
</clipPath>
</defs>
</svg>
