<svg xmlns="http://www.w3.org/2000/svg" width="25" height="18" viewBox="0 0 25 18" fill="none">
  <g clip-path="url(#clip0_4906_75000)">
    <path d="M9.53104 17.068C16.2478 17.068 19.9209 11.5014 19.9209 6.67424C19.9209 6.51615 19.9177 6.35878 19.9106 6.20207C20.6253 5.68473 21.2421 5.04417 21.7321 4.31044C21.0778 4.60143 20.3737 4.79729 19.6351 4.8856C20.389 4.43336 20.9678 3.71791 21.2409 2.8651C20.524 3.29049 19.7398 3.59037 18.9221 3.75181C18.2557 3.04175 17.307 2.59766 16.2566 2.59766C14.24 2.59766 12.6047 4.2336 12.6047 6.25015C12.6047 6.53684 12.6368 6.81561 12.6994 7.0831C9.66446 6.93033 6.97327 5.47671 5.17218 3.2664C4.84779 3.82389 4.67716 4.45748 4.67773 5.10247C4.67773 6.36985 5.32238 7.48866 6.30275 8.14323C5.72285 8.12551 5.15568 7.96882 4.64893 7.68633C4.64839 7.70167 4.64839 7.71661 4.64839 7.733C4.64839 9.5021 5.90709 10.9792 7.57798 11.3139C7.26417 11.3994 6.94034 11.4426 6.61509 11.4424C6.3802 11.4424 6.15128 11.4193 5.9288 11.3766C6.39369 12.828 7.74175 13.8843 9.34003 13.9138C8.0902 14.8937 6.51579 15.4774 4.80464 15.4774C4.51355 15.4777 4.2227 15.4608 3.93359 15.4268C5.54971 16.4631 7.46869 17.0677 9.53122 17.0677" fill="#1DA1F2"/>
  </g>
  <defs>
    <clipPath id="clip0_4906_75000">
      <rect width="24" height="16.1664" fill="white" transform="translate(0.359375 0.916992)"/>
    </clipPath>
  </defs>
</svg>