<svg xmlns="http://www.w3.org/2000/svg" width="73" height="73" viewBox="0 0 73 73" fill="none">
  <path d="M61.7102 7.71015C60.7217 8.69867 60.7217 10.3014 61.7102 11.2899C62.6987 12.2784 64.3014 12.2784 65.2899 11.2899L61.7102 7.71015ZM72.04 4.53987C73.0285 3.55135 73.0285 1.94865 72.04 0.960131C71.0514 -0.028387 69.4487 -0.028387 68.4602 0.960131L72.04 4.53987ZM68.4602 0.960131L61.7102 7.71015L65.2899 11.2899L72.04 4.53987L68.4602 0.960131Z" fill="#909292"/>
  <path d="M61.8014 35.6964L60.0116 33.9066L60.0116 33.9066L61.8014 35.6964ZM52.0023 38.1462L53.7922 36.3564L52.0023 38.1462ZM59.3517 38.1462L61.1415 39.9361L61.1415 39.9361L59.3517 38.1462ZM34.8539 13.6484L33.064 11.8586L33.064 11.8586L34.8539 13.6484ZM34.8539 20.9978L33.064 22.7876L34.8539 20.9978ZM37.3036 11.1987L39.0935 12.9885L39.0935 12.9885L37.3036 11.1987ZM35.5138 9.40879L33.064 11.8586L36.6437 15.4383L39.0935 12.9885L35.5138 9.40879ZM33.064 22.7876L50.2125 39.9361L53.7922 36.3564L36.6437 19.2079L33.064 22.7876ZM61.1415 39.9361L63.5913 37.4863L60.0116 33.9066L57.5618 36.3564L61.1415 39.9361ZM63.5913 37.4863C71.3447 29.7329 71.3447 17.1622 63.5913 9.40879L60.0116 12.9885C65.7879 18.7649 65.7879 28.1302 60.0116 33.9066L63.5913 37.4863ZM39.0935 12.9885C44.8699 7.21217 54.2352 7.21217 60.0116 12.9885L63.5913 9.40879C55.8379 1.65539 43.2672 1.65539 35.5138 9.40879L39.0935 12.9885ZM36.6437 19.2079C35.8692 18.4333 35.6628 17.7866 35.6564 17.341C35.6503 16.9124 35.8226 16.2595 36.6437 15.4383L33.064 11.8586C31.5084 13.4142 30.5645 15.3197 30.5944 17.4134C30.6241 19.4903 31.6062 21.3298 33.064 22.7876L36.6437 19.2079ZM57.5618 36.3564C56.7872 37.1309 56.1405 37.3373 55.6949 37.3437C55.2662 37.3498 54.6134 37.1775 53.7922 36.3564L50.2125 39.9361C51.7681 41.4917 53.6736 42.4356 55.7673 42.4057C57.8442 42.376 59.6837 41.3939 61.1415 39.9361L57.5618 36.3564Z" fill="#909292"/>
  <path d="M11.2898 65.2901C12.2783 64.3015 12.2783 62.6988 11.2898 61.7103C10.3012 60.7218 8.69855 60.7218 7.71003 61.7103L11.2898 65.2901ZM0.960008 68.4603C-0.0285091 69.4489 -0.0285091 71.0516 0.960009 72.0401C1.94853 73.0286 3.55123 73.0286 4.53975 72.0401L0.960008 68.4603ZM7.71003 61.7103L0.960008 68.4603L4.53975 72.0401L11.2898 65.2901L7.71003 61.7103Z" fill="#909292"/>
  <path d="M38.1461 52.0024L36.3562 53.7923L38.1461 52.0024ZM13.6483 34.854L11.8584 33.0641L11.8584 33.0641L13.6483 34.854ZM20.9977 34.854L22.7875 33.0641L20.9977 34.854ZM11.1985 37.3038L12.9884 39.0936L12.9884 39.0936L11.1985 37.3038ZM12.9884 39.0936L15.4382 36.6439L11.8584 33.0641L9.40867 35.5139L12.9884 39.0936ZM19.2078 36.6439L36.3562 53.7923L39.936 50.2126L22.7875 33.0641L19.2078 36.6439ZM36.3562 57.5619L33.9065 60.0117L37.4862 63.5914L39.936 61.1416L36.3562 57.5619ZM33.9065 60.0117C28.1301 65.7881 18.7648 65.7881 12.9884 60.0117L9.40867 63.5914C17.1621 71.3448 29.7328 71.3448 37.4862 63.5914L33.9065 60.0117ZM9.40867 35.5139C1.65527 43.2673 1.65527 55.838 9.40867 63.5914L12.9884 60.0117C7.21205 54.2353 7.21205 44.87 12.9884 39.0936L9.40867 35.5139ZM22.7875 33.0641C21.3297 31.6063 19.4902 30.6243 17.4133 30.5945C15.3196 30.5646 13.414 31.5085 11.8584 33.0641L15.4382 36.6439C16.2593 35.8227 16.9122 35.6504 17.3409 35.6565C17.7864 35.6629 18.4332 35.8693 19.2078 36.6439L22.7875 33.0641ZM39.936 61.1416C41.3938 59.6838 42.3758 57.8443 42.4056 55.7675C42.4355 53.6737 41.4916 51.7682 39.936 50.2126L36.3562 53.7923C37.1774 54.6135 37.3497 55.2664 37.3436 55.695C37.3372 56.1406 37.1308 56.7873 36.3562 57.5619L39.936 61.1416Z" fill="#909292"/>
  <path d="M29.6476 26.2727C28.6591 27.2612 28.6591 28.8639 29.6476 29.8524C30.6361 30.841 32.2389 30.841 33.2274 29.8524L29.6476 26.2727ZM38.2899 24.7899C39.2784 23.8014 39.2784 22.1987 38.2899 21.2102C37.3014 20.2217 35.6987 20.2217 34.7101 21.2102L38.2899 24.7899ZM43.1477 39.7727C42.1592 40.7613 42.1592 42.364 43.1477 43.3525C44.1362 44.341 45.7389 44.341 46.7274 43.3525L43.1477 39.7727ZM51.7899 38.29C52.7784 37.3015 52.7784 35.6987 51.7899 34.7102C50.8014 33.7217 49.1987 33.7217 48.2102 34.7102L51.7899 38.29ZM33.2274 29.8524L38.2899 24.7899L34.7101 21.2102L29.6476 26.2727L33.2274 29.8524ZM46.7274 43.3525L51.7899 38.29L48.2102 34.7102L43.1477 39.7727L46.7274 43.3525Z" fill="#909292"/>
</svg>