<svg width="36" height="36" viewBox="0 0 36 36" fill="none" xmlns="http://www.w3.org/2000/svg">
<path fill-rule="evenodd" clip-rule="evenodd" d="M23.55 16.0499C24.15 15.4499 24.15 14.5499 23.55 13.9499C22.95 13.3499 22.05 13.3499 21.45 13.9499L16.5 18.8999L14.55 16.9499C13.95 16.3499 13.05 16.3499 12.45 16.9499C11.85 17.5499 11.85 18.4499 12.45 19.0499L15.45 22.0499C16.05 22.6499 16.95 22.6499 17.55 22.0499L23.55 16.0499ZM18 1.49991C16.2 1.49991 14.55 2.24991 13.5 3.59991C13.05 4.04991 12.9 4.19991 12.75 4.49991C12.6 4.49991 12.6 4.49991 12.6 4.49991C12.45 4.49991 12.3 4.49991 12 4.49991H10.5C9 4.49991 7.5 5.09991 6.3 6.29991C5.25 7.49991 4.65 8.99991 4.65 10.4999V11.9999C4.65 12.2999 4.65 12.4499 4.65 12.5999C4.65 12.5999 4.5 12.5999 4.5 12.7499C4.2 12.8999 4.05 13.0499 3.6 13.4999C2.25 14.5499 1.5 16.1999 1.5 17.9999C1.5 19.7999 2.25 21.4499 3.6 22.4999C4.05 22.7999 4.2 23.0999 4.5 23.2499L4.65 23.3999C4.65 23.5499 4.65 23.6999 4.65 23.9999V25.4999C4.65 26.9999 5.25 28.4999 6.45 29.6999C7.5 30.7499 9 31.3499 10.5 31.3499H12C12.3 31.3499 12.45 31.3499 12.6 31.3499C12.6 31.3499 12.6 31.4999 12.75 31.4999C12.9 31.6499 13.2 31.9499 13.5 32.3999C14.55 33.7499 16.2 34.4999 18 34.4999C19.8 34.4999 21.45 33.7499 22.5 32.3999C22.8 31.9499 23.1 31.7999 23.25 31.4999L23.4 31.3499C23.55 31.3499 23.7 31.3499 24 31.3499H25.5C27 31.3499 28.5 30.7499 29.7 29.5499C30.9 28.3499 31.5 26.8499 31.5 25.3499V23.8499C31.5 23.5499 31.5 23.3999 31.5 23.2499C31.5 23.2499 31.65 23.2499 31.65 23.0999C31.8 22.9499 32.1 22.6499 32.55 22.3499C33.9 21.2999 34.65 19.6499 34.65 17.8499C34.65 16.0499 33.9 14.3999 32.55 13.3499C32.1 13.0499 31.95 12.7499 31.65 12.5999L31.5 12.4499C31.5 12.2999 31.5 12.1499 31.5 11.8499V10.4999C31.5 8.99991 30.9 7.49991 29.7 6.29991C28.5 5.24991 27 4.64991 25.5 4.64991H24C23.7 4.64991 23.55 4.64991 23.4 4.64991C23.4 4.64991 23.4 4.49991 23.25 4.49991C23.1 4.34991 22.8 4.04991 22.5 3.59991C21.45 2.24991 19.8 1.49991 18 1.49991Z" fill="#1089FF"/>
</svg>
