<svg width="32" height="32" viewBox="0 0 32 32" fill="none" xmlns="http://www.w3.org/2000/svg">
<rect y="-0.0078125" width="32" height="32" rx="16" fill="#F0F7FA" fill-opacity="0.05"/>
<g clip-path="url(#clip0_5108_37794)">
<path d="M18 17.9883C18 18.5406 18.4477 18.9883 19 18.9883C19.5523 18.9883 20 18.5406 20 17.9883C20 17.436 19.5523 16.9883 19 16.9883C18.4477 16.9883 18 17.436 18 17.9883Z" stroke="#79C4EC"/>
<path d="M18.0025 13.1902C14.3841 12.9394 11.4031 12.4025 10 11.9883V18.0292C10 19.3588 10 20.0236 10.4131 20.5658C10.8261 21.108 11.3928 21.2612 12.5262 21.5674C14.3575 22.0622 16.2823 22.3569 18.0071 22.5255C19.7946 22.7001 20.6884 22.7874 21.3442 22.1881C22 21.5888 22 20.626 22 18.7005V17.358C22 15.4881 22 14.5531 21.462 13.9729C20.9239 13.3926 19.9501 13.3251 18.0025 13.1902Z" stroke="#79C4EC" stroke-linecap="round" stroke-linejoin="round"/>
<path d="M19.7505 13.3242C20.0023 12.3754 20.2302 10.6497 19.5513 9.79283C19.121 9.24973 18.4815 9.30191 17.8545 9.35706C14.5586 9.64693 12.2303 10.2358 10.9287 10.6358C10.369 10.8078 10 11.3544 10 11.9645" stroke="#79C4EC" stroke-linejoin="round"/>
</g>
<defs>
<clipPath id="clip0_5108_37794">
<rect width="16" height="16" fill="white" transform="translate(8 7.99219)"/>
</clipPath>
</defs>
</svg>
