<svg xmlns="http://www.w3.org/2000/svg" width="32" height="33" viewBox="0 0 32 33" fill="none">
  <g clip-path="url(#clip0_4542_143799)">
    <rect y="0.5" width="32" height="32" rx="6" fill="url(#paint0_radial_4542_143799)"/>
    <path d="M10.0469 12.8578C13.2656 9.71406 18.4906 9.71406 21.7094 12.8578L22.0969 13.2391C22.2594 13.3953 22.2594 13.6516 22.0969 13.8078L20.7719 15.1016C20.6906 15.1828 20.5594 15.1828 20.4781 15.1016L19.9469 14.5828C17.6969 12.3891 14.0594 12.3891 11.8094 14.5828L11.2406 15.1391C11.1594 15.2203 11.0281 15.2203 10.9469 15.1391L9.62187 13.8453C9.45937 13.6891 9.45937 13.4328 9.62187 13.2766L10.0469 12.8578ZM24.4531 15.5328L25.6344 16.6828C25.7969 16.8391 25.7969 17.0953 25.6344 17.2516L20.3156 22.4453C20.1531 22.6016 19.8906 22.6016 19.7344 22.4453L15.9594 18.7578C15.9219 18.7203 15.8531 18.7203 15.8156 18.7578L12.0406 22.4453C11.8781 22.6016 11.6156 22.6016 11.4594 22.4453L6.12187 17.2516C5.95938 17.0953 5.95938 16.8391 6.12187 16.6828L7.30312 15.5328C7.46562 15.3766 7.72813 15.3766 7.88438 15.5328L11.6594 19.2203C11.6969 19.2578 11.7656 19.2578 11.8031 19.2203L15.5781 15.5328C15.7406 15.3766 16.0031 15.3766 16.1594 15.5328L19.9344 19.2203C19.9719 19.2578 20.0406 19.2578 20.0781 19.2203L23.8531 15.5328C24.0281 15.3766 24.2906 15.3766 24.4531 15.5328Z" fill="white"/>
  </g>
  <defs>
    <radialGradient id="paint0_radial_4542_143799" cx="0" cy="0" r="1" gradientUnits="userSpaceOnUse" gradientTransform="translate(9.91821e-05 16.5005) scale(32)">
      <stop stop-color="#5D9DF6"/>
      <stop offset="1" stop-color="#006FFF"/>
    </radialGradient>
    <clipPath id="clip0_4542_143799">
      <rect width="32" height="32" fill="white" transform="translate(0 0.5)"/>
    </clipPath>
  </defs>
</svg>