<svg width="86" height="86" viewBox="0 0 86 86" fill="none" xmlns="http://www.w3.org/2000/svg">
<rect x="3.75" y="1.28418" width="78.5" height="78.5" rx="5.65" stroke="#262D2D" stroke-width="1.5"/>
<g filter="url(#filter0_d_368_1324)">
<path d="M48.9932 21.0481C48.8938 20.7417 48.6765 20.4876 48.3898 20.3414C48.1026 20.195 47.7696 20.1689 47.4631 20.2685L42.3833 21.9192C41.7456 22.1265 41.3963 22.8115 41.6037 23.4492L41.8576 24.2309L28.9361 33.7223L23.839 35.3784C23.5327 35.4779 23.2785 35.6951 23.1323 35.9819C22.9861 36.2688 22.9599 36.6022 23.0595 36.9085L26.1565 46.4383C26.3232 46.9514 26.7992 47.2776 27.311 47.2776C27.4355 47.2776 27.5619 47.2583 27.6866 47.2178L32.7829 45.5618L35.4013 45.5755C35.9272 48.0584 38.1355 49.9274 40.7725 49.9274C43.3895 49.9274 45.5833 48.0864 46.1306 45.632L48.8161 45.6461L49.07 46.4279C49.1694 46.7343 49.3865 46.9884 49.6735 47.1346C49.8458 47.2224 50.0349 47.2669 50.2248 47.2669C50.3511 47.2669 50.4778 47.2472 50.5999 47.2075L55.6799 45.5569C56.3176 45.3497 56.6668 44.6647 56.4596 44.0269L48.9932 21.0481ZM28.0907 44.5329L25.7444 37.3126L28.7176 36.3465L31.0635 43.5668L28.0907 44.5329ZM40.7724 47.4989C39.4914 47.4989 38.3934 46.7077 37.937 45.589L43.5967 45.6188C43.1332 46.7221 42.0422 47.4989 40.7724 47.4989ZM33.4771 43.1368L32.2001 39.2064L30.923 35.2759L42.6477 26.6637L46.2433 37.7295L48.0252 43.2136L33.4771 43.1368ZM51.0042 44.5227L50.8551 44.064L50.8544 44.0613L47.6464 34.1881L44.2885 23.8535L47.0588 22.9531L53.7745 43.6222L51.0042 44.5227Z" fill="#E1B47E"/>
<path d="M53.081 26.9507C53.2578 27.0407 53.4459 27.0833 53.6314 27.0833C54.0734 27.0833 54.4997 26.841 54.7142 26.4201L56.8936 22.1443C57.1983 21.5469 56.9608 20.8156 56.3633 20.5111C55.7659 20.2067 55.0346 20.4439 54.7301 21.0414L52.5507 25.3172C52.2461 25.9148 52.4836 26.6461 53.081 26.9507Z" fill="#E1B47E"/>
<path d="M62.2082 38.4974L57.9317 36.319C57.3341 36.0148 56.603 36.2523 56.2986 36.8499C55.9941 37.4474 56.2319 38.1786 56.8293 38.4829L61.1058 40.6613C61.2824 40.7512 61.4705 40.7938 61.6559 40.7938C62.0979 40.7938 62.5244 40.5514 62.7389 40.1305C63.0434 39.533 62.8057 38.8019 62.2082 38.4974Z" fill="#E1B47E"/>
<path d="M56.0676 31.4531C56.2343 31.9662 56.7103 32.2924 57.2221 32.2924C57.3466 32.2924 57.473 32.2731 57.5977 32.2326L62.1614 30.7496C62.7989 30.5424 63.1481 29.8574 62.9407 29.2195C62.7335 28.5816 62.0485 28.2332 61.4106 28.44L56.847 29.923C56.2094 30.1304 55.8603 30.8154 56.0676 31.4531Z" fill="#E1B47E"/>
</g>
<defs>
<filter id="filter0_d_368_1324" x="0.777779" y="11.3201" width="84.4444" height="74.1627" filterUnits="userSpaceOnUse" color-interpolation-filters="sRGB">
<feFlood flood-opacity="0" result="BackgroundImageFix"/>
<feColorMatrix in="SourceAlpha" type="matrix" values="0 0 0 0 0 0 0 0 0 0 0 0 0 0 0 0 0 0 127 0" result="hardAlpha"/>
<feOffset dy="13.3333"/>
<feGaussianBlur stdDeviation="11.1111"/>
<feComposite in2="hardAlpha" operator="out"/>
<feColorMatrix type="matrix" values="0 0 0 0 0.956076 0 0 0 0 0.560401 0 0 0 0 0.0855903 0 0 0 0.4 0"/>
<feBlend mode="normal" in2="BackgroundImageFix" result="effect1_dropShadow_368_1324"/>
<feBlend mode="normal" in="SourceGraphic" in2="effect1_dropShadow_368_1324" result="shape"/>
</filter>
</defs>
</svg>
