<svg width="85" height="96" viewBox="0 0 85 96" fill="none" xmlns="http://www.w3.org/2000/svg">
<rect x="2.73828" y="0.75" width="78.5" height="78.5" rx="5.65" stroke="#262D2D" stroke-width="1.5"/>
<g filter="url(#filter0_d_368_1266)">
<path d="M59.6284 36.1575C60.0818 34.8106 60.2386 33.3838 60.0884 31.9724C59.9381 30.561 59.4842 29.1974 58.7571 27.9728C57.6791 26.1219 56.033 24.6564 54.0562 23.7878C52.0794 22.9191 49.874 22.6921 47.758 23.1395C46.5558 21.8205 45.0229 20.8366 43.3133 20.2869C41.6037 19.7371 39.7776 19.6408 38.0183 20.0075C36.259 20.3742 34.6284 21.1911 33.2905 22.3762C31.9525 23.5612 30.9543 25.0726 30.3959 26.7587C28.9862 27.0438 27.6544 27.6225 26.4896 28.456C25.3247 29.2895 24.3537 30.3586 23.6413 31.592C22.5515 33.4399 22.0858 35.5817 22.3114 37.7079C22.5369 39.834 23.4422 41.8344 24.8962 43.4196C24.4411 44.7658 24.2827 46.1924 24.4316 47.6039C24.5805 49.0153 25.0332 50.3791 25.7596 51.6041C26.839 53.4557 28.4865 54.9215 30.4647 55.7902C32.4429 56.6588 34.6496 56.8855 36.7668 56.4376C37.7219 57.4985 38.8954 58.3462 40.2091 58.9241C41.5227 59.5021 42.9463 59.7969 44.3846 59.7889C46.5535 59.7909 48.6669 59.113 50.4198 57.8531C52.1726 56.5931 53.4743 54.8164 54.1368 52.7793C55.5463 52.4936 56.8779 51.9147 58.0427 51.0812C59.2075 50.2478 60.1786 49.1788 60.8914 47.9458C61.9683 46.1006 62.426 43.9668 62.1992 41.8495C61.9723 39.7323 61.0725 37.7398 59.6284 36.1575ZM44.3846 57.1709C42.6084 57.1737 40.8878 56.5596 39.5246 55.4363L39.7644 55.3023L47.8379 50.7053C48.0388 50.589 48.2057 50.4232 48.322 50.2241C48.4383 50.0251 48.5001 49.7995 48.5014 49.5698V38.3416L51.9144 40.2893C51.9313 40.2977 51.9459 40.31 51.9571 40.325C51.9682 40.3401 51.9756 40.3575 51.9786 40.376V49.6803C51.9744 51.6656 51.1729 53.5685 49.7497 54.9723C48.3264 56.3762 46.3974 57.1667 44.3846 57.1709ZM28.0617 50.2953C27.1709 48.778 26.851 46.9994 27.1584 45.2724L27.3983 45.4144L35.4798 50.0114C35.6798 50.1272 35.9074 50.1882 36.1393 50.1882C36.3711 50.1882 36.5988 50.1272 36.7987 50.0114L46.6709 44.3973V48.2846C46.6699 48.3048 46.6644 48.3244 46.6547 48.3422C46.645 48.3599 46.6313 48.3753 46.6148 48.3871L38.4373 53.0393C36.6922 54.0309 34.6194 54.299 32.674 53.7845C30.7287 53.27 29.0698 52.0151 28.0617 50.2953ZM25.9355 32.9483C26.8324 31.4213 28.2483 30.2565 29.9323 29.6603V39.1223C29.9292 39.3509 29.9884 39.5761 30.1037 39.7744C30.219 39.9727 30.3861 40.1369 30.5877 40.2498L40.4118 45.8403L36.9986 47.7878C36.9801 47.7974 36.9595 47.8025 36.9386 47.8025C36.9177 47.8025 36.8971 47.7974 36.8786 47.7878L28.7172 43.1436C26.9754 42.1476 25.7046 40.5114 25.1832 38.5931C24.6618 36.6748 24.9323 34.6309 25.9355 32.909V32.9483ZM53.977 39.3746L44.1209 33.729L47.5262 31.789C47.5446 31.7793 47.5652 31.7743 47.5861 31.7743C47.607 31.7743 47.6276 31.7793 47.6461 31.789L55.8075 36.4411C57.0554 37.1514 58.0727 38.1971 58.7406 39.4563C59.4086 40.7155 59.6996 42.1361 59.5798 43.5523C59.4599 44.9685 58.9341 46.3218 58.0638 47.4543C57.1934 48.5868 56.0145 49.4518 54.6645 49.9481V40.4861C54.6574 40.2579 54.5903 40.0355 54.4697 39.8406C54.3492 39.6457 54.1795 39.4852 53.977 39.3746ZM57.3743 34.3361L57.1344 34.1941L49.0689 29.5578C48.8678 29.4414 48.6387 29.38 48.4054 29.38C48.1722 29.38 47.9431 29.4414 47.7419 29.5578L37.8781 35.1718V31.2847C37.876 31.2649 37.8793 31.2449 37.8878 31.2269C37.8962 31.2089 37.9094 31.1934 37.926 31.1822L46.0874 26.5378C47.3383 25.827 48.7685 25.4822 50.2107 25.5438C51.6529 25.6053 53.0475 26.0706 54.2315 26.8853C55.4154 27.7 56.3398 28.8304 56.8964 30.1442C57.4529 31.4581 57.6188 32.9011 57.3745 34.3045L57.3743 34.3361ZM36.0152 41.2273L32.6022 39.2876C32.5851 39.2775 32.5705 39.2638 32.5594 39.2474C32.5483 39.2311 32.541 39.2126 32.538 39.1931V29.9127C32.5399 28.489 32.9526 27.0952 33.7279 25.8943C34.5032 24.6935 35.6091 23.7352 36.9162 23.1314C38.2233 22.5277 39.6777 22.3034 41.1092 22.485C42.5408 22.6665 43.8904 23.2463 45.0002 24.1565L44.7602 24.2907L36.6869 28.8873C36.4859 29.0036 36.3191 29.1694 36.2028 29.3685C36.0864 29.5675 36.0246 29.793 36.0234 30.0228L36.0152 41.2273ZM37.8698 37.285L42.2662 34.7853L46.6709 37.285V42.284L42.2822 44.7835L37.8779 42.284L37.8698 37.285Z" fill="#74AA9C"/>
</g>
<defs>
<filter id="filter0_d_368_1266" x="0.033638" y="10.9002" width="84.4444" height="84.4444" filterUnits="userSpaceOnUse" color-interpolation-filters="sRGB">
<feFlood flood-opacity="0" result="BackgroundImageFix"/>
<feColorMatrix in="SourceAlpha" type="matrix" values="0 0 0 0 0 0 0 0 0 0 0 0 0 0 0 0 0 0 127 0" result="hardAlpha"/>
<feOffset dy="13.3333"/>
<feGaussianBlur stdDeviation="11.1111"/>
<feComposite in2="hardAlpha" operator="out"/>
<feColorMatrix type="matrix" values="0 0 0 0 0.362188 0 0 0 0 0.987813 0 0 0 0 0.825613 0 0 0 0.25 0"/>
<feBlend mode="normal" in2="BackgroundImageFix" result="effect1_dropShadow_368_1266"/>
<feBlend mode="normal" in="SourceGraphic" in2="effect1_dropShadow_368_1266" result="shape"/>
</filter>
</defs>
</svg>
