<svg xmlns="http://www.w3.org/2000/svg" width="68" height="69" viewBox="0 0 68 69" fill="none">
  <g filter="url(#filter0_d_3081_52195)">
    <path d="M46.1608 16.1591C46.4782 15.2163 46.5879 14.2175 46.4828 13.2295C46.3776 12.2415 46.0599 11.287 45.5509 10.4298C44.7962 9.13414 43.644 8.10833 42.2602 7.50027C40.8765 6.89221 39.3327 6.73331 37.8515 7.04649C37.01 6.12315 35.937 5.43447 34.7402 5.04964C33.5435 4.66481 32.2652 4.59736 31.0337 4.85407C29.8022 5.11078 28.6608 5.68261 27.7242 6.51214C26.7877 7.34166 26.0889 8.39967 25.698 9.5799C24.7112 9.7795 23.779 10.1846 22.9636 10.768C22.1482 11.3515 21.4685 12.0999 20.9698 12.9632C20.207 14.2567 19.8809 15.756 20.0389 17.2443C20.1968 18.7327 20.8304 20.1329 21.8482 21.2426C21.5297 22.1849 21.4188 23.1835 21.523 24.1715C21.6272 25.1596 21.9442 26.1142 22.4526 26.9717C23.2082 28.2678 24.3614 29.2939 25.7462 29.9019C27.1309 30.51 28.6756 30.6687 30.1577 30.3551C30.8262 31.0978 31.6477 31.6912 32.5673 32.0957C33.4868 32.5003 34.4833 32.7066 35.4901 32.7011C37.0083 32.7024 38.4877 32.2279 39.7147 31.346C40.9417 30.464 41.8529 29.2203 42.3167 27.7943C43.3033 27.5944 44.2354 27.1891 45.0508 26.6057C45.8661 26.0223 46.5459 25.274 47.0449 24.4109C47.7987 23.1193 48.1191 21.6256 47.9603 20.1435C47.8015 18.6614 47.1717 17.2667 46.1608 16.1591ZM35.4901 30.8685C34.2467 30.8704 33.0423 30.4405 32.0881 29.6542L32.2559 29.5604L37.9074 26.3425C38.0481 26.2611 38.1649 26.1451 38.2463 26.0057C38.3277 25.8664 38.371 25.7085 38.3719 25.5477V17.688L40.761 19.0513C40.7728 19.0572 40.783 19.0658 40.7909 19.0764C40.7987 19.0869 40.8038 19.0991 40.806 19.112V25.625C40.803 27.0148 40.2419 28.3468 39.2457 29.3295C38.2494 30.3122 36.899 30.8655 35.4901 30.8685ZM24.0641 26.0555C23.4405 24.9934 23.2166 23.7484 23.4318 22.5395L23.5997 22.6389L29.2568 25.8568C29.3967 25.9379 29.5561 25.9806 29.7184 25.9806C29.8807 25.9806 30.04 25.9379 30.18 25.8568L37.0905 21.9269V24.6481C37.0899 24.6622 37.086 24.6759 37.0792 24.6884C37.0724 24.7008 37.0628 24.7115 37.0512 24.7198L31.327 27.9763C30.1054 28.6705 28.6544 28.8581 27.2927 28.498C25.931 28.1378 24.7698 27.2594 24.0641 26.0555ZM22.5757 13.9127C23.2036 12.8437 24.1947 12.0284 25.3735 11.6111V18.2344C25.3714 18.3945 25.4128 18.5521 25.4935 18.6909C25.5742 18.8297 25.6912 18.9447 25.8323 19.0237L32.7092 22.937L30.3199 24.3003C30.307 24.307 30.2926 24.3106 30.2779 24.3106C30.2633 24.3106 30.2489 24.307 30.2359 24.3003L24.523 21.0494C23.3036 20.3522 22.4141 19.2068 22.0491 17.864C21.6841 16.5212 21.8735 15.0905 22.5757 13.8851V13.9127ZM42.2048 18.4111L35.3055 14.4591L37.6892 13.1011C37.7021 13.0943 37.7166 13.0908 37.7312 13.0908C37.7458 13.0908 37.7602 13.0943 37.7732 13.1011L43.4862 16.3576C44.3597 16.8548 45.0718 17.5868 45.5393 18.4682C46.0069 19.3497 46.2106 20.3441 46.1267 21.3354C46.0428 22.3268 45.6748 23.2741 45.0656 24.0669C44.4563 24.8596 43.631 25.4651 42.686 25.8125V19.1891C42.6811 19.0294 42.6341 18.8736 42.5497 18.7372C42.4653 18.6008 42.3465 18.4885 42.2048 18.4111ZM44.5829 14.8841L44.415 14.7847L38.7692 11.5393C38.6283 11.4578 38.468 11.4148 38.3047 11.4148C38.1414 11.4148 37.9811 11.4578 37.8402 11.5393L30.9355 15.4691V12.7481C30.9341 12.7343 30.9364 12.7203 30.9423 12.7077C30.9482 12.695 30.9575 12.6842 30.9691 12.6763L36.6821 9.42531C37.5577 8.92775 38.5588 8.68639 39.5684 8.72947C40.5779 8.77254 41.5542 9.09826 42.3829 9.66854C43.2117 10.2388 43.8587 11.0301 44.2483 11.9498C44.638 12.8695 44.754 13.8796 44.583 14.862L44.5829 14.8841ZM29.6316 19.7079L27.2424 18.3502C27.2305 18.3431 27.2203 18.3335 27.2125 18.322C27.2047 18.3106 27.1996 18.2976 27.1975 18.284V11.7877C27.1988 10.7911 27.4877 9.81546 28.0304 8.97486C28.5732 8.13426 29.3473 7.46344 30.2623 7.04082C31.1772 6.61819 32.1953 6.46124 33.1974 6.58831C34.1994 6.71538 35.1441 7.12122 35.921 7.75838L35.7531 7.8523L30.1017 11.07C29.9611 11.1513 29.8443 11.2674 29.7628 11.4068C29.6814 11.5461 29.6381 11.704 29.6372 11.8648L29.6316 19.7079ZM30.9297 16.9483L34.0072 15.1985L37.0905 16.9483V20.4476L34.0185 22.1972L30.9354 20.4476L30.9297 16.9483Z" fill="#79C4EC"/>
  </g>
  <defs>
    <filter id="filter0_d_3081_52195" x="0" y="0.701169" width="68" height="68" filterUnits="userSpaceOnUse" color-interpolation-filters="sRGB">
      <feFlood flood-opacity="0" result="BackgroundImageFix"/>
      <feColorMatrix in="SourceAlpha" type="matrix" values="0 0 0 0 0 0 0 0 0 0 0 0 0 0 0 0 0 0 127 0" result="hardAlpha"/>
      <feOffset dy="16"/>
      <feGaussianBlur stdDeviation="10"/>
      <feComposite in2="hardAlpha" operator="out"/>
      <feColorMatrix type="matrix" values="0 0 0 0 0.456424 0 0 0 0 0.687181 0 0 0 0 0.70191 0 0 0 0.15 0"/>
      <feBlend mode="normal" in2="BackgroundImageFix" result="effect1_dropShadow_3081_52195"/>
      <feBlend mode="normal" in="SourceGraphic" in2="effect1_dropShadow_3081_52195" result="shape"/>
    </filter>
  </defs>
</svg>