<svg width="57" height="58" viewBox="0 0 57 58" fill="none" xmlns="http://www.w3.org/2000/svg">
<g filter="url(#filter0_d_947_9060)">
<path d="M30.7717 17.7064C31.1718 16.0237 29.7046 14.5565 28.022 14.9566C27.232 15.1516 26.5856 15.798 26.3907 16.5881C25.9906 18.2708 27.4577 19.738 29.1403 19.3378C29.9406 19.1429 30.587 18.4965 30.7717 17.7064Z" fill="#A05ED3"/>
<path d="M22.4533 24.5102C22.2686 24.5102 22.0737 24.4384 21.9301 24.305C19.9396 22.4582 18.8008 19.8521 18.8008 17.1433C18.8008 11.7464 23.192 7.35498 28.5887 7.35498C33.9855 7.35498 38.3768 11.7464 38.3768 17.1433C38.3768 19.8726 37.2789 22.3966 35.2885 24.2743C34.9807 24.5615 34.4882 24.5513 34.2009 24.2435C33.9137 23.9357 33.9239 23.4432 34.2317 23.1559C35.9144 21.5758 36.8378 19.4519 36.8378 17.1536C36.8378 12.6083 33.1339 8.90429 28.5887 8.90429C24.0436 8.90429 20.3398 12.6083 20.3398 17.1536C20.3398 19.4724 21.2734 21.6066 22.9766 23.1867C23.2844 23.474 23.3049 23.9664 23.0176 24.2743C22.8637 24.4282 22.6585 24.5102 22.4533 24.5102Z" fill="#A05ED3"/>
<path d="M32.6893 21.7696C32.5046 21.7696 32.3097 21.6978 32.166 21.5644C31.8582 21.2771 31.8377 20.7846 32.1352 20.4768C32.9868 19.5739 33.4588 18.3837 33.4588 17.1525C33.4588 14.4642 31.2734 12.289 28.5955 12.289C25.9177 12.289 23.7324 14.4745 23.7324 17.1525C23.7324 18.394 24.2043 19.5739 25.0559 20.4768C25.3432 20.7846 25.3329 21.2771 25.0251 21.5644C24.7173 21.8619 24.2248 21.8414 23.9376 21.5336C22.8192 20.3434 22.1934 18.7838 22.1934 17.1525C22.1934 13.6229 25.0661 10.75 28.5955 10.75C32.125 10.75 34.9978 13.6229 34.9978 17.1525C34.9978 18.7838 34.3822 20.3434 33.2536 21.5336C33.0997 21.6875 32.8945 21.7696 32.6893 21.7696Z" fill="#A05ED3"/>
<path d="M26.843 23.1661L25.3655 25.0027C24.1959 26.4699 25.2424 28.6451 27.1098 28.6451H30.0544C31.9319 28.6451 32.9785 26.4699 31.7986 25.013L30.3211 23.1764C29.4388 22.0477 27.7356 22.0477 26.843 23.1661Z" fill="#A05ED3"/>
</g>
<defs>
<filter id="filter0_d_947_9060" x="0.67293" y="0.104622" width="55.8299" height="57.5418" filterUnits="userSpaceOnUse" color-interpolation-filters="sRGB">
<feFlood flood-opacity="0" result="BackgroundImageFix"/>
<feColorMatrix in="SourceAlpha" type="matrix" values="0 0 0 0 0 0 0 0 0 0 0 0 0 0 0 0 0 0 127 0" result="hardAlpha"/>
<feOffset dy="10.8755"/>
<feGaussianBlur stdDeviation="9.06295"/>
<feComposite in2="hardAlpha" operator="out"/>
<feColorMatrix type="matrix" values="0 0 0 0 0.830267 0 0 0 0 0.530278 0 0 0 0 0.836389 0 0 0 0.25 0"/>
<feBlend mode="normal" in2="BackgroundImageFix" result="effect1_dropShadow_947_9060"/>
<feBlend mode="normal" in="SourceGraphic" in2="effect1_dropShadow_947_9060" result="shape"/>
</filter>
</defs>
</svg>
