<svg width="40" height="40" viewBox="0 0 40 40" fill="none" xmlns="http://www.w3.org/2000/svg">
<path fill-rule="evenodd" clip-rule="evenodd" d="M13.752 11.25C13.752 9.5924 14.4104 8.00268 15.5825 6.83058C16.7546 5.65848 18.3444 5 20.002 5C21.6596 5 23.2493 5.65848 24.4214 6.83058C25.5935 8.00268 26.252 9.5924 26.252 11.25C26.252 12.9076 25.5935 14.4973 24.4214 15.6694C23.2493 16.8415 21.6596 17.5 20.002 17.5C18.3444 17.5 16.7546 16.8415 15.5825 15.6694C14.4104 14.4973 13.752 12.9076 13.752 11.25ZM26.252 16.25C26.252 14.9239 26.7787 13.6521 27.7164 12.7145C28.6541 11.7768 29.9259 11.25 31.252 11.25C32.578 11.25 33.8498 11.7768 34.7875 12.7145C35.7252 13.6521 36.252 14.9239 36.252 16.25C36.252 17.5761 35.7252 18.8479 34.7875 19.7855C33.8498 20.7232 32.578 21.25 31.252 21.25C29.9259 21.25 28.6541 20.7232 27.7164 19.7855C26.7787 18.8479 26.252 17.5761 26.252 16.25ZM3.75195 16.25C3.75195 14.9239 4.27874 13.6521 5.21642 12.7145C6.1541 11.7768 7.42587 11.25 8.75196 11.25C10.078 11.25 11.3498 11.7768 12.2875 12.7145C13.2252 13.6521 13.752 14.9239 13.752 16.25C13.752 17.5761 13.2252 18.8479 12.2875 19.7855C11.3498 20.7232 10.078 21.25 8.75196 21.25C7.42587 21.25 6.1541 20.7232 5.21642 19.7855C4.27874 18.8479 3.75195 17.5761 3.75195 16.25ZM10.5186 25.195C11.5352 23.6017 12.9371 22.2904 14.5947 21.3824C16.2522 20.4744 18.112 19.9989 20.002 20C21.585 19.9986 23.1505 20.3315 24.596 20.9769C26.0414 21.6224 27.3343 22.5659 28.3898 23.7456C29.4454 24.9253 30.24 26.3147 30.7214 27.8227C31.2028 29.3308 31.3604 30.9235 31.1836 32.4967C31.162 32.6921 31.0946 32.8797 30.9869 33.0442C30.8792 33.2087 30.7341 33.3454 30.5636 33.4433C27.3496 35.2875 23.7075 36.2554 20.002 36.25C16.1603 36.25 12.552 35.23 9.44029 33.4433C9.26977 33.3454 9.12476 33.2087 9.01703 33.0442C8.9093 32.8797 8.84189 32.6921 8.82029 32.4967C8.54038 29.941 9.13939 27.3663 10.5186 25.1967V25.195Z" fill="#79C4EC"/>
<path d="M8.47014 23.7568C6.82639 26.2941 6.06056 29.3007 6.29014 32.3152C5.28931 32.1634 4.30498 31.9179 3.35013 31.5818L3.15847 31.5152C2.98746 31.4545 2.83772 31.3455 2.72738 31.2014C2.61704 31.0574 2.55085 30.8844 2.5368 30.7035L2.52013 30.5018C2.45281 29.6651 2.55473 28.8234 2.81981 28.0269C3.08489 27.2304 3.5077 26.4955 4.06301 25.866C4.61832 25.2365 5.29475 24.7253 6.05193 24.3629C6.80912 24.0006 7.63155 23.7944 8.47014 23.7568ZM33.7101 32.3152C33.9397 29.3007 33.1739 26.2941 31.5301 23.7568C32.3687 23.7944 33.1912 24.0006 33.9483 24.3629C34.7055 24.7253 35.382 25.2365 35.9373 25.866C36.4926 26.4955 36.9154 27.2304 37.1805 28.0269C37.4455 28.8234 37.5475 29.6651 37.4801 30.5018L37.4635 30.7035C37.4491 30.8841 37.3828 31.0567 37.2725 31.2005C37.1621 31.3442 37.0126 31.4529 36.8418 31.5135L36.6501 31.5802C35.7051 31.9135 34.7235 32.1618 33.7101 32.3152Z" fill="#79C4EC"/>
</svg>
