<svg width="125" height="20" viewBox="0 0 125 20" fill="none" xmlns="http://www.w3.org/2000/svg">
<path d="M16.69 4.19479H22.3911V20H16.69V13.0909H5.70105V20H0V4.19479H5.70105V9.97498H16.69V4.19479Z" fill="#F2F1F1"/>
<path d="M5.1692 11.2905H17.2205V16.5761H5.1692V11.2905Z" fill="#F2F1F1"/>
<path d="M4.54054 0.707207C4.54054 0.316627 4.86506 0 5.26538 0H17.5877C17.988 0 18.3125 0.316627 18.3125 0.707207V5.12725C18.3125 5.51783 17.988 5.83446 17.5877 5.83446H5.26538C4.86506 5.83446 4.54054 5.51783 4.54054 5.12725V0.707207Z" fill="#F2F1F1"/>
<path d="M25.4717 15.0372V7.3021H28.1101V14.406C28.1101 14.9588 28.2496 15.4621 28.5287 15.9159C28.8077 16.3697 29.1798 16.7327 29.6449 17.005C30.11 17.269 30.6216 17.401 31.1798 17.401C31.7464 17.401 32.258 17.269 32.7146 17.005C33.1797 16.7327 33.5476 16.3697 33.8182 15.9159C34.0973 15.4621 34.2368 14.9588 34.2368 14.406V7.3021H36.8752L36.8879 19.6782H34.2495L34.2368 18.3416C33.8055 18.8531 33.2685 19.2574 32.6258 19.5545C31.9831 19.8515 31.2939 20 30.5582 20C29.6196 20 28.7654 19.7772 27.9959 19.3317C27.2264 18.8862 26.6133 18.288 26.1566 17.5372C25.7 16.7863 25.4717 15.953 25.4717 15.0372Z" fill="#F2F1F1"/>
<path d="M49.1397 1.11405H51.7781V19.6782H49.1397V17.8589C48.7254 18.5025 48.1841 19.0223 47.5161 19.4183C46.848 19.8061 46.0658 20 45.1694 20C44.2477 20 43.3851 19.8309 42.5817 19.4926C41.7784 19.1543 41.068 18.6881 40.4507 18.0941C39.8418 17.4918 39.364 16.7987 39.0173 16.0149C38.6706 15.2311 38.4973 14.3895 38.4973 13.4902C38.4973 12.5908 38.6706 11.7493 39.0173 10.9654C39.364 10.1734 39.8418 9.4803 40.4507 8.88625C41.068 8.28394 41.7784 7.81365 42.5817 7.47537C43.3851 7.13709 44.2477 6.96795 45.1694 6.96795C46.0658 6.96795 46.848 7.16597 47.5161 7.562C48.1841 7.94979 48.7254 8.46133 49.1397 9.09664V1.11405ZM45.1948 17.5124C45.939 17.5124 46.5901 17.335 47.1482 16.9802C47.7064 16.6172 48.1376 16.1304 48.4421 15.5198C48.755 14.9093 48.9114 14.2327 48.9114 13.4902C48.9114 12.7393 48.755 12.0587 48.4421 11.4481C48.1292 10.8376 47.6937 10.3549 47.1355 10.0001C46.5859 9.63706 45.939 9.45555 45.1948 9.45555C44.4591 9.45555 43.7868 9.63706 43.1779 10.0001C42.5775 10.3631 42.0955 10.8499 41.7319 11.4605C41.3767 12.071 41.1991 12.7476 41.1991 13.4902C41.1991 14.241 41.3809 14.9217 41.7445 15.5322C42.1166 16.1345 42.6029 16.6172 43.2033 16.9802C43.8122 17.335 44.476 17.5124 45.1948 17.5124Z" fill="#F2F1F1"/>
<path d="M64.5122 7.3021H67.1506V19.6782H64.4995L64.398 17.8837C64.026 18.519 63.5228 19.0305 62.8886 19.4183C62.2543 19.8061 61.5059 20 60.6434 20C59.7132 20 58.8379 19.8309 58.0176 19.4926C57.1973 19.146 56.4743 18.6675 55.8485 18.057C55.2312 17.4464 54.7492 16.7451 54.4025 15.953C54.0558 15.1527 53.8824 14.2946 53.8824 13.3788C53.8824 12.4959 54.0515 11.6667 54.3898 10.8912C54.7281 10.1074 55.1974 9.42255 55.7978 8.83674C56.3982 8.25094 57.0917 7.79302 57.8781 7.46299C58.673 7.12471 59.5229 6.95557 60.4277 6.95557C61.3495 6.95557 62.1613 7.16184 62.8632 7.57438C63.5735 7.97867 64.1613 8.49846 64.6264 9.13377L64.5122 7.3021ZM60.5799 17.5124C61.3241 17.5124 61.9753 17.335 62.5334 16.9802C63.0915 16.6172 63.5228 16.1304 63.8272 15.5198C64.1401 14.9093 64.2966 14.2327 64.2966 13.4902C64.2966 12.7393 64.1401 12.0587 63.8272 11.4481C63.5143 10.8376 63.0788 10.3549 62.5207 10.0001C61.971 9.63706 61.3241 9.45555 60.5799 9.45555C59.8442 9.45555 59.1719 9.63706 58.5631 10.0001C57.9542 10.3631 57.4722 10.8499 57.117 11.4605C56.7618 12.071 56.5843 12.7476 56.5843 13.4902C56.5843 14.241 56.7661 14.9217 57.1297 15.5322C57.5018 16.1345 57.988 16.6172 58.5884 16.9802C59.1973 17.335 59.8611 17.5124 60.5799 17.5124Z" fill="#F2F1F1"/>
<path d="M68.9514 19.6782L73.594 13.4654L68.9768 7.27735H72.2368L75.2177 11.2625L78.2113 7.27735H81.4586L76.854 13.4654L81.4966 19.6782H78.2366L75.2177 15.6436L72.2114 19.6782H68.9514Z" fill="#F2F1F1"/>
<path d="M83.5557 7.3021H86.1941V19.6782H83.5557V7.3021ZM84.9003 5.50757C84.4944 5.50757 84.1561 5.37968 83.8855 5.12391C83.6149 4.86814 83.4796 4.54636 83.4796 4.15857C83.4796 3.77904 83.6149 3.46138 83.8855 3.20561C84.1561 2.94159 84.4901 2.80957 84.8876 2.80957C85.2766 2.80957 85.6064 2.94159 85.877 3.20561C86.1476 3.46138 86.2829 3.77904 86.2829 4.15857C86.2829 4.54636 86.1476 4.86814 85.877 5.12391C85.6149 5.37968 85.2893 5.50757 84.9003 5.50757Z" fill="#F2F1F1"/>
<path d="M94.5874 20C93.4204 20 92.3549 19.7071 91.3909 19.1213C90.4353 18.5355 89.67 17.7517 89.095 16.7698C88.5284 15.7797 88.2451 14.6865 88.2451 13.4902C88.2451 12.5826 88.41 11.7369 88.7398 10.9531C89.0696 10.161 89.522 9.46793 90.097 8.87387C90.6805 8.27157 91.3571 7.80127 92.1266 7.46299C92.8961 7.12471 93.7164 6.95557 94.5874 6.95557C95.7544 6.95557 96.8157 7.24848 97.7713 7.83428C98.7353 8.42008 99.5006 9.20803 100.067 10.1981C100.642 11.1882 100.93 12.2856 100.93 13.4902C100.93 14.3895 100.765 15.2311 100.435 16.0149C100.105 16.7987 99.6486 17.4918 99.0651 18.0941C98.4901 18.6881 97.8178 19.1543 97.0483 19.4926C96.2872 19.8309 95.4669 20 94.5874 20ZM94.5874 17.4258C95.2893 17.4258 95.9193 17.2443 96.4774 16.8812C97.0356 16.5182 97.4753 16.0396 97.7967 15.4456C98.1265 14.8433 98.2914 14.1915 98.2914 13.4902C98.2914 12.7723 98.1222 12.1123 97.784 11.51C97.4542 10.9077 97.0102 10.4291 96.4521 10.0744C95.894 9.71132 95.2724 9.52981 94.5874 9.52981C93.894 9.52981 93.264 9.71132 92.6974 10.0744C92.1393 10.4374 91.6953 10.9201 91.3655 11.5224C91.0442 12.1247 90.8835 12.7806 90.8835 13.4902C90.8835 14.2245 91.0526 14.8887 91.3909 15.4827C91.7291 16.0768 92.1773 16.5512 92.7355 16.906C93.302 17.2525 93.9194 17.4258 94.5874 17.4258Z" fill="#F2F1F1"/>
<path d="M102.224 15.0372V7.3021H104.862V14.406C104.862 14.9588 105.002 15.4621 105.281 15.9159C105.56 16.3697 105.932 16.7327 106.397 17.005C106.862 17.269 107.374 17.401 107.932 17.401C108.499 17.401 109.01 17.269 109.467 17.005C109.932 16.7327 110.3 16.3697 110.571 15.9159C110.85 15.4621 110.989 14.9588 110.989 14.406V7.3021H113.628L113.64 19.6782H111.002L110.989 18.3416C110.558 18.8531 110.021 19.2574 109.378 19.5545C108.736 19.8515 108.046 20 107.311 20C106.372 20 105.518 19.7772 104.748 19.3317C103.979 18.8862 103.366 18.288 102.909 17.5372C102.452 16.7863 102.224 15.953 102.224 15.0372Z" fill="#F2F1F1"/>
<path d="M119.99 19.9134C119.321 19.8721 118.67 19.7401 118.036 19.5173C117.402 19.2946 116.844 18.9934 116.362 18.6139C115.888 18.2261 115.533 17.7723 115.296 17.2525L117.541 16.3119C117.651 16.5347 117.842 16.7533 118.112 16.9679C118.391 17.1824 118.717 17.3598 119.089 17.5C119.461 17.632 119.85 17.698 120.256 17.698C120.653 17.698 121.021 17.6444 121.359 17.5372C121.706 17.4216 121.989 17.2484 122.209 17.0174C122.429 16.7863 122.539 16.5099 122.539 16.1882C122.539 15.8251 122.412 15.5446 122.159 15.3466C121.913 15.1403 121.605 14.9835 121.233 14.8763C120.861 14.769 120.488 14.6659 120.116 14.5669C119.288 14.3854 118.527 14.1378 117.833 13.8243C117.148 13.5025 116.603 13.0941 116.197 12.5991C115.791 12.0958 115.588 11.4811 115.588 10.755C115.588 9.96297 115.808 9.27816 116.248 8.70061C116.687 8.1148 117.262 7.66514 117.973 7.35161C118.691 7.03808 119.457 6.88132 120.269 6.88132C121.283 6.88132 122.214 7.09171 123.059 7.5125C123.905 7.93329 124.552 8.51084 125 9.24516L122.907 10.458C122.78 10.2105 122.59 9.98772 122.336 9.7897C122.083 9.59169 121.795 9.43492 121.474 9.31941C121.152 9.19565 120.818 9.12552 120.472 9.10902C120.04 9.09252 119.639 9.14202 119.267 9.25753C118.903 9.36479 118.611 9.53806 118.391 9.77733C118.171 10.0166 118.061 10.3219 118.061 10.6932C118.061 11.0562 118.193 11.3285 118.455 11.51C118.717 11.6832 119.047 11.8235 119.444 11.9308C119.85 12.038 120.264 12.1577 120.687 12.2897C121.44 12.5207 122.146 12.8054 122.806 13.1436C123.465 13.4737 123.998 13.8821 124.404 14.3689C124.81 14.8557 125.004 15.4497 124.987 16.151C124.987 16.9266 124.746 17.6073 124.264 18.1931C123.791 18.7789 123.173 19.2244 122.412 19.5297C121.651 19.835 120.844 19.9629 119.99 19.9134Z" fill="#F2F1F1"/>
</svg>
