<svg width="1440" height="401" viewBox="0 0 1440 401" fill="none" xmlns="http://www.w3.org/2000/svg">
<g clip-path="url(#clip0_3081_52567)">
<mask id="path-1-inside-1_3081_52567" fill="white">
<path d="M0 0H720V400.742H0V0Z"/>
</mask>
<g style="mix-blend-mode:screen" opacity="0.1" filter="url(#filter0_f_3081_52567)">
<circle cx="-6.6797" cy="237.775" r="40.0742" fill="#38E9A9" fill-opacity="0.75"/>
</g>
<g opacity="0.25">
<mask id="path-4-inside-2_3081_52567" fill="white">
<path d="M-1.33496 0H78.8135V80.1484H-1.33496V0Z"/>
</mask>
<path d="M-1.33496 0H78.8135V80.1484H-1.33496V0Z" fill="#0F1B2B"/>
<path d="M77.8135 0V80.1484H79.8135V0H77.8135Z" fill="#2A3C46" fill-opacity="0.8" mask="url(#path-4-inside-2_3081_52567)"/>
</g>
<g opacity="0.25">
<mask id="path-6-inside-3_3081_52567" fill="white">
<path d="M78.8135 0H158.962V80.1484H78.8135V0Z"/>
</mask>
<path d="M78.8135 0H158.962V80.1484H78.8135V0Z" fill="#060B12"/>
<path d="M157.962 0V80.1484H159.962V0H157.962Z" fill="#2A3C46" fill-opacity="0.8" mask="url(#path-6-inside-3_3081_52567)"/>
</g>
<g opacity="0.25">
<mask id="path-8-inside-4_3081_52567" fill="white">
<path d="M158.962 0H239.11V80.1484H158.962V0Z"/>
</mask>
<path d="M158.962 0H239.11V80.1484H158.962V0Z" fill="#060B12"/>
<path d="M238.11 0V80.1484H240.11V0H238.11Z" fill="#2A3C46" fill-opacity="0.8" mask="url(#path-8-inside-4_3081_52567)"/>
</g>
<g opacity="0.25">
<mask id="path-10-inside-5_3081_52567" fill="white">
<path d="M239.11 0H319.259V80.1484H239.11V0Z"/>
</mask>
<path d="M239.11 0H319.259V80.1484H239.11V0Z" fill="#060B12"/>
<path d="M318.259 0V80.1484H320.259V0H318.259Z" fill="#2A3C46" fill-opacity="0.8" mask="url(#path-10-inside-5_3081_52567)"/>
</g>
<g opacity="0.25">
<mask id="path-12-inside-6_3081_52567" fill="white">
<path d="M319.259 0H399.407V80.1484H319.259V0Z"/>
</mask>
<path d="M319.259 0H399.407V80.1484H319.259V0Z" fill="#060B12"/>
<path d="M398.407 0V80.1484H400.407V0H398.407Z" fill="#2A3C46" fill-opacity="0.8" mask="url(#path-12-inside-6_3081_52567)"/>
</g>
<g opacity="0.25">
<mask id="path-14-inside-7_3081_52567" fill="white">
<path d="M399.407 0H479.556V80.1484H399.407V0Z"/>
</mask>
<path d="M399.407 0H479.556V80.1484H399.407V0Z" fill="#060B12"/>
<path d="M478.556 0V80.1484H480.556V0H478.556Z" fill="#2A3C46" fill-opacity="0.8" mask="url(#path-14-inside-7_3081_52567)"/>
</g>
<g opacity="0.25">
<mask id="path-16-inside-8_3081_52567" fill="white">
<path d="M479.556 0H559.704V80.1484H479.556V0Z"/>
</mask>
<path d="M479.556 0H559.704V80.1484H479.556V0Z" fill="#060B12"/>
<path d="M558.704 0V80.1484H560.704V0H558.704Z" fill="#2A3C46" fill-opacity="0.8" mask="url(#path-16-inside-8_3081_52567)"/>
</g>
<g opacity="0.25">
<mask id="path-18-inside-9_3081_52567" fill="white">
<path d="M559.704 0H639.853V80.1484H559.704V0Z"/>
</mask>
<path d="M559.704 0H639.853V80.1484H559.704V0Z" fill="#060B12"/>
<path d="M638.853 0V80.1484H640.853V0H638.853Z" fill="#2A3C46" fill-opacity="0.8" mask="url(#path-18-inside-9_3081_52567)"/>
</g>
<g opacity="0.25">
<mask id="path-20-inside-10_3081_52567" fill="white">
<path d="M-1.33496 80.1484H78.8135V160.297H-1.33496V80.1484Z"/>
</mask>
<path d="M-1.33496 80.1484H78.8135V160.297H-1.33496V80.1484Z" fill="#060B12"/>
<path d="M77.8135 80.1484V160.297H79.8135V80.1484H77.8135Z" fill="#2A3C46" fill-opacity="0.8" mask="url(#path-20-inside-10_3081_52567)"/>
</g>
<g opacity="0.25">
<mask id="path-22-inside-11_3081_52567" fill="white">
<path d="M78.8135 80.1484H157.813V160.148H78.8135V80.1484Z"/>
</mask>
<path d="M78.8135 80.1484H157.813V160.148H78.8135V80.1484Z" fill="#060B12"/>
<path d="M78.8135 81.1484H157.813V79.1484H78.8135V81.1484Z" fill="#2A3C46" fill-opacity="0.8" mask="url(#path-22-inside-11_3081_52567)"/>
</g>
<g opacity="0.25">
<rect x="157.813" y="80.1484" width="80.1484" height="80.1484" fill="#060B12"/>
<rect x="158.313" y="80.6484" width="79.1484" height="79.1484" stroke="#2A3C46" stroke-opacity="0.8"/>
</g>
<g opacity="0.25">
<rect x="237.962" y="80.1484" width="80.1484" height="80.1484" fill="#060B12"/>
<rect x="238.462" y="80.6484" width="79.1484" height="79.1484" stroke="#2A3C46" stroke-opacity="0.8"/>
</g>
<g opacity="0.25">
<rect x="318.11" y="80.1484" width="80.1484" height="80.1484" fill="#060B12"/>
<rect x="318.61" y="80.6484" width="79.1484" height="79.1484" stroke="#2A3C46" stroke-opacity="0.8"/>
</g>
<g opacity="0.25">
<rect x="398.259" y="80.1484" width="80.1484" height="80.1484" fill="#060B12"/>
<rect x="398.759" y="80.6484" width="79.1484" height="79.1484" stroke="#2A3C46" stroke-opacity="0.8"/>
</g>
<g opacity="0.25">
<rect x="478.407" y="80.1484" width="80.1484" height="80.1484" fill="#060B12"/>
<rect x="478.907" y="80.6484" width="79.1484" height="79.1484" stroke="#2A3C46" stroke-opacity="0.8"/>
</g>
<g opacity="0.25">
<rect x="558.556" y="80.1484" width="80.1484" height="80.1484" fill="#060B12"/>
<rect x="559.056" y="80.6484" width="79.1484" height="79.1484" stroke="#2A3C46" stroke-opacity="0.8"/>
</g>
<g opacity="0.25">
<rect x="638.704" y="80.1484" width="80.1484" height="80.1484" fill="#060B12"/>
<rect x="639.204" y="80.6484" width="79.1484" height="79.1484" stroke="#2A3C46" stroke-opacity="0.8"/>
</g>
<g opacity="0.25">
<rect x="-1.33496" y="160.297" width="80.1484" height="80.1484" fill="#060B12"/>
<rect x="-0.834961" y="160.797" width="79.1484" height="79.1484" stroke="#2A3C46" stroke-opacity="0.8"/>
</g>
<g opacity="0.25">
<rect x="78.8135" y="160.297" width="80.1484" height="80.1484" fill="#060B12"/>
<rect x="79.3135" y="160.797" width="79.1484" height="79.1484" stroke="#2A3C46" stroke-opacity="0.8"/>
</g>
<g opacity="0.25">
<rect x="158.962" y="160.297" width="80.1484" height="80.1484" fill="#060B12"/>
<rect x="159.462" y="160.797" width="79.1484" height="79.1484" stroke="#2A3C46" stroke-opacity="0.8"/>
</g>
<g opacity="0.25">
<mask id="path-44-inside-12_3081_52567" fill="white">
<path d="M239.11 160.297H319.259V240.445H239.11V160.297Z"/>
</mask>
<path d="M239.11 160.297H319.259V240.445H239.11V160.297Z" fill="#0F1B2B"/>
<path d="M318.259 160.297V240.445H320.259V160.297H318.259Z" fill="#2A3C46" fill-opacity="0.8" mask="url(#path-44-inside-12_3081_52567)"/>
</g>
<g opacity="0.8" filter="url(#filter1_b_3081_52567)">
<path d="M247.853 188.297C247.853 177.251 256.807 168.297 267.853 168.297H291.853C302.898 168.297 311.853 177.251 311.853 188.297V212.297C311.853 223.343 302.898 232.297 291.853 232.297H267.853C256.807 232.297 247.853 223.343 247.853 212.297V188.297Z" fill="#060B12" fill-opacity="0.5"/>
<path d="M247.853 188.297C247.853 177.251 256.807 168.297 267.853 168.297H291.853C302.898 168.297 311.853 177.251 311.853 188.297V212.297C311.853 223.343 302.898 232.297 291.853 232.297H267.853C256.807 232.297 247.853 223.343 247.853 212.297V188.297Z" fill="url(#paint0_linear_3081_52567)" fill-opacity="0.3"/>
<path d="M248.424 188.297C248.424 177.567 257.122 168.868 267.853 168.868H291.853C302.583 168.868 311.281 177.567 311.281 188.297V212.297C311.281 223.027 302.583 231.725 291.853 231.725H267.853C257.122 231.725 248.424 223.027 248.424 212.297V188.297Z" stroke="#292C36" stroke-opacity="0.5" stroke-width="1.14286"/>
</g>
<g opacity="0.5">
<path d="M265.117 211.982H270.273V199.553L263.001 194V209.734C263.001 210.924 263.927 211.982 265.117 211.982Z" fill="#4285F4"/>
<path d="M287.819 212.117H292.976C294.166 212.117 295.224 211.191 295.224 209.869V194.135L287.952 199.556V212.117H287.819Z" fill="#349AA8"/>
<path d="M287.819 190.168V199.688L295.091 194.134V191.225C295.091 189.374 293.637 187.92 291.786 187.92C291.125 187.92 290.332 188.184 289.803 188.581L287.819 190.168Z" fill="#FBBC04"/>
<path d="M270.234 199.688V190.168L278.961 196.779L287.688 190.168V199.688L278.961 206.299L270.234 199.688Z" fill="#EA4335"/>
<path d="M263.001 191.288V194.197L270.273 199.618V190.23L268.29 188.643C266.835 187.586 264.72 187.85 263.662 189.304C263.133 189.833 263.001 190.627 263.001 191.288Z" fill="#1FC561"/>
</g>
<g opacity="0.25">
<rect x="319.259" y="160.297" width="80.1484" height="80.1484" fill="#060B12"/>
<rect x="319.759" y="160.797" width="79.1484" height="79.1484" stroke="#2A3C46" stroke-opacity="0.8"/>
</g>
<g opacity="0.25">
<rect x="399.407" y="160.297" width="80.1484" height="80.1484" fill="#060B12"/>
<rect x="399.907" y="160.797" width="79.1484" height="79.1484" stroke="#2A3C46" stroke-opacity="0.8"/>
</g>
<g opacity="0.25">
<rect x="479.556" y="160.297" width="80.1484" height="80.1484" fill="#060B12"/>
<rect x="480.056" y="160.797" width="79.1484" height="79.1484" stroke="#2A3C46" stroke-opacity="0.8"/>
</g>
<g opacity="0.25">
<rect x="559.704" y="160.297" width="80.1484" height="80.1484" fill="#060B12"/>
<rect x="560.204" y="160.797" width="79.1484" height="79.1484" stroke="#2A3C46" stroke-opacity="0.8"/>
</g>
<g opacity="0.25">
<rect x="639.853" y="160.297" width="80.1484" height="80.1484" fill="#060B12"/>
<rect x="640.353" y="160.797" width="79.1484" height="79.1484" stroke="#2A3C46" stroke-opacity="0.8"/>
</g>
<g opacity="0.25">
<rect x="-1.33496" y="240.445" width="80.1484" height="80.1484" fill="#060B12"/>
<rect x="-0.834961" y="240.945" width="79.1484" height="79.1484" stroke="#2A3C46" stroke-opacity="0.8"/>
</g>
<g opacity="0.25">
<rect x="78.8135" y="240.445" width="80.1484" height="80.1484" fill="#060B12"/>
<rect x="79.3135" y="240.945" width="79.1484" height="79.1484" stroke="#2A3C46" stroke-opacity="0.8"/>
</g>
<g opacity="0.25">
<rect x="158.962" y="240.445" width="80.1484" height="80.1484" fill="#060B12"/>
<rect x="159.462" y="240.945" width="79.1484" height="79.1484" stroke="#2A3C46" stroke-opacity="0.8"/>
</g>
<g opacity="0.25">
<rect x="239.11" y="240.445" width="80.1484" height="80.1484" fill="#060B12"/>
<rect x="239.61" y="240.945" width="79.1484" height="79.1484" stroke="#2A3C46" stroke-opacity="0.8"/>
</g>
<g opacity="0.25">
<rect x="319.259" y="240.445" width="80.1484" height="80.1484" fill="#060B12"/>
<rect x="319.759" y="240.945" width="79.1484" height="79.1484" stroke="#2A3C46" stroke-opacity="0.8"/>
</g>
<g opacity="0.25">
<rect x="399.407" y="240.445" width="80.1484" height="80.1484" fill="#060B12"/>
<rect x="399.907" y="240.945" width="79.1484" height="79.1484" stroke="#2A3C46" stroke-opacity="0.8"/>
</g>
<g opacity="0.25">
<rect x="479.556" y="240.445" width="80.1484" height="80.1484" fill="#060B12"/>
<rect x="480.056" y="240.945" width="79.1484" height="79.1484" stroke="#2A3C46" stroke-opacity="0.8"/>
</g>
<g opacity="0.25">
<rect x="559.704" y="240.445" width="80.1484" height="80.1484" fill="#060B12"/>
<rect x="560.204" y="240.945" width="79.1484" height="79.1484" stroke="#2A3C46" stroke-opacity="0.8"/>
</g>
<g opacity="0.25">
<rect x="639.853" y="240.445" width="80.1484" height="80.1484" fill="#060B12"/>
<rect x="640.353" y="240.945" width="79.1484" height="79.1484" stroke="#2A3C46" stroke-opacity="0.8"/>
</g>
<g opacity="0.25">
<mask id="path-81-inside-13_3081_52567" fill="white">
<path d="M-1.33496 320.594H78.8135V400.742H-1.33496V320.594Z"/>
</mask>
<path d="M-1.33496 320.594H78.8135V400.742H-1.33496V320.594Z" fill="#0F1B2B"/>
<path d="M77.8135 320.594V400.742H79.8135V320.594H77.8135Z" fill="#2A3C46" fill-opacity="0.8" mask="url(#path-81-inside-13_3081_52567)"/>
</g>
<g opacity="0.25">
<rect x="78.8135" y="320.594" width="80.1484" height="80.1484" fill="#060B12"/>
<rect x="79.3135" y="321.094" width="79.1484" height="79.1484" stroke="#2A3C46" stroke-opacity="0.8"/>
</g>
<g opacity="0.25">
<rect x="158.962" y="320.594" width="80.1484" height="80.1484" fill="#060B12"/>
<rect x="159.462" y="321.094" width="79.1484" height="79.1484" stroke="#2A3C46" stroke-opacity="0.8"/>
</g>
<g opacity="0.25">
<rect x="239.11" y="320.594" width="80.1484" height="80.1484" fill="#060B12"/>
<rect x="239.61" y="321.094" width="79.1484" height="79.1484" stroke="#2A3C46" stroke-opacity="0.8"/>
</g>
<g opacity="0.25">
<rect x="319.259" y="320.594" width="80.1484" height="80.1484" fill="#060B12"/>
<rect x="319.759" y="321.094" width="79.1484" height="79.1484" stroke="#2A3C46" stroke-opacity="0.8"/>
</g>
<g opacity="0.25">
<mask id="path-91-inside-14_3081_52567" fill="white">
<path d="M399.556 320.891H479.704V401.039H399.556V320.891Z"/>
</mask>
<path d="M399.556 320.891H479.704V401.039H399.556V320.891Z" fill="#0F1B2B"/>
<path d="M478.704 320.891V401.039H480.704V320.891H478.704Z" fill="#2A3C46" fill-opacity="0.8" mask="url(#path-91-inside-14_3081_52567)"/>
</g>
<g opacity="0.8" filter="url(#filter2_b_3081_52567)">
<path d="M408.298 348.891C408.298 337.845 417.252 328.891 428.298 328.891H452.298C463.344 328.891 472.298 337.845 472.298 348.891V372.891C472.298 383.936 463.344 392.891 452.298 392.891H428.298C417.252 392.891 408.298 383.936 408.298 372.891V348.891Z" fill="#060B12" fill-opacity="0.5"/>
<path d="M408.298 348.891C408.298 337.845 417.252 328.891 428.298 328.891H452.298C463.344 328.891 472.298 337.845 472.298 348.891V372.891C472.298 383.936 463.344 392.891 452.298 392.891H428.298C417.252 392.891 408.298 383.936 408.298 372.891V348.891Z" fill="url(#paint1_linear_3081_52567)" fill-opacity="0.3"/>
<path d="M408.869 348.891C408.869 338.161 417.568 329.462 428.298 329.462H452.298C463.028 329.462 471.726 338.161 471.726 348.891V372.891C471.726 383.621 463.028 392.319 452.298 392.319H428.298C417.568 392.319 408.869 383.621 408.869 372.891V348.891Z" stroke="#292C36" stroke-opacity="0.5" stroke-width="1.14286"/>
</g>
<g opacity="0.25">
<mask id="path-95-inside-15_3081_52567" fill="white">
<path d="M399.407 320.594H479.556V400.742H399.407V320.594Z"/>
</mask>
<path d="M399.407 320.594H479.556V400.742H399.407V320.594Z" fill="#0F1B2B"/>
<path d="M478.556 320.594V400.742H480.556V320.594H478.556Z" fill="#2A3C46" fill-opacity="0.8" mask="url(#path-95-inside-15_3081_52567)"/>
</g>
<g opacity="0.8" filter="url(#filter3_b_3081_52567)">
<path d="M408.149 348.594C408.149 337.548 417.104 328.594 428.149 328.594H452.149C463.195 328.594 472.149 337.548 472.149 348.594V372.594C472.149 383.639 463.195 392.594 452.149 392.594H428.149C417.104 392.594 408.149 383.639 408.149 372.594V348.594Z" fill="#060B12" fill-opacity="0.5"/>
<path d="M408.149 348.594C408.149 337.548 417.104 328.594 428.149 328.594H452.149C463.195 328.594 472.149 337.548 472.149 348.594V372.594C472.149 383.639 463.195 392.594 452.149 392.594H428.149C417.104 392.594 408.149 383.639 408.149 372.594V348.594Z" fill="url(#paint2_linear_3081_52567)" fill-opacity="0.3"/>
<path d="M408.721 348.594C408.721 337.864 417.419 329.165 428.149 329.165H452.149C462.88 329.165 471.578 337.864 471.578 348.594V372.594C471.578 383.324 462.88 392.022 452.149 392.022H428.149C417.419 392.022 408.721 383.324 408.721 372.594V348.594Z" stroke="#292C36" stroke-opacity="0.5" stroke-width="1.14286"/>
</g>
<path d="M459.886 346.277L453.85 374.744C453.394 376.753 452.207 377.253 450.519 376.306L441.322 369.529L436.884 373.797C436.393 374.288 435.982 374.699 435.036 374.699L435.696 365.332L452.743 349.929C453.484 349.268 452.582 348.902 451.591 349.563L430.517 362.832L421.445 359.992C419.472 359.376 419.436 358.019 421.856 357.072L457.341 343.401C458.984 342.785 460.422 343.767 459.886 346.277Z" fill="#20A0E1"/>
<g opacity="0.25">
<rect x="479.704" y="320.594" width="80.1484" height="80.1484" fill="#060B12"/>
<rect x="480.204" y="321.094" width="79.1484" height="79.1484" stroke="#2A3C46" stroke-opacity="0.8"/>
</g>
<g opacity="0.25">
<rect x="559.853" y="320.594" width="80.1484" height="80.1484" fill="#060B12"/>
<rect x="560.353" y="321.094" width="79.1484" height="79.1484" stroke="#2A3C46" stroke-opacity="0.8"/>
</g>
<g opacity="0.25">
<rect x="640.001" y="320.594" width="80.1484" height="80.1484" fill="#060B12"/>
<rect x="640.501" y="321.094" width="79.1484" height="79.1484" stroke="#2A3C46" stroke-opacity="0.8"/>
</g>
<g opacity="0.25">
<mask id="path-106-inside-16_3081_52567" fill="white">
<path d="M399.258 0H479.406V80.1484H399.258V0Z"/>
</mask>
<path d="M399.258 0H479.406V80.1484H399.258V0Z" fill="#0F1B2B"/>
<path d="M478.406 0V80.1484H480.406V0H478.406Z" fill="#2A3C46" fill-opacity="0.8" mask="url(#path-106-inside-16_3081_52567)"/>
</g>
<g opacity="0.8" filter="url(#filter4_b_3081_52567)">
<path d="M408 28C408 16.9543 416.954 8 428 8H452C463.046 8 472 16.9543 472 28V52C472 63.0457 463.046 72 452 72H428C416.954 72 408 63.0457 408 52V28Z" fill="#060B12" fill-opacity="0.5"/>
<path d="M408 28C408 16.9543 416.954 8 428 8H452C463.046 8 472 16.9543 472 28V52C472 63.0457 463.046 72 452 72H428C416.954 72 408 63.0457 408 52V28Z" fill="url(#paint3_linear_3081_52567)" fill-opacity="0.3"/>
<path d="M408.571 28C408.571 17.2699 417.27 8.57143 428 8.57143H452C462.73 8.57143 471.429 17.2699 471.429 28V52C471.429 62.7301 462.73 71.4286 452 71.4286H428C417.27 71.4286 408.571 62.7301 408.571 52V28Z" stroke="#292C36" stroke-opacity="0.5" stroke-width="1.14286"/>
</g>
<path opacity="0.5" d="M452.898 37.0947C453.261 36.0172 453.386 34.8758 453.266 33.7467C453.146 32.6175 452.783 31.5267 452.201 30.547C451.339 29.0663 450.022 27.8939 448.44 27.199C446.859 26.504 445.095 26.3224 443.402 26.6804C442.44 25.6251 441.214 24.8381 439.846 24.3982C438.478 23.9584 437.017 23.8814 435.61 24.1747C434.202 24.4681 432.898 25.1216 431.828 26.0697C430.757 27.0177 429.959 28.2269 429.512 29.5757C428.384 29.8038 427.319 30.2667 426.387 30.9335C425.455 31.6003 424.678 32.4557 424.108 33.4423C423.237 34.9206 422.864 36.6341 423.044 38.335C423.225 40.036 423.949 41.6362 425.112 42.9044C424.748 43.9814 424.621 45.1227 424.741 46.2518C424.86 47.381 425.222 48.4721 425.803 49.452C426.666 50.9333 427.984 52.106 429.567 52.8009C431.15 53.4958 432.915 53.6772 434.609 53.3188C435.373 54.1676 436.312 54.8457 437.363 55.3081C438.414 55.7704 439.552 56.0062 440.703 55.9999C442.438 56.0014 444.129 55.4591 445.531 54.4512C446.933 53.4433 447.975 52.0219 448.505 50.3922C449.632 50.1636 450.698 49.7005 451.629 49.0337C452.561 48.367 453.338 47.5118 453.908 46.5254C454.77 45.0492 455.136 43.3422 454.955 41.6484C454.773 39.9546 454.053 38.3606 452.898 37.0947ZM440.703 53.9055C439.282 53.9077 437.906 53.4164 436.815 52.5178L437.007 52.4106L443.466 48.733C443.626 48.64 443.76 48.5073 443.853 48.3481C443.946 48.1888 443.995 48.0084 443.996 47.8246V38.8421L446.727 40.4002C446.74 40.4069 446.752 40.4167 446.761 40.4288C446.77 40.4408 446.776 40.4548 446.778 40.4695V47.913C446.775 49.5013 446.134 51.0235 444.995 52.1466C443.856 53.2697 442.313 53.9021 440.703 53.9055ZM427.645 48.405C426.932 47.1911 426.676 45.7683 426.922 44.3867L427.114 44.5003L433.579 48.1779C433.739 48.2705 433.921 48.3193 434.107 48.3193C434.292 48.3193 434.474 48.2705 434.634 48.1779L442.532 43.6866V46.7964C442.531 46.8126 442.527 46.8283 442.519 46.8425C442.511 46.8567 442.5 46.869 442.487 46.8784L435.945 50.6002C434.549 51.3935 432.891 51.6079 431.335 51.1964C429.778 50.7848 428.451 49.7808 427.645 48.405ZM425.944 34.5274C426.661 33.3058 427.794 32.374 429.141 31.897V39.4666C429.139 39.6495 429.186 39.8296 429.278 39.9883C429.371 40.1469 429.504 40.2783 429.665 40.3686L437.525 44.841L434.794 46.399C434.779 46.4067 434.763 46.4108 434.746 46.4108C434.729 46.4108 434.713 46.4067 434.698 46.399L428.169 42.6836C426.776 41.8869 425.759 40.5778 425.342 39.0432C424.925 37.5086 425.141 35.8735 425.944 34.4959V34.5274ZM448.377 39.6685L440.492 35.1519L443.216 33.5999C443.231 33.5922 443.247 33.5882 443.264 33.5882C443.281 33.5882 443.297 33.5922 443.312 33.5999L449.841 37.3217C450.84 37.8899 451.653 38.7265 452.188 39.7338C452.722 40.7411 452.955 41.8776 452.859 43.0106C452.763 44.1435 452.343 45.2262 451.646 46.1322C450.95 47.0382 450.007 47.7302 448.927 48.1272V40.5577C448.921 40.3751 448.868 40.1971 448.771 40.0412C448.675 39.8853 448.539 39.7569 448.377 39.6685ZM451.095 35.6377L450.903 35.5241L444.45 31.815C444.29 31.7218 444.106 31.6727 443.92 31.6727C443.733 31.6727 443.55 31.7218 443.389 31.815L435.498 36.3062V33.1965C435.496 33.1807 435.499 33.1647 435.506 33.1503C435.512 33.1358 435.523 33.1235 435.536 33.1145L442.065 29.399C443.066 28.8304 444.21 28.5545 445.364 28.6038C446.518 28.653 447.633 29.0252 448.581 29.677C449.528 30.3287 450.267 31.233 450.712 32.2841C451.158 33.3352 451.29 34.4896 451.095 35.6123L451.095 35.6377ZM434.008 41.1506L431.277 39.5989C431.263 39.5907 431.252 39.5798 431.243 39.5667C431.234 39.5536 431.228 39.5388 431.226 39.5233V32.0989C431.227 30.9599 431.557 29.8449 432.178 28.8842C432.798 27.9235 433.683 27.1569 434.728 26.6739C435.774 26.1909 436.937 26.0115 438.083 26.1567C439.228 26.302 440.308 26.7658 441.195 27.494L441.004 27.6013L434.545 31.2786C434.384 31.3716 434.251 31.5043 434.158 31.6635C434.064 31.8228 434.015 32.0032 434.014 32.187L434.008 41.1506ZM435.491 37.9967L439.008 35.997L442.532 37.9967V41.9959L439.021 43.9955L435.498 41.9959L435.491 37.9967Z" fill="#74AA9C"/>
</g>
<path d="M0 0V-0.5H-0.5V0H0ZM0 400.742H-0.5V401.242H0V400.742ZM0 0.5H720V-0.5H0V0.5ZM720 400.242H0V401.242H720V400.242ZM0.5 400.742V0H-0.5V400.742H0.5Z" fill="#2A3C46" fill-opacity="0.5" mask="url(#path-1-inside-1_3081_52567)"/>
<g clip-path="url(#clip1_3081_52567)">
<mask id="path-111-inside-17_3081_52567" fill="white">
<path d="M1440 400.742L720 400.742L720 0.000154497L1440 9.15527e-05L1440 400.742Z"/>
</mask>
<g style="mix-blend-mode:screen" opacity="0.1" filter="url(#filter5_f_3081_52567)">
<circle cx="1446.68" cy="162.967" r="40.0742" transform="rotate(180 1446.68 162.967)" fill="#38E9A9" fill-opacity="0.75"/>
</g>
<g opacity="0.25">
<mask id="path-114-inside-18_3081_52567" fill="white">
<path d="M1441.33 400.742L1361.19 400.742L1361.19 320.594L1441.33 320.594L1441.33 400.742Z"/>
</mask>
<path d="M1441.33 400.742L1361.19 400.742L1361.19 320.594L1441.33 320.594L1441.33 400.742Z" fill="#0F1B2B"/>
<path d="M1362.19 400.742L1362.19 320.594L1360.19 320.594L1360.19 400.742L1362.19 400.742Z" fill="#2A3C46" fill-opacity="0.8" mask="url(#path-114-inside-18_3081_52567)"/>
</g>
<g opacity="0.25">
<mask id="path-116-inside-19_3081_52567" fill="white">
<path d="M1361.19 400.742L1281.04 400.742L1281.04 320.594L1361.19 320.594L1361.19 400.742Z"/>
</mask>
<path d="M1361.19 400.742L1281.04 400.742L1281.04 320.594L1361.19 320.594L1361.19 400.742Z" fill="#060B12"/>
<path d="M1282.04 400.742L1282.04 320.594L1280.04 320.594L1280.04 400.742L1282.04 400.742Z" fill="#2A3C46" fill-opacity="0.8" mask="url(#path-116-inside-19_3081_52567)"/>
</g>
<g opacity="0.25">
<rect x="1281.04" y="400.742" width="80.1484" height="80.1484" transform="rotate(180 1281.04 400.742)" fill="#060B12"/>
<rect x="1280.54" y="400.242" width="79.1484" height="79.1484" transform="rotate(180 1280.54 400.242)" stroke="#2A3C46" stroke-opacity="0.8"/>
</g>
<g opacity="0.25">
<mask id="path-120-inside-20_3081_52567" fill="white">
<path d="M1200.89 400.742L1120.74 400.742L1120.74 320.594L1200.89 320.594L1200.89 400.742Z"/>
</mask>
<path d="M1200.89 400.742L1120.74 400.742L1120.74 320.594L1200.89 320.594L1200.89 400.742Z" fill="#060B12"/>
<path d="M1121.74 400.742L1121.74 320.594L1119.74 320.594L1119.74 400.742L1121.74 400.742Z" fill="#2A3C46" fill-opacity="0.8" mask="url(#path-120-inside-20_3081_52567)"/>
</g>
<g opacity="0.25">
<mask id="path-122-inside-21_3081_52567" fill="white">
<path d="M1120.74 400.742L1040.59 400.742L1040.59 320.594L1120.74 320.594L1120.74 400.742Z"/>
</mask>
<path d="M1120.74 400.742L1040.59 400.742L1040.59 320.594L1120.74 320.594L1120.74 400.742Z" fill="#060B12"/>
<path d="M1041.59 400.742L1041.59 320.594L1039.59 320.594L1039.59 400.742L1041.59 400.742Z" fill="#2A3C46" fill-opacity="0.8" mask="url(#path-122-inside-21_3081_52567)"/>
</g>
<g opacity="0.25">
<mask id="path-124-inside-22_3081_52567" fill="white">
<path d="M1040.59 400.742L960.444 400.742L960.444 320.594L1040.59 320.594L1040.59 400.742Z"/>
</mask>
<path d="M1040.59 400.742L960.444 400.742L960.444 320.594L1040.59 320.594L1040.59 400.742Z" fill="#060B12"/>
<path d="M961.444 400.742L961.444 320.594L959.444 320.594L959.444 400.742L961.444 400.742Z" fill="#2A3C46" fill-opacity="0.8" mask="url(#path-124-inside-22_3081_52567)"/>
</g>
<g opacity="0.25">
<mask id="path-126-inside-23_3081_52567" fill="white">
<path d="M880.296 320.594H960.444V400.742H880.296V320.594Z"/>
</mask>
<path d="M880.296 320.594H960.444V400.742H880.296V320.594Z" fill="#0F1B2B"/>
<path d="M959.444 320.594V400.742H961.444V320.594H959.444Z" fill="#2A3C46" fill-opacity="0.8" mask="url(#path-126-inside-23_3081_52567)"/>
</g>
<g opacity="0.8" filter="url(#filter6_b_3081_52567)">
<path d="M889.038 348.594C889.038 337.548 897.992 328.594 909.038 328.594H933.038C944.084 328.594 953.038 337.548 953.038 348.594V372.594C953.038 383.639 944.084 392.594 933.038 392.594H909.038C897.992 392.594 889.038 383.639 889.038 372.594V348.594Z" fill="#060B12" fill-opacity="0.5"/>
<path d="M889.038 348.594C889.038 337.548 897.992 328.594 909.038 328.594H933.038C944.084 328.594 953.038 337.548 953.038 348.594V372.594C953.038 383.639 944.084 392.594 933.038 392.594H909.038C897.992 392.594 889.038 383.639 889.038 372.594V348.594Z" fill="url(#paint4_linear_3081_52567)" fill-opacity="0.3"/>
<path d="M889.61 348.594C889.61 337.864 898.308 329.165 909.038 329.165H933.038C943.768 329.165 952.467 337.864 952.467 348.594V372.594C952.467 383.324 943.768 392.022 933.038 392.022H909.038C898.308 392.022 889.61 383.324 889.61 372.594V348.594Z" stroke="#292C36" stroke-opacity="0.5" stroke-width="1.14286"/>
</g>
<path d="M929.738 351.802C932.901 356.451 934.462 361.696 933.878 367.733C933.876 367.759 933.863 367.782 933.842 367.798C931.447 369.556 929.127 370.623 926.839 371.331C926.821 371.336 926.802 371.336 926.785 371.33C926.767 371.324 926.752 371.313 926.741 371.298C926.212 370.562 925.732 369.787 925.312 368.973C925.287 368.925 925.309 368.867 925.359 368.848C926.122 368.561 926.847 368.216 927.545 367.809C927.599 367.777 927.603 367.698 927.552 367.66C927.404 367.55 927.258 367.435 927.117 367.319C927.091 367.298 927.056 367.294 927.026 367.308C922.497 369.399 917.536 369.399 912.954 367.308C912.924 367.295 912.889 367.299 912.863 367.32C912.723 367.436 912.576 367.55 912.43 367.66C912.379 367.698 912.383 367.777 912.439 367.809C913.136 368.209 913.861 368.561 914.623 368.85C914.672 368.869 914.696 368.925 914.671 368.973C914.26 369.788 913.779 370.563 913.241 371.299C913.218 371.328 913.179 371.342 913.143 371.331C910.866 370.623 908.546 369.556 906.151 367.798C906.131 367.782 906.117 367.758 906.115 367.732C905.627 362.51 906.621 357.222 910.251 351.801C910.26 351.786 910.273 351.775 910.289 351.769C912.075 350.949 913.988 350.346 915.988 350.001C916.024 349.996 916.061 350.013 916.08 350.045C916.327 350.482 916.609 351.043 916.8 351.502C918.908 351.18 921.049 351.18 923.201 351.502C923.392 351.053 923.665 350.482 923.911 350.045C923.92 350.029 923.934 350.016 923.95 350.008C923.966 350.001 923.985 349.998 924.003 350.001C926.004 350.347 927.917 350.95 929.702 351.769C929.718 351.775 929.731 351.786 929.738 351.802ZM917.872 361.731C917.894 360.188 916.768 358.91 915.355 358.91C913.954 358.91 912.839 360.176 912.839 361.731C912.839 363.286 913.976 364.552 915.355 364.552C916.757 364.552 917.872 363.286 917.872 361.731ZM927.176 361.731C927.198 360.188 926.072 358.91 924.659 358.91C923.258 358.91 922.143 360.176 922.143 361.731C922.143 363.286 923.28 364.552 924.659 364.552C926.072 364.552 927.176 363.286 927.176 361.731Z" fill="#5865F2"/>
<g opacity="0.25">
<mask id="path-131-inside-24_3081_52567" fill="white">
<path d="M880.296 400.742L800.147 400.742L800.147 320.594L880.296 320.594L880.296 400.742Z"/>
</mask>
<path d="M880.296 400.742L800.147 400.742L800.147 320.594L880.296 320.594L880.296 400.742Z" fill="#060B12"/>
<path d="M801.147 400.742L801.147 320.594L799.147 320.594L799.147 400.742L801.147 400.742Z" fill="#2A3C46" fill-opacity="0.8" mask="url(#path-131-inside-24_3081_52567)"/>
</g>
<g opacity="0.25">
<mask id="path-133-inside-25_3081_52567" fill="white">
<path d="M800.147 400.742L719.999 400.742L719.999 320.594L800.147 320.594L800.147 400.742Z"/>
</mask>
<path d="M800.147 400.742L719.999 400.742L719.999 320.594L800.147 320.594L800.147 400.742Z" fill="#060B12"/>
<path d="M720.999 400.742L720.999 320.594L718.999 320.594L718.999 400.742L720.999 400.742Z" fill="#2A3C46" fill-opacity="0.8" mask="url(#path-133-inside-25_3081_52567)"/>
</g>
<g opacity="0.25">
<rect x="1441.33" y="320.594" width="80.1484" height="80.1484" transform="rotate(180 1441.33 320.594)" fill="#060B12"/>
<rect x="1440.83" y="320.094" width="79.1484" height="79.1484" transform="rotate(180 1440.83 320.094)" stroke="#2A3C46" stroke-opacity="0.8"/>
</g>
<g opacity="0.25">
<rect x="1361.19" y="320.594" width="80.1484" height="80.1484" transform="rotate(180 1361.19 320.594)" fill="#060B12"/>
<rect x="1360.69" y="320.094" width="79.1484" height="79.1484" transform="rotate(180 1360.69 320.094)" stroke="#2A3C46" stroke-opacity="0.8"/>
</g>
<g opacity="0.25">
<rect x="1281.04" y="320.594" width="80.1484" height="80.1484" transform="rotate(180 1281.04 320.594)" fill="#060B12"/>
<rect x="1280.54" y="320.094" width="79.1484" height="79.1484" transform="rotate(180 1280.54 320.094)" stroke="#2A3C46" stroke-opacity="0.8"/>
</g>
<g opacity="0.25">
<rect x="1200.89" y="320.594" width="80.1484" height="80.1484" transform="rotate(180 1200.89 320.594)" fill="#060B12"/>
<rect x="1200.39" y="320.094" width="79.1484" height="79.1484" transform="rotate(180 1200.39 320.094)" stroke="#2A3C46" stroke-opacity="0.8"/>
</g>
<g opacity="0.25">
<rect x="1120.74" y="320.594" width="80.1484" height="80.1484" transform="rotate(180 1120.74 320.594)" fill="#060B12"/>
<rect x="1120.24" y="320.094" width="79.1484" height="79.1484" transform="rotate(180 1120.24 320.094)" stroke="#2A3C46" stroke-opacity="0.8"/>
</g>
<g opacity="0.25">
<rect x="1040.59" y="320.594" width="80.1484" height="80.1484" transform="rotate(180 1040.59 320.594)" fill="#060B12"/>
<rect x="1040.09" y="320.094" width="79.1484" height="79.1484" transform="rotate(180 1040.09 320.094)" stroke="#2A3C46" stroke-opacity="0.8"/>
</g>
<g opacity="0.25">
<rect x="960.444" y="320.594" width="80.1484" height="80.1484" transform="rotate(180 960.444 320.594)" fill="#060B12"/>
<rect x="959.944" y="320.094" width="79.1484" height="79.1484" transform="rotate(180 959.944 320.094)" stroke="#2A3C46" stroke-opacity="0.8"/>
</g>
<g opacity="0.25">
<rect x="880.296" y="320.594" width="80.1484" height="80.1484" transform="rotate(180 880.296 320.594)" fill="#060B12"/>
<rect x="879.796" y="320.094" width="79.1484" height="79.1484" transform="rotate(180 879.796 320.094)" stroke="#2A3C46" stroke-opacity="0.8"/>
</g>
<g opacity="0.25">
<rect x="800.147" y="320.594" width="80.1484" height="80.1484" transform="rotate(180 800.147 320.594)" fill="#060B12"/>
<rect x="799.647" y="320.094" width="79.1484" height="79.1484" transform="rotate(180 799.647 320.094)" stroke="#2A3C46" stroke-opacity="0.8"/>
</g>
<g opacity="0.25">
<rect x="1441.33" y="240.445" width="80.1484" height="80.1484" transform="rotate(180 1441.33 240.445)" fill="#060B12"/>
<rect x="1440.83" y="239.945" width="79.1484" height="79.1484" transform="rotate(180 1440.83 239.945)" stroke="#2A3C46" stroke-opacity="0.8"/>
</g>
<g opacity="0.25">
<rect x="1361.19" y="240.445" width="80.1484" height="80.1484" transform="rotate(180 1361.19 240.445)" fill="#060B12"/>
<rect x="1360.69" y="239.945" width="79.1484" height="79.1484" transform="rotate(180 1360.69 239.945)" stroke="#2A3C46" stroke-opacity="0.8"/>
</g>
<g opacity="0.25">
<rect x="1281.04" y="240.445" width="80.1484" height="80.1484" transform="rotate(180 1281.04 240.445)" fill="#060B12"/>
<rect x="1280.54" y="239.945" width="79.1484" height="79.1484" transform="rotate(180 1280.54 239.945)" stroke="#2A3C46" stroke-opacity="0.8"/>
</g>
<g opacity="0.25">
<mask id="path-159-inside-26_3081_52567" fill="white">
<path d="M1120.74 160.297H1200.89V240.445H1120.74V160.297Z"/>
</mask>
<path d="M1120.74 160.297H1200.89V240.445H1120.74V160.297Z" fill="#0F1B2B"/>
<path d="M1199.89 160.297V240.445H1201.89V160.297H1199.89Z" fill="#2A3C46" fill-opacity="0.8" mask="url(#path-159-inside-26_3081_52567)"/>
</g>
<g opacity="0.8" filter="url(#filter7_b_3081_52567)">
<path d="M1129.48 188.297C1129.48 177.251 1138.44 168.297 1149.48 168.297H1173.48C1184.53 168.297 1193.48 177.251 1193.48 188.297V212.297C1193.48 223.343 1184.53 232.297 1173.48 232.297H1149.48C1138.44 232.297 1129.48 223.343 1129.48 212.297V188.297Z" fill="#060B12" fill-opacity="0.5"/>
<path d="M1129.48 188.297C1129.48 177.251 1138.44 168.297 1149.48 168.297H1173.48C1184.53 168.297 1193.48 177.251 1193.48 188.297V212.297C1193.48 223.343 1184.53 232.297 1173.48 232.297H1149.48C1138.44 232.297 1129.48 223.343 1129.48 212.297V188.297Z" fill="url(#paint5_linear_3081_52567)" fill-opacity="0.3"/>
<path d="M1130.05 188.297C1130.05 177.567 1138.75 168.868 1149.48 168.868H1173.48C1184.21 168.868 1192.91 177.567 1192.91 188.297V212.297C1192.91 223.027 1184.21 231.725 1173.48 231.725H1149.48C1138.75 231.725 1130.05 223.027 1130.05 212.297V188.297Z" stroke="#292C36" stroke-opacity="0.5" stroke-width="1.14286"/>
</g>
<path d="M1166.37 186.145H1155.06C1150.46 186.145 1146.71 189.886 1146.71 194.486V205.803C1146.71 210.403 1150.46 214.145 1155.06 214.145H1166.37C1170.97 214.145 1174.71 210.403 1174.71 205.803V194.486C1174.71 189.886 1170.97 186.145 1166.37 186.145ZM1171.9 205.803C1171.9 208.854 1169.42 211.328 1166.37 211.328H1155.06C1152 211.328 1149.53 208.854 1149.53 205.803V194.486C1149.53 191.435 1152 188.961 1155.06 188.961H1166.37C1169.42 188.961 1171.9 191.435 1171.9 194.486V205.803Z" fill="url(#paint6_linear_3081_52567)"/>
<path d="M1160.71 192.903C1156.72 192.903 1153.47 196.151 1153.47 200.144C1153.47 204.138 1156.72 207.386 1160.71 207.386C1164.71 207.386 1167.96 204.138 1167.96 200.144C1167.96 196.151 1164.71 192.903 1160.71 192.903ZM1160.71 204.57C1158.27 204.57 1156.29 202.588 1156.29 200.145C1156.29 197.701 1158.27 195.72 1160.71 195.72C1163.16 195.72 1165.14 197.701 1165.14 200.145C1165.14 202.588 1163.16 204.57 1160.71 204.57Z" fill="url(#paint7_linear_3081_52567)"/>
<path d="M1167.97 194.692C1168.93 194.692 1169.7 193.915 1169.7 192.957C1169.7 191.999 1168.93 191.222 1167.97 191.222C1167.01 191.222 1166.23 191.999 1166.23 192.957C1166.23 193.915 1167.01 194.692 1167.97 194.692Z" fill="url(#paint8_linear_3081_52567)"/>
<g opacity="0.25">
<rect x="1120.74" y="240.445" width="80.1484" height="80.1484" transform="rotate(180 1120.74 240.445)" fill="#060B12"/>
<rect x="1120.24" y="239.945" width="79.1484" height="79.1484" transform="rotate(180 1120.24 239.945)" stroke="#2A3C46" stroke-opacity="0.8"/>
</g>
<g opacity="0.25">
<rect x="1040.59" y="240.445" width="80.1484" height="80.1484" transform="rotate(180 1040.59 240.445)" fill="#060B12"/>
<rect x="1040.09" y="239.945" width="79.1484" height="79.1484" transform="rotate(180 1040.09 239.945)" stroke="#2A3C46" stroke-opacity="0.8"/>
</g>
<g opacity="0.25">
<rect x="960.444" y="240.445" width="80.1484" height="80.1484" transform="rotate(180 960.444 240.445)" fill="#060B12"/>
<rect x="959.944" y="239.945" width="79.1484" height="79.1484" transform="rotate(180 959.944 239.945)" stroke="#2A3C46" stroke-opacity="0.8"/>
</g>
<g opacity="0.25">
<rect x="1441.33" y="160.297" width="80.1484" height="80.1484" transform="rotate(180 1441.33 160.297)" fill="#060B12"/>
<rect x="1440.83" y="159.797" width="79.1484" height="79.1484" transform="rotate(180 1440.83 159.797)" stroke="#2A3C46" stroke-opacity="0.8"/>
</g>
<g opacity="0.25">
<rect x="1361.19" y="160.297" width="80.1484" height="80.1484" transform="rotate(180 1361.19 160.297)" fill="#060B12"/>
<rect x="1360.69" y="159.797" width="79.1484" height="79.1484" transform="rotate(180 1360.69 159.797)" stroke="#2A3C46" stroke-opacity="0.8"/>
</g>
<g opacity="0.25">
<rect x="1281.04" y="160.297" width="80.1484" height="80.1484" transform="rotate(180 1281.04 160.297)" fill="#060B12"/>
<rect x="1280.54" y="159.797" width="79.1484" height="79.1484" transform="rotate(180 1280.54 159.797)" stroke="#2A3C46" stroke-opacity="0.8"/>
</g>
<g opacity="0.25">
<rect x="1200.89" y="160.297" width="80.1484" height="80.1484" transform="rotate(180 1200.89 160.297)" fill="#060B12"/>
<rect x="1200.39" y="159.797" width="79.1484" height="79.1484" transform="rotate(180 1200.39 159.797)" stroke="#2A3C46" stroke-opacity="0.8"/>
</g>
<g opacity="0.25">
<rect x="1120.74" y="160.297" width="80.1484" height="80.1484" transform="rotate(180 1120.74 160.297)" fill="#060B12"/>
<rect x="1120.24" y="159.797" width="79.1484" height="79.1484" transform="rotate(180 1120.24 159.797)" stroke="#2A3C46" stroke-opacity="0.8"/>
</g>
<g opacity="0.25">
<rect x="1040.59" y="160.297" width="80.1484" height="80.1484" transform="rotate(180 1040.59 160.297)" fill="#060B12"/>
<rect x="1040.09" y="159.797" width="79.1484" height="79.1484" transform="rotate(180 1040.09 159.797)" stroke="#2A3C46" stroke-opacity="0.8"/>
</g>
<g opacity="0.25">
<rect x="960.444" y="160.297" width="80.1484" height="80.1484" transform="rotate(180 960.444 160.297)" fill="#060B12"/>
<rect x="959.944" y="159.797" width="79.1484" height="79.1484" transform="rotate(180 959.944 159.797)" stroke="#2A3C46" stroke-opacity="0.8"/>
</g>
<g opacity="0.25">
<rect x="880.296" y="160.297" width="80.1484" height="80.1484" transform="rotate(180 880.296 160.297)" fill="#060B12"/>
<rect x="879.796" y="159.797" width="79.1484" height="79.1484" transform="rotate(180 879.796 159.797)" stroke="#2A3C46" stroke-opacity="0.8"/>
</g>
<g opacity="0.25">
<rect x="800.147" y="160.297" width="80.1484" height="80.1484" transform="rotate(180 800.147 160.297)" fill="#060B12"/>
<rect x="799.647" y="159.797" width="79.1484" height="79.1484" transform="rotate(180 799.647 159.797)" stroke="#2A3C46" stroke-opacity="0.8"/>
</g>
<g opacity="0.25">
<mask id="path-188-inside-27_3081_52567" fill="white">
<path d="M1361.19 0H1441.33V80.1484H1361.19V0Z"/>
</mask>
<path d="M1361.19 0H1441.33V80.1484H1361.19V0Z" fill="#0F1B2B"/>
<path d="M1440.33 0V80.1484H1442.33V0H1440.33Z" fill="#2A3C46" fill-opacity="0.8" mask="url(#path-188-inside-27_3081_52567)"/>
</g>
<g opacity="0.25">
<rect x="1361.19" y="80.1484" width="80.1484" height="80.1484" transform="rotate(180 1361.19 80.1484)" fill="#060B12"/>
<rect x="1360.69" y="79.6484" width="79.1484" height="79.1484" transform="rotate(180 1360.69 79.6484)" stroke="#2A3C46" stroke-opacity="0.8"/>
</g>
<g opacity="0.25">
<rect x="1281.04" y="80.1484" width="80.1484" height="80.1484" transform="rotate(180 1281.04 80.1484)" fill="#060B12"/>
<rect x="1280.54" y="79.6484" width="79.1484" height="79.1484" transform="rotate(180 1280.54 79.6484)" stroke="#2A3C46" stroke-opacity="0.8"/>
</g>
<g opacity="0.25">
<rect x="1200.89" y="80.1484" width="80.1484" height="80.1484" transform="rotate(180 1200.89 80.1484)" fill="#060B12"/>
<rect x="1200.39" y="79.6484" width="79.1484" height="79.1484" transform="rotate(180 1200.39 79.6484)" stroke="#2A3C46" stroke-opacity="0.8"/>
</g>
<g opacity="0.25">
<rect x="1120.74" y="80.1484" width="80.1484" height="80.1484" transform="rotate(180 1120.74 80.1484)" fill="#060B12"/>
<rect x="1120.24" y="79.6484" width="79.1484" height="79.1484" transform="rotate(180 1120.24 79.6484)" stroke="#2A3C46" stroke-opacity="0.8"/>
</g>
<g opacity="0.25">
<mask id="path-198-inside-28_3081_52567" fill="white">
<path d="M960.444 0H1040.59V80.1484H960.444V0Z"/>
</mask>
<path d="M960.444 0H1040.59V80.1484H960.444V0Z" fill="#0F1B2B"/>
<path d="M1039.59 0V80.1484H1041.59V0H1039.59Z" fill="#2A3C46" fill-opacity="0.8" mask="url(#path-198-inside-28_3081_52567)"/>
</g>
<g opacity="0.8" filter="url(#filter8_b_3081_52567)">
<path d="M969.187 28C969.187 16.9543 978.141 8 989.187 8H1013.19C1024.23 8 1033.19 16.9543 1033.19 28V52C1033.19 63.0457 1024.23 72 1013.19 72H989.187C978.141 72 969.187 63.0457 969.187 52V28Z" fill="#060B12" fill-opacity="0.5"/>
<path d="M969.187 28C969.187 16.9543 978.141 8 989.187 8H1013.19C1024.23 8 1033.19 16.9543 1033.19 28V52C1033.19 63.0457 1024.23 72 1013.19 72H989.187C978.141 72 969.187 63.0457 969.187 52V28Z" fill="url(#paint9_linear_3081_52567)" fill-opacity="0.3"/>
<path d="M969.758 28C969.758 17.2699 978.456 8.57143 989.187 8.57143H1013.19C1023.92 8.57143 1032.62 17.2699 1032.62 28V52C1032.62 62.7301 1023.92 71.4286 1013.19 71.4286H989.187C978.456 71.4286 969.758 62.7301 969.758 52V28Z" stroke="#292C36" stroke-opacity="0.5" stroke-width="1.14286"/>
</g>
<path opacity="0.5" d="M1014.08 37.0947C1014.45 36.0172 1014.57 34.8758 1014.45 33.7467C1014.33 32.6175 1013.97 31.5267 1013.39 30.547C1012.53 29.0663 1011.21 27.8939 1009.63 27.199C1008.05 26.504 1006.28 26.3224 1004.59 26.6804C1003.63 25.6251 1002.4 24.8381 1001.03 24.3982C999.665 23.9584 998.204 23.8814 996.796 24.1747C995.389 24.4681 994.085 25.1216 993.014 26.0697C991.944 27.0177 991.145 28.2269 990.699 29.5757C989.571 29.8038 988.505 30.2667 987.573 30.9335C986.642 31.6003 985.865 32.4557 985.295 33.4423C984.423 34.9206 984.05 36.6341 984.231 38.335C984.411 40.036 985.136 41.6362 986.299 42.9044C985.935 43.9814 985.808 45.1227 985.927 46.2518C986.046 47.381 986.408 48.4721 986.989 49.452C987.853 50.9333 989.171 52.106 990.754 52.8009C992.336 53.4958 994.102 53.6772 995.795 53.3188C996.559 54.1676 997.498 54.8457 998.549 55.3081C999.6 55.7704 1000.74 56.0062 1001.89 55.9999C1003.62 56.0014 1005.32 55.4591 1006.72 54.4512C1008.12 53.4433 1009.16 52.0219 1009.69 50.3922C1010.82 50.1636 1011.88 49.7005 1012.82 49.0337C1013.75 48.367 1014.52 47.5118 1015.09 46.5254C1015.96 45.0492 1016.32 43.3422 1016.14 41.6484C1015.96 39.9546 1015.24 38.3606 1014.08 37.0947ZM1001.89 53.9055C1000.47 53.9077 999.092 53.4164 998.002 52.5178L998.193 52.4106L1004.65 48.733C1004.81 48.64 1004.95 48.5073 1005.04 48.3481C1005.13 48.1888 1005.18 48.0084 1005.18 47.8246V38.8421L1007.91 40.4002C1007.93 40.4069 1007.94 40.4167 1007.95 40.4288C1007.96 40.4408 1007.96 40.4548 1007.96 40.4695V47.913C1007.96 49.5013 1007.32 51.0235 1006.18 52.1466C1005.04 53.2697 1003.5 53.9021 1001.89 53.9055ZM988.831 48.405C988.119 47.1911 987.863 45.7683 988.109 44.3867L988.3 44.5003L994.766 48.1779C994.926 48.2705 995.108 48.3193 995.293 48.3193C995.479 48.3193 995.661 48.2705 995.821 48.1779L1003.72 43.6866V46.7964C1003.72 46.8126 1003.71 46.8283 1003.71 46.8425C1003.7 46.8567 1003.69 46.869 1003.67 46.8784L997.132 50.6002C995.736 51.3935 994.077 51.6079 992.521 51.1964C990.965 50.7848 989.638 49.7808 988.831 48.405ZM987.13 34.5274C987.848 33.3058 988.98 32.374 990.328 31.897V39.4666C990.325 39.6495 990.373 39.8296 990.465 39.9883C990.557 40.1469 990.691 40.2783 990.852 40.3686L998.711 44.841L995.981 46.399C995.966 46.4067 995.949 46.4108 995.933 46.4108C995.916 46.4108 995.9 46.4067 995.885 46.399L989.356 42.6836C987.962 41.8869 986.945 40.5778 986.528 39.0432C986.111 37.5086 986.328 35.8735 987.13 34.4959V34.5274ZM1009.56 39.6685L1001.68 35.1519L1004.4 33.5999C1004.42 33.5922 1004.43 33.5882 1004.45 33.5882C1004.47 33.5882 1004.48 33.5922 1004.5 33.5999L1011.03 37.3217C1012.03 37.8899 1012.84 38.7265 1013.37 39.7338C1013.91 40.7411 1014.14 41.8776 1014.05 43.0106C1013.95 44.1435 1013.53 45.2262 1012.83 46.1322C1012.14 47.0382 1011.19 47.7302 1010.11 48.1272V40.5577C1010.11 40.3751 1010.05 40.1971 1009.96 40.0412C1009.86 39.8853 1009.73 39.7569 1009.56 39.6685ZM1012.28 35.6377L1012.09 35.5241L1005.64 31.815C1005.48 31.7218 1005.29 31.6727 1005.11 31.6727C1004.92 31.6727 1004.74 31.7218 1004.58 31.815L996.684 36.3062V33.1965C996.683 33.1807 996.685 33.1647 996.692 33.1503C996.699 33.1358 996.709 33.1235 996.723 33.1145L1003.25 29.399C1004.25 28.8304 1005.4 28.5545 1006.55 28.6038C1007.7 28.653 1008.82 29.0252 1009.77 29.677C1010.71 30.3287 1011.45 31.233 1011.9 32.2841C1012.34 33.3352 1012.48 34.4896 1012.28 35.6123L1012.28 35.6377ZM995.194 41.1506L992.464 39.5989C992.45 39.5907 992.438 39.5798 992.429 39.5667C992.421 39.5536 992.415 39.5388 992.412 39.5233V32.0989C992.414 30.9599 992.744 29.8449 993.364 28.8842C993.984 27.9235 994.869 27.1569 995.915 26.6739C996.961 26.1909 998.124 26.0115 999.269 26.1567C1000.41 26.302 1001.49 26.7658 1002.38 27.494L1002.19 27.6013L995.731 31.2786C995.571 31.3716 995.437 31.5043 995.344 31.6635C995.251 31.8228 995.202 32.0032 995.201 32.187L995.194 41.1506ZM996.678 37.9967L1000.19 35.997L1003.72 37.9967V41.9959L1000.21 43.9955L996.684 41.9959L996.678 37.9967Z" fill="#74AA9C"/>
<g opacity="0.25">
<rect x="960.444" y="80.1484" width="80.1484" height="80.1484" transform="rotate(180 960.444 80.1484)" fill="#060B12"/>
<rect x="959.944" y="79.6484" width="79.1484" height="79.1484" transform="rotate(180 959.944 79.6484)" stroke="#2A3C46" stroke-opacity="0.8"/>
</g>
<g opacity="0.25">
<rect x="880.296" y="80.1484" width="80.1484" height="80.1484" transform="rotate(180 880.296 80.1484)" fill="#060B12"/>
<rect x="879.796" y="79.6484" width="79.1484" height="79.1484" transform="rotate(180 879.796 79.6484)" stroke="#2A3C46" stroke-opacity="0.8"/>
</g>
<g opacity="0.25">
<rect x="800.147" y="80.1484" width="80.1484" height="80.1484" transform="rotate(180 800.147 80.1484)" fill="#060B12"/>
<rect x="799.647" y="79.6484" width="79.1484" height="79.1484" transform="rotate(180 799.647 79.6484)" stroke="#2A3C46" stroke-opacity="0.8"/>
</g>
</g>
<path d="M1440 400.742L1440 401.41L1440.67 401.41L1440.67 400.742L1440 400.742ZM1440 9.15527e-05L1440.67 9.14943e-05L1440.67 -0.667816L1440 -0.667816L1440 9.15527e-05ZM1440 400.074L720 400.074L720 401.41L1440 401.41L1440 400.074ZM720 0.668062L1440 0.667999L1440 -0.667816L720 -0.667753L720 0.668062ZM1439.33 9.16111e-05L1439.33 400.742L1440.67 400.742L1440.67 9.14943e-05L1439.33 9.16111e-05Z" fill="#2A3C46" fill-opacity="0.5" mask="url(#path-111-inside-17_3081_52567)"/>
<defs>
<filter id="filter0_f_3081_52567" x="-260.483" y="-16.028" width="507.607" height="507.607" filterUnits="userSpaceOnUse" color-interpolation-filters="sRGB">
<feFlood flood-opacity="0" result="BackgroundImageFix"/>
<feBlend mode="normal" in="SourceGraphic" in2="BackgroundImageFix" result="shape"/>
<feGaussianBlur stdDeviation="106.865" result="effect1_foregroundBlur_3081_52567"/>
</filter>
<filter id="filter1_b_3081_52567" x="47.8525" y="-31.7031" width="464" height="464" filterUnits="userSpaceOnUse" color-interpolation-filters="sRGB">
<feFlood flood-opacity="0" result="BackgroundImageFix"/>
<feGaussianBlur in="BackgroundImageFix" stdDeviation="100"/>
<feComposite in2="SourceAlpha" operator="in" result="effect1_backgroundBlur_3081_52567"/>
<feBlend mode="normal" in="SourceGraphic" in2="effect1_backgroundBlur_3081_52567" result="shape"/>
</filter>
<filter id="filter2_b_3081_52567" x="208.298" y="128.891" width="464" height="464" filterUnits="userSpaceOnUse" color-interpolation-filters="sRGB">
<feFlood flood-opacity="0" result="BackgroundImageFix"/>
<feGaussianBlur in="BackgroundImageFix" stdDeviation="100"/>
<feComposite in2="SourceAlpha" operator="in" result="effect1_backgroundBlur_3081_52567"/>
<feBlend mode="normal" in="SourceGraphic" in2="effect1_backgroundBlur_3081_52567" result="shape"/>
</filter>
<filter id="filter3_b_3081_52567" x="208.149" y="128.594" width="464" height="464" filterUnits="userSpaceOnUse" color-interpolation-filters="sRGB">
<feFlood flood-opacity="0" result="BackgroundImageFix"/>
<feGaussianBlur in="BackgroundImageFix" stdDeviation="100"/>
<feComposite in2="SourceAlpha" operator="in" result="effect1_backgroundBlur_3081_52567"/>
<feBlend mode="normal" in="SourceGraphic" in2="effect1_backgroundBlur_3081_52567" result="shape"/>
</filter>
<filter id="filter4_b_3081_52567" x="208" y="-192" width="464" height="464" filterUnits="userSpaceOnUse" color-interpolation-filters="sRGB">
<feFlood flood-opacity="0" result="BackgroundImageFix"/>
<feGaussianBlur in="BackgroundImageFix" stdDeviation="100"/>
<feComposite in2="SourceAlpha" operator="in" result="effect1_backgroundBlur_3081_52567"/>
<feBlend mode="normal" in="SourceGraphic" in2="effect1_backgroundBlur_3081_52567" result="shape"/>
</filter>
<filter id="filter5_f_3081_52567" x="1192.88" y="-90.8366" width="507.607" height="507.607" filterUnits="userSpaceOnUse" color-interpolation-filters="sRGB">
<feFlood flood-opacity="0" result="BackgroundImageFix"/>
<feBlend mode="normal" in="SourceGraphic" in2="BackgroundImageFix" result="shape"/>
<feGaussianBlur stdDeviation="106.865" result="effect1_foregroundBlur_3081_52567"/>
</filter>
<filter id="filter6_b_3081_52567" x="689.038" y="128.594" width="464" height="464" filterUnits="userSpaceOnUse" color-interpolation-filters="sRGB">
<feFlood flood-opacity="0" result="BackgroundImageFix"/>
<feGaussianBlur in="BackgroundImageFix" stdDeviation="100"/>
<feComposite in2="SourceAlpha" operator="in" result="effect1_backgroundBlur_3081_52567"/>
<feBlend mode="normal" in="SourceGraphic" in2="effect1_backgroundBlur_3081_52567" result="shape"/>
</filter>
<filter id="filter7_b_3081_52567" x="929.483" y="-31.7031" width="464" height="464" filterUnits="userSpaceOnUse" color-interpolation-filters="sRGB">
<feFlood flood-opacity="0" result="BackgroundImageFix"/>
<feGaussianBlur in="BackgroundImageFix" stdDeviation="100"/>
<feComposite in2="SourceAlpha" operator="in" result="effect1_backgroundBlur_3081_52567"/>
<feBlend mode="normal" in="SourceGraphic" in2="effect1_backgroundBlur_3081_52567" result="shape"/>
</filter>
<filter id="filter8_b_3081_52567" x="769.187" y="-192" width="464" height="464" filterUnits="userSpaceOnUse" color-interpolation-filters="sRGB">
<feFlood flood-opacity="0" result="BackgroundImageFix"/>
<feGaussianBlur in="BackgroundImageFix" stdDeviation="100"/>
<feComposite in2="SourceAlpha" operator="in" result="effect1_backgroundBlur_3081_52567"/>
<feBlend mode="normal" in="SourceGraphic" in2="effect1_backgroundBlur_3081_52567" result="shape"/>
</filter>
<linearGradient id="paint0_linear_3081_52567" x1="255.853" y1="175.725" x2="314.145" y2="203.706" gradientUnits="userSpaceOnUse">
<stop offset="0.118801" stop-color="#1D3050"/>
<stop offset="0.666623" stop-color="#060B13"/>
</linearGradient>
<linearGradient id="paint1_linear_3081_52567" x1="416.298" y1="336.319" x2="474.59" y2="364.299" gradientUnits="userSpaceOnUse">
<stop offset="0.118801" stop-color="#1D3050"/>
<stop offset="0.666623" stop-color="#060B13"/>
</linearGradient>
<linearGradient id="paint2_linear_3081_52567" x1="416.149" y1="336.022" x2="474.442" y2="364.002" gradientUnits="userSpaceOnUse">
<stop offset="0.118801" stop-color="#1D3050"/>
<stop offset="0.666623" stop-color="#060B13"/>
</linearGradient>
<linearGradient id="paint3_linear_3081_52567" x1="416" y1="15.4286" x2="474.292" y2="43.4087" gradientUnits="userSpaceOnUse">
<stop offset="0.118801" stop-color="#1D3050"/>
<stop offset="0.666623" stop-color="#060B13"/>
</linearGradient>
<linearGradient id="paint4_linear_3081_52567" x1="897.038" y1="336.022" x2="955.331" y2="364.002" gradientUnits="userSpaceOnUse">
<stop offset="0.118801" stop-color="#1D3050"/>
<stop offset="0.666623" stop-color="#060B13"/>
</linearGradient>
<linearGradient id="paint5_linear_3081_52567" x1="1137.48" y1="175.725" x2="1195.78" y2="203.706" gradientUnits="userSpaceOnUse">
<stop offset="0.118801" stop-color="#1D3050"/>
<stop offset="0.666623" stop-color="#060B13"/>
</linearGradient>
<linearGradient id="paint6_linear_3081_52567" x1="1160.71" y1="214.063" x2="1160.71" y2="186.362" gradientUnits="userSpaceOnUse">
<stop stop-color="#E09B3D"/>
<stop offset="0.3" stop-color="#C74C4D"/>
<stop offset="0.6" stop-color="#C21975"/>
<stop offset="1" stop-color="#7024C4"/>
</linearGradient>
<linearGradient id="paint7_linear_3081_52567" x1="1160.71" y1="227.052" x2="1160.71" y2="173.5" gradientUnits="userSpaceOnUse">
<stop stop-color="#E09B3D"/>
<stop offset="0.3" stop-color="#C74C4D"/>
<stop offset="0.6" stop-color="#C21975"/>
<stop offset="1" stop-color="#7024C4"/>
</linearGradient>
<linearGradient id="paint8_linear_3081_52567" x1="1167.97" y1="214.063" x2="1167.97" y2="186.362" gradientUnits="userSpaceOnUse">
<stop stop-color="#E09B3D"/>
<stop offset="0.3" stop-color="#C74C4D"/>
<stop offset="0.6" stop-color="#C21975"/>
<stop offset="1" stop-color="#7024C4"/>
</linearGradient>
<linearGradient id="paint9_linear_3081_52567" x1="977.187" y1="15.4286" x2="1035.48" y2="43.4087" gradientUnits="userSpaceOnUse">
<stop offset="0.118801" stop-color="#1D3050"/>
<stop offset="0.666623" stop-color="#060B13"/>
</linearGradient>
<clipPath id="clip0_3081_52567">
<path d="M0 0H720V400.742H0V0Z" fill="white"/>
</clipPath>
<clipPath id="clip1_3081_52567">
<path d="M1440 400.742L720 400.742L720 0.000154497L1440 9.15527e-05L1440 400.742Z" fill="white"/>
</clipPath>
</defs>
</svg>
