<svg width="20" height="21" viewBox="0 0 20 21" fill="none" xmlns="http://www.w3.org/2000/svg">
<g clip-path="url(#clip0_2060_36499)">
<path d="M19.6999 13.2347C18.3638 18.5947 12.9332 21.853 7.58089 20.5168C2.22073 19.1807 -1.03755 13.7504 0.298622 8.39813C1.63472 3.03812 7.05737 -0.220168 12.4175 1.11601C17.7699 2.44429 21.036 7.87461 19.6999 13.2347Z" fill="url(#paint0_linear_2060_36499)"/>
<path d="M14.7627 9.57032C14.958 8.24219 13.9502 7.52344 12.5596 7.04688L13.0127 5.24219L11.9189 4.96875L11.4814 6.72657C11.1924 6.65625 10.8955 6.58594 10.5986 6.52344L11.0361 4.75781L9.94238 4.48438L9.49707 6.28125C9.25488 6.22657 9.02051 6.17188 8.79395 6.11719V6.10938L7.27832 5.73438L6.98926 6.90625C6.98926 6.90625 7.80176 7.09375 7.78613 7.10157C8.23145 7.21094 8.30957 7.50782 8.29395 7.74219L7.77832 9.79688C7.80957 9.8047 7.84863 9.81251 7.89551 9.83595C7.85645 9.82813 7.81738 9.82032 7.77832 9.8047L7.05957 12.6797C7.00488 12.8125 6.86426 13.0156 6.55957 12.9375C6.56738 12.9531 5.7627 12.7422 5.7627 12.7422L5.21582 14L6.64551 14.3594C6.91113 14.4297 7.16895 14.4922 7.42676 14.5625L6.97363 16.3828L8.06738 16.6563L8.52051 14.8516C8.81738 14.9297 9.11426 15.0078 9.39551 15.0781L8.9502 16.875L10.0439 17.1485L10.4971 15.3281C12.3721 15.6797 13.7783 15.5391 14.3643 13.8438C14.8408 12.4844 14.3408 11.6953 13.3564 11.1797C14.083 11.0156 14.6221 10.5391 14.7627 9.57032ZM12.2549 13.086C11.9189 14.4453 9.62207 13.711 8.87988 13.5235L9.48145 11.1094C10.2236 11.2969 12.6143 11.6641 12.2549 13.086ZM12.5986 9.54688C12.2861 10.7891 10.3799 10.1563 9.7627 10L10.3096 7.81251C10.9268 7.96876 12.9189 8.25782 12.5986 9.54688Z" fill="white"/>
</g>
<defs>
<linearGradient id="paint0_linear_2060_36499" x1="999.458" y1="0.336406" x2="999.458" y2="2000.62" gradientUnits="userSpaceOnUse">
<stop stop-color="#F9AA4B"/>
<stop offset="1" stop-color="#F7931A"/>
</linearGradient>
<clipPath id="clip0_2060_36499">
<rect width="20" height="20" fill="white" transform="translate(0 0.816406)"/>
</clipPath>
</defs>
</svg>
