<svg width="64" height="63" viewBox="0 0 64 63" fill="none" xmlns="http://www.w3.org/2000/svg">
<g clip-path="url(#clip0_1256_35470)">
<rect y="0.269531" width="64" height="61.8358" rx="30.9179" fill="#B7F0FD" fill-opacity="0.1"/>
<g opacity="0.5">
<path d="M3.30859 -0.0351562L3.30859 57.732" stroke="url(#paint0_linear_1256_35470)" stroke-width="0.165228"/>
<path d="M16.9678 -0.0351562L17.0853 66.1291" stroke="url(#paint1_linear_1256_35470)" stroke-width="0.165228"/>
<path d="M30.7441 -0.0351562L30.8616 66.1291" stroke="url(#paint2_linear_1256_35470)" stroke-width="0.165228"/>
<path d="M44.5205 -0.0351562L44.5205 57.732" stroke="url(#paint3_linear_1256_35470)" stroke-width="0.165228"/>
<path d="M58.1787 -0.0351562L58.1787 57.732" stroke="url(#paint4_linear_1256_35470)" stroke-width="0.165228"/>
</g>
<g opacity="0.5">
<path d="M-10.4717 52.1758L70.9306 52.1758" stroke="url(#paint5_linear_1256_35470)" stroke-width="0.110152"/>
<path d="M-16.6406 39.3984L77.0986 39.3984" stroke="url(#paint6_linear_1256_35470)" stroke-width="0.110152"/>
<path d="M-12.124 26.6211L72.5828 26.6211" stroke="url(#paint7_linear_1256_35470)" stroke-width="0.110152"/>
<path d="M-6.78223 13.8438L67.2398 13.8437" stroke="url(#paint8_linear_1256_35470)" stroke-width="0.110152"/>
</g>
<path d="M20.5786 30.0437C20.5786 27.191 21.1805 24.9484 22.3842 23.3159C23.6044 21.6835 25.476 20.8672 27.9989 20.8672C30.5053 20.8672 32.3686 21.6917 33.5889 23.3407C34.8091 24.9731 35.4192 27.2075 35.4192 30.0437C35.4192 32.8963 34.8091 35.1472 33.5889 36.7961C32.3686 38.4286 30.5053 39.2448 27.9989 39.2448C25.476 39.2448 23.6044 38.4286 22.3842 36.7961C21.1805 35.1472 20.5786 32.8963 20.5786 30.0437ZM30.0024 30.0437C30.0024 28.7245 29.8705 27.7351 29.6066 27.0755C29.3428 26.3995 28.8069 26.0614 27.9989 26.0614C27.1744 26.0614 26.6303 26.3995 26.3664 27.0755C26.1026 27.7351 25.9707 28.7245 25.9707 30.0437C25.9707 31.3793 26.1026 32.3852 26.3664 33.0612C26.6303 33.7208 27.1744 34.0506 27.9989 34.0506C28.8069 34.0506 29.3428 33.7208 29.6066 33.0612C29.8705 32.3852 30.0024 31.3793 30.0024 30.0437ZM36.4113 26.4077V21.263H44.7962V39.3438H39.0331V26.4077H36.4113Z" fill="#79C4EC"/>
</g>
<rect x="0.772938" y="1.04247" width="62.4541" height="60.2899" rx="30.1449" stroke="url(#paint9_angular_1256_35470)" stroke-width="1.54588"/>
<defs>
<linearGradient id="paint0_linear_1256_35470" x1="2.3032" y1="65.1239" x2="2.3032" y2="-4.60692" gradientUnits="userSpaceOnUse">
<stop offset="0.0520833" stop-color="#24343D" stop-opacity="0"/>
<stop offset="0.260417" stop-color="#4B6A7C" stop-opacity="0.479167"/>
<stop offset="0.5" stop-color="#24343D"/>
<stop offset="0.807292" stop-color="#4C6D80" stop-opacity="0.47"/>
<stop offset="0.916667" stop-color="#24343D" stop-opacity="0"/>
</linearGradient>
<linearGradient id="paint1_linear_1256_35470" x1="16.0949" y1="74.5972" x2="15.9702" y2="-5.26994" gradientUnits="userSpaceOnUse">
<stop offset="0.0520833" stop-color="#24343D" stop-opacity="0"/>
<stop offset="0.260417" stop-color="#4B6A7C" stop-opacity="0.479167"/>
<stop offset="0.5" stop-color="#24343D"/>
<stop offset="0.807292" stop-color="#4C6D80" stop-opacity="0.47"/>
<stop offset="0.916667" stop-color="#24343D" stop-opacity="0"/>
</linearGradient>
<linearGradient id="paint2_linear_1256_35470" x1="29.8713" y1="74.5972" x2="29.7466" y2="-5.26994" gradientUnits="userSpaceOnUse">
<stop offset="0.0520833" stop-color="#24343D" stop-opacity="0"/>
<stop offset="0.260417" stop-color="#4B6A7C" stop-opacity="0.479167"/>
<stop offset="0.5" stop-color="#24343D"/>
<stop offset="0.807292" stop-color="#4C6D80" stop-opacity="0.47"/>
<stop offset="0.916667" stop-color="#24343D" stop-opacity="0"/>
</linearGradient>
<linearGradient id="paint3_linear_1256_35470" x1="43.5151" y1="65.1239" x2="43.5151" y2="-4.60692" gradientUnits="userSpaceOnUse">
<stop offset="0.0520833" stop-color="#24343D" stop-opacity="0"/>
<stop offset="0.260417" stop-color="#4B6A7C" stop-opacity="0.479167"/>
<stop offset="0.5" stop-color="#24343D"/>
<stop offset="0.807292" stop-color="#4C6D80" stop-opacity="0.47"/>
<stop offset="0.916667" stop-color="#24343D" stop-opacity="0"/>
</linearGradient>
<linearGradient id="paint4_linear_1256_35470" x1="57.1733" y1="65.1239" x2="57.1733" y2="-4.60692" gradientUnits="userSpaceOnUse">
<stop offset="0.0520833" stop-color="#24343D" stop-opacity="0"/>
<stop offset="0.260417" stop-color="#4B6A7C" stop-opacity="0.479167"/>
<stop offset="0.5" stop-color="#24343D"/>
<stop offset="0.807292" stop-color="#4C6D80" stop-opacity="0.47"/>
<stop offset="0.916667" stop-color="#24343D" stop-opacity="0"/>
</linearGradient>
<linearGradient id="paint5_linear_1256_35470" x1="81.3469" y1="53.1812" x2="-16.914" y2="53.1812" gradientUnits="userSpaceOnUse">
<stop offset="0.0520833" stop-color="#24343D" stop-opacity="0"/>
<stop offset="0.260417" stop-color="#4B6A7C" stop-opacity="0.479167"/>
<stop offset="0.5" stop-color="#24343D"/>
<stop offset="0.807292" stop-color="#4C6D80" stop-opacity="0.47"/>
<stop offset="0.916667" stop-color="#24343D" stop-opacity="0"/>
</linearGradient>
<linearGradient id="paint6_linear_1256_35470" x1="89.0936" y1="40.4038" x2="-24.0593" y2="40.4038" gradientUnits="userSpaceOnUse">
<stop offset="0.0520833" stop-color="#24343D" stop-opacity="0"/>
<stop offset="0.260417" stop-color="#4B6A7C" stop-opacity="0.479167"/>
<stop offset="0.5" stop-color="#24343D"/>
<stop offset="0.807292" stop-color="#4C6D80" stop-opacity="0.47"/>
<stop offset="0.916667" stop-color="#24343D" stop-opacity="0"/>
</linearGradient>
<linearGradient id="paint7_linear_1256_35470" x1="83.422" y1="27.6265" x2="-18.8278" y2="27.6265" gradientUnits="userSpaceOnUse">
<stop offset="0.0520833" stop-color="#24343D" stop-opacity="0"/>
<stop offset="0.260417" stop-color="#4B6A7C" stop-opacity="0.479167"/>
<stop offset="0.5" stop-color="#24343D"/>
<stop offset="0.807292" stop-color="#4C6D80" stop-opacity="0.47"/>
<stop offset="0.916667" stop-color="#24343D" stop-opacity="0"/>
</linearGradient>
<linearGradient id="paint8_linear_1256_35470" x1="76.7118" y1="14.8491" x2="-12.6404" y2="14.8491" gradientUnits="userSpaceOnUse">
<stop offset="0.0520833" stop-color="#24343D" stop-opacity="0"/>
<stop offset="0.260417" stop-color="#4B6A7C" stop-opacity="0.479167"/>
<stop offset="0.5" stop-color="#24343D"/>
<stop offset="0.807292" stop-color="#4C6D80" stop-opacity="0.47"/>
<stop offset="0.916667" stop-color="#24343D" stop-opacity="0"/>
</linearGradient>
<radialGradient id="paint9_angular_1256_35470" cx="0" cy="0" r="1" gradientUnits="userSpaceOnUse" gradientTransform="translate(33.5438 61.6268) rotate(135.985) scale(34.6546 6.28525e+06)">
<stop stop-color="#29A8F1"/>
<stop offset="0.760945" stop-color="#24343D" stop-opacity="0.479167"/>
<stop offset="1" stop-color="#24343D" stop-opacity="0"/>
</radialGradient>
<clipPath id="clip0_1256_35470">
<rect y="0.269531" width="64" height="61.8358" rx="30.9179" fill="white"/>
</clipPath>
</defs>
</svg>
