<svg xmlns="http://www.w3.org/2000/svg" width="71" height="67" viewBox="0 0 71 67" fill="none">
  <g filter="url(#filter0_d_3081_52085)">
    <path d="M34.0996 10.1992L34.0996 28.3992" stroke="#79C4EC" stroke-width="2.1" stroke-linecap="round"/>
    <path d="M34.1 28.4C33.7888 28.4 33.153 28.0611 31.8814 27.3834C30.5889 26.6945 28.8034 26.009 26.5155 25.5788C23.949 25.0962 22.6657 24.8549 22.0829 24.1423C21.5 23.4298 21.5 22.2886 21.5 20.0062V11.0352C21.5 8.53894 21.5 7.29083 22.4082 6.52222C23.3164 5.75362 24.3828 5.95415 26.5155 6.35521C30.7254 7.14688 33.2345 8.80288 34.1 9.7536C34.9655 8.80288 37.4746 7.14688 41.6845 6.35521C43.8172 5.95415 44.8836 5.75362 45.7918 6.52222C46.7 7.29083 46.7 8.53894 46.7 11.0352V15.1" stroke="#79C4EC" stroke-width="2.1" stroke-linecap="round" stroke-linejoin="round"/>
    <path d="M40.1866 29.5976L39.9671 28.5708H39.9671L40.1866 29.5976ZM38.5018 27.9128L39.5286 28.1324L38.5018 27.9128ZM39.7287 24.356L38.9863 23.6135L39.7287 24.356ZM49.2146 20.6678L50.1239 20.1428L49.2146 20.6678ZM49.2146 22.7969L50.1239 23.3219V23.3219L49.2146 22.7969ZM47.4316 18.8849L47.9566 17.9755L47.4316 18.8849ZM44.3597 19.725L45.1022 20.4675L44.3597 19.725ZM45.3025 18.8849L44.7775 17.9755L45.3025 18.8849ZM47.6319 22.9972L43.0009 27.6282L44.4859 29.1131L49.1168 24.4822L47.6319 22.9972ZM40.4712 25.0985L45.1022 20.4675L43.6173 18.9826L38.9863 23.6135L40.4712 25.0985ZM39.9671 28.5708C39.7214 28.6233 39.5252 28.6652 39.3565 28.6966C39.1864 28.7282 39.0748 28.7432 38.9992 28.748C38.9215 28.7529 38.9269 28.7437 38.9754 28.7562C39.0413 28.7732 39.1309 28.8157 39.2073 28.8921L37.7224 30.377C38.1757 30.8303 38.7419 30.8686 39.1325 30.8437C39.5042 30.8201 39.9573 30.7204 40.4062 30.6244L39.9671 28.5708ZM37.475 27.6932C37.379 28.1421 37.2793 28.5952 37.2557 28.9669C37.2308 29.3575 37.2691 29.9237 37.7224 30.377L39.2073 28.8921C39.2837 28.9685 39.3262 29.0582 39.3432 29.1241C39.3557 29.1725 39.3465 29.1779 39.3514 29.1002C39.3562 29.0246 39.3712 28.913 39.4028 28.7429C39.4342 28.5742 39.4761 28.378 39.5286 28.1324L37.475 27.6932ZM47.6319 20.4675C48.1464 20.982 48.2516 21.1 48.3052 21.1928L50.1239 20.1428C49.8972 19.7502 49.5357 19.4015 49.1168 18.9826L47.6319 20.4675ZM49.1168 24.4822C49.5357 24.0633 49.8972 23.7146 50.1239 23.3219L48.3052 22.2719C48.2516 22.3648 48.1464 22.4827 47.6319 22.9972L49.1168 24.4822ZM48.3052 21.1928C48.498 21.5267 48.498 21.938 48.3052 22.2719L50.1239 23.3219C50.6918 22.3383 50.6918 21.1264 50.1239 20.1428L48.3052 21.1928ZM49.1168 18.9826C48.6979 18.5637 48.3492 18.2022 47.9566 17.9755L46.9066 19.7942C46.9994 19.8478 47.1174 19.953 47.6319 20.4675L49.1168 18.9826ZM45.1022 20.4675C45.6167 19.953 45.7346 19.8478 45.8275 19.7942L44.7775 17.9755C44.3849 18.2022 44.0361 18.5637 43.6173 18.9826L45.1022 20.4675ZM47.9566 17.9755C46.973 17.4076 45.7611 17.4076 44.7775 17.9755L45.8275 19.7942C46.1614 19.6014 46.5727 19.6014 46.9066 19.7942L47.9566 17.9755ZM43.0009 27.6282C42.7272 27.902 42.3531 28.079 41.8215 28.2147C41.5553 28.2827 41.2712 28.3352 40.9546 28.3899C40.6504 28.4425 40.3022 28.4992 39.9671 28.5708L40.4062 30.6244C40.6887 30.564 40.9782 30.5169 41.3122 30.4592C41.6337 30.4037 41.9882 30.3395 42.341 30.2494C43.0477 30.069 43.8344 29.7646 44.4859 29.1131L43.0009 27.6282ZM39.5286 28.1324C39.6002 27.7972 39.657 27.449 39.7095 27.1448C39.7642 26.8282 39.8168 26.5442 39.8847 26.2779C40.0205 25.7463 40.1975 25.3722 40.4712 25.0985L38.9863 23.6135C38.3348 24.265 38.0304 25.0517 37.85 25.7584C37.7599 26.1112 37.6957 26.4657 37.6402 26.7873C37.5825 27.1212 37.5354 27.4107 37.475 27.6932L39.5286 28.1324Z" fill="#79C4EC"/>
  </g>
  <defs>
    <filter id="filter0_d_3081_52085" x="0.450195" y="0.949216" width="70.0996" height="65.9004" filterUnits="userSpaceOnUse" color-interpolation-filters="sRGB">
      <feFlood flood-opacity="0" result="BackgroundImageFix"/>
      <feColorMatrix in="SourceAlpha" type="matrix" values="0 0 0 0 0 0 0 0 0 0 0 0 0 0 0 0 0 0 127 0" result="hardAlpha"/>
      <feOffset dy="16"/>
      <feGaussianBlur stdDeviation="10"/>
      <feComposite in2="hardAlpha" operator="out"/>
      <feColorMatrix type="matrix" values="0 0 0 0 0.456424 0 0 0 0 0.687181 0 0 0 0 0.70191 0 0 0 0.15 0"/>
      <feBlend mode="normal" in2="BackgroundImageFix" result="effect1_dropShadow_3081_52085"/>
      <feBlend mode="normal" in="SourceGraphic" in2="effect1_dropShadow_3081_52085" result="shape"/>
    </filter>
  </defs>
</svg>