<svg xmlns="http://www.w3.org/2000/svg" width="25" height="28" viewBox="0 0 25 28" fill="none">
  <path d="M11.8732 6.75203C11.5751 5.1274 12.3435 3.45547 13.269 2.32873C14.2889 1.08551 16.0392 0.132116 17.535 0.0273438C17.7876 1.73066 17.0923 3.39023 16.1769 4.56411C15.195 5.8252 13.5068 6.80315 11.8732 6.75203ZM20.6469 12.6389C21.1097 11.3481 22.0266 10.1867 23.4491 9.40305C22.0116 7.60989 19.9934 6.56884 18.0888 6.56884C15.569 6.56884 14.5035 7.76896 12.7533 7.76896C10.9503 7.76896 9.5825 6.56884 7.39983 6.56884C5.25951 6.56884 2.98122 7.87292 1.53632 10.1001C1.00506 10.9233 0.645172 11.9461 0.448901 13.0852C-0.0957119 16.2808 0.717817 20.4432 3.14456 24.139C4.32448 25.9324 5.89722 27.9525 7.95183 27.9701C9.7821 27.988 10.3013 26.8003 12.7791 26.788C15.2605 26.7739 15.7307 27.9824 17.5585 27.9649C19.6137 27.9476 21.2731 25.7121 22.453 23.9189C23.2932 22.6321 23.6109 21.9821 24.2642 20.5273C20.9423 19.275 19.5761 15.6158 20.6469 12.6389Z" fill="#94D0F0"/>
</svg>