<svg xmlns="http://www.w3.org/2000/svg" width="25" height="28" viewBox="0 0 25 28" fill="none">
  <path d="M0.809532 0.726562C0.776348 0.829433 0.743164 0.931198 0.743164 1.06725V26.7617C0.743164 27.0017 0.810638 27.1378 0.946693 27.2738L13.5732 13.8973L0.809532 0.726562ZM14.425 14.7833L17.6892 18.1515L13.029 20.8063C13.029 20.8063 7.10566 24.1733 3.83924 26.0482L14.425 14.7833ZM15.311 13.8641L18.813 17.5055C19.3616 17.2003 23.6479 14.7491 24.2596 14.4084C24.9056 14.0345 24.8403 13.5235 24.2917 13.2513C23.784 12.9693 19.4977 10.5137 18.8495 10.1154L15.3066 13.8675L15.311 13.8641ZM14.4228 12.9792L17.7235 9.47389L13.0124 6.78487C13.0124 6.78487 5.33252 2.3913 2.77735 0.924561L14.4228 12.9792Z" fill="#79C4EC"/>
</svg>