<svg xmlns="http://www.w3.org/2000/svg" width="62" height="60" viewBox="0 0 62 60" fill="none">
  <g filter="url(#filter0_d_3081_52532)">
    <path d="M21 6.70234H28C29.6569 6.70234 31 8.31412 31 10.3023C31 12.2906 29.6569 13.9023 28 13.9023M28 13.9023C29.6569 13.9023 31 15.5141 31 17.5023C31 19.4906 29.6569 21.1023 28 21.1023H21M28 13.9023H22M21.8333 6.70234V21.1023M23.5 4.90234V6.70234M27.6667 4.90234V6.70234M23.5 21.1023V22.9023M27.6667 21.1023V22.9023" stroke="#79C4EC" stroke-width="1.5" stroke-linecap="round"/>
    <path d="M41 13.9023H33.5M41 13.9023C41 14.6026 39.0057 15.9108 38.5 16.4023M41 13.9023C41 13.2021 39.0057 11.8939 38.5 11.4023" stroke="#79C4EC" stroke-width="1.5" stroke-linecap="round" stroke-linejoin="round"/>
  </g>
  <defs>
    <filter id="filter0_d_3081_52532" x="0.25" y="0.152341" width="61.5" height="59.5" filterUnits="userSpaceOnUse" color-interpolation-filters="sRGB">
      <feFlood flood-opacity="0" result="BackgroundImageFix"/>
      <feColorMatrix in="SourceAlpha" type="matrix" values="0 0 0 0 0 0 0 0 0 0 0 0 0 0 0 0 0 0 127 0" result="hardAlpha"/>
      <feOffset dy="16"/>
      <feGaussianBlur stdDeviation="10"/>
      <feComposite in2="hardAlpha" operator="out"/>
      <feColorMatrix type="matrix" values="0 0 0 0 0.456424 0 0 0 0 0.687181 0 0 0 0 0.70191 0 0 0 0.15 0"/>
      <feBlend mode="normal" in2="BackgroundImageFix" result="effect1_dropShadow_3081_52532"/>
      <feBlend mode="normal" in="SourceGraphic" in2="effect1_dropShadow_3081_52532" result="shape"/>
    </filter>
  </defs>
</svg>