<svg xmlns="http://www.w3.org/2000/svg" width="66" height="61" viewBox="0 0 66 61" fill="none">
  <g filter="url(#filter0_d_3081_52526)">
    <path d="M31.8 24.1023H31.2C26.6897 24.1023 24.4346 24.1023 22.9289 22.9133C22.6881 22.7231 22.4654 22.5135 22.2634 22.2869C21 20.8698 21 18.7473 21 14.5023C21 10.2574 21 8.13487 22.2634 6.71782C22.4654 6.49118 22.6881 6.28157 22.9289 6.09139C24.4346 4.90234 26.6897 4.90234 31.2 4.90234H34.8C39.3103 4.90234 41.5654 4.90234 43.0711 6.09139C43.3119 6.28157 43.5346 6.49118 43.7366 6.71782C44.8749 7.99455 44.9876 9.84393 44.9988 13.3023" stroke="#79C4EC" stroke-width="1.5" stroke-linecap="round" stroke-linejoin="round"/>
    <path d="M21 10.9023H45" stroke="#79C4EC" stroke-width="1.5" stroke-linejoin="round"/>
    <path d="M35.4004 21.7023C35.4004 21.7023 36.6004 21.7023 37.8004 24.1023C37.8004 24.1023 41.6122 18.1023 45.0004 16.9023" stroke="#79C4EC" stroke-width="1.5" stroke-linecap="round" stroke-linejoin="round"/>
  </g>
  <defs>
    <filter id="filter0_d_3081_52526" x="0.25" y="0.152341" width="65.501" height="60.6992" filterUnits="userSpaceOnUse" color-interpolation-filters="sRGB">
      <feFlood flood-opacity="0" result="BackgroundImageFix"/>
      <feColorMatrix in="SourceAlpha" type="matrix" values="0 0 0 0 0 0 0 0 0 0 0 0 0 0 0 0 0 0 127 0" result="hardAlpha"/>
      <feOffset dy="16"/>
      <feGaussianBlur stdDeviation="10"/>
      <feComposite in2="hardAlpha" operator="out"/>
      <feColorMatrix type="matrix" values="0 0 0 0 0.456424 0 0 0 0 0.687181 0 0 0 0 0.70191 0 0 0 0.15 0"/>
      <feBlend mode="normal" in2="BackgroundImageFix" result="effect1_dropShadow_3081_52526"/>
      <feBlend mode="normal" in="SourceGraphic" in2="effect1_dropShadow_3081_52526" result="shape"/>
    </filter>
  </defs>
</svg>