<svg width="30" height="30" viewBox="0 0 33 33" fill="none" xmlns="http://www.w3.org/2000/svg">
<path fill-rule="evenodd" clip-rule="evenodd" d="M26.4775 18.3766C25.9994 18.6784 25.4368 18.7161 25.0088 18.4746C24.4656 18.168 24.1665 17.4506 24.1665 16.4498V13.4602C24.1665 12.0164 23.5957 10.9892 22.6413 10.7116C21.0244 10.2406 19.8075 12.2207 19.3499 12.9628L16.4973 17.5881V11.935C16.465 10.634 16.043 9.85574 15.2405 9.6213C14.7102 9.46608 13.9158 9.5286 13.1445 10.7089L6.7532 20.9711C5.89756 19.3468 5.45151 17.5381 5.45381 15.7023C5.45381 9.51998 10.4078 4.49211 16.4973 4.49211C22.5868 4.49211 27.5403 9.52159 27.5403 15.7023C27.5403 15.7131 27.543 15.7222 27.5435 15.7319C27.544 15.7416 27.5435 15.7524 27.5435 15.7632C27.6012 16.9602 27.2137 17.9125 26.4791 18.3766H26.4775ZM29.9941 15.7034V15.6726V15.6419C29.959 8.11224 23.9186 2 16.4968 2C9.05503 2 3 8.14673 3 15.7028C3 23.2589 9.05503 29.4051 16.4973 29.4051C19.9108 29.4057 23.1947 28.098 25.6734 25.751C25.9128 25.5244 26.0538 25.2129 26.066 24.8834C26.0782 24.554 25.9607 24.2329 25.7386 23.9892C25.5221 23.7507 25.2198 23.6079 24.8981 23.5923C24.5765 23.5766 24.2617 23.6893 24.0231 23.9056L24.0048 23.9224C21.977 25.8429 19.2902 26.913 16.4973 26.9125C13.2367 26.9125 10.3032 25.4691 8.28003 23.1808L14.0435 13.9275V18.1938C14.0435 20.2419 14.8384 20.9058 15.5046 21.0993C16.1707 21.2928 17.1909 21.1608 18.2613 19.4232L21.4319 14.2838C21.5337 14.1178 21.627 13.9749 21.7127 13.8526V16.4514C21.7127 18.3674 22.4801 19.9007 23.8178 20.6552C25.0234 21.3354 26.5394 21.274 27.7747 20.4936C29.2713 19.5461 30.0781 17.8036 29.9941 15.7034Z" fill="#9CA3AF"/>
</svg>
