<svg width="20" height="20" viewBox="0 0 20 20" fill="current" xmlns="http://www.w3.org/2000/svg">
<path d="M17.3117 15C17.9361 15 18.4328 14.6071 18.8787 14.0576C19.7916 12.9329 18.2928 12.034 17.7211 11.5938C17.14 11.1463 16.4912 10.8928 15.8333 10.8333M15 9.16667C16.1506 9.16667 17.0833 8.23393 17.0833 7.08333C17.0833 5.93274 16.1506 5 15 5" stroke="#818282" stroke-linecap="round"/>
<path d="M2.68822 15C2.0638 15 1.56714 14.6071 1.12121 14.0576C0.208326 12.9329 1.70714 12.034 2.27879 11.5938C2.8599 11.1463 3.50874 10.8928 4.16659 10.8333M4.58325 9.16667C3.43266 9.16667 2.49992 8.23393 2.49992 7.08333C2.49992 5.93274 3.43266 5 4.58325 5" stroke="#818282" stroke-linecap="round"/>
<path d="M6.73642 12.5901C5.88494 13.1166 3.65241 14.1916 5.01217 15.5369C5.6764 16.1941 6.41619 16.6641 7.34627 16.6641H12.6536C13.5837 16.6641 14.3234 16.1941 14.9877 15.5369C16.3474 14.1916 14.1149 13.1166 13.2634 12.5901C11.2667 11.3554 8.73313 11.3554 6.73642 12.5901Z" stroke="#818282" stroke-linecap="round" stroke-linejoin="round"/>
<path d="M12.9166 6.2487C12.9166 7.85953 11.6107 9.16537 9.99992 9.16537C8.38909 9.16537 7.08325 7.85953 7.08325 6.2487C7.08325 4.63787 8.38909 3.33203 9.99992 3.33203C11.6107 3.33203 12.9166 4.63787 12.9166 6.2487Z" stroke="#818282"/>
</svg>



