<svg width="22" height="22" viewBox="0 0 22 22" fill="none" xmlns="http://www.w3.org/2000/svg">
<path d="M6.5 11H12.5M6.5 7H9.5" stroke="#909292" stroke-width="1.5" stroke-linecap="round" stroke-linejoin="round"/>
<path d="M7.5 19C8.55038 19.8697 9.8145 20.4238 11.2635 20.5188C12.4052 20.5937 13.5971 20.5936 14.7365 20.5188C15.1288 20.4931 15.5565 20.4007 15.9248 20.251C16.3345 20.0845 16.5395 20.0012 16.6437 20.0138C16.7478 20.0264 16.8989 20.1364 17.2011 20.3563C17.7339 20.744 18.4051 21.0225 19.4005 20.9986C19.9038 20.9865 20.1555 20.9804 20.2681 20.7909C20.3808 20.6013 20.2405 20.3389 19.9598 19.8141C19.5706 19.0862 19.324 18.2529 19.6977 17.5852C20.3413 16.6315 20.8879 15.5021 20.9678 14.2823C21.0107 13.6269 21.0107 12.9481 20.9678 12.2927C20.9146 11.4799 20.7173 10.7073 20.4012 10" stroke="#909292" stroke-width="1.5" stroke-linecap="round" stroke-linejoin="round"/>
<path d="M11.345 16.4868C14.9006 16.2526 17.7328 13.4069 17.9658 9.83442C18.0114 9.13531 18.0114 8.41131 17.9658 7.71219C17.7328 4.13968 14.9006 1.29401 11.345 1.05985C10.132 0.979968 8.86553 0.980131 7.65499 1.05985C4.09943 1.29401 1.26725 4.13968 1.0342 7.71219C0.988599 8.41131 0.988599 9.13531 1.0342 9.83442C1.11908 11.1356 1.69992 12.3403 2.38372 13.3576C2.78076 14.0697 2.51873 14.9586 2.10518 15.735C1.807 16.2948 1.65791 16.5747 1.77762 16.7769C1.89732 16.9791 2.16472 16.9856 2.69951 16.9985C3.75712 17.024 4.47028 16.7269 5.03638 16.3134C5.35744 16.0788 5.51798 15.9615 5.62862 15.9481C5.73926 15.9346 5.957 16.0234 6.39241 16.2011C6.78374 16.3608 7.23812 16.4593 7.65499 16.4868C8.86553 16.5665 10.132 16.5666 11.345 16.4868Z" stroke="#909292" stroke-width="1.5" stroke-linejoin="round"/>
</svg>
