<svg width="580" height="436" viewBox="0 0 580 436" fill="none" xmlns="http://www.w3.org/2000/svg">
<g opacity="0.5">
<path fill-rule="evenodd" clip-rule="evenodd" d="M116.146 348.11L116.147 0.542969L117.141 0.542969L117.141 348.11L116.146 348.11Z" fill="url(#paint0_linear_1256_35394)" stroke="url(#paint1_linear_1256_35394)"/>
<path fill-rule="evenodd" clip-rule="evenodd" d="M199.034 398.634L198.327 0.544521L199.321 0.542969L200.028 398.633L199.034 398.634Z" fill="url(#paint2_linear_1256_35394)" stroke="url(#paint3_linear_1256_35394)"/>
<path fill-rule="evenodd" clip-rule="evenodd" d="M281.922 398.634L281.215 0.544521L282.209 0.542969L282.916 398.633L281.922 398.634Z" fill="url(#paint4_linear_1256_35394)" stroke="url(#paint5_linear_1256_35394)"/>
<path fill-rule="evenodd" clip-rule="evenodd" d="M364.104 348.11L364.104 0.542969L365.098 0.542969L365.098 348.11L364.104 348.11Z" fill="url(#paint6_linear_1256_35394)" stroke="url(#paint7_linear_1256_35394)"/>
<path fill-rule="evenodd" clip-rule="evenodd" d="M446.284 348.11L446.284 0.542969L447.278 0.542969L447.278 348.11L446.284 348.11Z" fill="url(#paint8_linear_1256_35394)" stroke="url(#paint9_linear_1256_35394)"/>
</g>
<g opacity="0.5">
<path fill-rule="evenodd" clip-rule="evenodd" d="M541.886 333.846L52.1143 333.846L52.1143 333.184L541.886 333.184L541.886 333.846Z" fill="url(#paint10_linear_1256_35394)" stroke="url(#paint11_linear_1256_35394)"/>
<path fill-rule="evenodd" clip-rule="evenodd" d="M579 256.963L15 256.964L15 256.301L579 256.301L579 256.963Z" fill="url(#paint12_linear_1256_35394)" stroke="url(#paint13_linear_1256_35394)"/>
<path fill-rule="evenodd" clip-rule="evenodd" d="M551.827 180.085L42.1729 180.085L42.1729 179.422L551.827 179.422L551.827 180.085Z" fill="url(#paint14_linear_1256_35394)" stroke="url(#paint15_linear_1256_35394)"/>
<path fill-rule="evenodd" clip-rule="evenodd" d="M519.684 103.206L74.3164 103.206L74.3164 102.543L519.684 102.543L519.684 103.206Z" fill="url(#paint16_linear_1256_35394)" stroke="url(#paint17_linear_1256_35394)"/>
</g>
<path d="M380.621 164.637H349.38V206.812L365 199.002L380.621 206.812V164.637Z" fill="#D5C9B3"/>
<path d="M380.621 206.812L365 199.002V164.637H380.621V206.812Z" fill="#CBBBA0"/>
<path d="M380.62 160.734H349.379V164.64H380.62V160.734Z" fill="#5EBAE7"/>
<path d="M380.62 160.734H365V164.64H380.62V160.734Z" fill="#36A9E1"/>
<path d="M348.646 160V208L365 199.823L381.354 208V160H348.646ZM379.887 161.466V163.905H350.113V161.466H379.887ZM365 198.184L350.113 205.627V165.371H379.888V205.627L365 198.184Z" fill="#1D1D1B"/>
<path d="M354.066 167.809H352.504V169.275H354.066V167.809Z" fill="white"/>
<path d="M357.19 167.809H355.628V169.275H357.19V167.809Z" fill="white"/>
<path d="M360.314 167.809H358.752V169.275H360.314V167.809Z" fill="white"/>
<g clip-path="url(#clip0_1256_35394)">
<path d="M209.748 172.857V192.756C209.748 194.095 208.764 195.2 207.481 195.393C207.344 195.425 207.207 195.434 207.07 195.434H194.85L185.929 202.33L186.107 195.434H176.67C176.525 195.434 176.388 195.426 176.25 195.393C175.113 195.224 174.218 194.321 174.04 193.183C174.008 193.046 174 192.901 174 192.756V172.857C174 171.381 175.194 170.188 176.67 170.188H207.07C208.546 170.187 209.748 171.381 209.748 172.857Z" fill="#3D3D3D"/>
<path d="M222 163.629V188.868C222 190.32 220.822 191.497 219.37 191.497H181.445C179.993 191.497 178.823 190.32 178.823 188.868V163.629C178.823 162.178 179.993 161 181.445 161H219.37C219.588 161 219.798 161.024 220 161.081C220.943 161.307 221.693 162.057 221.919 163C221.976 163.202 222 163.412 222 163.629Z" fill="#57BDB0"/>
<path d="M222 164.234V188.271C222 189.029 221.742 189.731 221.299 190.279C221.218 190.384 221.129 190.481 221.032 190.578C220.96 190.65 220.879 190.715 220.799 190.779C220.71 190.86 220.613 190.924 220.508 190.989C220.444 191.037 220.363 191.078 220.29 191.118C220.484 190.868 220.637 190.586 220.75 190.279C220.879 189.932 220.952 189.553 220.952 189.158V165.122C220.952 163.339 219.5 161.895 217.717 161.895H181.002C180.453 161.895 179.945 162.024 179.493 162.266C180.082 161.5 181.01 161 182.05 161H218.774C219.331 161 219.855 161.145 220.315 161.395C220.863 161.694 221.315 162.145 221.613 162.694C221.855 163.154 222 163.678 222 164.234Z" fill="#81CAC5"/>
<path d="M193.229 188.727H207.305L207.592 199.83L193.229 188.727Z" fill="#57BDB0"/>
<path opacity="0.06" d="M221.3 190.281C220.708 191.025 219.795 191.502 218.772 191.502H207.377L207.593 199.832L196.818 191.502H182.051C181.029 191.502 180.115 191.025 179.523 190.281H196.336L207.018 198.539L206.806 190.281H221.3Z" fill="#040000"/>
<path d="M212.763 166.992H187.485V169.721H212.763V166.992Z" fill="#DDDEDC"/>
<path d="M215.348 174.508H187.485V177.237H215.348V174.508Z" fill="#DDDEDC"/>
<path d="M202.673 181.977H187.485V184.705H202.673V181.977Z" fill="#DDDEDC"/>
<path opacity="0.06" d="M193.855 196.204L194.851 195.434H201.907L207.593 199.83V199.83L207.593 199.83L207.478 195.394C207.479 195.394 207.481 195.394 207.482 195.394C208.764 195.2 209.748 194.095 209.748 192.756V191.5H218.772C218.778 191.5 218.784 191.498 218.791 191.498H219.371C220.823 191.498 222.001 190.32 222.001 188.869V188.272V168.059L193.855 196.204Z" fill="#040000"/>
</g>
<g clip-path="url(#clip1_1256_35394)">
<path d="M258 256.69C258 243.605 268.606 233 281.689 233C294.773 233 305.379 243.605 305.379 256.69C305.379 269.772 294.773 280.378 281.689 280.378C268.606 280.378 258 269.772 258 256.69Z" fill="#259FD3"/>
<path d="M271.989 261.913C274.826 261.913 277.127 259.613 277.127 256.775C277.127 253.937 274.826 251.637 271.989 251.637C269.151 251.637 266.851 253.937 266.851 256.775C266.851 259.613 269.151 261.913 271.989 261.913Z" fill="white"/>
<path d="M287.674 252.776C290.512 252.776 292.812 250.476 292.812 247.638C292.812 244.8 290.512 242.5 287.674 242.5C284.837 242.5 282.536 244.8 282.536 247.638C282.536 250.476 284.837 252.776 287.674 252.776Z" fill="white"/>
<path d="M287.674 270.874C290.512 270.874 292.812 268.573 292.812 265.736C292.812 262.898 290.512 260.598 287.674 260.598C284.837 260.598 282.536 262.898 282.536 265.736C282.536 268.573 284.837 270.874 287.674 270.874Z" fill="white"/>
<path d="M271.295 255.401L272.686 257.789L288.371 248.656L286.98 246.268L271.295 255.401Z" fill="white"/>
<path d="M271.294 257.793L286.979 266.926L288.37 264.538L272.685 255.405L271.294 257.793Z" fill="white"/>
</g>
<path d="M304.096 96.8831C304.096 89.9711 298.496 84.3711 291.584 84.3711C287.765 84.3711 284.352 86.0778 282.059 88.7711C279.765 86.0777 276.347 84.3711 272.534 84.3711C265.622 84.3711 260.021 89.9711 260.021 96.8831C260.021 100.51 261.691 103.544 264.032 106.062L282.107 123.438L299.872 106.254C302.123 103.907 304.096 100.611 304.096 96.8831H304.096Z" fill="#D1525C"/>
<path d="M282.106 123.438L264.026 106.062C261.68 103.544 260.016 100.51 260.016 96.8831C260.016 89.9711 265.616 84.3711 272.528 84.3711C276.346 84.3711 279.76 86.0778 282.053 88.7711L282.106 123.438L282.106 123.438Z" fill="#DB6574"/>
<defs>
<linearGradient id="paint0_linear_1256_35394" x1="116.141" y1="392.585" x2="116.141" y2="-26.9639" gradientUnits="userSpaceOnUse">
<stop offset="0.0520833" stop-color="#24343D" stop-opacity="0"/>
<stop offset="0.260417" stop-color="#4B6A7C"/>
<stop offset="0.5" stop-color="#24343D"/>
<stop offset="0.807292" stop-color="#4C6D80" stop-opacity="0.72"/>
<stop offset="0.916667" stop-color="#24343D" stop-opacity="0"/>
</linearGradient>
<linearGradient id="paint1_linear_1256_35394" x1="116.141" y1="392.585" x2="116.141" y2="-26.9639" gradientUnits="userSpaceOnUse">
<stop offset="0.0520833" stop-color="#24343D" stop-opacity="0"/>
<stop offset="0.260417" stop-color="#4B6A7C" stop-opacity="0.479167"/>
<stop offset="0.5" stop-color="#24343D"/>
<stop offset="0.807292" stop-color="#4C6D80" stop-opacity="0.47"/>
<stop offset="0.916667" stop-color="#24343D" stop-opacity="0"/>
</linearGradient>
<linearGradient id="paint2_linear_1256_35394" x1="199.119" y1="449.575" x2="198.369" y2="-30.961" gradientUnits="userSpaceOnUse">
<stop offset="0.0520833" stop-color="#24343D" stop-opacity="0"/>
<stop offset="0.260417" stop-color="#4B6A7C"/>
<stop offset="0.5" stop-color="#24343D"/>
<stop offset="0.807292" stop-color="#4C6D80" stop-opacity="0.72"/>
<stop offset="0.916667" stop-color="#24343D" stop-opacity="0"/>
</linearGradient>
<linearGradient id="paint3_linear_1256_35394" x1="199.119" y1="449.575" x2="198.369" y2="-30.961" gradientUnits="userSpaceOnUse">
<stop offset="0.0520833" stop-color="#24343D" stop-opacity="0"/>
<stop offset="0.260417" stop-color="#4B6A7C" stop-opacity="0.479167"/>
<stop offset="0.5" stop-color="#24343D"/>
<stop offset="0.807292" stop-color="#4C6D80" stop-opacity="0.47"/>
<stop offset="0.916667" stop-color="#24343D" stop-opacity="0"/>
</linearGradient>
<linearGradient id="paint4_linear_1256_35394" x1="282.007" y1="449.575" x2="281.257" y2="-30.961" gradientUnits="userSpaceOnUse">
<stop offset="0.0520833" stop-color="#24343D" stop-opacity="0"/>
<stop offset="0.260417" stop-color="#4B6A7C"/>
<stop offset="0.5" stop-color="#24343D"/>
<stop offset="0.807292" stop-color="#4C6D80" stop-opacity="0.72"/>
<stop offset="0.916667" stop-color="#24343D" stop-opacity="0"/>
</linearGradient>
<linearGradient id="paint5_linear_1256_35394" x1="282.007" y1="449.575" x2="281.257" y2="-30.961" gradientUnits="userSpaceOnUse">
<stop offset="0.0520833" stop-color="#24343D" stop-opacity="0"/>
<stop offset="0.260417" stop-color="#4B6A7C" stop-opacity="0.479167"/>
<stop offset="0.5" stop-color="#24343D"/>
<stop offset="0.807292" stop-color="#4C6D80" stop-opacity="0.47"/>
<stop offset="0.916667" stop-color="#24343D" stop-opacity="0"/>
</linearGradient>
<linearGradient id="paint6_linear_1256_35394" x1="364.098" y1="392.585" x2="364.098" y2="-26.9639" gradientUnits="userSpaceOnUse">
<stop offset="0.0520833" stop-color="#24343D" stop-opacity="0"/>
<stop offset="0.260417" stop-color="#4B6A7C"/>
<stop offset="0.5" stop-color="#24343D"/>
<stop offset="0.807292" stop-color="#4C6D80" stop-opacity="0.72"/>
<stop offset="0.916667" stop-color="#24343D" stop-opacity="0"/>
</linearGradient>
<linearGradient id="paint7_linear_1256_35394" x1="364.098" y1="392.585" x2="364.098" y2="-26.9639" gradientUnits="userSpaceOnUse">
<stop offset="0.0520833" stop-color="#24343D" stop-opacity="0"/>
<stop offset="0.260417" stop-color="#4B6A7C" stop-opacity="0.479167"/>
<stop offset="0.5" stop-color="#24343D"/>
<stop offset="0.807292" stop-color="#4C6D80" stop-opacity="0.47"/>
<stop offset="0.916667" stop-color="#24343D" stop-opacity="0"/>
</linearGradient>
<linearGradient id="paint8_linear_1256_35394" x1="446.279" y1="392.585" x2="446.279" y2="-26.9639" gradientUnits="userSpaceOnUse">
<stop offset="0.0520833" stop-color="#24343D" stop-opacity="0"/>
<stop offset="0.260417" stop-color="#4B6A7C"/>
<stop offset="0.5" stop-color="#24343D"/>
<stop offset="0.807292" stop-color="#4C6D80" stop-opacity="0.72"/>
<stop offset="0.916667" stop-color="#24343D" stop-opacity="0"/>
</linearGradient>
<linearGradient id="paint9_linear_1256_35394" x1="446.279" y1="392.585" x2="446.279" y2="-26.9639" gradientUnits="userSpaceOnUse">
<stop offset="0.0520833" stop-color="#24343D" stop-opacity="0"/>
<stop offset="0.260417" stop-color="#4B6A7C" stop-opacity="0.479167"/>
<stop offset="0.5" stop-color="#24343D"/>
<stop offset="0.807292" stop-color="#4C6D80" stop-opacity="0.47"/>
<stop offset="0.916667" stop-color="#24343D" stop-opacity="0"/>
</linearGradient>
<linearGradient id="paint10_linear_1256_35394" x1="604.558" y1="333.85" x2="13.3531" y2="333.85" gradientUnits="userSpaceOnUse">
<stop offset="0.0520833" stop-color="#24343D" stop-opacity="0"/>
<stop offset="0.260417" stop-color="#4B6A7C"/>
<stop offset="0.5" stop-color="#24343D"/>
<stop offset="0.807292" stop-color="#4C6D80" stop-opacity="0.72"/>
<stop offset="0.916667" stop-color="#24343D" stop-opacity="0"/>
</linearGradient>
<linearGradient id="paint11_linear_1256_35394" x1="604.558" y1="333.85" x2="13.3531" y2="333.85" gradientUnits="userSpaceOnUse">
<stop offset="0.0520833" stop-color="#24343D" stop-opacity="0"/>
<stop offset="0.260417" stop-color="#4B6A7C" stop-opacity="0.479167"/>
<stop offset="0.5" stop-color="#24343D"/>
<stop offset="0.807292" stop-color="#4C6D80" stop-opacity="0.47"/>
<stop offset="0.916667" stop-color="#24343D" stop-opacity="0"/>
</linearGradient>
<linearGradient id="paint12_linear_1256_35394" x1="651.17" y1="256.967" x2="-29.6357" y2="256.967" gradientUnits="userSpaceOnUse">
<stop offset="0.0520833" stop-color="#24343D" stop-opacity="0"/>
<stop offset="0.260417" stop-color="#4B6A7C"/>
<stop offset="0.5" stop-color="#24343D"/>
<stop offset="0.807292" stop-color="#4C6D80" stop-opacity="0.72"/>
<stop offset="0.916667" stop-color="#24343D" stop-opacity="0"/>
</linearGradient>
<linearGradient id="paint13_linear_1256_35394" x1="651.17" y1="256.967" x2="-29.6357" y2="256.967" gradientUnits="userSpaceOnUse">
<stop offset="0.0520833" stop-color="#24343D" stop-opacity="0"/>
<stop offset="0.260417" stop-color="#4B6A7C" stop-opacity="0.479167"/>
<stop offset="0.5" stop-color="#24343D"/>
<stop offset="0.807292" stop-color="#4C6D80" stop-opacity="0.47"/>
<stop offset="0.916667" stop-color="#24343D" stop-opacity="0"/>
</linearGradient>
<linearGradient id="paint14_linear_1256_35394" x1="617.044" y1="180.088" x2="1.83812" y2="180.088" gradientUnits="userSpaceOnUse">
<stop offset="0.0520833" stop-color="#24343D" stop-opacity="0"/>
<stop offset="0.260417" stop-color="#4B6A7C"/>
<stop offset="0.5" stop-color="#24343D"/>
<stop offset="0.807292" stop-color="#4C6D80" stop-opacity="0.72"/>
<stop offset="0.916667" stop-color="#24343D" stop-opacity="0"/>
</linearGradient>
<linearGradient id="paint15_linear_1256_35394" x1="617.044" y1="180.088" x2="1.83812" y2="180.088" gradientUnits="userSpaceOnUse">
<stop offset="0.0520833" stop-color="#24343D" stop-opacity="0"/>
<stop offset="0.260417" stop-color="#4B6A7C" stop-opacity="0.479167"/>
<stop offset="0.5" stop-color="#24343D"/>
<stop offset="0.807292" stop-color="#4C6D80" stop-opacity="0.47"/>
<stop offset="0.916667" stop-color="#24343D" stop-opacity="0"/>
</linearGradient>
<linearGradient id="paint16_linear_1256_35394" x1="576.674" y1="103.209" x2="39.0694" y2="103.209" gradientUnits="userSpaceOnUse">
<stop offset="0.0520833" stop-color="#24343D" stop-opacity="0"/>
<stop offset="0.260417" stop-color="#4B6A7C"/>
<stop offset="0.5" stop-color="#24343D"/>
<stop offset="0.807292" stop-color="#4C6D80" stop-opacity="0.72"/>
<stop offset="0.916667" stop-color="#24343D" stop-opacity="0"/>
</linearGradient>
<linearGradient id="paint17_linear_1256_35394" x1="576.674" y1="103.209" x2="39.0694" y2="103.209" gradientUnits="userSpaceOnUse">
<stop offset="0.0520833" stop-color="#24343D" stop-opacity="0"/>
<stop offset="0.260417" stop-color="#4B6A7C" stop-opacity="0.479167"/>
<stop offset="0.5" stop-color="#24343D"/>
<stop offset="0.807292" stop-color="#4C6D80" stop-opacity="0.47"/>
<stop offset="0.916667" stop-color="#24343D" stop-opacity="0"/>
</linearGradient>
<clipPath id="clip0_1256_35394">
<rect width="48" height="48" fill="white" transform="translate(174 161)"/>
</clipPath>
<clipPath id="clip1_1256_35394">
<rect width="47.3791" height="47.3789" fill="white" transform="translate(258 233)"/>
</clipPath>
</defs>
</svg>
