<svg width="21" height="20" viewBox="0 0 21 20" fill="none" xmlns="http://www.w3.org/2000/svg">
<g clip-path="url(#clip0_961_1671)">
<path d="M17.8117 15C18.4361 15 18.9328 14.6071 19.3787 14.0576C20.2916 12.9329 18.7928 12.034 18.2211 11.5938C17.64 11.1463 16.9912 10.8928 16.3333 10.8333M15.5 9.16667C16.6506 9.16667 17.5833 8.23393 17.5833 7.08333C17.5833 5.93274 16.6506 5 15.5 5" stroke="#818282" stroke-width="1.5" stroke-linecap="round"/>
<path d="M3.18797 15C2.56355 15 2.0669 14.6071 1.62096 14.0576C0.708082 12.9329 2.2069 12.034 2.77855 11.5938C3.35965 11.1463 4.00849 10.8928 4.66634 10.8333M5.08301 9.16667C3.93241 9.16667 2.99967 8.23393 2.99967 7.08333C2.99967 5.93274 3.93241 5 5.08301 5" stroke="#818282" stroke-width="1.5" stroke-linecap="round"/>
<path d="M7.23618 12.593C6.3847 13.1195 4.15216 14.1946 5.51192 15.5398C6.17616 16.197 6.91594 16.667 7.84603 16.667H13.1533C14.0834 16.667 14.8232 16.197 15.4874 15.5398C16.8472 14.1946 14.6147 13.1195 13.7632 12.593C11.7665 11.3583 9.23289 11.3583 7.23618 12.593Z" stroke="#818282" stroke-width="1.5" stroke-linecap="round" stroke-linejoin="round"/>
<path d="M13.4163 6.25016C13.4163 7.86099 12.1105 9.16683 10.4997 9.16683C8.88884 9.16683 7.58301 7.86099 7.58301 6.25016C7.58301 4.63933 8.88884 3.3335 10.4997 3.3335C12.1105 3.3335 13.4163 4.63933 13.4163 6.25016Z" stroke="#818282" stroke-width="1.5"/>
</g>
<defs>
<clipPath id="clip0_961_1671">
<rect width="20" height="20" fill="white" transform="translate(0.5)"/>
</clipPath>
</defs>
</svg>
