<svg width="572" height="436" viewBox="0 0 572 436" fill="none" xmlns="http://www.w3.org/2000/svg">
<g opacity="0.5">
<path fill-rule="evenodd" clip-rule="evenodd" d="M116.146 348.567L116.147 1L117.141 1L117.141 348.567L116.146 348.567Z" fill="url(#paint0_linear_1256_35552)" stroke="url(#paint1_linear_1256_35552)"/>
<path fill-rule="evenodd" clip-rule="evenodd" d="M199.034 399.091L198.327 1.00155L199.321 1L200.028 399.09L199.034 399.091Z" fill="url(#paint2_linear_1256_35552)" stroke="url(#paint3_linear_1256_35552)"/>
<path fill-rule="evenodd" clip-rule="evenodd" d="M281.922 399.091L281.215 1.00155L282.209 1L282.916 399.09L281.922 399.091Z" fill="url(#paint4_linear_1256_35552)" stroke="url(#paint5_linear_1256_35552)"/>
<path fill-rule="evenodd" clip-rule="evenodd" d="M364.104 348.567L364.104 1L365.098 1L365.098 348.567L364.104 348.567Z" fill="url(#paint6_linear_1256_35552)" stroke="url(#paint7_linear_1256_35552)"/>
<path fill-rule="evenodd" clip-rule="evenodd" d="M446.284 348.567L446.284 1L447.278 1L447.278 348.567L446.284 348.567Z" fill="url(#paint8_linear_1256_35552)" stroke="url(#paint9_linear_1256_35552)"/>
</g>
<g opacity="0.5">
<path fill-rule="evenodd" clip-rule="evenodd" d="M541.886 334.303L52.1143 334.303L52.1143 333.641L541.886 333.641L541.886 334.303Z" fill="url(#paint10_linear_1256_35552)" stroke="url(#paint11_linear_1256_35552)"/>
<path fill-rule="evenodd" clip-rule="evenodd" d="M579 257.421L15 257.421L15 256.758L579 256.758L579 257.421Z" fill="url(#paint12_linear_1256_35552)" stroke="url(#paint13_linear_1256_35552)"/>
<path fill-rule="evenodd" clip-rule="evenodd" d="M551.827 180.542L42.1729 180.542L42.1729 179.879L551.827 179.879L551.827 180.542Z" fill="url(#paint14_linear_1256_35552)" stroke="url(#paint15_linear_1256_35552)"/>
<path fill-rule="evenodd" clip-rule="evenodd" d="M519.684 103.663L74.3164 103.663L74.3164 103L519.684 103L519.684 103.663Z" fill="url(#paint16_linear_1256_35552)" stroke="url(#paint17_linear_1256_35552)"/>
</g>
<g filter="url(#filter0_d_1256_35552)">
<path d="M200.789 176.292C201.77 172.166 198.172 168.569 194.047 169.55C192.11 170.028 190.525 171.613 190.047 173.55C189.066 177.676 192.663 181.273 196.789 180.292C198.751 179.814 200.336 178.229 200.789 176.292Z" fill="#A05ED3"/>
<path d="M180.389 192.978C179.936 192.978 179.458 192.802 179.106 192.475C174.225 187.947 171.433 181.556 171.433 174.915C171.433 161.682 182.2 150.914 195.432 150.914C208.665 150.914 219.432 161.682 219.432 174.915C219.432 181.607 216.74 187.796 211.86 192.4C211.105 193.104 209.898 193.079 209.193 192.324C208.489 191.569 208.514 190.362 209.269 189.657C213.395 185.783 215.659 180.575 215.659 174.94C215.659 163.795 206.577 154.713 195.432 154.713C184.288 154.713 175.206 163.795 175.206 174.94C175.206 180.626 177.495 185.858 181.672 189.733C182.426 190.437 182.477 191.645 181.772 192.4C181.395 192.777 180.892 192.978 180.389 192.978Z" fill="#A05ED3"/>
<path d="M205.49 186.254C205.037 186.254 204.559 186.078 204.207 185.751C203.452 185.046 203.401 183.839 204.131 183.084C206.219 180.87 207.376 177.952 207.376 174.933C207.376 168.342 202.018 163.008 195.452 163.008C188.886 163.008 183.527 168.367 183.527 174.933C183.527 177.977 184.685 180.87 186.773 183.084C187.477 183.839 187.452 185.046 186.697 185.751C185.943 186.48 184.735 186.43 184.031 185.675C181.288 182.757 179.754 178.933 179.754 174.933C179.754 166.279 186.798 159.234 195.452 159.234C204.106 159.234 211.15 166.279 211.15 174.933C211.15 178.933 209.64 182.757 206.873 185.675C206.496 186.053 205.993 186.254 205.49 186.254Z" fill="#A05ED3"/>
<path d="M191.155 189.686L187.533 194.19C184.665 197.787 187.231 203.121 191.81 203.121H199.03C203.633 203.121 206.199 197.787 203.306 194.215L199.684 189.712C197.52 186.944 193.344 186.944 191.155 189.686Z" fill="#A05ED3"/>
</g>
<path d="M296.53 260.639C295.76 260.639 294.99 260.569 294.71 260.009C294.36 259.379 294.78 258.819 295.27 258.049C296.04 256.929 297.23 255.039 297.23 252.099C297.23 245.519 300.31 240.339 304.23 240.339H304.58C305.77 240.339 308.01 240.269 309.62 241.809C310.67 242.859 311.23 244.469 311.23 246.569C311.23 253.149 300.1 260.639 296.53 260.639ZM296.18 259.239H296.53C299.61 259.239 309.83 252.169 309.83 246.569C309.83 244.819 309.41 243.559 308.64 242.789C307.52 241.669 305.7 241.739 304.65 241.739H304.23C301.22 241.739 298.63 246.499 298.63 252.099C298.63 255.459 297.23 257.559 296.46 258.819C296.39 258.959 296.25 259.099 296.18 259.239ZM286.1 260.639C282.53 260.639 271.4 253.149 271.4 246.569C271.4 244.469 271.96 242.929 273.01 241.809C274.62 240.269 276.93 240.269 278.05 240.339H278.4C282.32 240.339 285.4 245.519 285.4 252.099C285.4 255.039 286.66 256.929 287.36 258.049C287.85 258.819 288.27 259.449 287.92 260.009C287.64 260.569 286.87 260.639 286.1 260.639ZM277.49 241.739C276.44 241.739 274.97 241.879 273.99 242.859C273.22 243.629 272.8 244.889 272.8 246.569C272.8 252.239 283.02 259.239 286.1 259.239H286.45C286.38 259.099 286.24 258.959 286.17 258.819C285.4 257.559 284 255.389 284 252.099C284 246.499 281.41 241.739 278.4 241.739H277.49Z" fill="#4F503B"/>
<path d="M289.53 262.039H293.73V271.139H289.53V262.039Z" fill="#C89005"/>
<path d="M293.73 271.84H289.53C289.11 271.84 288.83 271.56 288.83 271.14V262.04C288.83 261.62 289.11 261.34 289.53 261.34H293.73C294.15 261.34 294.43 261.62 294.43 262.04V271.14C294.43 271.56 294.15 271.84 293.73 271.84ZM290.23 270.44H293.03V262.74H290.23V270.44Z" fill="#4F503B"/>
<path d="M307.03 236.841C307.03 237.611 306.47 238.241 305.77 238.241H277.49C276.79 238.241 276.23 237.611 276.23 236.841C276.23 236.071 276.79 235.441 277.49 235.441H305.84C306.47 235.441 307.03 236.071 307.03 236.841Z" fill="#F8F4BC"/>
<path d="M305.84 238.938H277.49C276.44 238.938 275.53 238.028 275.53 236.838C275.53 235.648 276.37 234.738 277.49 234.738H305.84C306.89 234.738 307.8 235.648 307.8 236.838C307.8 238.028 306.89 238.938 305.84 238.938ZM277.49 236.138C277.21 236.138 276.93 236.488 276.93 236.838C276.93 237.188 277.14 237.538 277.49 237.538H305.84C306.12 237.538 306.4 237.188 306.4 236.838C306.4 236.488 306.19 236.138 305.84 236.138H277.49Z" fill="#4F503B"/>
<path d="M305 238.238C305 259.238 299.05 264.138 291.7 264.138C284.35 264.138 278.4 258.538 278.4 238.238H305Z" fill="#FAC546"/>
<path d="M291.7 264.839C282.25 264.839 277.7 256.159 277.7 238.239C277.7 237.819 277.98 237.539 278.4 237.539H305C305.42 237.539 305.7 237.819 305.7 238.239C305.7 256.369 301.29 264.839 291.7 264.839ZM279.03 238.939C279.17 255.389 283.3 263.439 291.63 263.439C297.44 263.439 304.09 260.639 304.23 238.939H279.03Z" fill="#4F503B"/>
<path d="M299.4 276.742H283.86C283.86 272.822 283.23 269.672 291.63 269.672C300.03 269.672 299.4 272.822 299.4 276.742Z" fill="#FAC546"/>
<path d="M299.4 277.438H283.86C283.44 277.438 283.16 277.158 283.16 276.738V275.968C283.16 274.008 283.09 272.118 284.49 270.788C285.75 269.528 288.06 268.898 291.7 268.898C295.34 268.898 297.65 269.458 298.91 270.788C300.24 272.118 300.24 274.008 300.24 275.968V276.738C300.1 277.158 299.82 277.438 299.4 277.438ZM284.56 276.038H298.77V275.968C298.77 274.148 298.77 272.748 297.86 271.768C296.88 270.788 294.85 270.298 291.7 270.298C288.55 270.298 286.45 270.788 285.54 271.768C284.49 272.748 284.56 274.148 284.56 276.038Z" fill="#4F503B"/>
<path d="M301.43 276.74C301.43 277.51 300.87 278.14 300.17 278.14H283.09C282.39 278.14 281.83 277.51 281.83 276.74C281.83 275.97 282.39 275.34 283.09 275.34H300.24C300.87 275.34 301.43 275.97 301.43 276.74Z" fill="#F8F4BC"/>
<path d="M300.24 278.841H283.09C282.04 278.841 281.13 277.931 281.13 276.741C281.13 275.551 281.97 274.641 283.09 274.641H300.24C301.29 274.641 302.2 275.551 302.2 276.741C302.2 277.931 301.29 278.841 300.24 278.841ZM283.09 276.041C282.81 276.041 282.53 276.391 282.53 276.741C282.53 277.091 282.74 277.441 283.09 277.441H300.24C300.52 277.441 300.8 277.091 300.8 276.741C300.8 276.391 300.59 276.041 300.24 276.041H283.09Z" fill="#4F503B"/>
<g clip-path="url(#clip0_1256_35552)">
<path d="M371 210C386.464 210 399 197.464 399 182C399 166.536 386.464 154 371 154C355.536 154 343 166.536 343 182C343 197.464 355.536 210 371 210Z" fill="#4599B3"/>
<path opacity="0.1" d="M398.203 188.63L378.733 169.16H378.207L376.469 167.422L374.731 167.888L373.832 166.33L372.274 167.229L371 165.957L369.728 167.229L368.17 166.33L367.27 167.888L365.533 167.422L365.067 169.16H363.268V170.96L361.53 171.425L361.995 173.163L360.437 174.062L361.337 175.62L360.064 176.893L361.337 178.165L360.437 179.723L361.995 180.622L361.53 182.36L363.268 182.826V184.625H365.067L365.303 185.505L360.543 195.678L374.62 209.756C386.164 208.267 395.502 199.75 398.203 188.63Z" fill="black"/>
<path d="M367.224 181.398L360.542 195.68L363.899 195.075L369.746 182.578L367.224 181.398Z" fill="#E56353"/>
<path d="M369.747 182.578L363.899 195.074L365.587 198.04L372.269 183.758L369.747 182.578Z" fill="#CE412D"/>
<path d="M374.776 181.398L381.458 195.68L378.101 195.075L372.254 182.578L374.776 181.398Z" fill="#E56353"/>
<path d="M372.254 182.578L378.101 195.074L376.413 198.04L369.731 183.758L372.254 182.578Z" fill="#D15241"/>
<path d="M380.664 178.166L381.936 176.894L380.664 175.621L381.564 174.063L380.005 173.164L380.471 171.425L378.733 170.96V169.16H376.934L376.468 167.422L374.73 167.888L373.831 166.33L372.272 167.229L371 165.957L369.728 167.229L368.169 166.33L367.269 167.888L365.532 167.422L365.066 169.16H363.267V170.96L361.528 171.425L361.994 173.164L360.436 174.063L361.336 175.621L360.063 176.894L361.336 178.166L360.436 179.724L361.994 180.624L361.528 182.362L363.267 182.828V184.627H365.066L365.532 186.365L367.269 185.899L368.169 187.458L369.728 186.558L371 187.83L372.272 186.558L373.831 187.458L374.73 185.899L376.468 186.365L376.934 184.627H378.733V182.828L380.471 182.362L380.005 180.624L381.564 179.724L380.664 178.166Z" fill="#FCD462"/>
<path d="M371 184.742C366.674 184.742 363.154 181.223 363.154 176.897C363.154 172.571 366.674 169.051 371 169.051C375.326 169.051 378.845 172.571 378.845 176.897C378.845 181.223 375.326 184.742 371 184.742ZM371 170.217C367.317 170.217 364.321 173.213 364.321 176.897C364.321 180.579 367.317 183.575 371 183.575C374.682 183.575 377.679 180.579 377.679 176.897C377.679 173.213 374.683 170.217 371 170.217Z" fill="#E56353"/>
</g>
<path opacity="0.2" d="M309.16 109.774C305.421 124.774 290.227 133.902 275.225 130.162C260.23 126.423 251.102 111.229 254.842 96.2298C258.58 81.2279 273.773 72.0981 288.77 75.8379C303.771 79.5776 312.9 94.7729 309.16 109.774Z" fill="#F7931A"/>
<path fill-rule="evenodd" clip-rule="evenodd" d="M290.433 99.7444C290.81 97.2169 288.886 95.8581 286.255 94.9517L287.108 91.5279L285.023 91.0085L284.192 94.3421C283.645 94.2056 283.082 94.0768 282.523 93.9492L283.36 90.5936L281.277 90.0742L280.423 93.4968C279.97 93.3936 279.524 93.2915 279.092 93.184L279.095 93.1733L276.221 92.4557L275.666 94.6816C275.666 94.6816 277.212 95.036 277.18 95.058C278.024 95.2687 278.177 95.8273 278.151 96.2701L277.179 100.171C277.237 100.185 277.312 100.207 277.395 100.24L277.176 100.185L275.812 105.649C275.709 105.906 275.447 106.29 274.857 106.144C274.878 106.175 273.342 105.766 273.342 105.766L272.308 108.153L275.02 108.829C275.327 108.905 275.629 108.984 275.928 109.062L275.929 109.062C276.122 109.113 276.315 109.163 276.505 109.212L275.643 112.676L277.725 113.195L278.579 109.769C279.148 109.923 279.7 110.066 280.24 110.2L279.389 113.61L281.473 114.129L282.335 110.673C285.889 111.345 288.562 111.074 289.685 107.86C290.592 105.272 289.641 103.78 287.771 102.805C289.133 102.49 290.159 101.595 290.432 99.7444H290.433ZM285.67 106.419C285.078 108.794 281.359 107.811 279.659 107.362L279.659 107.362C279.507 107.322 279.371 107.286 279.255 107.257L280.399 102.669C280.541 102.705 280.715 102.744 280.911 102.788C282.67 103.182 286.274 103.991 285.671 106.419H285.67ZM281.266 100.66C282.684 101.039 285.776 101.864 286.315 99.7057C286.865 97.4982 283.859 96.8329 282.39 96.5079C282.225 96.4714 282.08 96.4392 281.961 96.4096L280.923 100.571C281.021 100.595 281.136 100.626 281.266 100.66Z" fill="#F7931A"/>
<defs>
<filter id="filter0_d_1256_35552" x="127.64" y="133.398" width="135.584" height="139.789" filterUnits="userSpaceOnUse" color-interpolation-filters="sRGB">
<feFlood flood-opacity="0" result="BackgroundImageFix"/>
<feColorMatrix in="SourceAlpha" type="matrix" values="0 0 0 0 0 0 0 0 0 0 0 0 0 0 0 0 0 0 127 0" result="hardAlpha"/>
<feOffset dy="26.2746"/>
<feGaussianBlur stdDeviation="21.8955"/>
<feComposite in2="hardAlpha" operator="out"/>
<feColorMatrix type="matrix" values="0 0 0 0 0.830267 0 0 0 0 0.530278 0 0 0 0 0.836389 0 0 0 0.25 0"/>
<feBlend mode="normal" in2="BackgroundImageFix" result="effect1_dropShadow_1256_35552"/>
<feBlend mode="normal" in="SourceGraphic" in2="effect1_dropShadow_1256_35552" result="shape"/>
</filter>
<linearGradient id="paint0_linear_1256_35552" x1="116.141" y1="393.042" x2="116.141" y2="-26.5069" gradientUnits="userSpaceOnUse">
<stop offset="0.0520833" stop-color="#24343D" stop-opacity="0"/>
<stop offset="0.260417" stop-color="#4B6A7C"/>
<stop offset="0.5" stop-color="#24343D"/>
<stop offset="0.807292" stop-color="#4C6D80" stop-opacity="0.72"/>
<stop offset="0.916667" stop-color="#24343D" stop-opacity="0"/>
</linearGradient>
<linearGradient id="paint1_linear_1256_35552" x1="116.141" y1="393.042" x2="116.141" y2="-26.5069" gradientUnits="userSpaceOnUse">
<stop offset="0.0520833" stop-color="#24343D" stop-opacity="0"/>
<stop offset="0.260417" stop-color="#4B6A7C" stop-opacity="0.479167"/>
<stop offset="0.5" stop-color="#24343D"/>
<stop offset="0.807292" stop-color="#4C6D80" stop-opacity="0.47"/>
<stop offset="0.916667" stop-color="#24343D" stop-opacity="0"/>
</linearGradient>
<linearGradient id="paint2_linear_1256_35552" x1="199.119" y1="450.032" x2="198.369" y2="-30.5039" gradientUnits="userSpaceOnUse">
<stop offset="0.0520833" stop-color="#24343D" stop-opacity="0"/>
<stop offset="0.260417" stop-color="#4B6A7C"/>
<stop offset="0.5" stop-color="#24343D"/>
<stop offset="0.807292" stop-color="#4C6D80" stop-opacity="0.72"/>
<stop offset="0.916667" stop-color="#24343D" stop-opacity="0"/>
</linearGradient>
<linearGradient id="paint3_linear_1256_35552" x1="199.119" y1="450.032" x2="198.369" y2="-30.5039" gradientUnits="userSpaceOnUse">
<stop offset="0.0520833" stop-color="#24343D" stop-opacity="0"/>
<stop offset="0.260417" stop-color="#4B6A7C" stop-opacity="0.479167"/>
<stop offset="0.5" stop-color="#24343D"/>
<stop offset="0.807292" stop-color="#4C6D80" stop-opacity="0.47"/>
<stop offset="0.916667" stop-color="#24343D" stop-opacity="0"/>
</linearGradient>
<linearGradient id="paint4_linear_1256_35552" x1="282.007" y1="450.032" x2="281.257" y2="-30.5039" gradientUnits="userSpaceOnUse">
<stop offset="0.0520833" stop-color="#24343D" stop-opacity="0"/>
<stop offset="0.260417" stop-color="#4B6A7C"/>
<stop offset="0.5" stop-color="#24343D"/>
<stop offset="0.807292" stop-color="#4C6D80" stop-opacity="0.72"/>
<stop offset="0.916667" stop-color="#24343D" stop-opacity="0"/>
</linearGradient>
<linearGradient id="paint5_linear_1256_35552" x1="282.007" y1="450.032" x2="281.257" y2="-30.5039" gradientUnits="userSpaceOnUse">
<stop offset="0.0520833" stop-color="#24343D" stop-opacity="0"/>
<stop offset="0.260417" stop-color="#4B6A7C" stop-opacity="0.479167"/>
<stop offset="0.5" stop-color="#24343D"/>
<stop offset="0.807292" stop-color="#4C6D80" stop-opacity="0.47"/>
<stop offset="0.916667" stop-color="#24343D" stop-opacity="0"/>
</linearGradient>
<linearGradient id="paint6_linear_1256_35552" x1="364.098" y1="393.042" x2="364.098" y2="-26.5069" gradientUnits="userSpaceOnUse">
<stop offset="0.0520833" stop-color="#24343D" stop-opacity="0"/>
<stop offset="0.260417" stop-color="#4B6A7C"/>
<stop offset="0.5" stop-color="#24343D"/>
<stop offset="0.807292" stop-color="#4C6D80" stop-opacity="0.72"/>
<stop offset="0.916667" stop-color="#24343D" stop-opacity="0"/>
</linearGradient>
<linearGradient id="paint7_linear_1256_35552" x1="364.098" y1="393.042" x2="364.098" y2="-26.5069" gradientUnits="userSpaceOnUse">
<stop offset="0.0520833" stop-color="#24343D" stop-opacity="0"/>
<stop offset="0.260417" stop-color="#4B6A7C" stop-opacity="0.479167"/>
<stop offset="0.5" stop-color="#24343D"/>
<stop offset="0.807292" stop-color="#4C6D80" stop-opacity="0.47"/>
<stop offset="0.916667" stop-color="#24343D" stop-opacity="0"/>
</linearGradient>
<linearGradient id="paint8_linear_1256_35552" x1="446.279" y1="393.042" x2="446.279" y2="-26.5069" gradientUnits="userSpaceOnUse">
<stop offset="0.0520833" stop-color="#24343D" stop-opacity="0"/>
<stop offset="0.260417" stop-color="#4B6A7C"/>
<stop offset="0.5" stop-color="#24343D"/>
<stop offset="0.807292" stop-color="#4C6D80" stop-opacity="0.72"/>
<stop offset="0.916667" stop-color="#24343D" stop-opacity="0"/>
</linearGradient>
<linearGradient id="paint9_linear_1256_35552" x1="446.279" y1="393.042" x2="446.279" y2="-26.5069" gradientUnits="userSpaceOnUse">
<stop offset="0.0520833" stop-color="#24343D" stop-opacity="0"/>
<stop offset="0.260417" stop-color="#4B6A7C" stop-opacity="0.479167"/>
<stop offset="0.5" stop-color="#24343D"/>
<stop offset="0.807292" stop-color="#4C6D80" stop-opacity="0.47"/>
<stop offset="0.916667" stop-color="#24343D" stop-opacity="0"/>
</linearGradient>
<linearGradient id="paint10_linear_1256_35552" x1="604.558" y1="334.307" x2="13.3531" y2="334.307" gradientUnits="userSpaceOnUse">
<stop offset="0.0520833" stop-color="#24343D" stop-opacity="0"/>
<stop offset="0.260417" stop-color="#4B6A7C"/>
<stop offset="0.5" stop-color="#24343D"/>
<stop offset="0.807292" stop-color="#4C6D80" stop-opacity="0.72"/>
<stop offset="0.916667" stop-color="#24343D" stop-opacity="0"/>
</linearGradient>
<linearGradient id="paint11_linear_1256_35552" x1="604.558" y1="334.307" x2="13.3531" y2="334.307" gradientUnits="userSpaceOnUse">
<stop offset="0.0520833" stop-color="#24343D" stop-opacity="0"/>
<stop offset="0.260417" stop-color="#4B6A7C" stop-opacity="0.479167"/>
<stop offset="0.5" stop-color="#24343D"/>
<stop offset="0.807292" stop-color="#4C6D80" stop-opacity="0.47"/>
<stop offset="0.916667" stop-color="#24343D" stop-opacity="0"/>
</linearGradient>
<linearGradient id="paint12_linear_1256_35552" x1="651.17" y1="257.424" x2="-29.6357" y2="257.424" gradientUnits="userSpaceOnUse">
<stop offset="0.0520833" stop-color="#24343D" stop-opacity="0"/>
<stop offset="0.260417" stop-color="#4B6A7C"/>
<stop offset="0.5" stop-color="#24343D"/>
<stop offset="0.807292" stop-color="#4C6D80" stop-opacity="0.72"/>
<stop offset="0.916667" stop-color="#24343D" stop-opacity="0"/>
</linearGradient>
<linearGradient id="paint13_linear_1256_35552" x1="651.17" y1="257.424" x2="-29.6357" y2="257.424" gradientUnits="userSpaceOnUse">
<stop offset="0.0520833" stop-color="#24343D" stop-opacity="0"/>
<stop offset="0.260417" stop-color="#4B6A7C" stop-opacity="0.479167"/>
<stop offset="0.5" stop-color="#24343D"/>
<stop offset="0.807292" stop-color="#4C6D80" stop-opacity="0.47"/>
<stop offset="0.916667" stop-color="#24343D" stop-opacity="0"/>
</linearGradient>
<linearGradient id="paint14_linear_1256_35552" x1="617.044" y1="180.545" x2="1.83812" y2="180.545" gradientUnits="userSpaceOnUse">
<stop offset="0.0520833" stop-color="#24343D" stop-opacity="0"/>
<stop offset="0.260417" stop-color="#4B6A7C"/>
<stop offset="0.5" stop-color="#24343D"/>
<stop offset="0.807292" stop-color="#4C6D80" stop-opacity="0.72"/>
<stop offset="0.916667" stop-color="#24343D" stop-opacity="0"/>
</linearGradient>
<linearGradient id="paint15_linear_1256_35552" x1="617.044" y1="180.545" x2="1.83812" y2="180.545" gradientUnits="userSpaceOnUse">
<stop offset="0.0520833" stop-color="#24343D" stop-opacity="0"/>
<stop offset="0.260417" stop-color="#4B6A7C" stop-opacity="0.479167"/>
<stop offset="0.5" stop-color="#24343D"/>
<stop offset="0.807292" stop-color="#4C6D80" stop-opacity="0.47"/>
<stop offset="0.916667" stop-color="#24343D" stop-opacity="0"/>
</linearGradient>
<linearGradient id="paint16_linear_1256_35552" x1="576.674" y1="103.666" x2="39.0694" y2="103.666" gradientUnits="userSpaceOnUse">
<stop offset="0.0520833" stop-color="#24343D" stop-opacity="0"/>
<stop offset="0.260417" stop-color="#4B6A7C"/>
<stop offset="0.5" stop-color="#24343D"/>
<stop offset="0.807292" stop-color="#4C6D80" stop-opacity="0.72"/>
<stop offset="0.916667" stop-color="#24343D" stop-opacity="0"/>
</linearGradient>
<linearGradient id="paint17_linear_1256_35552" x1="576.674" y1="103.666" x2="39.0694" y2="103.666" gradientUnits="userSpaceOnUse">
<stop offset="0.0520833" stop-color="#24343D" stop-opacity="0"/>
<stop offset="0.260417" stop-color="#4B6A7C" stop-opacity="0.479167"/>
<stop offset="0.5" stop-color="#24343D"/>
<stop offset="0.807292" stop-color="#4C6D80" stop-opacity="0.47"/>
<stop offset="0.916667" stop-color="#24343D" stop-opacity="0"/>
</linearGradient>
<clipPath id="clip0_1256_35552">
<rect width="56" height="56" fill="white" transform="translate(343 154)"/>
</clipPath>
</defs>
</svg>
