<svg width="217" height="216" viewBox="0 0 217 216" fill="none" xmlns="http://www.w3.org/2000/svg">
<g clip-path="url(#clip0_1446_31913)">
<path d="M163.48 53.2461L175.314 41.4124" stroke="#B9BBBB" stroke-opacity="0.5" stroke-width="6.27574" stroke-linecap="round" stroke-linejoin="round"/>
<path d="M118.197 84.884L131.845 98.5316C138.171 104.858 141.334 108.021 145.146 107.704C148.957 107.387 151.645 103.738 157.019 96.4397L165.676 84.684C174.272 73.0116 174.469 64.2363 163.481 53.2484C152.493 42.2605 143.718 42.4574 132.045 51.053L120.289 59.7099C112.991 65.0844 109.342 67.7716 109.025 71.5833C108.708 75.3949 111.871 78.5579 118.197 84.884Z" stroke="#B9BBBB" stroke-opacity="0.5" stroke-width="6.27574"/>
</g>
<g clip-path="url(#clip1_1446_31913)">
<path d="M92.4795 106.516L83.6042 115.391" stroke="#B9BBBB" stroke-opacity="0.5" stroke-width="6.27574" stroke-linecap="round" stroke-linejoin="round"/>
<path d="M110.23 124.266L101.355 133.141" stroke="#B9BBBB" stroke-opacity="0.5" stroke-width="6.27574" stroke-linecap="round" stroke-linejoin="round"/>
<path d="M54.0205 162.719L42.1868 174.552" stroke="#B9BBBB" stroke-opacity="0.5" stroke-width="6.27574" stroke-linecap="round" stroke-linejoin="round"/>
<path d="M99.3035 131.081L85.6559 117.433C79.3298 111.107 76.1668 107.944 72.3552 108.261C68.5435 108.578 65.8563 112.227 60.4817 119.525L51.8249 131.281C43.2293 142.953 43.0324 151.729 54.0203 162.716C65.0082 173.704 73.7835 173.507 85.4559 164.912L97.2115 156.255C104.51 150.88 108.159 148.193 108.476 144.382C108.793 140.57 105.63 137.407 99.3035 131.081Z" stroke="#B9BBBB" stroke-opacity="0.5" stroke-width="6.27574"/>
</g>
<defs>
<clipPath id="clip0_1446_31913">
<rect width="100.412" height="100.412" fill="white" transform="translate(145.73 142.004) rotate(-135)"/>
</clipPath>
<clipPath id="clip1_1446_31913">
<rect width="100.412" height="100.412" fill="white" transform="translate(71.7705 73.9609) rotate(45)"/>
</clipPath>
</defs>
</svg>
