<svg width="18" height="18" viewBox="0 0 18 18" fill="current" xmlns="http://www.w3.org/2000/svg">
<path d="M14 0.667969V7.33464M17.3333 4.0013L10.6666 4.0013" stroke="#818282" stroke-linecap="round" stroke-linejoin="round"/>
<path d="M0.666626 4.0013C0.666626 2.83453 0.666626 2.25114 0.893696 1.80549C1.09343 1.41348 1.41214 1.09477 1.80415 0.895038C2.2498 0.667969 2.83318 0.667969 3.99996 0.667969C5.16674 0.667969 5.75012 0.667969 6.19577 0.895038C6.58778 1.09477 6.90649 1.41348 7.10622 1.80549C7.33329 2.25114 7.33329 2.83453 7.33329 4.0013C7.33329 5.16808 7.33329 5.75147 7.10622 6.19712C6.90649 6.58912 6.58778 6.90783 6.19577 7.10757C5.75012 7.33464 5.16674 7.33464 3.99996 7.33464C2.83318 7.33464 2.2498 7.33464 1.80415 7.10757C1.41214 6.90783 1.09343 6.58912 0.893696 6.19712C0.666626 5.75147 0.666626 5.16808 0.666626 4.0013Z" stroke="#909292"/>
<path d="M0.666626 14.0013C0.666626 12.8345 0.666626 12.2511 0.893696 11.8055C1.09343 11.4135 1.41214 11.0948 1.80415 10.895C2.2498 10.668 2.83318 10.668 3.99996 10.668C5.16674 10.668 5.75012 10.668 6.19577 10.895C6.58778 11.0948 6.90649 11.4135 7.10622 11.8055C7.33329 12.2511 7.33329 12.8345 7.33329 14.0013C7.33329 15.1681 7.33329 15.7515 7.10622 16.1971C6.90649 16.5891 6.58778 16.9078 6.19577 17.1076C5.75012 17.3346 5.16674 17.3346 3.99996 17.3346C2.83318 17.3346 2.2498 17.3346 1.80415 17.1076C1.41214 16.9078 1.09343 16.5891 0.893696 16.1971C0.666626 15.7515 0.666626 15.1681 0.666626 14.0013Z" stroke="#909292"/>
<path d="M10.6666 14.0013C10.6666 12.8345 10.6666 12.2511 10.8937 11.8055C11.0934 11.4135 11.4121 11.0948 11.8041 10.895C12.2498 10.668 12.8332 10.668 14 10.668C15.1667 10.668 15.7501 10.668 16.1958 10.895C16.5878 11.0948 16.9065 11.4135 17.1062 11.8055C17.3333 12.2511 17.3333 12.8345 17.3333 14.0013C17.3333 15.1681 17.3333 15.7515 17.1062 16.1971C16.9065 16.5891 16.5878 16.9078 16.1958 17.1076C15.7501 17.3346 15.1667 17.3346 14 17.3346C12.8332 17.3346 12.2498 17.3346 11.8041 17.1076C11.4121 16.9078 11.0934 16.5891 10.8937 16.1971C10.6666 15.7515 10.6666 15.1681 10.6666 14.0013Z" stroke="#909292"/>
</svg>
