<svg width="87" height="90" viewBox="0 0 87 90" fill="none" xmlns="http://www.w3.org/2000/svg">
<g filter="url(#filter0_d_3081_52067)">
<path d="M55.4236 33.2801C54.5485 28.0149 51.8242 24.0942 49.4559 21.7914C48.7668 21.1213 48.4222 20.7862 47.661 20.4761C46.8999 20.166 46.2456 20.166 44.937 20.166H42.063C40.7544 20.166 40.1001 20.166 39.339 20.4761C38.5778 20.7862 38.2332 21.1213 37.5441 21.7914C35.1758 24.0942 32.4515 28.0149 31.5764 33.2801C30.9252 37.1975 34.539 40.1663 38.5778 40.1663H48.4222C52.461 40.1663 56.0748 37.1975 55.4236 33.2801Z" stroke="#79C4EC" stroke-width="2.00001" stroke-linecap="round"/>
<path d="M44.3847 25.5C44.3847 24.9477 43.937 24.5 43.3847 24.5C42.8324 24.5 42.3847 24.9477 42.3847 25.5L44.3847 25.5ZM42.3847 34.8335C42.3847 35.3858 42.8324 35.8335 43.3847 35.8335C43.937 35.8335 44.3847 35.3858 44.3847 34.8335H42.3847ZM44.8148 28.1052C45.1491 28.5449 45.7764 28.6304 46.2161 28.2962C46.6558 27.962 46.7413 27.3346 46.4071 26.8949L44.8148 28.1052ZM41.8303 32.3031C41.4187 31.9348 40.7865 31.9698 40.4182 32.3813C40.0499 32.7929 40.0849 33.4251 40.4965 33.7934L41.8303 32.3031ZM43.3847 29.0325C42.5216 29.0325 42.1287 28.8916 41.9724 28.7863C41.9007 28.738 41.834 28.6833 41.834 28.4193H39.834C39.834 29.1948 40.1151 29.9466 40.855 30.4451C41.5103 30.8865 42.3927 31.0325 43.3847 31.0325V29.0325ZM41.834 28.4193C41.834 28.292 41.9018 28.0946 42.1748 27.8932C42.4475 27.6919 42.872 27.5373 43.3847 27.5373V25.5372C42.4887 25.5372 41.6378 25.8039 40.9873 26.2838C40.3372 26.7635 39.834 27.5072 39.834 28.4193H41.834ZM45.1673 31.9146C45.1673 32.2105 45.0621 32.3675 44.8374 32.5025C44.552 32.6739 44.0622 32.7966 43.3847 32.7966V34.7966C44.244 34.7966 45.1455 34.6505 45.8672 34.217C46.6496 33.747 47.1673 32.9629 47.1673 31.9146H45.1673ZM43.3847 31.0325C44.2558 31.0325 44.7101 31.1666 44.9254 31.307C45.0507 31.3888 45.1673 31.5084 45.1673 31.9146H47.1673C47.1673 30.9764 46.8201 30.155 46.018 29.6318C45.3057 29.1673 44.3687 29.0325 43.3847 29.0325V31.0325ZM44.3847 26.5373L44.3847 25.5L42.3847 25.5L42.3847 26.5373L44.3847 26.5373ZM42.3847 33.7966V34.8335H44.3847V33.7966H42.3847ZM43.3847 27.5373C44.0978 27.5373 44.6056 27.8299 44.8148 28.1052L46.4071 26.8949C45.743 26.0211 44.5841 25.5372 43.3847 25.5372V27.5373ZM43.3847 32.7966C42.6735 32.7966 42.1208 32.5631 41.8303 32.3031L40.4965 33.7934C41.2218 34.4426 42.2811 34.7966 43.3847 34.7966V32.7966Z" fill="#79C4EC"/>
<path d="M37.1742 16.7572C36.8991 16.3568 36.5004 15.8134 37.324 15.6894C38.1706 15.562 39.0496 16.1416 39.9101 16.1296C40.6885 16.1189 41.0851 15.7736 41.5106 15.2807C41.9586 14.7616 42.6523 13.5 43.4987 13.5C44.3451 13.5 45.0388 14.7616 45.4868 15.2807C45.9123 15.7736 46.3089 16.1189 47.0873 16.1296C47.9478 16.1416 48.8268 15.562 49.6734 15.6894C50.497 15.8134 50.0983 16.3568 49.8232 16.7572L48.5794 18.5676C48.0474 19.342 47.7813 19.7292 47.2246 19.948C46.6679 20.1668 45.9485 20.1668 44.5096 20.1668H42.4878C41.0489 20.1668 40.3295 20.1668 39.7728 19.948C39.2161 19.7292 38.95 19.342 38.418 18.5676L37.1742 16.7572Z" stroke="#79C4EC" stroke-width="2.00001"/>
</g>
<defs>
<filter id="filter0_d_3081_52067" x="0.0236053" y="0.309441" width="86.9528" height="89.6188" filterUnits="userSpaceOnUse" color-interpolation-filters="sRGB">
<feFlood flood-opacity="0" result="BackgroundImageFix"/>
<feColorMatrix in="SourceAlpha" type="matrix" values="0 0 0 0 0 0 0 0 0 0 0 0 0 0 0 0 0 0 127 0" result="hardAlpha"/>
<feOffset dy="18.2858"/>
<feGaussianBlur stdDeviation="15.2382"/>
<feComposite in2="hardAlpha" operator="out"/>
<feColorMatrix type="matrix" values="0 0 0 0 0.456424 0 0 0 0 0.687181 0 0 0 0 0.70191 0 0 0 0.3 0"/>
<feBlend mode="normal" in2="BackgroundImageFix" result="effect1_dropShadow_3081_52067"/>
<feBlend mode="normal" in="SourceGraphic" in2="effect1_dropShadow_3081_52067" result="shape"/>
</filter>
</defs>
</svg>
