<svg width="25" height="25" viewBox="0 0 32 24" fill="currentColor" xmlns="http://www.w3.org/2000/svg">
<path d="M10.052 23.5712C22.1273 23.5712 28.7347 14.5818 28.7347 6.79931C28.7347 6.54641 28.7347 6.29351 28.7219 6.04061C30.0024 5.21294 31.1164 4.16685 32 2.98281C30.8219 3.45413 29.5542 3.7645 28.2225 3.91395C29.5798 3.18973 30.617 2.02869 31.1164 0.64923C29.8487 1.32746 28.4402 1.81027 26.942 2.07467C25.7383 0.925122 24.0352 0.212402 22.1529 0.212402C18.529 0.212402 15.5838 2.85636 15.5838 6.10958C15.5838 6.5694 15.6479 7.01772 15.7503 7.45455C10.2953 7.21315 5.45498 4.85658 2.21529 1.29298C1.65186 2.16663 1.33173 3.17824 1.33173 4.25881C1.33173 6.30501 2.497 8.1098 4.2513 9.16738C3.17567 9.13289 2.16407 8.8685 1.28051 8.43167V8.51214C1.28051 11.363 3.54702 13.7541 6.54342 14.2944C5.9928 14.4323 5.41657 14.5013 4.81473 14.5013C4.39216 14.5013 3.98239 14.4668 3.58543 14.3978C4.41777 16.7429 6.85074 18.4442 9.71909 18.4902C7.46539 20.0766 4.63545 21.0192 1.56223 21.0192C1.03722 21.0192 0.512205 20.9962 0 20.9387C2.89396 22.5941 6.35134 23.5712 10.052 23.5712Z" fill="currentColor"/>
</svg>
