<svg width="292" height="292" viewBox="0 0 292 292" fill="none" xmlns="http://www.w3.org/2000/svg">
<path d="M272.888 241.875C272.888 241.957 215.288 242.027 144.256 242.027C73.2239 242.027 15.6123 241.957 15.6123 241.875C15.6123 241.793 73.2006 241.723 144.256 241.723C215.311 241.723 272.888 241.776 272.888 241.875Z" fill="#263238"/>
<path d="M249.614 225.109C249.642 225.009 249.681 224.913 249.731 224.822L250.116 223.999C250.586 222.937 250.965 221.837 251.249 220.711C251.997 217.791 252.26 213.318 251.15 208.009C250.556 205.118 249.776 202.268 248.814 199.477C247.815 196.452 246.659 193.24 245.713 189.765C244.643 186.141 244.127 182.377 244.183 178.599C244.323 174.651 245.497 170.703 246.782 166.779C248.066 162.854 249.392 159.006 249.789 155.145C250.219 151.422 249.458 147.658 247.617 144.394C245.911 141.258 243.768 138.554 242.168 135.797C240.671 133.221 239.567 130.436 238.892 127.534C237.927 123.326 237.857 118.963 238.687 114.727C238.982 113.179 239.43 111.665 240.025 110.207C240.004 110.308 239.977 110.407 239.943 110.504C239.879 110.72 239.785 111.007 239.674 111.375C238.074 116.597 237.9 122.152 239.172 127.464C239.857 130.337 240.966 133.092 242.46 135.64C244.06 138.385 246.209 141.053 247.944 144.23C249.819 147.559 250.589 151.397 250.145 155.192C249.748 159.122 248.393 162.994 247.126 166.919C245.859 170.843 244.685 174.744 244.539 178.628C244.481 182.365 244.985 186.09 246.034 189.677C246.963 193.135 248.107 196.347 249.094 199.383C250.06 202.191 250.84 205.059 251.43 207.968C252.505 213.312 252.201 217.826 251.395 220.764C251.094 221.892 250.689 222.991 250.186 224.046L249.76 224.852C249.72 224.942 249.671 225.028 249.614 225.109Z" fill="#263238"/>
<path d="M244.371 138.536C244.371 138.536 241.113 128.13 246.953 122.038C246.998 121.99 247.056 121.955 247.12 121.937C247.184 121.919 247.252 121.919 247.315 121.938C247.379 121.956 247.437 121.991 247.482 122.04C247.527 122.088 247.558 122.148 247.572 122.214C247.881 123.936 248.272 129.169 244.371 138.536Z" fill="#335263"/>
<path d="M246.321 125.507C246.309 126.151 246.235 126.793 246.099 127.423C245.883 128.749 245.632 130.302 245.358 132.013C245.083 133.724 244.838 135.283 244.628 136.603C244.572 137.247 244.457 137.885 244.283 138.507C244.226 137.861 244.245 137.21 244.342 136.568C244.453 135.4 244.657 133.748 244.955 131.949C245.253 130.15 245.539 128.538 245.813 127.37C245.91 126.732 246.081 126.107 246.321 125.507Z" fill="#263238"/>
<path d="M248.201 163.088C248.201 163.088 250.193 152.365 258.205 149.708C258.268 149.685 258.336 149.68 258.401 149.694C258.466 149.708 258.526 149.74 258.574 149.786C258.622 149.832 258.657 149.891 258.673 149.956C258.689 150.021 258.687 150.088 258.666 150.152C258.129 151.84 256.021 156.629 248.201 163.088Z" fill="#335263"/>
<path d="M256.009 152.477C255.701 153.044 255.335 153.579 254.917 154.071C254.111 155.14 253.165 156.407 252.114 157.779L249.322 161.499C248.979 162.039 248.588 162.547 248.154 163.018C248.404 162.42 248.726 161.855 249.112 161.336C249.76 160.331 250.712 159 251.816 157.534C252.92 156.068 253.948 154.801 254.736 153.89C255.107 153.373 255.534 152.899 256.009 152.477Z" fill="#263238"/>
<path d="M246.03 189.981C246.03 189.981 244.821 179.142 251.712 174.277C251.766 174.235 251.831 174.21 251.899 174.203C251.967 174.196 252.035 174.209 252.096 174.239C252.157 174.27 252.208 174.317 252.244 174.375C252.279 174.434 252.297 174.501 252.296 174.569C252.29 176.315 251.648 181.53 246.03 189.981Z" fill="#335263"/>
<path d="M250.427 177.536C250.297 178.17 250.101 178.788 249.843 179.381L248.237 183.744L246.642 188.112C246.467 188.733 246.232 189.335 245.941 189.911C246.011 189.268 246.154 188.635 246.368 188.025C246.701 186.857 247.22 185.309 247.851 183.604C248.482 181.898 249.101 180.368 249.574 179.276C249.793 178.666 250.079 178.083 250.427 177.536Z" fill="#263238"/>
<path d="M252.062 217.038C252.062 217.038 251.238 206.152 258.305 201.544C258.36 201.501 258.427 201.475 258.497 201.469C258.567 201.463 258.638 201.477 258.7 201.511C258.762 201.544 258.813 201.595 258.846 201.657C258.88 201.719 258.894 201.789 258.889 201.86C258.783 203.606 257.978 208.792 252.062 217.038Z" fill="#335263"/>
<path d="M256.903 204.78C256.75 205.408 256.533 206.018 256.254 206.602C255.752 207.84 255.156 209.3 254.502 210.906L252.75 215.21C252.551 215.817 252.295 216.403 251.985 216.962C252.073 216.321 252.24 215.693 252.482 215.093C252.85 213.925 253.428 212.412 254.117 210.725C254.806 209.037 255.484 207.542 255.992 206.461C256.234 205.87 256.54 205.306 256.903 204.78Z" fill="#263238"/>
<path d="M239.693 129.397C239.693 129.397 230.028 124.345 229.835 115.906C229.83 115.837 229.846 115.767 229.88 115.706C229.914 115.645 229.965 115.595 230.027 115.562C230.088 115.53 230.158 115.516 230.228 115.522C230.297 115.528 230.364 115.554 230.419 115.597C231.85 116.59 235.815 120.012 239.693 129.397Z" fill="#335263"/>
<path d="M231.85 118.809C232.302 119.27 232.705 119.777 233.053 120.321L235.78 124.088L238.513 127.843C238.929 128.336 239.297 128.868 239.611 129.432C239.116 129.015 238.672 128.543 238.285 128.024C237.52 127.107 236.533 125.805 235.447 124.328C234.361 122.85 233.461 121.484 232.813 120.485C232.432 119.963 232.109 119.401 231.85 118.809Z" fill="#263238"/>
<path d="M250.07 151.746C250.07 151.746 240.113 147.296 239.412 138.898C239.405 138.832 239.417 138.764 239.446 138.704C239.475 138.644 239.52 138.592 239.576 138.556C239.632 138.52 239.697 138.5 239.764 138.498C239.831 138.497 239.897 138.514 239.955 138.548C241.45 139.441 245.632 142.618 250.07 151.746Z" fill="#335263"/>
<path d="M241.597 141.655C242.073 142.086 242.506 142.563 242.887 143.08C243.74 144.114 244.733 145.328 245.837 146.677L248.792 150.257C249.237 150.725 249.638 151.233 249.989 151.776C249.468 151.392 248.995 150.947 248.581 150.45C247.758 149.586 246.672 148.342 245.521 146.946C244.371 145.55 243.366 144.23 242.66 143.267C242.242 142.774 241.886 142.233 241.597 141.655Z" fill="#263238"/>
<path d="M244.342 176.677C244.342 176.677 237.509 168.18 240.715 160.372C240.74 160.31 240.782 160.256 240.835 160.216C240.889 160.177 240.952 160.152 241.019 160.146C241.085 160.14 241.152 160.153 241.212 160.182C241.272 160.212 241.322 160.257 241.358 160.314C242.275 161.797 244.552 166.528 244.342 176.677Z" fill="#335263"/>
<path d="M241.392 163.835C241.617 164.439 241.783 165.063 241.888 165.698L242.875 170.248C243.249 171.941 243.588 173.477 243.88 174.785C244.059 175.404 244.184 176.037 244.253 176.677C243.959 176.1 243.74 175.488 243.599 174.855C243.26 173.687 242.858 172.11 242.478 170.329C242.098 168.548 241.795 166.93 241.608 165.757C241.461 165.127 241.389 164.482 241.392 163.835Z" fill="#263238"/>
<path d="M251.122 206.018C251.122 206.018 241.241 201.398 240.68 192.977C240.676 192.911 240.69 192.845 240.721 192.786C240.751 192.727 240.797 192.678 240.854 192.644C240.911 192.61 240.976 192.592 241.042 192.592C241.108 192.592 241.173 192.61 241.229 192.644C242.701 193.573 246.83 196.808 251.122 206.018Z" fill="#335263"/>
<path d="M242.806 195.786C243.278 196.226 243.705 196.713 244.079 197.24L246.964 200.89C248.05 202.245 249.025 203.477 249.884 204.523C250.318 204.999 250.709 205.513 251.052 206.058C250.535 205.667 250.068 205.214 249.662 204.709C248.856 203.828 247.787 202.572 246.66 201.141C245.533 199.71 244.552 198.391 243.863 197.415C243.45 196.914 243.095 196.367 242.806 195.786Z" fill="#263238"/>
<path d="M270.791 163.146C270.8 163.226 270.8 163.306 270.791 163.386C270.791 163.572 270.791 163.8 270.791 164.081C270.762 164.735 270.721 165.622 270.674 166.726C270.546 169.062 270.371 172.292 270.155 176.169C269.448 180.117 267.439 184.491 264.741 188.737C262.761 191.867 260.682 194.711 258.901 197.357C257.273 199.666 255.808 202.086 254.515 204.598C253.669 206.305 252.983 208.086 252.465 209.919C252.29 210.567 252.162 211.087 252.086 211.425C252.052 211.604 252.005 211.78 251.945 211.951C251.944 211.768 251.963 211.586 252.004 211.408C252.056 211.052 252.162 210.538 252.313 209.878C252.773 208.015 253.424 206.204 254.258 204.476C255.517 201.929 256.963 199.479 258.586 197.147C260.367 194.484 262.428 191.634 264.426 188.521C267.112 184.293 269.098 179.989 269.839 176.105C270.108 172.233 270.336 168.992 270.499 166.673C270.587 165.57 270.663 164.688 270.715 164.034C270.715 163.753 270.762 163.526 270.785 163.339C270.809 163.152 270.779 163.14 270.791 163.146Z" fill="#263238"/>
<path d="M264.911 187.943C264.911 187.943 269.092 177.875 263.83 171.276C263.789 171.224 263.734 171.184 263.672 171.161C263.61 171.138 263.543 171.133 263.478 171.145C263.413 171.158 263.352 171.188 263.303 171.233C263.254 171.277 263.218 171.335 263.2 171.398C262.732 173.08 261.868 178.26 264.911 187.943Z" fill="#335263"/>
<path d="M264.145 174.785C264.329 175.407 264.441 176.048 264.478 176.695C264.624 177.863 264.793 179.516 264.922 181.332C265.05 183.148 265.114 184.795 265.114 186.004C265.151 186.65 265.112 187.299 264.998 187.937C264.879 187.303 264.82 186.66 264.822 186.015C264.735 184.678 264.63 183.095 264.513 181.379C264.396 179.662 264.285 178.073 264.192 176.736C264.112 176.089 264.096 175.435 264.145 174.785Z" fill="#263238"/>
<g opacity="0.3">
<path d="M264.911 187.943C264.911 187.943 269.092 177.875 263.83 171.276C263.789 171.224 263.734 171.184 263.672 171.161C263.61 171.138 263.543 171.133 263.478 171.145C263.413 171.158 263.352 171.188 263.303 171.233C263.254 171.277 263.218 171.335 263.2 171.398C262.732 173.08 261.868 178.26 264.911 187.943Z" fill="black"/>
</g>
<path d="M251.949 212.214C251.949 212.214 255.301 201.836 249.52 195.687C249.474 195.638 249.417 195.603 249.353 195.585C249.289 195.567 249.221 195.568 249.157 195.586C249.093 195.604 249.035 195.639 248.99 195.688C248.945 195.737 248.914 195.797 248.901 195.862C248.574 197.573 248.136 202.806 251.949 212.214Z" fill="#335263"/>
<path d="M250.123 199.144C250.355 199.746 250.518 200.373 250.608 201.013C250.853 202.181 251.151 203.804 251.425 205.597C251.7 207.39 251.898 209.037 252.009 210.228C252.1 210.869 252.112 211.518 252.044 212.161C251.878 211.538 251.769 210.9 251.717 210.257C251.525 208.932 251.291 207.378 251.034 205.661C250.777 203.944 250.538 202.391 250.333 201.065C250.2 200.433 250.129 199.79 250.123 199.144Z" fill="#263238"/>
<g opacity="0.3">
<path d="M251.948 212.214C251.948 212.214 255.301 201.836 249.519 195.687C249.473 195.638 249.416 195.603 249.352 195.585C249.288 195.567 249.22 195.568 249.156 195.586C249.092 195.604 249.034 195.639 248.989 195.688C248.944 195.737 248.913 195.797 248.9 195.862C248.573 197.573 248.135 202.806 251.948 212.214Z" fill="black"/>
</g>
<path d="M270.235 175.638C270.235 175.638 279.153 169.36 278.265 160.991C278.258 160.927 278.234 160.866 278.195 160.814C278.156 160.763 278.104 160.723 278.044 160.699C277.983 160.675 277.918 160.668 277.854 160.678C277.791 160.688 277.731 160.716 277.681 160.758C276.373 161.926 272.863 165.856 270.235 175.638Z" fill="#335263"/>
<g opacity="0.3">
<path d="M270.234 175.638C270.234 175.638 279.152 169.36 278.264 160.991C278.257 160.927 278.233 160.866 278.194 160.814C278.155 160.763 278.103 160.723 278.043 160.699C277.983 160.675 277.917 160.668 277.853 160.678C277.79 160.688 277.73 160.716 277.68 160.758C276.372 161.926 272.862 165.856 270.234 175.638Z" fill="black"/>
</g>
<path d="M276.655 164.104C276.469 164.713 276.218 165.3 275.907 165.856C275.399 166.936 274.663 168.408 273.799 170.008C272.935 171.608 272.1 173.033 271.463 174.044C271.15 174.609 270.77 175.135 270.33 175.609C270.572 175.012 270.869 174.439 271.218 173.898L273.443 169.81L275.656 165.722C275.931 165.149 276.266 164.607 276.655 164.104Z" fill="#263238"/>
<path d="M255.555 201.924C255.555 201.924 266.306 200.242 269.226 192.317C269.251 192.254 269.257 192.185 269.244 192.119C269.232 192.053 269.201 191.991 269.156 191.941C269.11 191.892 269.052 191.856 268.987 191.837C268.922 191.819 268.853 191.819 268.788 191.838C267.1 192.317 262.218 194.285 255.555 201.924Z" fill="#335263"/>
<g opacity="0.3">
<path d="M255.554 201.924C255.554 201.924 266.305 200.242 269.225 192.317C269.25 192.254 269.256 192.185 269.243 192.119C269.231 192.053 269.2 191.991 269.155 191.941C269.109 191.892 269.051 191.856 268.986 191.837C268.921 191.819 268.852 191.819 268.787 191.838C267.099 192.317 262.217 194.285 255.554 201.924Z" fill="black"/>
</g>
<path d="M266.382 194.414C265.949 194.895 265.461 195.324 264.928 195.693C264 196.434 262.686 197.445 261.202 198.49C259.719 199.535 258.346 200.458 257.33 201.077C256.798 201.447 256.224 201.753 255.619 201.988C256.099 201.551 256.619 201.16 257.173 200.82L260.969 198.139L264.759 195.441C265.265 195.047 265.809 194.702 266.382 194.414Z" fill="#263238"/>
<path d="M242.806 221.75L245.895 242.027L258.235 242.004L262.393 221.75H242.806Z" fill="#455A64"/>
<path d="M260.583 229.576C260.554 229.605 260.52 229.629 260.483 229.646C260.379 229.716 260.27 229.779 260.156 229.833C259.722 230.045 259.257 230.185 258.778 230.248C258.014 230.346 257.238 230.272 256.506 230.032C255.525 229.726 254.669 229.112 254.065 228.28C253.726 227.773 253.525 227.188 253.481 226.58C253.445 226.239 253.505 225.894 253.653 225.585C253.802 225.276 254.033 225.014 254.322 224.828C254.649 224.665 255.015 224.595 255.379 224.624C255.744 224.654 256.093 224.783 256.389 224.997C257 225.449 257.417 226.114 257.557 226.86C257.721 227.612 257.775 228.383 257.715 229.15C257.669 229.95 257.5 230.738 257.213 231.486C256.908 232.271 256.417 232.971 255.782 233.524C255.122 234.109 254.286 234.458 253.405 234.517C252.528 234.532 251.667 234.282 250.935 233.798C250.231 233.353 249.609 232.79 249.095 232.134C248.564 231.505 248.238 230.729 248.161 229.909C248.129 229.507 248.192 229.104 248.344 228.73C248.496 228.357 248.733 228.025 249.037 227.76C249.348 227.527 249.721 227.391 250.109 227.367C250.497 227.343 250.883 227.433 251.221 227.625C251.545 227.785 251.827 228.017 252.046 228.304C252.265 228.591 252.414 228.924 252.483 229.278C252.574 229.908 252.475 230.551 252.197 231.124C251.919 231.697 251.475 232.173 250.923 232.49C250.012 232.98 248.957 233.131 247.945 232.917C247.195 232.762 246.476 232.482 245.819 232.087C245.413 231.844 245.023 231.575 244.651 231.281C244.513 231.188 244.386 231.08 244.271 230.96C244.418 231.04 244.558 231.129 244.692 231.229C244.961 231.41 245.364 231.678 245.901 231.97C246.553 232.338 247.261 232.594 247.997 232.73C248.961 232.92 249.961 232.761 250.818 232.28C251.32 231.985 251.722 231.546 251.973 231.021C252.224 230.495 252.312 229.907 252.226 229.331C252.162 229.021 252.027 228.731 251.833 228.481C251.638 228.232 251.389 228.031 251.104 227.894C250.817 227.731 250.489 227.654 250.159 227.674C249.83 227.694 249.513 227.809 249.247 228.005C248.985 228.24 248.781 228.533 248.651 228.86C248.521 229.188 248.47 229.541 248.5 229.891C248.579 230.643 248.882 231.353 249.37 231.93C249.861 232.552 250.453 233.087 251.122 233.512C251.795 233.962 252.59 234.194 253.399 234.178C254.205 234.124 254.969 233.804 255.572 233.267C256.165 232.75 256.624 232.096 256.909 231.363C257.19 230.646 257.354 229.889 257.394 229.121C257.455 228.386 257.412 227.647 257.265 226.925C257.14 226.253 256.767 225.653 256.22 225.243C255.972 225.057 255.677 224.942 255.369 224.912C255.06 224.881 254.748 224.935 254.468 225.068C254.223 225.226 254.027 225.449 253.9 225.711C253.773 225.974 253.721 226.267 253.75 226.557C253.779 227.117 253.956 227.659 254.264 228.128C254.823 228.944 255.63 229.558 256.565 229.88C257.267 230.126 258.015 230.214 258.755 230.137C259.391 230.052 260.009 229.863 260.583 229.576Z" fill="#263238"/>
<path d="M76.4632 230.68C70.1152 230.026 49.7686 229.594 43.4906 230.715C37.2126 231.836 29.9944 237.559 27.308 242.664C24.2887 248.393 24.8026 259.36 29.5856 264.02C34.3685 268.681 42.9475 267.291 50.0256 268.284C57.1036 269.276 64.3219 268.914 71.4934 268.728C116.531 267.56 161.908 273.4 206.456 267.209C212.138 266.427 218.171 265.27 222.189 261.644C226.633 257.632 227.509 251.622 228.151 246.074C228.659 241.688 229.045 236.864 226.131 233.29C224.221 230.954 221.138 229.559 217.879 228.975C223.094 222.615 225.652 217.925 225.921 212.506C226.394 202.922 223.888 195.821 223.322 186.343C222.755 176.864 222.738 167.182 225.5 158.1C227.188 152.57 229.693 145.953 225.926 141.573C223.754 139.044 220.191 138.314 216.898 137.777C177.466 131.353 137.234 131.236 97.388 134.075C92.6342 134.413 87.3665 135.044 84.2772 138.671C81.7952 141.591 81.3864 145.755 81.8536 149.556C82.3208 153.358 83.5355 157.043 83.8625 160.857C85.4101 178.961 59.7141 209.942 76.4632 230.68Z" fill="#335263"/>
<g opacity="0.5">
<path d="M76.4642 230.68C70.1161 230.026 49.7696 229.594 43.4916 230.715C37.2136 231.836 29.9953 237.559 27.3089 242.664C24.2897 248.393 24.8036 259.36 29.5865 264.02C34.3695 268.681 42.9485 267.291 50.0265 268.284C57.1046 269.276 64.3229 268.914 71.4944 268.728C116.532 267.56 161.909 273.4 206.457 267.209C212.139 266.427 218.172 265.27 222.19 261.644C226.634 257.632 227.51 251.622 228.152 246.074C228.66 241.688 229.046 236.864 226.132 233.29C224.222 230.954 221.139 229.559 217.88 228.975C223.095 222.615 225.653 217.925 225.921 212.506C226.395 202.922 223.889 195.821 223.323 186.343C222.756 176.864 222.739 167.182 225.501 158.1C227.189 152.57 229.694 145.953 225.927 141.573C223.755 139.044 220.192 138.314 216.899 137.777C177.467 131.353 137.235 131.236 97.3889 134.075C92.6352 134.413 87.3675 135.044 84.2781 138.671C81.7961 141.591 81.3873 145.755 81.8545 149.556C82.3217 153.358 83.5365 157.043 83.8635 160.857C85.4111 178.961 59.7151 209.942 76.4642 230.68Z" fill="white"/>
</g>
<path d="M84.6104 138.303C84.6104 138.303 85.2819 137.911 86.631 137.304C88.6036 136.418 90.6822 135.79 92.8155 135.435C95.5895 134.945 99.0351 134.851 103.018 134.629C107.001 134.407 111.539 134.244 116.561 134.075C126.594 133.736 138.554 133.549 151.835 133.666C165.115 133.783 179.709 134.25 195.004 135.167L200.704 135.535C202.587 135.611 204.463 135.806 206.322 136.119C208.181 136.41 209.952 137.11 211.508 138.168C212.263 138.715 212.925 139.38 213.47 140.136C213.994 140.898 214.407 141.729 214.696 142.607C215.251 144.336 215.45 146.16 215.28 147.968C215.104 149.726 214.758 151.463 214.247 153.154C213.774 154.83 213.225 156.459 212.793 158.094C212.36 159.73 211.957 161.365 211.625 162.988C210.394 169.148 209.981 175.444 210.398 181.711C210.587 184.547 210.948 187.37 211.479 190.162C211.975 192.854 212.646 195.418 213.23 197.836C214.498 202.689 215.567 207.127 215.917 211.116C216.267 214.524 216.03 217.967 215.216 221.295C214.9 222.494 214.488 223.666 213.984 224.799C213.599 225.628 213.158 226.43 212.664 227.199L212.109 228.005L211.671 228.554C211.432 228.852 211.303 228.998 211.303 228.998C211.303 228.998 211.414 228.834 211.648 228.537C211.759 228.385 211.905 228.198 212.074 227.953L212.611 227.141C213.094 226.371 213.524 225.569 213.896 224.741C214.391 223.606 214.795 222.435 215.105 221.237C215.891 217.918 216.108 214.49 215.748 211.098C215.391 207.127 214.299 202.712 213.026 197.859C212.401 195.43 211.73 192.877 211.222 190.179C209.499 181.167 209.535 171.906 211.327 162.907C211.66 161.277 212.027 159.63 212.495 157.989C212.962 156.348 213.476 154.713 213.943 153.043C214.446 151.37 214.788 149.653 214.965 147.915C215.126 146.142 214.928 144.354 214.381 142.659C214.107 141.812 213.713 141.008 213.213 140.271C212.689 139.54 212.05 138.899 211.321 138.373C209.799 137.341 208.068 136.657 206.252 136.37C204.404 136.062 202.54 135.867 200.669 135.786L194.975 135.418C179.68 134.501 165.091 134.028 151.817 133.893C138.543 133.759 126.588 133.929 116.555 134.238C111.539 134.39 107.001 134.565 103.012 134.752C99.0235 134.939 95.5896 135.026 92.8214 135.499C90.6952 135.843 88.6197 136.449 86.6427 137.304C85.9652 137.596 85.4747 137.835 85.1184 138.005L84.6104 138.303Z" fill="#263238"/>
<path d="M228.485 249.683L227.977 249.829L226.471 250.215L220.677 251.704L216.484 252.755C214.948 253.117 213.266 253.462 211.468 253.859C207.859 254.618 203.771 255.611 199.204 256.37L192.038 257.678C190.794 257.924 189.515 258.087 188.213 258.292L184.236 258.876L180.119 259.495C179.418 259.594 178.717 259.711 178.01 259.804L175.861 260.055L166.949 261.112C154.744 262.35 141.253 263.238 127.097 263.396C112.941 263.553 99.4332 262.812 87.2042 261.766L78.2573 260.849L76.1024 260.628C75.3899 260.552 74.6891 260.446 73.9883 260.353L69.8594 259.804L65.8707 259.273C64.5684 259.092 63.2836 258.951 62.0338 258.724L54.8506 257.556C50.2604 256.855 46.1549 255.95 42.5399 255.22C40.7295 254.852 39.0359 254.536 37.5 254.198L33.2893 253.222L27.4493 251.85L25.9368 251.488C25.5981 251.406 25.4229 251.354 25.4229 251.354C25.4229 251.354 25.6039 251.383 25.9426 251.459L27.461 251.792L33.301 253.106L37.5409 254.04C39.0885 254.367 40.7762 254.677 42.5808 255.033C46.2016 255.716 50.3071 256.61 54.8973 257.293L62.0805 258.461C63.3303 258.683 64.6151 258.823 65.9174 259.004L69.9061 259.524L74.0292 260.067C74.73 260.154 75.4308 260.26 76.1433 260.336L78.2982 260.552L87.2159 261.445C99.439 262.467 112.912 263.127 127.086 263.051C141.259 262.975 154.709 262.012 166.909 260.791L175.815 259.752L177.964 259.5C178.67 259.413 179.371 259.296 180.072 259.197L184.16 258.584L188.137 258C189.439 257.801 190.724 257.643 191.962 257.416L199.145 256.131C203.718 255.371 207.806 254.414 211.409 253.666C213.208 253.281 214.913 252.942 216.432 252.592L220.625 251.564L226.43 250.156L227.942 249.8L228.485 249.683Z" fill="#263238"/>
<path d="M76.4648 230.68H76.8269L77.8898 230.744L81.9778 231.025C83.7298 231.153 85.914 231.317 88.4368 231.445C90.9597 231.573 93.8213 231.784 96.9924 231.901C100.164 232.017 103.638 232.204 107.37 232.292C109.233 232.344 111.166 232.42 113.152 232.449L119.284 232.549C127.676 232.642 136.909 232.607 146.592 232.385C165.969 231.912 183.489 230.925 196.167 230.213L211.182 229.348L215.27 229.127L216.327 229.074H216.666L216.309 229.115L215.247 229.191L211.159 229.477L196.144 230.435C183.471 231.2 165.945 232.222 146.562 232.695C136.874 232.917 127.641 232.946 119.243 232.835L113.111 232.724C111.119 232.689 109.192 232.607 107.323 232.555C103.592 232.449 100.117 232.268 96.9457 232.122C93.7746 231.976 90.9072 231.766 88.3901 231.62C85.8731 231.474 83.7181 231.293 81.9661 231.147L77.8781 230.814L76.8152 230.715L76.4648 230.68Z" fill="#263238"/>
<path d="M189.726 265.492C189.633 265.492 189.463 263.74 188.85 261.72C188.237 259.699 187.449 258.122 187.53 258.075C187.774 258.37 187.971 258.701 188.114 259.057C188.936 260.715 189.465 262.503 189.679 264.342C189.757 264.72 189.773 265.109 189.726 265.492Z" fill="#263238"/>
<path d="M194.889 263.08C194.708 262.017 194.457 260.968 194.136 259.938C193.715 258.946 193.225 257.984 192.67 257.059C193.443 257.85 194.04 258.796 194.422 259.833C194.804 260.871 194.964 261.977 194.889 263.08Z" fill="#263238"/>
<path d="M207.812 202.484C208.855 202.668 209.925 202.624 210.949 202.356C211.973 202.088 212.927 201.602 213.746 200.931C213.746 200.931 213.553 201.252 213.092 201.626C212.481 202.107 211.779 202.459 211.028 202.66C210.277 202.861 209.493 202.906 208.724 202.794C208.4 202.762 208.089 202.656 207.812 202.484Z" fill="#263238"/>
<path d="M207.455 195.476C207.502 195.395 208.535 195.926 209.908 196.265C211.28 196.604 212.437 196.639 212.437 196.732C210.679 196.931 208.909 196.485 207.455 195.476Z" fill="#263238"/>
<path d="M204.224 64.0999C211.152 64.0999 216.768 58.4836 216.768 51.5555C216.768 44.6275 211.152 39.0112 204.224 39.0112C197.296 39.0112 191.68 44.6275 191.68 51.5555C191.68 58.4836 197.296 64.0999 204.224 64.0999Z" fill="#6EB2D7"/>
<path d="M209.557 47.7479C207.221 44.3782 204.225 47.3157 204.225 47.3157C204.225 47.3157 201.235 44.3958 198.893 47.7479C196.423 51.3045 201.106 55.5034 204.225 56.981C207.349 55.4801 212.027 51.3045 209.557 47.7479Z" fill="#D6545C"/>
<path d="M163.644 63.11C176.417 56.8966 181.735 41.5047 175.521 28.7314C169.308 15.958 153.916 10.6402 141.143 16.8536C128.37 23.067 123.052 38.4589 129.265 51.2322C135.478 64.0056 150.87 69.3234 163.644 63.11Z" fill="#CB7C05"/>
<g opacity="0.2">
<path d="M163.645 63.11C176.418 56.8966 181.736 41.5047 175.522 28.7314C169.309 15.958 153.917 10.6402 141.144 16.8536C128.37 23.067 123.053 38.4589 129.266 51.2322C135.479 64.0056 150.871 69.3234 163.645 63.11Z" fill="white"/>
</g>
<path d="M138.991 34.9174C139.142 34.7871 139.309 34.6772 139.488 34.5903C139.815 34.4034 140.294 34.1348 140.889 33.8136C142.057 33.1595 143.739 32.2835 145.561 31.3316L145.801 31.209V31.4834C143.955 30.6834 142.297 29.9534 141.129 29.4102C140.545 29.1416 140.054 28.9197 139.727 28.7562C139.552 28.6878 139.387 28.5955 139.236 28.4817C139.423 28.51 139.605 28.5672 139.774 28.651C140.118 28.7795 140.603 28.9722 141.21 29.235C142.419 29.7256 144.084 30.403 145.929 31.2206C145.955 31.233 145.977 31.2524 145.992 31.2767C146.008 31.301 146.016 31.3291 146.016 31.3579C146.016 31.3866 146.008 31.4148 145.992 31.4391C145.977 31.4634 145.955 31.4828 145.929 31.4951L145.69 31.6178C143.856 32.5697 142.186 33.4223 140.965 34.018C140.381 34.3217 139.861 34.5553 139.517 34.713C139.352 34.8043 139.175 34.8731 138.991 34.9174Z" fill="#263238"/>
<path d="M164.688 34.1701C164.034 33.9529 163.4 33.6834 162.79 33.3642C161.622 32.8327 160.033 32.0735 158.281 31.2209C158.255 31.2086 158.233 31.1892 158.218 31.1649C158.202 31.1406 158.194 31.1124 158.194 31.0836C158.194 31.0549 158.202 31.0267 158.218 31.0024C158.233 30.9781 158.255 30.9587 158.281 30.9464L158.357 30.9114C160.162 30.1171 161.803 29.4163 162.994 28.9258C163.628 28.6281 164.284 28.3801 164.956 28.1841C164.353 28.5373 163.727 28.8495 163.082 29.1185C161.914 29.6674 160.284 30.3974 158.48 31.1917L158.404 31.2267V30.9522C160.156 31.8107 161.733 32.5991 162.871 33.1773C163.5 33.4647 164.107 33.7964 164.688 34.1701Z" fill="#263238"/>
<path d="M135.12 40.2962L169.15 40.1619C169.15 40.1619 166.919 55.889 152.716 56.1751C138.513 56.4613 135.12 40.2962 135.12 40.2962Z" fill="#263238"/>
<path d="M165.366 49.2547C162.376 45.2952 157.237 43.2921 152.279 43.4147C147.32 43.5374 142.555 45.5931 138.52 48.4722C138.52 48.4722 142.993 56.3679 152.717 56.1693C162.44 55.9707 165.366 49.2547 165.366 49.2547Z" fill="#EED8CE"/>
<path d="M135.12 40.2962C135.146 40.3647 135.168 40.435 135.184 40.5064C135.227 40.6582 135.286 40.8529 135.36 41.0904C135.523 41.6335 135.774 42.4219 136.171 43.4264C136.65 44.6321 137.212 45.8029 137.853 46.9304C138.7 48.4256 139.724 49.8138 140.902 51.0651C141.59 51.7854 142.336 52.4476 143.133 53.0449C144.008 53.6772 144.943 54.2228 145.924 54.6742C146.982 55.1384 148.089 55.4813 149.224 55.6962C150.429 55.9214 151.655 56.0135 152.88 55.9707C155.519 55.9243 158.103 55.2089 160.39 53.8917C162.797 52.4126 164.791 50.347 166.183 47.8882C167.561 45.4902 168.515 42.8725 169.004 40.1502L169.156 40.3195H144.914H137.742H135.803H135.12C135.172 40.3133 135.225 40.3133 135.278 40.3195H135.763H137.666L144.797 40.2494L169.15 40.0801C169.189 40.0801 169.226 40.0955 169.253 40.1228C169.28 40.1502 169.296 40.1874 169.296 40.2261C168.8 42.981 167.834 45.6302 166.44 48.0575C165.027 50.5727 162.997 52.687 160.542 54.2012C158.209 55.5388 155.574 56.2622 152.885 56.3036C151.64 56.3404 150.395 56.2425 149.171 56.0116C148.018 55.7849 146.894 55.4304 145.819 54.9546C144.823 54.4952 143.875 53.9356 142.992 53.2843C142.189 52.6752 141.437 52.0014 140.744 51.2695C139.566 49.9953 138.547 48.5834 137.707 47.0647C137.076 45.9229 136.529 44.7361 136.072 43.514C135.78 42.7487 135.526 41.969 135.313 41.178C135.243 40.9035 135.196 40.6933 135.167 40.5531C135.141 40.4697 135.125 40.3834 135.12 40.2962Z" fill="#263238"/>
<path d="M135.919 56.8C135.817 56.7332 135.721 56.657 135.633 56.5722C135.458 56.4087 135.183 56.1868 134.874 55.8656C133.967 54.966 133.14 53.989 132.404 52.9456C129.927 49.4985 128.431 45.444 128.076 41.2141C127.721 36.9842 128.521 32.7372 130.389 28.9257C130.944 27.7778 131.596 26.6797 132.339 25.6436C132.596 25.2698 132.83 25.007 132.976 24.8201C133.043 24.7182 133.123 24.6259 133.215 24.5457C133.161 24.6546 133.096 24.7582 133.023 24.8552C132.894 25.0537 132.678 25.3282 132.439 25.7078C131.738 26.7639 131.118 27.8708 130.582 29.0191C128.787 32.8102 128.026 37.0081 128.374 41.188C128.723 45.3678 130.169 49.3815 132.567 52.8229C133.283 53.8688 134.078 54.8586 134.944 55.7838C135.242 56.1167 135.528 56.3678 135.662 56.5255C135.76 56.6048 135.847 56.6971 135.919 56.8Z" fill="white"/>
<path d="M137.882 20.9189C137.911 21.0007 137.233 21.2518 136.55 21.7833C135.867 22.3147 135.446 22.887 135.382 22.8403C135.318 22.7936 135.639 22.1045 136.381 21.5438C136.79 21.1625 137.323 20.9408 137.882 20.9189Z" fill="white"/>
<path d="M172.39 52.49C172.355 52.4549 172.758 51.9644 173.307 51.1001C174.747 48.8464 175.563 46.2506 175.672 43.5781C175.713 42.5561 175.672 41.9196 175.713 41.9137C175.754 41.9079 175.765 42.0656 175.806 42.3576C175.862 42.762 175.889 43.1699 175.888 43.5781C175.898 46.3114 175.059 48.9804 173.488 51.2169C173.254 51.5542 172.998 51.8761 172.723 52.1805C172.524 52.3907 172.407 52.5017 172.39 52.49Z" fill="white"/>
<path d="M228.881 93.9015C228.881 93.9015 228.881 93.7847 228.846 93.5627C228.811 93.3408 228.811 92.9787 228.782 92.5583C228.782 92.3422 228.752 92.0911 228.735 91.8224C228.717 91.5538 228.653 91.2384 228.601 90.9464C228.509 90.2105 228.362 89.4823 228.163 88.7681C227.672 86.7992 226.884 84.9166 225.827 83.1851C224.299 80.6349 222.248 78.4377 219.809 76.7384C217.369 75.0392 214.598 73.8765 211.676 73.3271C210.8 73.1657 209.914 73.0643 209.025 73.0235C208.575 73.0235 208.12 72.9651 207.664 72.9709L206.274 73.041C206.046 73.041 205.807 73.041 205.579 73.0877L204.878 73.1928C204.411 73.2746 203.938 73.3271 203.471 73.4206C202.524 73.6368 201.592 73.9118 200.679 74.244C199.744 74.5799 198.833 74.9799 197.952 75.4412C197.508 75.6807 197.082 75.961 196.65 76.2238C196.205 76.48 195.781 76.771 195.383 77.0939C194.55 77.7136 193.758 78.3866 193.012 79.1087C192.274 79.8693 191.589 80.679 190.962 81.5323L190.477 82.1806L190.057 82.8639L189.636 83.5588C189.488 83.7854 189.359 84.0237 189.251 84.2713C189.011 84.7619 188.778 85.2524 188.538 85.7488C188.299 86.2452 188.159 86.7767 187.954 87.2964C186.514 91.58 186.514 96.2171 187.954 100.501C188.141 101.02 188.328 101.534 188.538 102.048C188.748 102.562 189.011 103.035 189.245 103.526C189.357 103.773 189.487 104.011 189.636 104.238L190.057 104.933L190.477 105.622L190.968 106.288C191.595 107.143 192.28 107.955 193.017 108.718C193.763 109.44 194.555 110.113 195.388 110.732C195.786 111.054 196.208 111.345 196.65 111.603C197.088 111.865 197.514 112.146 197.958 112.385C198.839 112.836 199.751 113.227 200.685 113.553C201.597 113.886 202.53 114.159 203.477 114.371C203.944 114.47 204.417 114.523 204.884 114.604L205.585 114.709C205.819 114.709 206.052 114.709 206.28 114.756L207.67 114.826C208.125 114.826 208.581 114.791 209.037 114.774C209.924 114.732 210.808 114.631 211.682 114.47C214.887 113.874 217.908 112.534 220.5 110.557C222.643 108.935 224.455 106.917 225.838 104.612C226.895 102.878 227.683 100.994 228.174 99.0231C228.373 98.3104 228.522 97.5844 228.618 96.8507C228.665 96.5353 228.723 96.2667 228.747 95.9747C228.77 95.6827 228.782 95.4549 228.793 95.2388C228.822 94.8067 228.846 94.4738 228.857 94.2343C228.869 93.9949 228.893 93.8956 228.893 93.8956C228.893 93.8956 228.893 94.0124 228.893 94.2343C228.893 94.4563 228.893 94.8183 228.857 95.2388C228.857 95.4607 228.857 95.706 228.822 95.9805C228.787 96.255 228.747 96.5645 228.706 96.8623C228.621 97.6014 228.482 98.3333 228.291 99.0523C227.815 101.041 227.039 102.945 225.99 104.7C224.458 107.283 222.395 109.511 219.937 111.238C217.48 112.964 214.684 114.15 211.735 114.715C210.855 114.885 209.966 114.997 209.072 115.048C208.616 115.048 208.155 115.106 207.687 115.101L206.286 115.036C206.052 115.036 205.813 115.036 205.579 114.99L204.873 114.885C204.4 114.803 203.921 114.75 203.442 114.651C202.482 114.44 201.538 114.165 200.615 113.828C199.666 113.488 198.741 113.084 197.847 112.619C197.397 112.373 196.965 112.093 196.521 111.83C196.075 111.567 195.648 111.272 195.242 110.948C193.506 109.707 191.989 108.185 190.751 106.446L190.261 105.798L189.8 105.12L189.367 104.419C189.22 104.188 189.089 103.946 188.976 103.695L188.258 102.2L187.674 100.623C186.214 96.2789 186.214 91.5766 187.674 87.2322C187.866 86.7066 188.059 86.181 188.258 85.6612L188.982 84.1662C189.092 83.9133 189.225 83.6709 189.379 83.442L189.805 82.7354L190.232 82.0404L190.722 81.3863C191.957 79.6469 193.475 78.1269 195.213 76.8895C195.617 76.5641 196.044 76.2693 196.492 76.0077C196.936 75.7449 197.368 75.4646 197.818 75.2193C198.712 74.7539 199.637 74.35 200.586 74.0104C201.509 73.6728 202.453 73.3977 203.413 73.187C203.891 73.0877 204.37 73.0351 204.843 72.9534L205.55 72.8483C205.784 72.8483 206.023 72.8483 206.257 72.8015L207.658 72.7373C208.125 72.7373 208.587 72.7723 209.042 72.7899C209.942 72.8368 210.838 72.9441 211.723 73.1111C214.673 73.6726 217.47 74.8562 219.927 76.5832C222.384 78.3102 224.445 80.5409 225.973 83.1267C227.026 84.88 227.804 86.7846 228.279 88.7739C228.47 89.4911 228.608 90.2211 228.694 90.9581C228.735 91.2793 228.787 91.5771 228.811 91.8458C228.834 92.1144 228.811 92.3655 228.846 92.5875C228.846 93.0196 228.857 93.3525 228.881 93.5861C228.887 93.7847 228.881 93.9015 228.881 93.9015Z" fill="#335263"/>
<path d="M203.629 88.9668H204.826C204.826 88.9668 207.162 84.9664 207.08 83.9035C206.998 82.8406 206.496 80.2535 207.08 79.5235C207.664 78.7935 211.273 79.2081 211.665 81.5909C211.987 84.036 212.139 86.5006 212.12 88.9668H219.712C220.142 88.9598 220.563 89.0903 220.914 89.3392C221.265 89.5882 221.527 89.9426 221.663 90.3509C221.733 90.5853 221.757 90.8314 221.733 91.075C221.733 91.075 221.645 92.8679 219.981 92.9321C220.176 93.1587 220.324 93.4223 220.416 93.7073C220.507 93.9922 220.54 94.2927 220.512 94.5907C220.512 95.7879 219.017 96.2201 219.017 96.2201C219.327 96.3563 219.584 96.5879 219.752 96.8811C219.92 97.1743 219.99 97.5137 219.952 97.8494C219.952 99.1751 218.521 99.7065 218.521 99.7065C218.894 100.299 219.047 101.004 218.953 101.698C218.819 102.924 217.44 103.211 217.44 103.211H203.6L203.629 88.9668Z" fill="#335263"/>
<path d="M201.323 88.9668H197.602C196.78 88.9668 196.113 89.6335 196.113 90.456V101.721C196.113 102.544 196.78 103.211 197.602 103.211H201.323C202.145 103.211 202.812 102.544 202.812 101.721V90.456C202.812 89.6335 202.145 88.9668 201.323 88.9668Z" fill="#335263"/>
<path d="M166.939 109.839C167.743 108.206 169.11 106.918 170.788 106.212C171.627 105.877 172.541 105.771 173.435 105.905C174.329 106.04 175.171 106.41 175.874 106.977C176.554 107.573 177.003 108.389 177.143 109.283C177.283 110.176 177.105 111.09 176.639 111.865C177.513 111.69 178.417 111.737 179.267 112.001C180.118 112.264 180.89 112.737 181.511 113.376C182.132 114.015 182.583 114.799 182.823 115.657C183.063 116.515 183.084 117.42 182.884 118.288C182.685 119.156 182.27 119.961 181.68 120.628C181.089 121.295 180.341 121.803 179.503 122.107C178.665 122.41 177.765 122.498 176.884 122.364C176.003 122.23 175.17 121.877 174.461 121.338C174.326 122.003 174.023 122.622 173.581 123.137C173.139 123.652 172.573 124.045 171.936 124.279C171.299 124.513 170.613 124.58 169.943 124.474C169.273 124.368 168.641 124.093 168.107 123.674C165.421 121.571 166.034 116.666 163.044 115.025" fill="#263238"/>
<path d="M164.843 117.734C165.949 116.569 166.773 115.165 167.252 113.631C167.73 112.098 167.851 110.475 167.605 108.887C167.473 108.463 167.473 108.009 167.605 107.584C167.944 106.884 169.036 106.86 169.62 107.38C170.162 107.956 170.478 108.709 170.507 109.5C170.777 111.573 170.577 113.681 169.923 115.667C169.684 116.468 169.287 117.212 168.755 117.857C168.49 118.178 168.16 118.441 167.787 118.627C167.413 118.813 167.005 118.919 166.589 118.937C166.199 118.965 165.812 118.861 165.489 118.643C165.165 118.425 164.923 118.105 164.802 117.734" fill="#335263"/>
<path d="M163.045 87.0686C161.929 83.9734 156.621 81.322 153.736 79.7744C149.397 77.4676 145.461 78.0925 143.101 80.3584C138.575 76.8135 132.671 73.4614 127.164 75.1024C121.657 76.7434 117.335 82.5718 118.55 88.184C119.256 91.4953 121.663 94.4036 121.639 97.7908C121.639 100.098 120.471 102.218 119.572 104.343C118.672 106.469 118.001 108.928 118.941 111.036C119.817 112.998 121.861 114.172 123.029 115.988C123.958 117.466 124.226 119.259 124.845 120.894C127.14 126.956 134.493 130.15 140.847 128.86C147.201 127.569 152.358 122.582 155.184 116.747C158.011 110.913 158.787 104.302 158.922 97.82" fill="#263238"/>
<path d="M139.225 85.8071C137.825 85.6174 136.401 85.7118 135.039 86.0847C133.676 86.4575 132.403 87.1012 131.295 87.9772C130.187 88.8532 129.266 89.9435 128.589 91.1831C127.911 92.4228 127.491 93.7862 127.352 95.192C126.669 102.27 126.091 111.164 126.768 116.561C128.106 127.073 136.112 128.667 136.112 128.667C136.112 128.667 136.048 132.58 135.96 137.147C135.906 140.079 136.988 142.918 138.98 145.071C140.972 147.223 143.72 148.521 146.648 148.692C148.196 148.783 149.746 148.556 151.203 148.024C152.66 147.493 153.992 146.668 155.118 145.602C156.244 144.535 157.139 143.249 157.748 141.823C158.357 140.397 158.668 138.861 158.66 137.31L158.421 91.688" fill="#FFBE9D"/>
<path d="M136.07 128.667C141.029 128.808 145.935 127.621 150.279 125.227C150.279 125.227 146.512 132.568 136.07 131.248V128.667Z" fill="#EB996E"/>
<path d="M142.645 96.2665C142.78 96.6636 144.228 96.5235 145.916 96.7805C147.603 97.0374 148.964 97.5396 149.198 97.1951C149.303 97.0316 149.081 96.652 148.538 96.2549C147.819 95.759 146.992 95.4408 146.126 95.3263C145.26 95.1919 144.375 95.268 143.545 95.5482C142.914 95.776 142.593 96.0796 142.645 96.2665Z" fill="#263238"/>
<path d="M129.307 97.0608C129.552 97.3995 130.557 97.09 131.754 97.1134C132.951 97.1367 133.962 97.3995 134.201 97.0667C134.312 96.8973 134.16 96.5644 133.728 96.2432C133.144 95.851 132.457 95.6416 131.754 95.6416C131.051 95.6416 130.364 95.851 129.78 96.2432C129.348 96.5644 129.202 96.8973 129.307 97.0608Z" fill="#263238"/>
<path d="M142.272 108.069C142.273 108.146 142.297 108.22 142.341 108.283C142.385 108.346 142.446 108.395 142.518 108.422C142.589 108.45 142.668 108.456 142.742 108.439C142.817 108.422 142.885 108.383 142.938 108.327C142.99 108.271 143.025 108.201 143.037 108.125C143.05 108.049 143.039 107.972 143.007 107.902C142.975 107.832 142.923 107.774 142.858 107.734C142.792 107.694 142.716 107.674 142.64 107.678C142.59 107.679 142.541 107.691 142.495 107.711C142.45 107.732 142.409 107.761 142.375 107.797C142.34 107.834 142.314 107.876 142.296 107.923C142.278 107.97 142.27 108.019 142.272 108.069Z" fill="#EB996E"/>
<path d="M131.397 106.557C131.398 106.607 131.409 106.656 131.429 106.702C131.449 106.748 131.479 106.789 131.515 106.824C131.552 106.858 131.595 106.885 131.642 106.902C131.689 106.919 131.739 106.927 131.789 106.925C131.839 106.924 131.889 106.913 131.935 106.893C131.981 106.873 132.023 106.844 132.058 106.807C132.092 106.771 132.12 106.728 132.138 106.681C132.156 106.634 132.164 106.584 132.162 106.533C132.169 106.479 132.164 106.424 132.148 106.372C132.132 106.32 132.105 106.272 132.069 106.231C132.033 106.19 131.988 106.157 131.938 106.135C131.889 106.112 131.835 106.101 131.78 106.101C131.725 106.101 131.671 106.112 131.622 106.135C131.572 106.157 131.527 106.19 131.491 106.231C131.455 106.272 131.428 106.32 131.412 106.372C131.396 106.424 131.391 106.479 131.397 106.533V106.557Z" fill="#EB996E"/>
<path d="M129.295 107.625C129.3 107.727 129.344 107.822 129.418 107.891C129.493 107.96 129.591 107.996 129.692 107.993C129.786 107.982 129.871 107.936 129.934 107.866C129.996 107.796 130.03 107.705 130.03 107.611C130.03 107.517 129.996 107.426 129.934 107.355C129.871 107.285 129.786 107.24 129.692 107.228C129.64 107.227 129.587 107.236 129.538 107.255C129.489 107.275 129.445 107.304 129.408 107.341C129.371 107.378 129.341 107.423 129.322 107.471C129.303 107.52 129.293 107.573 129.295 107.625Z" fill="#EB996E"/>
<path d="M128.6 106.043C128.601 106.119 128.625 106.194 128.669 106.257C128.713 106.32 128.775 106.368 128.846 106.396C128.918 106.424 128.996 106.429 129.071 106.412C129.145 106.395 129.213 106.356 129.266 106.301C129.319 106.245 129.353 106.174 129.366 106.099C129.378 106.023 129.367 105.945 129.335 105.876C129.303 105.806 129.251 105.747 129.186 105.707C129.12 105.668 129.044 105.648 128.968 105.652C128.918 105.653 128.869 105.664 128.823 105.685C128.778 105.705 128.737 105.735 128.703 105.771C128.668 105.807 128.642 105.85 128.624 105.897C128.607 105.943 128.598 105.993 128.6 106.043Z" fill="#EB996E"/>
<path d="M144.077 109.704C144.077 109.807 144.118 109.905 144.19 109.977C144.262 110.049 144.36 110.09 144.463 110.09C144.565 110.09 144.663 110.049 144.735 109.977C144.807 109.905 144.848 109.807 144.848 109.704C144.848 109.602 144.807 109.504 144.735 109.432C144.663 109.359 144.565 109.319 144.463 109.319C144.36 109.319 144.262 109.359 144.19 109.432C144.118 109.504 144.077 109.602 144.077 109.704Z" fill="#EB996E"/>
<path d="M145.461 108.116C145.461 108.218 145.502 108.316 145.574 108.388C145.646 108.461 145.744 108.501 145.846 108.501C145.949 108.501 146.047 108.461 146.119 108.388C146.191 108.316 146.232 108.218 146.232 108.116C146.232 108.065 146.222 108.015 146.202 107.968C146.183 107.922 146.155 107.879 146.119 107.843C146.083 107.808 146.041 107.779 145.994 107.76C145.947 107.74 145.897 107.73 145.846 107.73C145.796 107.73 145.746 107.74 145.699 107.76C145.652 107.779 145.61 107.808 145.574 107.843C145.538 107.879 145.51 107.922 145.49 107.968C145.471 108.015 145.461 108.065 145.461 108.116Z" fill="#EB996E"/>
<path d="M139.713 84.166C140.389 88.3185 142.223 92.196 145.004 95.353C147.785 98.51 151.4 100.818 155.434 102.013C152.976 105.815 154.85 112.829 154.967 118.727C155.09 124.217 155.142 125.782 158.792 128.462C161.753 129.046 163.178 120.97 165.286 118.651C167.395 116.333 169.374 113.489 169.123 110.364C168.995 108.904 168.376 107.526 168.247 106.066C168.107 104.448 168.574 102.842 168.831 101.236C169.865 94.1174 165.946 86.6363 159.657 83.1323C153.367 79.6283 145.15 80.1656 139.164 84.1543" fill="#263238"/>
<path d="M167.98 105.289C168.072 105.195 168.156 105.094 168.231 104.986C168.445 104.67 168.597 104.318 168.681 103.946C168.911 102.556 168.648 101.129 167.939 99.9107C167.497 99.052 166.904 98.2803 166.187 97.6331C165.402 96.8609 164.539 96.172 163.612 95.5774C162.581 94.9242 161.467 94.4134 160.3 94.059C159.091 93.6911 157.812 93.4108 156.51 93.1304C155.208 92.8501 153.935 92.5756 152.743 92.2019C151.594 91.8467 150.473 91.4035 149.391 90.8762C146.312 89.3728 143.584 87.2377 141.385 84.6099C141.069 84.242 140.836 83.9383 140.678 83.7397C140.603 83.6302 140.516 83.5285 140.421 83.436C140.484 83.5525 140.556 83.6638 140.637 83.7689C140.783 83.9792 141.005 84.2887 141.314 84.6683C142.174 85.7525 143.132 86.7554 144.176 87.6642C145.729 89.015 147.448 90.1612 149.292 91.0748C150.381 91.6134 151.512 92.0645 152.673 92.4238C153.876 92.8092 155.155 93.0837 156.458 93.3699C157.76 93.656 159.033 93.9188 160.23 94.2809C161.389 94.6273 162.495 95.1303 163.518 95.776C164.439 96.3563 165.298 97.0295 166.082 97.7849C166.795 98.4133 167.388 99.1651 167.834 100.004C168.543 101.186 168.827 102.575 168.64 103.94C168.515 104.43 168.29 104.89 167.98 105.289Z" fill="#455A64"/>
<path d="M140.425 83.436C140.494 83.5274 140.57 83.6133 140.653 83.693C140.804 83.8624 141.038 84.0901 141.342 84.388C142.203 85.2256 143.118 86.0059 144.081 86.724C145.504 87.814 147.077 88.6914 148.753 89.3286C149.756 89.6631 150.788 89.9055 151.836 90.0528C152.917 90.2338 154.044 90.3623 155.194 90.4966C157.364 90.6841 159.514 91.0613 161.618 91.6237C163.313 92.1197 164.898 92.9321 166.29 94.0181C167.238 94.7493 168.031 95.6602 168.626 96.6987C168.781 96.9845 168.919 97.2789 169.041 97.5805C169.077 97.6882 169.124 97.7919 169.181 97.89C169.159 97.778 169.125 97.6685 169.082 97.563C168.98 97.2522 168.855 96.9496 168.708 96.6578C168.147 95.5834 167.367 94.6385 166.419 93.8838C165.019 92.7617 163.414 91.9227 161.694 91.4135C159.593 90.8298 157.442 90.4389 155.27 90.2455C154.102 90.1112 152.998 89.9768 151.924 89.8075C150.891 89.6618 149.873 89.4273 148.881 89.1067C147.226 88.4797 145.666 87.6268 144.244 86.5721C143.28 85.8661 142.354 85.1098 141.47 84.3062L140.752 83.6404C140.649 83.5626 140.54 83.4942 140.425 83.436Z" fill="#455A64"/>
<path d="M128.427 74.7112C128.427 74.7696 129.326 74.7696 130.763 75.0908C131.146 75.1776 131.524 75.2848 131.896 75.412C132.305 75.5346 132.713 75.7156 133.157 75.8967C134.096 76.3244 134.99 76.8448 135.826 77.4501C136.649 78.0723 137.406 78.7768 138.086 79.5525C138.381 79.8937 138.658 80.2505 138.915 80.6212C139.149 80.9379 139.362 81.2696 139.552 81.614C140.27 82.8638 140.533 83.7281 140.586 83.7106C140.547 83.5099 140.486 83.314 140.405 83.1266C140.331 82.8909 140.242 82.6606 140.136 82.4375C140.008 82.1342 139.863 81.8379 139.704 81.5498C139.517 81.1984 139.308 80.8591 139.079 80.5336C138.826 80.1518 138.551 79.7852 138.255 79.4357C136.899 77.8213 135.183 76.5472 133.245 75.7156C132.823 75.5372 132.392 75.3812 131.954 75.2484C131.572 75.1222 131.182 75.0227 130.786 74.9506C130.467 74.878 130.143 74.8253 129.817 74.7929C129.571 74.7533 129.323 74.7338 129.075 74.7345C128.86 74.7027 128.643 74.6948 128.427 74.7112Z" fill="#455A64"/>
<path d="M122.329 114.756L122.258 114.663L122.031 114.417C121.826 114.195 121.528 113.88 121.184 113.436C120.754 112.915 120.42 112.322 120.197 111.684C120.068 111.285 120.022 110.864 120.063 110.446C120.112 109.98 120.258 109.528 120.489 109.12C121.085 108.204 121.747 107.331 122.469 106.51C123.23 105.49 123.854 104.375 124.326 103.193C124.856 101.885 125.196 100.509 125.336 99.1048C125.43 97.6068 125.417 96.104 125.295 94.608C125.172 93.1255 125.26 91.633 125.558 90.1754C125.888 88.8337 126.53 87.589 127.433 86.543C128.236 85.588 129.231 84.8122 130.353 84.2653C131.332 83.7867 132.395 83.5031 133.483 83.4302C135.066 83.3185 136.652 83.6119 138.091 84.2829C138.48 84.4674 138.857 84.6781 139.218 84.9136L139.498 85.1005C139.562 85.1414 139.597 85.1589 139.597 85.153C139.153 84.7719 138.66 84.4518 138.132 84.2011C136.684 83.4822 135.073 83.1578 133.46 83.2609C132.348 83.328 131.26 83.6075 130.253 84.0843C129.04 84.6696 127.968 85.5125 127.114 86.5545C126.26 87.5964 125.643 88.8122 125.307 90.117C125.005 91.5957 124.915 93.1097 125.038 94.6138C125.158 96.1001 125.174 97.593 125.085 99.0814C124.82 101.717 123.854 104.234 122.288 106.37C121.571 107.207 120.913 108.093 120.32 109.021C120.084 109.452 119.939 109.927 119.893 110.417C119.86 110.853 119.914 111.292 120.051 111.708C120.287 112.359 120.64 112.962 121.09 113.489C121.371 113.833 121.674 114.158 121.996 114.464L122.241 114.698C122.267 114.721 122.297 114.741 122.329 114.756Z" fill="#455A64"/>
<path d="M167.453 105.891C167.453 105.891 167.488 105.891 167.564 105.838L167.874 105.657C168.271 105.417 168.647 105.141 168.995 104.834C170.297 103.701 171.272 102.241 171.822 100.606C172.446 98.6545 172.43 96.5549 171.777 94.6133C171.123 92.6717 169.866 90.9899 168.189 89.8133C166.856 88.8983 165.368 88.2316 163.797 87.8453C162.236 87.4517 160.64 87.2149 159.032 87.1386C157.479 87.0452 155.978 87.0218 154.553 86.9751C153.209 86.9387 151.867 86.8315 150.535 86.6539C149.388 86.4966 148.259 86.2266 147.165 85.848C145.551 85.3164 144.066 84.4508 142.808 83.3076C142.478 82.9861 142.17 82.6427 141.886 82.2797L141.664 81.9936C141.64 81.9596 141.613 81.9283 141.582 81.9001C141.906 82.4395 142.298 82.9343 142.75 83.3718C143.996 84.5562 145.484 85.455 147.113 86.0057C148.229 86.3985 149.381 86.6802 150.552 86.8466C151.892 87.0333 153.241 87.1463 154.594 87.1853C157.438 87.3197 160.603 87.2379 163.78 88.073C165.325 88.4484 166.79 89.1014 168.101 90.0002C169.323 90.8449 170.325 91.9705 171.021 93.2823C171.614 94.3866 171.979 95.5984 172.096 96.8462C172.212 98.094 172.077 99.3525 171.699 100.547C171.172 102.163 170.234 103.614 168.977 104.758C168.634 105.066 168.272 105.35 167.891 105.611L167.593 105.815C167.541 105.829 167.493 105.855 167.453 105.891Z" fill="#263238"/>
<path d="M129.32 103.491C129.477 103.672 130.488 102.907 131.948 102.971C133.408 103.035 134.43 103.742 134.593 103.555C134.669 103.479 134.505 103.158 134.056 102.813C133.44 102.368 132.701 102.125 131.942 102.118C131.194 102.101 130.46 102.322 129.845 102.749C129.395 103.099 129.238 103.409 129.32 103.491Z" fill="#263238"/>
<path d="M144.029 103.73C144.193 103.905 145.226 103.146 146.663 103.205C148.1 103.263 149.145 103.981 149.308 103.789C149.384 103.713 149.221 103.397 148.765 103.053C148.152 102.607 147.415 102.362 146.657 102.352C145.906 102.333 145.169 102.556 144.555 102.988C144.111 103.333 143.953 103.648 144.029 103.73Z" fill="#263238"/>
<path d="M138.592 112.42C138.592 112.338 137.71 112.169 136.256 111.953C135.888 111.906 135.538 111.83 135.485 111.573C135.459 111.195 135.551 110.817 135.748 110.493C136.116 109.605 136.495 108.682 136.916 107.713C138.504 103.753 139.666 100.495 139.503 100.43C139.339 100.366 137.926 103.526 136.338 107.485C135.952 108.46 135.59 109.395 135.24 110.282C135 110.723 134.921 111.233 135.018 111.725C135.068 111.854 135.147 111.97 135.248 112.065C135.349 112.16 135.47 112.231 135.602 112.274C135.805 112.331 136.015 112.365 136.227 112.373C137.681 112.478 138.586 112.502 138.592 112.42Z" fill="#263238"/>
<path d="M139.136 115.907C139.415 115.567 139.776 115.305 140.184 115.144C140.593 114.984 141.036 114.931 141.472 114.99C141.79 115.022 142.099 115.12 142.378 115.276C142.657 115.433 142.901 115.646 143.095 115.901C143.282 116.145 143.39 116.44 143.403 116.747C143.417 117.054 143.336 117.358 143.171 117.618C142.934 117.87 142.626 118.047 142.289 118.125C141.951 118.203 141.597 118.179 141.273 118.056C140.597 117.805 139.98 117.419 139.457 116.923C139.298 116.804 139.161 116.658 139.054 116.491C139.001 116.411 138.973 116.318 138.973 116.222C138.973 116.126 139.001 116.033 139.054 115.953" fill="#EB996E"/>
<path d="M142.816 113.5C142.583 113.5 142.547 115.048 141.187 116.128C139.826 117.209 138.162 117.01 138.15 117.226C138.121 117.326 138.512 117.542 139.213 117.571C140.129 117.605 141.027 117.313 141.747 116.747C142.441 116.205 142.896 115.413 143.015 114.54C143.079 113.88 142.921 113.494 142.816 113.5Z" fill="#263238"/>
<path d="M130.644 211.244L114.66 216.664L113.376 220.664C113.376 220.664 68.7813 204.61 65.616 202.922C62.4508 201.235 46.1338 197.509 40.7727 210.912C36.2467 222.183 45.2403 233.483 59.5833 239.808C73.9263 246.133 101.771 248.877 101.771 248.877L120.092 252.048L160.615 252.58C166.532 252.652 172.393 251.426 177.784 248.987C183.176 246.548 187.966 242.956 191.818 238.465C198.207 231.019 204.807 222.592 206.056 218.194C208.492 209.65 206.29 198.577 193.553 197.509C180.816 196.44 160.16 210.993 160.16 210.993L152.317 208.844L130.644 211.244Z" fill="#263238"/>
<path d="M129.389 237.238C129.404 237.145 129.426 237.054 129.453 236.964C129.511 236.696 129.479 236.417 129.36 236.17C129.056 235.498 128.046 234.897 126.691 234.552C123.94 233.437 119.8 231.702 114.9 229.267C110 226.831 104.312 223.777 98.2327 220.507C93.8352 218.171 89.6421 215.922 85.7585 214.036C81.8749 212.15 78.33 210.532 75.2932 209.364C74.534 209.06 73.8157 208.78 73.1266 208.494L71.176 207.781L69.4941 207.133L68.0516 206.666L66.0485 206.012L65.5346 205.831L65.3594 205.761L65.5404 205.802L66.066 205.953L68.0867 206.537L69.5408 206.987L71.2519 207.571L73.2142 208.26C73.9091 208.517 74.6275 208.844 75.3867 209.107C78.441 210.275 81.9975 211.881 85.8987 213.779C89.7998 215.677 93.9987 217.867 98.3963 220.238C104.476 223.509 110.14 226.592 115.029 229.027C119.917 231.463 124.034 233.255 126.761 234.412C128.134 234.786 129.161 235.416 129.465 236.135C129.579 236.398 129.6 236.693 129.523 236.97C129.489 237.064 129.444 237.154 129.389 237.238Z" fill="#455A64"/>
<path d="M189.038 200.312L188.857 200.341L188.325 200.411C187.644 200.467 186.968 200.578 186.305 200.744C183.853 201.326 181.511 202.302 179.373 203.635C177.882 204.528 176.459 205.53 175.115 206.631C173.562 207.882 172.093 209.234 170.718 210.678C167.619 214.061 164.348 217.283 160.918 220.331C159.09 221.949 157.251 223.473 155.388 224.834C153.626 226.198 151.679 227.305 149.606 228.122C147.676 228.667 145.706 229.058 143.714 229.29C141.99 229.506 140.288 229.87 138.627 230.376C137.26 230.802 135.96 231.419 134.767 232.21C133.865 232.804 133.118 233.605 132.588 234.546C132.268 235.147 132.069 235.806 132.004 236.485C132.004 236.719 132.004 236.9 132.004 237.016C132.013 237.078 132.013 237.141 132.004 237.203C131.997 237.143 131.997 237.082 132.004 237.022C132.004 236.9 132.004 236.719 132.004 236.485C132.049 235.792 132.232 235.115 132.542 234.493C133.062 233.52 133.814 232.69 134.732 232.076C135.928 231.259 137.236 230.62 138.615 230.178C140.285 229.654 141.997 229.275 143.731 229.045C145.707 228.801 147.66 228.399 149.571 227.842C151.612 227.024 153.528 225.925 155.265 224.577C157.116 223.228 158.944 221.704 160.772 220.092C164.405 216.851 167.704 213.58 170.572 210.474C171.96 209.025 173.442 207.671 175.01 206.421C176.371 205.322 177.811 204.326 179.32 203.442C181.482 202.116 183.851 201.16 186.328 200.616C187 200.464 187.684 200.372 188.372 200.341L188.909 200.3L189.038 200.312Z" fill="#455A64"/>
<path d="M133.63 232.432C133.519 232.192 133.431 231.941 133.367 231.684C133.276 231.386 133.206 231.082 133.156 230.773C133.072 230.37 133.01 229.963 132.97 229.553C132.854 228.486 132.809 227.413 132.835 226.341C132.871 225.03 132.978 223.722 133.156 222.422C133.452 220.05 134.038 217.724 134.903 215.496C135.095 215.081 135.253 214.696 135.428 214.375C135.603 214.053 135.755 213.791 135.907 213.569C136.052 213.347 136.22 213.141 136.409 212.956C136.299 213.195 136.164 213.422 136.006 213.633C135.878 213.849 135.749 214.135 135.58 214.451C135.411 214.766 135.282 215.163 135.101 215.572C134.309 217.802 133.757 220.11 133.454 222.457C133.256 223.824 133.174 225.144 133.116 226.341C133.08 227.402 133.103 228.465 133.186 229.524C133.326 231.346 133.688 232.432 133.63 232.432Z" fill="#455A64"/>
<path d="M129.389 237.238C129.389 237.238 159.57 244.83 160.779 245.257C162.601 245.841 162.449 252.475 159.611 252.434C158.28 252.434 136.596 253.765 133.851 253.66C131.106 253.555 123.654 250.799 123.654 250.799L128.221 240.024L129.389 237.238Z" fill="#335263"/>
<path d="M142.142 248.399C142.294 248.399 142.458 246.828 143.392 245.152C144.326 243.475 145.547 242.459 145.448 242.343C145.348 242.226 143.923 243.108 142.948 244.906C141.973 246.705 142.014 248.416 142.142 248.399Z" fill="#263238"/>
<path d="M138.989 247.032C139.135 247.032 139.409 245.63 140.157 244.048C140.904 242.465 141.839 241.344 141.728 241.244C141.617 241.145 140.496 242.156 139.707 243.832C138.919 245.508 138.855 247.032 138.989 247.032Z" fill="#263238"/>
<path d="M136.034 246.331C136.186 246.331 136.034 244.824 136.665 243.148C137.296 241.472 138.341 240.415 138.23 240.31C138.119 240.205 136.846 241.151 136.192 242.979C135.538 244.807 135.911 246.378 136.034 246.331Z" fill="#263238"/>
<path d="M136.478 242.448C136.725 241.729 136.816 240.967 136.746 240.211C136.723 239.386 136.603 238.567 136.39 237.77C136.261 237.298 136.101 236.836 135.911 236.386C135.81 236.106 135.639 235.857 135.415 235.661C135.262 235.552 135.075 235.5 134.887 235.514C134.699 235.528 134.522 235.607 134.387 235.737C134.157 235.965 134.021 236.272 134.007 236.596C133.987 236.86 133.987 237.126 134.007 237.39C134.026 237.883 134.098 238.373 134.223 238.85C134.444 239.648 134.772 240.413 135.199 241.122C135.55 241.787 136.021 242.381 136.589 242.874C136.659 242.827 136.139 242.138 135.514 240.929C135.146 240.228 134.863 239.485 134.673 238.716C134.568 238.267 134.51 237.81 134.498 237.349C134.498 236.888 134.498 236.316 134.749 236.088C134.796 236.031 134.863 235.995 134.936 235.987C135.01 235.98 135.083 236.001 135.14 236.047C135.296 236.187 135.415 236.363 135.485 236.561C135.673 236.989 135.835 237.428 135.97 237.875C136.194 238.637 136.344 239.42 136.419 240.211C136.513 241.583 136.396 242.436 136.478 242.448Z" fill="#263238"/>
<path d="M136.432 242.144C135.817 241.901 135.152 241.809 134.494 241.875C133.777 241.89 133.065 241.994 132.374 242.185C131.946 242.284 131.534 242.446 131.153 242.664C130.91 242.793 130.716 242.999 130.6 243.248C130.484 243.498 130.453 243.779 130.511 244.048C130.584 244.305 130.725 244.538 130.919 244.722C131.113 244.906 131.354 245.034 131.614 245.093C132.058 245.192 132.519 245.182 132.958 245.064C133.663 244.867 134.319 244.525 134.885 244.06C135.424 243.679 135.887 243.202 136.251 242.652C135.699 242.987 135.172 243.362 134.675 243.773C134.126 244.166 133.508 244.45 132.853 244.608C132.488 244.699 132.107 244.699 131.743 244.608C131.568 244.569 131.407 244.484 131.276 244.362C131.144 244.24 131.048 244.085 130.995 243.914C130.963 243.745 130.987 243.571 131.064 243.418C131.141 243.264 131.267 243.141 131.422 243.067C131.76 242.868 132.123 242.717 132.502 242.617C133.156 242.415 133.829 242.282 134.511 242.22C135.685 242.121 136.421 242.226 136.432 242.144Z" fill="#263238"/>
<path d="M146.756 248.615C146.907 248.615 146.726 247.318 147.287 245.899C147.848 244.48 148.8 243.633 148.7 243.516C148.601 243.4 147.41 244.135 146.82 245.718C146.23 247.301 146.639 248.673 146.756 248.615Z" fill="#263238"/>
<path d="M125.861 250.478C126.234 250.684 126.625 250.856 127.029 250.992C128.127 251.389 129.251 251.711 130.393 251.955C134.169 252.692 138.02 252.968 141.863 252.779C146.36 252.627 150.401 252.329 153.339 252.148L156.807 251.885C157.237 251.872 157.663 251.815 158.081 251.716C157.653 251.674 157.223 251.674 156.796 251.716L153.321 251.821L141.851 252.306C138.042 252.486 134.225 252.261 130.463 251.634C127.59 251.079 125.896 250.378 125.861 250.478Z" fill="#263238"/>
<path d="M124.975 251.178C125.021 251.248 125.827 250.746 127.2 250.11C128.947 249.233 130.905 248.86 132.853 249.035C135.119 249.333 136.76 250.816 137.823 251.844C138.366 252.467 138.952 253.052 139.575 253.596C139.163 252.872 138.654 252.208 138.062 251.622C137.458 250.939 136.776 250.33 136.03 249.806C135.102 249.148 134.031 248.722 132.905 248.562C130.863 248.361 128.808 248.797 127.024 249.812C126.275 250.159 125.584 250.62 124.975 251.178Z" fill="#263238"/>
<path d="M155.109 251.792C155.162 251.757 154.899 251.365 154.642 250.67C154.316 249.77 154.22 248.803 154.362 247.856C154.526 246.91 154.928 246.022 155.53 245.274C155.991 244.69 156.365 244.404 156.324 244.352C155.926 244.501 155.577 244.755 155.313 245.087C154.606 245.834 154.14 246.777 153.976 247.793C153.813 248.809 153.959 249.85 154.397 250.781C154.718 251.488 155.074 251.821 155.109 251.792Z" fill="#263238"/>
<path d="M200.374 225.015C200.299 225.159 200.211 225.296 200.111 225.424L199.299 226.557C198.937 227.042 198.517 227.655 197.985 228.309L196.117 230.563C195.422 231.392 194.581 232.228 193.716 233.168C192.852 234.108 191.824 234.996 190.796 235.994C188.471 238.058 186.002 239.955 183.409 241.671C180.801 243.376 178.068 244.881 175.233 246.173C172.923 247.211 170.542 248.083 168.108 248.784C167.068 249.088 166.105 249.292 165.27 249.485C164.435 249.677 163.693 249.777 163.097 249.864L161.707 250.01C161.392 250.04 161.223 250.051 161.223 250.045C161.379 249.998 161.539 249.966 161.702 249.952L163.08 249.748C163.664 249.642 164.394 249.485 165.235 249.321C166.076 249.158 167.016 248.889 168.05 248.58C170.471 247.854 172.84 246.965 175.139 245.917C177.947 244.616 180.656 243.113 183.245 241.42C185.824 239.709 188.285 237.827 190.61 235.784C191.637 234.797 192.659 233.904 193.53 232.987C194.4 232.07 195.246 231.235 195.953 230.417L197.845 228.204C198.388 227.544 198.821 226.942 199.2 226.452L200.053 225.354C200.152 225.233 200.259 225.12 200.374 225.015Z" fill="#455A64"/>
<path d="M123.344 233.542C123.304 233.542 122.825 232.812 121.978 231.655C120.876 230.145 119.659 228.722 118.34 227.398C117.014 226.082 115.591 224.868 114.082 223.766C112.914 222.919 112.172 222.446 112.196 222.405C112.402 222.472 112.599 222.566 112.78 222.685C113.136 222.878 113.632 223.187 114.234 223.59C115.781 224.648 117.226 225.849 118.55 227.176C119.887 228.504 121.092 229.959 122.147 231.521C122.556 232.105 122.866 232.613 123.058 232.969C123.178 233.147 123.275 233.339 123.344 233.542Z" fill="#455A64"/>
<path d="M159.796 216.828C159.796 216.874 159.136 217.307 158.097 218.101C156.75 219.145 155.508 220.319 154.388 221.605C153.281 222.892 152.303 224.285 151.468 225.763C150.82 226.896 150.487 227.637 150.44 227.614C150.478 227.426 150.539 227.244 150.621 227.071C150.817 226.589 151.037 226.117 151.281 225.658C152.882 222.597 155.18 219.956 157.992 217.949C158.535 217.569 158.984 217.283 159.306 217.102C159.457 216.99 159.621 216.898 159.796 216.828Z" fill="#455A64"/>
<path d="M167.431 207.583C175.572 201.071 190.884 197.976 190.884 197.976C190.884 197.976 190.026 168.262 187.701 154.608C187.643 154.281 187.585 153.954 187.52 153.633C185.43 143.121 176.097 136.761 165.463 135.284L158.262 134.273L136.981 135.044L123.987 138.992C123.987 138.992 108.622 142.432 106.286 163.999C103.95 185.145 101.205 202.619 101.614 208.838C101.918 213.236 105.976 216.366 108.225 216.88C110.263 217.341 112.85 217.779 115.052 216.448C114.314 217.705 113.829 219.093 113.621 220.536H126.615L136.794 211.583L146.097 218.258L158.56 213.002L167.121 207.162M123.041 206.736C123.041 206.736 123.041 206.683 123.041 206.654C124.489 199.488 124.664 197.386 124.664 197.386C124.664 197.386 117.014 196.422 118.24 186.238L119.408 177.425L127.041 203.086C127.041 203.086 125.307 204.517 123.041 206.736Z" fill="#335263"/>
<g opacity="0.2">
<path d="M150.045 196.849L152.422 190.84C149.794 189.718 148.853 189.672 145.998 189.333C138.343 188.45 130.635 190.462 124.39 194.974L125.955 199.494H126.013C127.19 199.783 128.417 199.795 129.599 199.529C130.575 199.205 131.613 199.117 132.63 199.273C133.932 199.594 134.867 200.721 136.035 201.381C137.239 202.002 138.635 202.141 139.937 201.767C141.24 201.394 142.351 200.537 143.043 199.372C143.586 198.379 144.082 197.001 145.209 197.036C145.764 197.116 146.274 197.387 146.652 197.801L150.693 201.346C152.311 202.765 153.928 204.19 155.663 205.469C157.701 206.97 160.043 208.319 162.572 208.237C163.248 208.239 163.9 207.981 164.392 207.516C164.883 207.05 165.177 206.413 165.211 205.737L150.045 196.849Z" fill="black"/>
</g>
<path d="M135.994 134.32L135.62 140.446C135.492 142.562 135.818 144.681 136.578 146.66L144.065 166.16C144.065 166.16 142.897 154.777 147.726 150.578C152.556 146.38 158.559 146.8 158.641 140.306C158.641 139.226 158.641 132.13 158.641 132.13L148.304 130.086L135.994 134.32Z" fill="#FFBE9D"/>
<path d="M174.264 137.52C174.143 137.608 174.011 137.68 173.872 137.736C173.495 137.929 173.129 138.141 172.774 138.373C171.494 139.266 170.41 140.413 169.592 141.743C168.377 143.714 167.669 145.955 167.53 148.266C167.507 149.631 167.571 150.997 167.723 152.354C167.857 153.779 167.997 155.274 168.138 156.757C168.722 162.784 169.405 168.233 169.925 172.169C170.182 174.137 170.409 175.731 170.573 176.841C170.649 177.367 170.713 177.787 170.76 178.102C170.793 178.248 170.81 178.397 170.812 178.546C170.762 178.406 170.724 178.261 170.701 178.114C170.637 177.828 170.561 177.402 170.456 176.859C170.257 175.766 169.995 174.178 169.708 172.187C169.124 168.256 168.447 162.807 167.834 156.775C167.682 155.268 167.542 153.796 167.425 152.371C167.278 150.998 167.22 149.617 167.25 148.237C167.4 145.884 168.143 143.608 169.411 141.62C170.256 140.276 171.381 139.13 172.71 138.262C173.073 138.036 173.454 137.841 173.849 137.678C173.982 137.613 174.121 137.56 174.264 137.52Z" fill="#263238"/>
<path d="M171.525 209.072C171.525 209.072 171.484 209.072 171.408 209.037L171.075 208.891C170.783 208.763 170.351 208.57 169.808 208.307C168.71 207.776 167.145 206.94 165.212 205.872C161.334 203.734 155.99 200.616 149.964 196.972L149.853 196.907L149.905 196.785L152.072 191.587C152.808 189.8 153.514 188.048 154.174 186.331C154.507 185.478 154.822 184.638 155.114 183.808C155.26 183.399 155.406 182.985 155.529 182.576C155.593 182.372 155.652 182.167 155.704 181.992C155.704 181.887 155.751 181.788 155.768 181.688C155.771 181.644 155.771 181.599 155.768 181.554V181.501C155.768 181.501 155.798 181.542 155.821 181.536L155.92 181.274C158.531 182.442 160.855 183.697 162.928 184.83C165.001 185.963 166.8 186.985 168.313 187.791C169.825 188.597 171.04 189.216 171.875 189.631L172.839 190.092L173.166 190.267C173.045 190.235 172.928 190.192 172.815 190.139C172.594 190.045 172.261 189.905 171.84 189.712C170.987 189.327 169.755 188.737 168.231 187.96C166.707 187.184 164.885 186.173 162.812 185.04C160.738 183.908 158.414 182.704 155.804 181.536L155.909 181.274C155.952 181.291 155.988 181.322 156.014 181.361C156.016 181.388 156.016 181.416 156.014 181.443C156.016 181.478 156.016 181.513 156.014 181.548C156.017 181.608 156.017 181.669 156.014 181.729C156.014 181.84 155.973 181.945 155.95 182.05C155.897 182.266 155.833 182.471 155.774 182.681C155.646 183.096 155.506 183.51 155.36 183.925C155.062 184.76 154.776 185.601 154.419 186.454C153.76 188.165 153.053 189.917 152.317 191.71C151.581 193.503 150.845 195.214 150.145 196.907L150.086 196.72C156.101 200.376 161.427 203.524 165.27 205.708C167.191 206.8 168.739 207.659 169.819 208.219C170.357 208.511 170.777 208.716 171.063 208.862L171.385 209.025L171.525 209.072Z" fill="#263238"/>
<path d="M119.204 177.402C119.104 177.13 119.034 176.848 118.994 176.561C118.877 176.018 118.731 175.223 118.579 174.225C117.801 169.082 117.652 163.863 118.136 158.684C118.235 157.692 118.328 156.892 118.416 156.348C118.441 156.059 118.496 155.774 118.579 155.496C118.586 155.785 118.571 156.074 118.533 156.36C118.486 156.915 118.422 157.715 118.352 158.696C118.212 160.682 118.101 163.427 118.188 166.458C118.276 169.488 118.539 172.222 118.772 174.19C118.901 175.177 119.012 175.971 119.093 176.526C119.153 176.814 119.19 177.107 119.204 177.402Z" fill="#263238"/>
<path d="M117.965 182.296C117.802 182.556 117.619 182.802 117.416 183.031L115.839 184.965L110.583 191.318L105.385 197.702L103.803 199.629C103.617 199.873 103.412 200.101 103.189 200.312C103.338 200.043 103.512 199.788 103.709 199.553C104.06 199.08 104.574 198.385 105.216 197.567C106.507 195.897 108.311 193.614 110.349 191.143C112.387 188.673 114.262 186.436 115.646 184.842C116.335 184.048 116.902 183.405 117.293 182.973C117.496 182.727 117.721 182.501 117.965 182.296Z" fill="#263238"/>
<path d="M123.805 201.2C123.834 201.444 123.834 201.691 123.805 201.936C123.79 202.224 123.757 202.51 123.706 202.794C123.647 203.127 123.606 203.512 123.495 203.921C123.284 204.893 122.993 205.846 122.625 206.771C122.164 207.904 121.605 208.994 120.955 210.03C120.289 211.052 119.537 212.015 118.707 212.909C118.018 213.63 117.274 214.296 116.482 214.9C116.155 215.169 115.827 215.368 115.547 215.56C115.31 215.725 115.065 215.877 114.811 216.016C114.604 216.146 114.385 216.257 114.157 216.349C114.122 216.296 115.039 215.765 116.347 214.731C117.112 214.11 117.832 213.437 118.502 212.716C119.31 211.825 120.044 210.87 120.698 209.86C121.339 208.843 121.895 207.774 122.362 206.666C122.737 205.758 123.047 204.826 123.291 203.874C123.671 202.239 123.752 201.194 123.805 201.2Z" fill="#263238"/>
<path d="M159.857 133.573C159.937 133.702 160.009 133.837 160.073 133.975C160.201 134.244 160.411 134.635 160.657 135.143C161.263 136.631 161.707 138.18 161.982 139.763C162.372 142.122 162.39 144.528 162.035 146.894C161.621 149.796 160.643 152.589 159.156 155.116C158.864 155.566 158.572 156.016 158.297 156.442L157.351 157.68L157.275 157.785L157.159 157.715C156.077 157.081 154.868 156.697 153.619 156.59C152.371 156.483 151.114 156.656 149.94 157.096C148.928 157.481 147.997 158.054 147.196 158.784C146.327 159.52 145.611 160.42 145.091 161.434C144.571 162.447 144.256 163.553 144.165 164.688C144.071 165.64 144.095 166.166 144.065 166.166C144.047 166.04 144.037 165.913 144.036 165.786C144.036 165.529 144.036 165.161 144.036 164.682C144.122 163.306 144.521 161.968 145.204 160.769C145.695 159.943 146.312 159.198 147.032 158.562C147.853 157.81 148.805 157.216 149.841 156.81C151.055 156.35 152.356 156.169 153.649 156.28C154.942 156.392 156.193 156.792 157.31 157.452L157.112 157.487L158.017 156.284C158.303 155.858 158.601 155.414 158.864 154.976C160.328 152.478 161.301 149.722 161.731 146.859C162.092 144.523 162.092 142.145 161.731 139.81C161.479 138.235 161.071 136.689 160.511 135.196C160.306 134.67 160.114 134.273 160.009 134.028C159.942 133.882 159.892 133.729 159.857 133.573Z" fill="#263238"/>
<path d="M142.861 163.555C142.785 163.452 142.722 163.341 142.674 163.222L142.189 162.253C141.775 161.406 141.197 160.168 140.437 158.673C139.554 156.917 138.449 155.282 137.15 153.808C136.365 152.965 135.448 152.257 134.434 151.711C133.332 151.16 132.126 150.843 130.895 150.783C130.387 150.783 129.89 150.783 129.423 150.818H129.23V150.643C129.602 148.418 130.152 146.226 130.877 144.09C131.445 142.361 132.108 140.665 132.863 139.009C133.374 137.899 133.959 136.824 134.615 135.792C134.843 135.43 135.035 135.161 135.199 134.98C135.261 134.884 135.333 134.796 135.415 134.717C135.444 134.717 135.158 135.114 134.732 135.856C134.128 136.905 133.584 137.987 133.102 139.097C132.378 140.757 131.739 142.453 131.187 144.178C130.466 146.296 129.913 148.467 129.534 150.672L129.371 150.497C129.85 150.497 130.363 150.45 130.883 150.462C132.159 150.528 133.407 150.856 134.551 151.425C135.59 151.992 136.529 152.726 137.331 153.598C138.639 155.099 139.741 156.769 140.607 158.562C141.366 160.068 141.915 161.318 142.295 162.183C142.476 162.591 142.616 162.924 142.727 163.181C142.785 163.301 142.83 163.426 142.861 163.555Z" fill="#263238"/>
<g opacity="0.2">
<path d="M144.058 165.786C144.712 163.736 145.53 163.006 146.645 161.937C147.186 161.38 147.833 160.937 148.549 160.636C149.264 160.335 150.033 160.182 150.809 160.185C152.106 160.261 153.326 160.921 154.623 160.944C156.135 160.98 157.543 160.144 158.676 159.152C160.992 157.058 162.584 154.283 163.221 151.227C163.858 148.17 163.508 144.99 162.221 142.146C162.464 147.75 160.658 153.252 157.14 157.622C155.765 156.855 154.209 156.47 152.635 156.507C151.061 156.544 149.525 157.001 148.187 157.832C146.872 158.691 145.801 159.875 145.078 161.27C144.355 162.664 144.003 164.222 144.058 165.792" fill="black"/>
</g>
<path d="M170.707 177.957C170.783 178.222 170.836 178.494 170.865 178.768C170.946 179.352 171.051 180.1 171.18 180.993C171.431 182.88 171.764 185.478 172.103 188.358C172.167 188.901 172.231 189.432 172.289 189.946L172.173 189.818C174.262 190.263 176.245 191.107 178.013 192.305C178.535 192.661 179.032 193.051 179.502 193.473C179.682 193.615 179.845 193.778 179.987 193.958C179.952 193.999 179.245 193.339 177.908 192.486C176.13 191.372 174.168 190.581 172.114 190.15H172.009V190.045C171.951 189.531 171.887 189 171.816 188.457C171.472 185.584 171.18 182.973 170.981 181.087C170.894 180.187 170.818 179.434 170.759 178.85C170.71 178.555 170.693 178.255 170.707 177.957Z" fill="#263238"/>
<path d="M152.387 204.435C152.289 204.475 152.187 204.506 152.083 204.528L151.202 204.75C150.431 204.926 149.304 205.142 147.902 205.334C144.242 205.801 140.536 205.78 136.882 205.27C134.871 204.992 132.884 204.564 130.937 203.991C130.043 203.705 129.185 203.466 128.414 203.133C127.677 202.833 127.044 202.326 126.592 201.673C126.233 201.137 125.966 200.545 125.803 199.921C125.677 199.455 125.583 198.981 125.523 198.502C125.465 198.11 125.441 197.807 125.424 197.596C125.411 197.492 125.411 197.386 125.424 197.281C125.424 197.281 125.506 197.707 125.646 198.484C125.726 198.954 125.836 199.418 125.973 199.874C126.147 200.474 126.417 201.042 126.773 201.556C127.213 202.167 127.822 202.636 128.525 202.905C129.278 203.214 130.137 203.454 131.024 203.723C132.958 204.283 134.929 204.704 136.923 204.984C140.555 205.486 144.235 205.535 147.879 205.13C149.274 204.972 150.401 204.785 151.172 204.645L152.066 204.482C152.17 204.45 152.278 204.435 152.387 204.435Z" fill="#263238"/>
<path d="M140.188 205.369C140.188 205.422 139.785 205.539 139.201 205.877C138.44 206.333 137.794 206.958 137.315 207.705C136.84 208.454 136.542 209.301 136.445 210.182C136.38 210.859 136.445 211.285 136.398 211.297C136.254 210.94 136.198 210.553 136.234 210.17C136.27 209.236 136.554 208.329 137.057 207.542C137.56 206.755 138.264 206.115 139.096 205.691C139.429 205.496 139.803 205.386 140.188 205.369Z" fill="#263238"/>
<path d="M143.078 165.663C143.116 165.795 143.139 165.93 143.148 166.066C143.183 166.364 143.224 166.755 143.282 167.234C143.387 168.25 143.527 169.722 143.656 171.55C143.913 175.194 144.111 180.252 143.977 185.835C143.907 188.626 143.772 191.283 143.597 193.695C143.488 195.842 143.165 197.972 142.634 200.055C142.259 201.462 141.651 202.797 140.835 204.003C140.606 204.324 140.356 204.631 140.087 204.92C139.998 205.025 139.9 205.122 139.795 205.212C139.766 205.212 140.169 204.78 140.736 203.939C141.502 202.724 142.072 201.395 142.423 200.003C142.924 197.928 143.223 195.81 143.317 193.678C143.48 191.266 143.603 188.615 143.673 185.829C143.808 180.257 143.673 175.206 143.44 171.562C143.34 169.734 143.235 168.262 143.165 167.24C143.13 166.755 143.107 166.364 143.083 166.072C143.069 165.936 143.067 165.799 143.078 165.663Z" fill="#263238"/>
<path d="M116.616 162.527C114.995 162.804 113.359 162.983 111.716 163.064C110.082 163.248 108.437 163.326 106.793 163.298C108.414 163.022 110.05 162.842 111.693 162.761C113.328 162.585 114.972 162.507 116.616 162.527Z" fill="white"/>
<path d="M142.845 172.864C142.532 172.953 142.211 173.014 141.887 173.045C141.274 173.15 140.375 173.249 139.259 173.337C137.951 173.432 136.64 173.461 135.329 173.425C133.723 173.379 132.12 173.247 130.528 173.027C128.939 172.795 127.364 172.477 125.81 172.076C124.379 171.69 123.106 171.287 122.06 170.908C121.015 170.528 120.174 170.166 119.613 169.897C119.312 169.773 119.021 169.625 118.743 169.453C119.056 169.543 119.363 169.654 119.66 169.786C120.244 170.026 121.079 170.341 122.13 170.703C123.182 171.065 124.466 171.456 125.88 171.819C127.293 172.181 128.893 172.502 130.552 172.741C132.21 172.981 133.851 173.103 135.317 173.168C136.783 173.232 138.114 173.197 139.224 173.138C140.334 173.08 141.239 173.016 141.858 172.946C142.184 172.895 142.514 172.868 142.845 172.864Z" fill="white"/>
<path d="M167.438 164.104C167.174 164.302 166.895 164.478 166.603 164.63C166.06 164.957 165.248 165.395 164.226 165.891C163.204 166.387 161.96 166.931 160.553 167.462C157.488 168.592 154.307 169.375 151.068 169.798C149.573 169.991 148.224 170.102 147.085 170.137C145.947 170.172 145.03 170.178 144.393 170.137C144.065 170.14 143.736 170.115 143.412 170.061C143.738 170.023 144.066 170.009 144.393 170.02C145.03 170.02 145.947 169.985 147.074 169.915C148.201 169.845 149.55 169.716 151.027 169.512C152.505 169.307 154.129 168.992 155.805 168.577C157.481 168.163 159.046 167.661 160.477 167.164C161.907 166.668 163.128 166.136 164.156 165.663C165.184 165.19 166.013 164.787 166.574 164.495C166.852 164.345 167.141 164.214 167.438 164.104Z" fill="white"/>
<path d="M186.966 151.968C186.711 152.027 186.45 152.056 186.189 152.056C185.693 152.091 184.968 152.155 184.081 152.249C179.445 152.756 174.924 154.025 170.701 156.004C169.895 156.384 169.247 156.705 168.803 156.938C168.577 157.071 168.339 157.18 168.091 157.265C168.295 157.102 168.514 156.957 168.745 156.833C169.171 156.57 169.808 156.214 170.608 155.811C172.705 154.763 174.897 153.916 177.155 153.282C179.412 152.647 181.726 152.23 184.063 152.039C184.957 151.968 185.687 151.933 186.189 151.939C186.448 151.921 186.709 151.931 186.966 151.968Z" fill="white"/>
<path d="M189.64 176.455C189.385 176.471 189.128 176.459 188.875 176.42C188.385 176.374 187.678 176.315 186.802 176.263C184.523 176.111 182.236 176.111 179.958 176.263C177.68 176.426 175.415 176.736 173.177 177.191C172.319 177.367 171.624 177.524 171.145 177.635C170.899 177.707 170.647 177.756 170.392 177.781C170.621 177.673 170.862 177.591 171.11 177.536C171.577 177.384 172.278 177.197 173.125 176.993C177.608 175.95 182.229 175.628 186.814 176.041C187.69 176.123 188.396 176.216 188.887 176.298C189.143 176.325 189.395 176.378 189.64 176.455Z" fill="white"/>
<path d="M171.19 205.41C171.143 205.41 171.418 204.558 171.721 203.174C172.113 201.372 172.309 199.533 172.305 197.69C172.287 195.847 172.065 194.012 171.645 192.218C171.324 190.839 171.026 190.01 171.061 189.993C171.173 190.175 171.26 190.371 171.318 190.577C171.464 190.945 171.645 191.494 171.838 192.183C172.807 195.798 172.837 199.601 171.926 203.232C171.793 203.78 171.63 204.32 171.435 204.85C171.379 205.047 171.297 205.235 171.19 205.41Z" fill="white"/>
<path d="M114.976 185.075C114.42 185.162 113.858 185.209 113.294 185.216C111.943 185.311 110.598 185.477 109.265 185.712C107.931 185.954 106.612 186.265 105.311 186.646C104.779 186.836 104.235 186.988 103.682 187.102C104.178 186.826 104.703 186.604 105.247 186.442C107.84 185.553 110.554 185.068 113.294 185.005C113.856 184.965 114.42 184.988 114.976 185.075Z" fill="white"/>
<path d="M119.07 209.598C119.07 209.598 118.994 209.598 118.848 209.598C118.636 209.611 118.423 209.611 118.211 209.598C117.428 209.536 116.654 209.387 115.904 209.154C113.39 208.408 111.208 206.824 109.72 204.665C108.232 202.505 107.529 199.902 107.728 197.287C107.776 196.495 107.913 195.712 108.137 194.951C108.196 194.753 108.264 194.558 108.342 194.367C108.362 194.293 108.396 194.224 108.441 194.163C108.183 195.189 108.016 196.237 107.944 197.293C107.802 199.855 108.513 202.391 109.967 204.505C111.422 206.619 113.537 208.191 115.98 208.973C116.989 209.275 118.023 209.485 119.07 209.598Z" fill="white"/>
<path d="M132.349 213.435C130.473 213.117 128.615 212.7 126.784 212.185C124.926 211.764 123.092 211.248 121.288 210.637C123.166 210.955 125.026 211.372 126.859 211.887C128.715 212.308 130.547 212.824 132.349 213.435Z" fill="white"/>
<path d="M163.547 207.676C163.308 207.833 163.056 207.97 162.794 208.085C162.303 208.336 161.579 208.669 160.68 209.072C158.323 210.104 155.905 210.987 153.438 211.718C150.975 212.454 148.469 213.039 145.934 213.47C144.964 213.633 144.182 213.744 143.627 213.802C143.343 213.847 143.056 213.868 142.769 213.867C143.042 213.778 143.324 213.717 143.61 213.686C144.147 213.592 144.935 213.446 145.899 213.259C147.826 212.886 150.477 212.29 153.356 211.431C156.236 210.573 158.776 209.627 160.592 208.885C161.503 208.511 162.239 208.202 162.741 207.986C162.998 207.853 163.268 207.749 163.547 207.676Z" fill="white"/>
<path d="M142.82 191.038C142.604 191.132 142.379 191.202 142.148 191.248C141.71 191.371 141.062 191.517 140.262 191.669C138.171 192.048 136.05 192.232 133.926 192.218C131.8 192.206 129.68 191.993 127.595 191.581C126.795 191.424 126.153 191.272 125.715 191.143C125.482 191.097 125.257 191.023 125.043 190.921C125.28 190.931 125.515 190.967 125.744 191.027C126.188 191.12 126.83 191.243 127.63 191.371C129.711 191.715 131.816 191.897 133.926 191.914C136.035 191.922 138.141 191.767 140.227 191.453C141.027 191.336 141.675 191.219 142.119 191.137C142.348 191.078 142.583 191.044 142.82 191.038Z" fill="white"/>
<path d="M152.001 191.132C151.67 191.342 151.307 191.496 150.926 191.587C150.028 191.863 149.101 192.038 148.164 192.107C147.226 192.176 146.283 192.137 145.355 191.99C144.965 191.956 144.584 191.858 144.228 191.698C145.529 191.81 146.835 191.845 148.14 191.803C149.439 191.656 150.728 191.432 152.001 191.132Z" fill="white"/>
<path d="M131.724 140.925C131.724 140.977 130.889 141.065 129.552 141.293C127.806 141.578 126.081 141.98 124.389 142.496C122.702 143.024 121.052 143.662 119.448 144.406C118.216 144.99 117.475 145.375 117.451 145.334C117.598 145.199 117.763 145.084 117.942 144.995C118.263 144.791 118.748 144.522 119.355 144.213C122.536 142.592 125.971 141.528 129.511 141.065C130.188 140.983 130.737 140.931 131.123 140.913C131.323 140.894 131.525 140.898 131.724 140.925Z" fill="white"/>
<path d="M135.668 143.255C135.216 145.622 134.365 147.896 133.151 149.977C133.075 149.936 133.735 148.47 134.424 146.619C135.113 144.768 135.58 143.238 135.668 143.255Z" fill="white"/>
<path d="M154.005 147.536C154.092 147.536 153.695 149.498 153.421 151.928C153.146 154.357 153.117 156.337 153.023 156.337C152.942 155.908 152.915 155.47 152.942 155.034C152.947 153.985 153.007 152.936 153.123 151.893C153.234 150.85 153.403 149.815 153.631 148.791C153.703 148.359 153.828 147.937 154.005 147.536Z" fill="white"/>
<path d="M160.989 147.752C160.901 147.752 160.58 146.748 159.903 145.626C159.225 144.505 158.472 143.728 158.536 143.664C159.223 144.118 159.784 144.739 160.165 145.469C160.631 146.147 160.914 146.933 160.989 147.752Z" fill="white"/>
<path d="M119.758 185.712C120.098 183.808 120.078 181.857 119.7 179.96C119.414 178.825 119.321 177.65 119.425 176.485C119.594 175.317 120.593 174.09 121.761 174.149L123.858 182.436L119.758 185.712Z" fill="#FFBE9D"/>
<path d="M119.718 166.037L127.135 195.336L141.63 193.818L136.07 164.758C135.992 164.39 135.784 164.061 135.484 163.834C135.183 163.606 134.811 163.495 134.435 163.52L121.166 164.104C120.937 164.117 120.712 164.18 120.509 164.288C120.306 164.397 120.13 164.549 119.992 164.733C119.854 164.917 119.758 165.129 119.71 165.355C119.663 165.58 119.666 165.813 119.718 166.037Z" fill="#263238"/>
<path d="M136.39 173.004C136.276 172.727 136.188 172.44 136.127 172.146L135.543 169.775C135.298 168.753 135.012 167.561 134.702 166.271C134.655 166.107 134.626 165.92 134.574 165.792C134.515 165.649 134.421 165.524 134.299 165.43C134.178 165.33 134.033 165.264 133.879 165.237C133.708 165.219 133.536 165.219 133.365 165.237L131.07 165.325C127.922 165.447 125.072 165.535 123.01 165.587L120.569 165.634C120.27 165.662 119.969 165.662 119.67 165.634C119.965 165.579 120.264 165.548 120.563 165.541L122.999 165.401C125.06 165.295 127.91 165.173 131.058 165.05L133.353 164.968C133.547 164.948 133.743 164.948 133.937 164.968C134.14 165.008 134.331 165.096 134.492 165.225C134.646 165.354 134.766 165.518 134.842 165.704C134.9 165.876 134.945 166.052 134.977 166.23L135.759 169.769C135.958 170.738 136.127 171.521 136.256 172.157C136.321 172.436 136.366 172.719 136.39 173.004Z" fill="#455A64"/>
<path d="M128.338 166.896C128.275 166.751 128.166 166.63 128.028 166.554C127.89 166.477 127.73 166.448 127.574 166.471C127.417 166.495 127.273 166.569 127.163 166.683C127.053 166.796 126.984 166.943 126.966 167.1C126.964 167.248 127.003 167.394 127.079 167.521C127.156 167.648 127.266 167.751 127.398 167.818C127.531 167.885 127.68 167.91 127.827 167.89C127.974 167.87 128.111 167.807 128.221 167.707C128.326 167.603 128.394 167.467 128.415 167.321C128.436 167.175 128.409 167.025 128.338 166.896Z" fill="#FAFAFA"/>
<path d="M128.326 175.831C127.999 175.93 120.477 180.234 120.477 180.234L116.652 184.637C116.652 184.637 115.308 187.155 116.652 190.921C117.995 194.688 119.963 195.95 124.431 196.849L132.729 195.167L138.569 191.529L136.846 184.924L131.1 189.52L127.847 190.104L127.31 189.053L131.982 186.354L139.317 180.152L137.022 177.665L130.23 182.056L124.39 184.924L125.225 182.535L131.982 177.075C131.982 177.075 132.443 174.616 128.326 175.831Z" fill="#FFBE9D"/>
<path d="M128.887 171.749C128.887 171.749 130.446 170.762 133.156 171.749C135.866 172.736 139.335 174.248 139.335 174.248L144.497 175.486L143.843 174.248C143.843 174.248 138.827 174.978 138.908 171.328H141.951L144.497 169.88L149.841 174.645L152.224 180.643L155.512 183.148L151.505 193.386L143.02 191.984L135.79 192.72L131.982 189.905L131.398 186.168L127.661 182.664C127.661 182.664 127.123 180.853 128.77 180.608C130.417 180.363 134.558 184.112 134.558 184.112L138.546 184.036C138.546 184.036 139.206 183.382 138.628 183.049C138.05 182.716 126.055 177.46 125.482 176.187C124.91 174.914 124.314 174.096 125.482 173.682C126.65 173.267 128.607 173.845 128.607 173.845C128.607 173.845 128.011 172.064 128.887 171.749Z" fill="#FFBE9D"/>
<path d="M138.906 178.535C137.089 177.892 135.307 177.154 133.569 176.321C131.788 175.584 130.047 174.754 128.354 173.833C130.17 174.477 131.952 175.216 133.691 176.047C135.472 176.784 137.213 177.614 138.906 178.535Z" fill="#EB996E"/>
<path d="M141.681 187.814C141.495 187.908 141.299 187.98 141.097 188.03C140.712 188.147 140.151 188.317 139.445 188.474C138.611 188.665 137.759 188.761 136.904 188.76C135.847 188.748 134.805 188.507 133.85 188.054C132.148 187.199 130.652 185.986 129.464 184.497C128.997 183.948 128.635 183.487 128.395 183.16C128.257 183.001 128.138 182.826 128.039 182.64C128.595 183.186 129.123 183.759 129.622 184.357C130.834 185.772 132.312 186.934 133.973 187.779C134.889 188.207 135.882 188.445 136.893 188.48C137.729 188.494 138.565 188.422 139.386 188.264C140.805 187.995 141.67 187.762 141.681 187.814Z" fill="#EB996E"/>
<path d="M155.512 183.125L155.29 182.979L154.647 182.506L152.189 180.666C151.558 179.107 150.746 177.086 149.777 174.68V174.709L144.427 169.944H144.556L142.01 171.404H138.938L139.06 171.287C139.045 171.797 139.168 172.302 139.417 172.747C139.698 173.188 140.105 173.534 140.585 173.74C141.624 174.13 142.744 174.252 143.843 174.096H143.943L143.984 174.172C144.188 174.552 144.41 174.978 144.644 175.41L144.784 175.673L144.492 175.603L139.323 174.377C137.723 173.687 136.059 172.992 134.336 172.327C133.49 171.956 132.604 171.684 131.696 171.515C130.785 171.357 129.848 171.482 129.01 171.871C128.735 171.965 128.63 172.321 128.642 172.689C128.661 173.072 128.732 173.451 128.852 173.816L128.94 174.085L128.665 174.009C128.093 173.851 127.506 173.753 126.913 173.717C126.34 173.636 125.757 173.75 125.255 174.038C125.157 174.12 125.088 174.231 125.06 174.356C125.031 174.48 125.044 174.611 125.097 174.727C125.188 175.017 125.303 175.298 125.442 175.568C125.541 175.846 125.685 176.107 125.868 176.339C126.097 176.542 126.344 176.726 126.604 176.888C128.763 178.164 130.99 179.324 133.273 180.363L136.596 181.916L138.231 182.669L138.634 182.862C138.807 182.924 138.954 183.044 139.049 183.201C139.089 183.288 139.111 183.382 139.111 183.478C139.111 183.574 139.089 183.669 139.049 183.756C138.979 183.905 138.884 184.041 138.768 184.159L138.728 184.199H138.669L134.68 184.275H134.622L134.581 184.234C133.38 183.133 132.071 182.155 130.674 181.314C129.997 180.952 129.238 180.555 128.554 180.83C128.391 180.888 128.244 180.986 128.127 181.114C128.01 181.242 127.926 181.397 127.883 181.566C127.798 181.913 127.798 182.275 127.883 182.623L127.848 182.558L131.579 186.062L131.614 186.092V186.138C131.805 187.427 132 188.673 132.198 189.876L132.152 189.8L135.93 192.603H135.86L143.096 191.891L149.374 192.965L151.015 193.257L151.43 193.339L151.57 193.368H151.43L151.009 193.31L149.362 193.059L143.073 192.054L135.848 192.813H135.808H135.773L131.982 190.028H131.942V189.981C131.755 188.813 131.562 187.534 131.358 186.243L131.393 186.314C130.201 185.204 128.953 184.036 127.649 182.81L127.62 182.78V182.745C127.521 182.35 127.521 181.937 127.62 181.542C127.677 181.329 127.779 181.13 127.918 180.958C128.065 180.802 128.247 180.682 128.449 180.608C128.851 180.465 129.291 180.465 129.693 180.608C130.078 180.737 130.45 180.903 130.803 181.104C132.22 181.954 133.549 182.944 134.768 184.059L134.669 184.024L138.658 183.942L138.552 183.983C138.728 183.808 138.891 183.522 138.804 183.364C138.716 183.207 138.377 183.102 138.126 182.973L136.491 182.22L133.168 180.672C130.87 179.626 128.63 178.456 126.458 177.168C126.182 176.996 125.923 176.801 125.681 176.584C125.555 176.462 125.455 176.315 125.389 176.152L125.185 175.726C125.042 175.438 124.923 175.139 124.828 174.832C124.781 174.659 124.769 174.478 124.793 174.301C124.829 174.114 124.933 173.947 125.085 173.833C125.645 173.492 126.305 173.354 126.954 173.442C127.565 173.479 128.17 173.583 128.759 173.752L128.572 173.944C128.441 173.55 128.366 173.139 128.35 172.724C128.341 172.51 128.373 172.296 128.443 172.093C128.484 171.985 128.547 171.887 128.627 171.805C128.707 171.722 128.804 171.658 128.911 171.614H128.881C129.778 171.185 130.787 171.046 131.766 171.217C132.696 171.392 133.603 171.67 134.47 172.046C136.222 172.718 137.863 173.413 139.469 174.114L144.632 175.352L144.48 175.55L143.826 174.312L143.96 174.382C142.811 174.545 141.639 174.412 140.556 173.997C140.029 173.767 139.582 173.387 139.271 172.905C139.001 172.416 138.868 171.863 138.885 171.305V171.182H139.014H142.056H141.998L144.55 169.74L144.62 169.699L144.679 169.751L150.005 174.534L152.341 180.549L154.764 182.43L155.389 182.926L155.512 183.125Z" fill="#EB996E"/>
<path d="M56.2109 102.445L96.7055 83.7456L86.0825 123.352L77.013 115.854L70.8518 119.93L67.5639 119.305L64.1533 106.527L56.2109 102.445Z" fill="#335263"/>
<g opacity="0.5">
<path d="M67.7284 118.897L96.7065 83.7456L64.1543 106.527L67.7284 118.897Z" fill="black"/>
</g>
<path d="M96.8283 83.2492C96.8984 83.2901 92.7403 90.4266 87.5661 99.1807C82.3919 107.935 78.117 115.001 78.0411 114.949C77.9651 114.896 82.1291 107.777 87.3033 99.0172C92.4775 90.2572 96.7524 83.2083 96.8283 83.2492Z" fill="#263238"/>
<path d="M83.7572 90.5199C83.7922 90.5958 78.2909 93.253 71.4932 96.4533C64.6954 99.6537 59.1182 102.182 59.0832 102.106C59.0481 102.031 64.5436 99.3733 71.3472 96.173C78.1508 92.9727 83.7221 90.4206 83.7572 90.5199Z" fill="white"/>
<path d="M86.7006 89.2877C86.7356 89.3636 86.4962 89.5505 86.1633 89.7023C85.8304 89.8542 85.5326 89.9126 85.4975 89.8367C85.4625 89.7607 85.702 89.5797 86.0348 89.422C86.3677 89.2643 86.6656 89.2118 86.7006 89.2877Z" fill="white"/>
<path d="M85.4283 104.232C85.2121 104.823 84.9403 105.392 84.6165 105.932C84.0675 106.954 83.2675 108.344 82.3155 109.833C81.3636 111.322 80.4234 112.63 79.7226 113.553C79.3642 114.068 78.9617 114.551 78.5195 114.996C78.8211 114.446 79.1648 113.921 79.5474 113.425C80.2015 112.473 81.1008 111.153 82.0586 109.669C83.0163 108.186 83.8106 106.814 84.4296 105.821C84.7282 105.271 85.0618 104.74 85.4283 104.232Z" fill="white"/>
<path d="M63.9142 121.84C63.8733 121.764 64.2471 121.484 64.7727 121.256C65.2983 121.028 65.7538 120.929 65.783 121.011C65.8122 121.093 65.4034 121.303 64.8953 121.531C64.3872 121.758 63.9551 121.916 63.9142 121.84Z" fill="#263238"/>
<path d="M57.9805 127.154C58.5749 125.93 59.4889 124.889 60.626 124.141C60.2416 124.69 59.8076 125.202 59.3295 125.671C58.9257 126.205 58.4742 126.702 57.9805 127.154Z" fill="#263238"/>
<path d="M55.0895 134.571C55.0261 133.892 55.1057 133.208 55.3231 132.562C55.4443 131.892 55.7071 131.254 56.094 130.693C55.9892 131.353 55.831 132.004 55.6209 132.638C55.5013 133.297 55.3235 133.944 55.0895 134.571Z" fill="#263238"/>
<path d="M56.1577 142.449C55.7681 141.889 55.4977 141.255 55.3635 140.586C55.1355 139.945 55.0479 139.262 55.1065 138.583C55.3456 139.208 55.5293 139.853 55.6555 140.51C55.8837 141.139 56.0518 141.789 56.1577 142.449Z" fill="#263238"/>
<path d="M60.8006 148.92C60.2026 148.597 59.6778 148.153 59.2588 147.618C58.7558 147.152 58.3576 146.585 58.0908 145.953C58.5922 146.397 59.0516 146.886 59.4632 147.413C59.9539 147.874 60.4016 148.378 60.8006 148.92Z" fill="#263238"/>
<path d="M67.8899 152.523C67.8899 152.564 67.6563 152.523 67.3059 152.488C66.8336 152.414 66.3699 152.293 65.9218 152.126C65.2632 151.943 64.6518 151.62 64.1289 151.18C64.7668 151.349 65.3898 151.57 65.9919 151.84C66.5058 152.027 66.9847 152.173 67.3292 152.278C67.6738 152.383 67.9015 152.483 67.8899 152.523Z" fill="#263238"/>
<path d="M75.6526 151.338C75.1728 151.832 74.5669 152.185 73.9006 152.36C73.2684 152.626 72.5804 152.732 71.8975 152.669C71.8975 152.582 72.7735 152.43 73.8013 152.085C74.8291 151.741 75.6 151.256 75.6526 151.338Z" fill="#263238"/>
<path d="M78.4197 144.33C78.7124 144.956 78.8217 145.653 78.735 146.339C78.7377 147.032 78.5345 147.711 78.151 148.289C78.0634 148.254 78.3554 147.408 78.4138 146.321C78.4722 145.235 78.3321 144.353 78.4197 144.33Z" fill="#263238"/>
<path d="M73.5849 138.314C74.2663 138.43 74.9005 138.738 75.4128 139.202C75.9861 139.583 76.446 140.112 76.7443 140.732C76.6742 140.791 76.0903 140.107 75.2318 139.442C74.3733 138.776 73.5265 138.408 73.5849 138.314Z" fill="#263238"/>
<path d="M65.7412 138.647C66.2923 138.241 66.9298 137.967 67.6042 137.847C68.2533 137.634 68.9445 137.579 69.619 137.69C68.9797 137.877 68.3304 138.029 67.6742 138.145C67.0419 138.356 66.3961 138.524 65.7412 138.647Z" fill="#263238"/>
<path d="M59.8789 143.95C60.0854 143.299 60.4323 142.701 60.8951 142.198C61.3064 141.656 61.8106 141.191 62.3843 140.826C62.033 141.396 61.6133 141.922 61.1345 142.391C60.7591 142.944 60.3391 143.465 59.8789 143.95Z" fill="#263238"/>
<path d="M57.4648 151.554C57.4101 150.198 57.6867 148.849 58.2707 147.624C58.2229 148.293 58.1074 148.957 57.9262 149.603C57.8457 150.269 57.6909 150.923 57.4648 151.554Z" fill="#263238"/>
<path d="M57.7347 159.56C57.306 158.275 57.1645 156.912 57.3201 155.566C57.4906 156.217 57.5866 156.885 57.6062 157.557C57.7261 158.218 57.7692 158.89 57.7347 159.56Z" fill="#263238"/>
<path d="M60.1183 167.211C59.705 166.672 59.3924 166.062 59.1956 165.412C58.9071 164.799 58.733 164.138 58.6816 163.462C59.0196 164.043 59.2881 164.663 59.4817 165.307C59.7662 165.915 59.9797 166.554 60.1183 167.211Z" fill="#263238"/>
<path d="M64.3 174.032C63.7718 173.608 63.3247 173.091 62.9802 172.508C62.5509 171.988 62.2204 171.394 62.0049 170.756C62.4722 171.238 62.8818 171.773 63.2254 172.35C63.6504 172.865 64.0112 173.43 64.3 174.032Z" fill="#263238"/>
<path d="M70.0114 179.679C69.3918 179.395 68.8296 178.999 68.3529 178.511C67.8108 178.102 67.346 177.6 66.9805 177.028C67.5551 177.381 68.0846 177.802 68.5573 178.283C69.0963 178.689 69.5846 179.157 70.0114 179.679Z" fill="#263238"/>
<path d="M76.95 183.68C76.2801 183.573 75.6363 183.341 75.052 182.996C74.4216 182.742 73.8434 182.374 73.3467 181.91C73.9883 182.111 74.6054 182.383 75.1863 182.722C75.8069 182.977 76.3982 183.298 76.95 183.68Z" fill="#263238"/>
<path d="M84.7817 185.251C84.1163 185.389 83.4308 185.401 82.761 185.286C82.0805 185.272 81.4096 185.123 80.7871 184.848C81.4576 184.824 82.1288 184.869 82.7902 184.982C83.4619 184.998 84.1298 185.088 84.7817 185.251Z" fill="#263238"/>
<path d="M92.7505 184.433C92.1341 184.713 91.4746 184.887 90.8 184.947C90.1421 185.102 89.4624 185.141 88.791 185.064C89.4249 184.842 90.0841 184.701 90.7533 184.643C91.4073 184.488 92.0785 184.417 92.7505 184.433Z" fill="#263238"/>
<path d="M100.448 182.208C99.8702 182.56 99.2421 182.822 98.5853 182.985C97.9636 183.245 97.3059 183.408 96.6348 183.469C97.2118 183.12 97.8377 182.858 98.4919 182.693C99.1173 182.438 99.7762 182.274 100.448 182.208Z" fill="#263238"/>
<path d="M107.831 178.984C107.298 179.399 106.708 179.733 106.079 179.977C105.491 180.309 104.857 180.551 104.198 180.695C104.727 180.276 105.318 179.941 105.95 179.703C106.537 179.37 107.171 179.128 107.831 178.984Z" fill="#263238"/>
<path d="M114.786 174.96C114.305 175.429 113.756 175.823 113.157 176.128C112.611 176.526 112.006 176.838 111.364 177.051C111.849 176.586 112.397 176.192 112.994 175.883C113.543 175.489 114.147 175.179 114.786 174.96Z" fill="#263238"/>
<path d="M119.669 171.375C119.722 171.439 119.406 171.778 118.963 172.128C118.519 172.479 118.116 172.712 118.069 172.642C118.022 172.572 118.332 172.239 118.776 171.889C119.22 171.538 119.617 171.311 119.669 171.375Z" fill="#263238"/>
</svg>
