<svg width="25" height="25" viewBox="0 0 25 25" fill="currentColor" xmlns="http://www.w3.org/2000/svg">
<path d="M3 12.8918C3 8.4135 3 6.17433 4.39124 4.78309C5.78249 3.39185 8.02166 3.39185 12.5 3.39185C16.9783 3.39185 19.2175 3.39185 20.6088 4.78309C22 6.17433 22 8.4135 22 12.8918C22 17.3702 22 19.6094 20.6088 21.0006C19.2175 22.3918 16.9783 22.3918 12.5 22.3918C8.02166 22.3918 5.78249 22.3918 4.39124 21.0006C3 19.6094 3 17.3702 3 12.8918Z" stroke="#909292" stroke-width="1.5" stroke-linejoin="round"/>
<path d="M17 12.8918C17 15.3771 14.9853 17.3918 12.5 17.3918C10.0147 17.3918 8 15.3771 8 12.8918C8 10.4066 10.0147 8.39185 12.5 8.39185C14.9853 8.39185 17 10.4066 17 12.8918Z" stroke="currentColor" stroke-width="1.5"/>
<path d="M18.0078 7.39185L17.9988 7.39185" stroke="currentColor" stroke-width="2" stroke-linecap="round" stroke-linejoin="round"/>
</svg>
