<svg width="25" height="25" viewBox="0 0 25 25" fill="none" xmlns="http://www.w3.org/2000/svg">
<path d="M7.5 7.89185C11.3889 6.55851 13.6111 6.55851 17.5 7.89185" stroke="#909292" stroke-width="1.5" stroke-linecap="round" stroke-linejoin="round"/>
<path d="M7.5 17.8918C11 19.2252 14 19.2252 17.5 17.8918" stroke="#909292" stroke-width="1.5" stroke-linecap="round" stroke-linejoin="round"/>
<path d="M9.35703 18.5168C9.35703 19.6418 7.23605 21.8918 6.69206 21.8918C5.05894 21.8918 3.60868 20.0165 2.88298 18.5168C2.15728 16.6415 2.33899 11.9547 4.51495 5.57935C6.10121 4.43747 7.69433 4.07185 9.35716 3.89185L10.5 6.89185" stroke="#909292" stroke-width="1.5" stroke-linecap="round" stroke-linejoin="round"/>
<path d="M15.643 18.5168C15.643 19.6418 17.7639 21.8918 18.3079 21.8918C19.9411 21.8918 21.3913 20.0165 22.117 18.5168C22.8427 16.6415 22.661 11.9547 20.485 5.57935C18.8988 4.43747 17.3057 4.07185 15.6428 3.89185L14.5 6.89185" stroke="#909292" stroke-width="1.5" stroke-linecap="round" stroke-linejoin="round"/>
<path d="M8.01009 12.8918H8M17 12.8918H16.9899" stroke="#909292" stroke-width="2" stroke-linecap="round" stroke-linejoin="round"/>
</svg>
