<svg width="24" height="25" viewBox="0 0 24 25" fill="currentColor" xmlns="http://www.w3.org/2000/svg">
<path fill-rule="evenodd" clip-rule="evenodd" d="M6.18182 11.2252C5.20406 11.2252 5 11.417 5 12.3363V14.003C5 14.9222 5.20406 15.1141 6.18182 15.1141H8.54545V21.7807C8.54545 22.7 8.74951 22.8918 9.72727 22.8918H12.0909C13.0687 22.8918 13.2727 22.7 13.2727 21.7807V15.1141H15.9267C16.6683 15.1141 16.8594 14.9786 17.0631 14.3082L17.5696 12.6415C17.9185 11.4932 17.7035 11.2252 16.4332 11.2252H13.2727V8.4474C13.2727 7.83375 13.8018 7.33629 14.4545 7.33629H17.8182C18.7959 7.33629 19 7.14444 19 6.22518V4.00296C19 3.0837 18.7959 2.89185 17.8182 2.89185H14.4545C11.191 2.89185 8.54545 5.37915 8.54545 8.4474V11.2252H6.18182Z" stroke="currentColor" stroke-width="1.5" stroke-linejoin="round"/>
</svg>
