<svg width="24" height="25" viewBox="0 0 24 25" fill="currentColor" xmlns="http://www.w3.org/2000/svg">
<path d="M11.9854 16.3002L15.2268 19.9854C16.4277 21.3508 17.0282 22.0335 17.6567 21.8673C18.2852 21.7011 18.5008 20.8026 18.9318 19.0057L21.3229 9.03775C21.9868 6.27017 22.3187 4.88638 21.5808 4.20385C20.843 3.52131 19.564 4.0291 17.0061 5.04466L5.13876 9.75633C3.09293 10.5686 2.07001 10.9747 2.00507 11.6727C1.99842 11.7441 1.99831 11.816 2.00474 11.8874C2.06754 12.5856 3.08921 12.9951 5.13255 13.8142C6.05838 14.1853 6.5213 14.3708 6.8532 14.7262C6.89052 14.7662 6.9264 14.8075 6.96078 14.8503C7.26658 15.2302 7.39709 15.7289 7.65808 16.7263L8.14653 18.5928C8.4005 19.5634 8.52749 20.0486 8.86008 20.1148C9.19267 20.181 9.48225 19.7786 10.0614 18.9738L11.9854 16.3002ZM11.9854 16.3002L11.6676 15.9689C11.3059 15.592 11.1251 15.4035 11.1251 15.1693C11.1251 14.9351 11.3059 14.7466 11.6676 14.3697L15.2406 10.6459" stroke="currentColor" stroke-width="1.5" stroke-linecap="round" stroke-linejoin="round"/>
</svg>
