<svg width="21" height="20" viewBox="0 0 21 20" fill="current" xmlns="http://www.w3.org/2000/svg">
<path d="M9.66602 10.833H13.8327M7.16602 10.833H7.1735M11.3327 14.1663H7.16602M13.8327 14.1663H13.8252" stroke="#818282" stroke-width="1.5" stroke-linecap="round" stroke-linejoin="round"/>
<path d="M15.5 1.6665V3.33317M5.5 1.6665V3.33317" stroke="#818282" stroke-width="1.5" stroke-linecap="round" stroke-linejoin="round"/>
<path d="M2.58301 10.2027C2.58301 6.57161 2.58301 4.75607 3.62644 3.62803C4.66987 2.5 6.34925 2.5 9.70801 2.5H11.2913C14.6501 2.5 16.3295 2.5 17.3729 3.62803C18.4163 4.75607 18.4163 6.57161 18.4163 10.2027V10.6306C18.4163 14.2617 18.4163 16.0773 17.3729 17.2053C16.3295 18.3333 14.6501 18.3333 11.2913 18.3333H9.70801C6.34925 18.3333 4.66987 18.3333 3.62644 17.2053C2.58301 16.0773 2.58301 14.2617 2.58301 10.6306V10.2027Z" stroke="#818282" stroke-width="1.5" stroke-linecap="round" stroke-linejoin="round"/>
<path d="M3 6.6665H18" stroke="#818282" stroke-width="1.5" stroke-linecap="round" stroke-linejoin="round"/>
</svg>
