<svg width="36" height="36" viewBox="0 0 36 36" fill="none" xmlns="http://www.w3.org/2000/svg">
<path d="M35.4996 17.96C35.4996 13.3187 33.6558 8.86749 30.374 5.5856C27.0921 2.30371 22.6409 0.459968 17.9996 0.459968C13.593 0.455899 9.34699 2.11445 6.10983 5.10431C2.87268 8.09418 0.882651 12.1953 0.537266 16.5883C0.191881 20.9814 1.51656 25.3431 4.24671 28.8021C6.97685 32.2611 10.9115 34.5628 15.2646 35.2475V23.0175H10.8246V17.96H15.2671V14.105C15.2671 9.71997 17.8796 7.29497 21.8771 7.29497C23.7921 7.29497 25.7946 7.63747 25.7946 7.63747V11.945H23.5871C21.4121 11.945 20.7371 13.295 20.7371 14.6775V17.96H25.5896L24.8146 23.0175H20.7346V35.2475C24.8509 34.5956 28.5994 32.4964 31.3061 29.3274C34.0127 26.1583 35.4997 22.1275 35.4996 17.96Z" fill="#194B8C"/>
</svg>
