<svg width="25" height="25" viewBox="0 0 25 25" fill="none" xmlns="http://www.w3.org/2000/svg">
<path d="M22.1141 10.3091H21.3086V10.2676H12.3086V14.2676H17.9601C17.1356 16.5961 14.9201 18.2676 12.3086 18.2676C8.99509 18.2676 6.30859 15.5811 6.30859 12.2676C6.30859 8.95408 8.99509 6.26758 12.3086 6.26758C13.8381 6.26758 15.2296 6.84458 16.2891 7.78708L19.1176 4.95858C17.3316 3.29408 14.9426 2.26758 12.3086 2.26758C6.78609 2.26758 2.30859 6.74508 2.30859 12.2676C2.30859 17.7901 6.78609 22.2676 12.3086 22.2676C17.8311 22.2676 22.3086 17.7901 22.3086 12.2676C22.3086 11.5971 22.2396 10.9426 22.1141 10.3091Z" fill="#FFC107"/>
<path d="M3.46094 7.61308L6.74644 10.0226C7.63544 7.82158 9.78844 6.26758 12.3079 6.26758C13.8374 6.26758 15.2289 6.84458 16.2884 7.78708L19.1169 4.95858C17.3309 3.29408 14.9419 2.26758 12.3079 2.26758C8.46694 2.26758 5.13594 4.43608 3.46094 7.61308Z" fill="#FF3D00"/>
<path d="M12.3088 22.2674C14.8918 22.2674 17.2388 21.2789 19.0133 19.6714L15.9183 17.0524C14.8805 17.8416 13.6125 18.2685 12.3088 18.2674C9.70775 18.2674 7.49925 16.6089 6.66725 14.2944L3.40625 16.8069C5.06125 20.0454 8.42225 22.2674 12.3088 22.2674Z" fill="#4CAF50"/>
<path d="M22.1141 10.3091H21.3086V10.2676H12.3086V14.2676H17.9601C17.5657 15.3758 16.8553 16.3442 15.9166 17.0531L15.9181 17.0521L19.0131 19.6711C18.7941 19.8701 22.3086 17.2676 22.3086 12.2676C22.3086 11.5971 22.2396 10.9426 22.1141 10.3091Z" fill="#1976D2"/>
</svg>
