<svg width="25" height="25" viewBox="0 0 29 29" fill="none" xmlns="http://www.w3.org/2000/svg">
<path fill-rule="evenodd" clip-rule="evenodd" d="M14.9331 0.75C18.2744 0.75 18.7611 0.767875 20.1691 0.8325C21.6321 0.899875 22.6317 1.13225 23.5062 1.47188C24.4241 1.81683 25.2556 2.35787 25.9428 3.05725C26.6421 3.74444 27.1832 4.57594 27.5281 5.49375C27.8678 6.36825 28.1001 7.36787 28.1675 8.83087C28.2335 10.298 28.25 10.7655 28.25 14.5V14.61C28.25 18.2441 28.2335 18.7171 28.1675 20.1691C28.1001 21.6321 27.8678 22.6317 27.5281 23.5062C27.1832 24.4241 26.6421 25.2556 25.9428 25.9428C25.2556 26.6421 24.4241 27.1832 23.5062 27.5281C22.6317 27.8678 21.6321 28.1001 20.1691 28.1675C18.702 28.2335 18.2345 28.25 14.5 28.25H14.39C10.7559 28.25 10.2829 28.2335 8.83087 28.1675C7.36787 28.1001 6.36825 27.8678 5.49375 27.5281C4.57594 27.1832 3.74444 26.6421 3.05725 25.9428C2.35787 25.2556 1.81683 24.4241 1.47188 23.5062C1.13225 22.6317 0.899875 21.6321 0.8325 20.1691C0.767875 18.7611 0.75 18.273 0.75 14.9331V14.0669C0.75 10.7256 0.767875 10.2389 0.8325 8.83087C0.899875 7.36787 1.13225 6.36825 1.47188 5.49375C1.81683 4.57594 2.35787 3.74444 3.05725 3.05725C3.74444 2.35787 4.57594 1.81683 5.49375 1.47188C6.36825 1.13225 7.36787 0.899875 8.83087 0.8325C10.2389 0.767875 10.727 0.75 14.0669 0.75H14.9331ZM14.8218 3.22775H14.1782C10.8012 3.22775 10.3503 3.24287 8.94363 3.3075C7.603 3.36937 6.87563 3.59212 6.39025 3.7805C5.74813 4.03075 5.29025 4.32775 4.809 4.809C4.32775 5.29025 4.03075 5.74813 3.7805 6.39025C3.59212 6.87563 3.368 7.603 3.3075 8.94363C3.24287 10.3503 3.22775 10.8012 3.22775 14.1782V14.8218C3.22775 18.1987 3.24287 18.6497 3.3075 20.0564C3.36937 21.397 3.59212 22.1244 3.7805 22.6098C4.03075 23.2505 4.32913 23.7098 4.809 24.191C5.29025 24.6723 5.74813 24.9692 6.39025 25.2195C6.87563 25.4079 7.603 25.632 8.94363 25.6925C10.3929 25.7585 10.8274 25.7722 14.5 25.7722H14.61C18.1809 25.7722 18.6209 25.7585 20.055 25.6925C21.397 25.6306 22.1244 25.4079 22.6098 25.2195C23.2505 24.9692 23.7098 24.6723 24.191 24.191C24.6723 23.7098 24.9692 23.2519 25.2195 22.6098C25.4079 22.1244 25.632 21.397 25.6925 20.0564C25.7585 18.6058 25.7722 18.1726 25.7722 14.5V14.39C25.7722 10.8191 25.7585 10.3791 25.6925 8.945C25.6306 7.603 25.4079 6.87563 25.2195 6.39025C24.9992 5.79291 24.6477 5.25257 24.191 4.809C23.7474 4.35231 23.2071 4.00086 22.6098 3.7805C22.1244 3.59212 21.397 3.368 20.0564 3.3075C18.6497 3.24287 18.1987 3.22775 14.8218 3.22775ZM14.5 7.43937C15.4272 7.43937 16.3453 7.622 17.202 7.97683C18.0586 8.33166 18.837 8.85174 19.4926 9.50739C20.1483 10.163 20.6683 10.9414 21.0232 11.798C21.378 12.6547 21.5606 13.5728 21.5606 14.5C21.5606 15.4272 21.378 16.3453 21.0232 17.202C20.6683 18.0586 20.1483 18.837 19.4926 19.4926C18.837 20.1483 18.0586 20.6683 17.202 21.0232C16.3453 21.378 15.4272 21.5606 14.5 21.5606C12.6274 21.5606 10.8315 20.8167 9.50739 19.4926C8.18326 18.1685 7.43937 16.3726 7.43937 14.5C7.43937 12.6274 8.18326 10.8315 9.50739 9.50739C10.8315 8.18326 12.6274 7.43937 14.5 7.43937ZM14.5 9.91712C13.2845 9.91712 12.1189 10.4 11.2594 11.2594C10.4 12.1189 9.91712 13.2845 9.91712 14.5C9.91712 15.7155 10.4 16.8811 11.2594 17.7406C12.1189 18.6 13.2845 19.0829 14.5 19.0829C15.7155 19.0829 16.8811 18.6 17.7406 17.7406C18.6 16.8811 19.0829 15.7155 19.0829 14.5C19.0829 13.2845 18.6 12.1189 17.7406 11.2594C16.8811 10.4 15.7155 9.91712 14.5 9.91712ZM21.8397 5.51025C22.2774 5.51025 22.697 5.68409 23.0065 5.99352C23.3159 6.30296 23.4897 6.72264 23.4897 7.16025C23.4897 7.59786 23.3159 8.01754 23.0065 8.32698C22.697 8.63641 22.2774 8.81025 21.8397 8.81025C21.4021 8.81025 20.9825 8.63641 20.673 8.32698C20.3636 8.01754 20.1898 7.59786 20.1898 7.16025C20.1898 6.72264 20.3636 6.30296 20.673 5.99352C20.9825 5.68409 21.4021 5.51025 21.8397 5.51025Z" fill="#9CA3AF"/>
</svg>
