<svg xmlns="http://www.w3.org/2000/svg" width="28" height="27" viewBox="0 0 28 27" fill="none">
  <path fill-rule="evenodd" clip-rule="evenodd" d="M4.33854 0.542969C3.40338 0.542969 2.50652 0.914462 1.84525 1.57572C1.18399 2.23698 0.8125 3.13385 0.8125 4.06901C0.8125 5.00418 1.18399 5.90104 1.84525 6.5623C2.50652 7.22356 3.40338 7.59505 4.33854 7.59505C5.27371 7.59505 6.17057 7.22356 6.83183 6.5623C7.49309 5.90104 7.86459 5.00418 7.86459 4.06901C7.86459 3.13385 7.49309 2.23698 6.83183 1.57572C6.17057 0.914462 5.27371 0.542969 4.33854 0.542969ZM2.7358 4.06901C2.7358 3.64394 2.90466 3.23627 3.20523 2.9357C3.5058 2.63513 3.91347 2.46626 4.33854 2.46626C4.76362 2.46626 5.17128 2.63513 5.47186 2.9357C5.77243 3.23627 5.94129 3.64394 5.94129 4.06901C5.94129 4.49409 5.77243 4.90175 5.47186 5.20232C5.17128 5.5029 4.76362 5.67176 4.33854 5.67176C3.91347 5.67176 3.5058 5.5029 3.20523 5.20232C2.90466 4.90175 2.7358 4.49409 2.7358 4.06901ZM0.8125 9.1978C0.8125 8.94276 0.913816 8.69816 1.09416 8.51781C1.2745 8.33747 1.5191 8.23615 1.77415 8.23615H6.90294C7.15798 8.23615 7.40258 8.33747 7.58293 8.51781C7.76327 8.69816 7.86459 8.94276 7.86459 9.1978V25.8664C7.86459 26.1214 7.76327 26.366 7.58293 26.5464C7.40258 26.7267 7.15798 26.828 6.90294 26.828H1.77415C1.5191 26.828 1.2745 26.7267 1.09416 26.5464C0.913816 26.366 0.8125 26.1214 0.8125 25.8664V9.1978ZM2.7358 10.1594V24.9047H5.94129V10.1594H2.7358ZM9.78788 9.1978C9.78788 8.94276 9.8892 8.69816 10.0695 8.51781C10.2499 8.33747 10.4945 8.23615 10.7495 8.23615H15.8783C16.1334 8.23615 16.378 8.33747 16.5583 8.51781C16.7387 8.69816 16.84 8.94276 16.84 9.1978V9.75427L17.3977 9.5145C18.3594 9.10353 19.3796 8.84609 20.4211 8.7516C23.9792 8.42848 27.0975 11.2237 27.0975 14.8138V25.8664C27.0975 26.1214 26.9962 26.366 26.8159 26.5464C26.6355 26.7267 26.3909 26.828 26.1359 26.828H21.0071C20.7521 26.828 20.5075 26.7267 20.3271 26.5464C20.1468 26.366 20.0455 26.1214 20.0455 25.8664V16.891C20.0455 16.4659 19.8766 16.0582 19.576 15.7577C19.2755 15.4571 18.8678 15.2882 18.4427 15.2882C18.0176 15.2882 17.61 15.4571 17.3094 15.7577C17.0088 16.0582 16.84 16.4659 16.84 16.891V25.8664C16.84 26.1214 16.7387 26.366 16.5583 26.5464C16.378 26.7267 16.1334 26.828 15.8783 26.828H10.7495C10.4945 26.828 10.2499 26.7267 10.0695 26.5464C9.8892 26.366 9.78788 26.1214 9.78788 25.8664V9.1978ZM11.7112 10.1594V24.9047H14.9167V16.891C14.9167 15.9558 15.2882 15.059 15.9494 14.3977C16.6107 13.7364 17.5075 13.3649 18.4427 13.3649C19.3779 13.3649 20.2747 13.7364 20.936 14.3977C21.5973 15.059 21.9688 15.9558 21.9688 16.891V24.9047H25.1743V14.8138C25.1743 12.3725 23.0445 10.4441 20.5968 10.6672C19.7559 10.7437 18.9322 10.9514 18.1555 11.2827L16.2579 12.0968C16.1115 12.1597 15.9518 12.1852 15.7931 12.1711C15.6344 12.157 15.4818 12.1037 15.3488 12.016C15.2158 11.9283 15.1067 11.8089 15.0313 11.6686C14.9559 11.5283 14.9165 11.3714 14.9167 11.2121V10.1594H11.7112Z" fill="#9CA3AF"/>
</svg>