<svg width="100" height="27" viewBox="0 0 162 27" fill="none" xmlns="http://www.w3.org/2000/svg">
<path d="M21.5438 6.27799H28.9028V26.6796H21.5438V17.7612H7.35901V26.6796H0V6.27799H7.35901V13.7392H21.5438V6.27799Z" fill="#F2F1F1"/>
<path d="M6.67249 15.4373H22.2285V22.26H6.67249V15.4373Z" fill="#F2F1F1"/>
<path d="M5.861 1.77616C5.861 1.27199 6.2799 0.863281 6.79664 0.863281H22.7024C23.2192 0.863281 23.6381 1.27199 23.6381 1.77616V7.48162C23.6381 7.98578 23.2192 8.39449 22.7024 8.39449H6.79663C6.2799 8.39449 5.861 7.98578 5.861 7.48162V1.77616Z" fill="#F2F1F1"/>
<path d="M32.8792 20.2735V10.289H36.2849V19.4588C36.2849 20.1723 36.4651 20.822 36.8253 21.4078C37.1855 21.9935 37.6658 22.4621 38.2662 22.8136C38.8665 23.1544 39.5269 23.3248 40.2474 23.3248C40.9787 23.3248 41.6391 23.1544 42.2286 22.8136C42.8289 22.4621 43.3038 21.9935 43.6531 21.4078C44.0133 20.822 44.1934 20.1723 44.1934 19.4588V10.289H47.5991L47.6155 26.2643H44.2098L44.1934 24.5389C43.6367 25.1992 42.9436 25.7211 42.114 26.1045C41.2844 26.4879 40.3947 26.6796 39.4451 26.6796C38.2334 26.6796 37.1309 26.3921 36.1376 25.8169C35.1442 25.2418 34.3529 24.4697 33.7634 23.5005C33.174 22.5314 32.8792 21.4557 32.8792 20.2735Z" fill="#F2F1F1"/>
<path d="M63.4304 2.30131H66.8361V26.2643H63.4304V23.9159C62.8955 24.7466 62.1969 25.4176 61.3345 25.9288C60.4722 26.4293 59.4625 26.6796 58.3054 26.6796C57.1156 26.6796 56.0022 26.4613 54.9652 26.0246C53.9282 25.588 53.0113 24.9862 52.2144 24.2194C51.4285 23.4419 50.8118 22.5473 50.3642 21.5356C49.9167 20.5238 49.6929 19.4375 49.6929 18.2766C49.6929 17.1157 49.9167 16.0294 50.3642 15.0176C50.8118 13.9952 51.4285 13.1006 52.2144 12.3338C53.0113 11.5563 53.9282 10.9493 54.9652 10.5126C56.0022 10.076 57.1156 9.85762 58.3054 9.85762C59.4625 9.85762 60.4722 10.1132 61.3345 10.6244C62.1969 11.125 62.8955 11.7853 63.4304 12.6054V2.30131ZM58.3382 23.4686C59.2988 23.4686 60.1393 23.2396 60.8597 22.7816C61.5801 22.313 62.1369 21.6847 62.5298 20.8966C62.9337 20.1084 63.1356 19.2351 63.1356 18.2766C63.1356 17.3074 62.9337 16.4288 62.5298 15.6407C62.1259 14.8526 61.5638 14.2295 60.8433 13.7716C60.1338 13.303 59.2988 13.0687 58.3382 13.0687C57.3885 13.0687 56.5207 13.303 55.7348 13.7716C54.9597 14.2402 54.3375 14.8685 53.8682 15.6567C53.4097 16.4448 53.1805 17.3181 53.1805 18.2766C53.1805 19.2458 53.4152 20.1244 53.8845 20.9125C54.3648 21.69 54.9925 22.313 55.7675 22.7816C56.5534 23.2396 57.4103 23.4686 58.3382 23.4686Z" fill="#F2F1F1"/>
<path d="M83.2734 10.289H86.6791V26.2643H83.257L83.126 23.9478C82.6458 24.7679 81.9963 25.4282 81.1776 25.9288C80.3589 26.4293 79.3929 26.6796 78.2794 26.6796C77.0787 26.6796 75.9489 26.4613 74.8901 26.0246C73.8313 25.5773 72.898 24.9596 72.0902 24.1715C71.2934 23.3834 70.6712 22.4781 70.2236 21.4557C69.7761 20.4226 69.5523 19.315 69.5523 18.1328C69.5523 16.9933 69.7706 15.9229 70.2073 14.9218C70.6439 13.91 71.2497 13.0261 72.0247 12.2699C72.7997 11.5137 73.6948 10.9226 74.71 10.4966C75.7361 10.06 76.8331 9.84165 78.0011 9.84165C79.1909 9.84165 80.2388 10.1079 81.1448 10.6404C82.0618 11.1623 82.8204 11.8332 83.4208 12.6533L83.2734 10.289ZM78.1976 23.4686C79.1582 23.4686 79.9987 23.2396 80.7191 22.7816C81.4396 22.313 81.9963 21.6847 82.3892 20.8966C82.7931 20.1084 82.9951 19.2351 82.9951 18.2766C82.9951 17.3074 82.7931 16.4288 82.3892 15.6407C81.9853 14.8526 81.4232 14.2295 80.7028 13.7716C79.9932 13.303 79.1582 13.0687 78.1976 13.0687C77.2479 13.0687 76.3801 13.303 75.5942 13.7716C74.8082 14.2402 74.186 14.8685 73.7276 15.6567C73.2691 16.4448 73.0399 17.3181 73.0399 18.2766C73.0399 19.2458 73.2746 20.1244 73.744 20.9125C74.2243 21.69 74.8519 22.313 75.6269 22.7816C76.4129 23.2396 77.2697 23.4686 78.1976 23.4686Z" fill="#F2F1F1"/>
<path d="M89.0037 26.2643L94.9964 18.2447L89.0364 10.257H93.2444L97.0922 15.4011L100.956 10.257H105.148L99.2044 18.2447L105.197 26.2643H100.989L97.0922 21.0563L93.2117 26.2643H89.0037Z" fill="#F2F1F1"/>
<path d="M107.855 10.289H111.261V26.2643H107.855V10.289ZM109.591 7.97254C109.067 7.97254 108.63 7.80746 108.281 7.47731C107.931 7.14715 107.757 6.73179 107.757 6.23123C107.757 5.74132 107.931 5.33129 108.281 5.00113C108.63 4.66033 109.061 4.48993 109.574 4.48993C110.076 4.48993 110.502 4.66033 110.851 5.00113C111.201 5.33129 111.375 5.74132 111.375 6.23123C111.375 6.73179 111.201 7.14715 110.851 7.47731C110.513 7.80746 110.093 7.97254 109.591 7.97254Z" fill="#F2F1F1"/>
<path d="M122.095 26.6796C120.589 26.6796 119.213 26.3015 117.969 25.5454C116.735 24.7892 115.748 23.7774 115.005 22.5101C114.274 21.232 113.908 19.8209 113.908 18.2766C113.908 17.1051 114.121 16.0134 114.547 15.0017C114.972 13.9792 115.556 13.0846 116.299 12.3178C117.052 11.5404 117.925 10.9333 118.919 10.4966C119.912 10.06 120.971 9.84165 122.095 9.84165C123.601 9.84165 124.971 10.2197 126.205 10.9759C127.449 11.7321 128.437 12.7492 129.168 14.0272C129.911 15.3052 130.282 16.7217 130.282 18.2766C130.282 19.4375 130.069 20.5238 129.643 21.5356C129.218 22.5473 128.628 23.4419 127.875 24.2194C127.133 24.9862 126.265 25.588 125.271 26.0246C124.289 26.4613 123.23 26.6796 122.095 26.6796ZM122.095 23.3567C123.001 23.3567 123.814 23.1224 124.535 22.6538C125.255 22.1852 125.823 21.5675 126.238 20.8007C126.663 20.0232 126.876 19.1819 126.876 18.2766C126.876 17.35 126.658 16.498 126.221 15.7206C125.795 14.9431 125.222 14.3254 124.502 13.8674C123.781 13.3988 122.979 13.1645 122.095 13.1645C121.2 13.1645 120.387 13.3988 119.655 13.8674C118.935 14.336 118.362 14.9591 117.936 15.7365C117.521 16.514 117.314 17.3607 117.314 18.2766C117.314 19.2245 117.532 20.0818 117.969 20.8486C118.405 21.6154 118.984 22.2278 119.704 22.6858C120.436 23.1331 121.233 23.3567 122.095 23.3567Z" fill="#F2F1F1"/>
<path d="M131.952 20.2735V10.289H135.358V19.4588C135.358 20.1723 135.538 20.822 135.898 21.4078C136.259 21.9935 136.739 22.4621 137.339 22.8136C137.94 23.1544 138.6 23.3248 139.321 23.3248C140.052 23.3248 140.712 23.1544 141.302 22.8136C141.902 22.4621 142.377 21.9935 142.726 21.4078C143.087 20.822 143.267 20.1723 143.267 19.4588V10.289H146.672L146.689 26.2643H143.283L143.267 24.5389C142.71 25.1992 142.017 25.7211 141.187 26.1045C140.358 26.4879 139.468 26.6796 138.518 26.6796C137.307 26.6796 136.204 26.3921 135.211 25.8169C134.217 25.2418 133.426 24.4697 132.837 23.5005C132.247 22.5314 131.952 21.4557 131.952 20.2735Z" fill="#F2F1F1"/>
<path d="M154.884 26.5678C154.022 26.5145 153.182 26.3441 152.363 26.0566C151.544 25.769 150.824 25.3803 150.202 24.8904C149.59 24.3898 149.132 23.8041 148.826 23.1331L151.724 21.919C151.866 22.2065 152.112 22.4888 152.461 22.7657C152.821 23.0426 153.242 23.2715 153.722 23.4526C154.202 23.623 154.704 23.7082 155.228 23.7082C155.741 23.7082 156.216 23.639 156.653 23.5005C157.1 23.3514 157.466 23.1278 157.75 22.8296C158.034 22.5314 158.176 22.1746 158.176 21.7592C158.176 21.2906 158.012 20.9285 157.684 20.6729C157.368 20.4066 156.969 20.2043 156.489 20.0658C156.009 19.9274 155.528 19.7943 155.048 19.6665C153.978 19.4321 152.996 19.1126 152.101 18.7079C151.217 18.2926 150.513 17.7654 149.989 17.1264C149.465 16.4767 149.203 15.6833 149.203 14.7461C149.203 13.7236 149.487 12.8397 150.054 12.0942C150.622 11.338 151.364 10.7576 152.281 10.3529C153.209 9.94815 154.197 9.7458 155.245 9.7458C156.555 9.7458 157.755 10.0174 158.847 10.5605C159.938 11.1037 160.774 11.8492 161.352 12.7971L158.65 14.3627C158.487 14.0432 158.241 13.7556 157.914 13.5C157.586 13.2444 157.215 13.042 156.8 12.8929C156.385 12.7332 155.954 12.6427 155.507 12.6214C154.95 12.6 154.431 12.6639 153.951 12.8131C153.482 12.9515 153.105 13.1752 152.821 13.484C152.538 13.7929 152.396 14.1869 152.396 14.6662C152.396 15.1348 152.565 15.4863 152.903 15.7206C153.242 15.9442 153.667 16.1253 154.18 16.2637C154.704 16.4022 155.239 16.5566 155.785 16.727C156.757 17.0252 157.668 17.3926 158.519 17.8293C159.371 18.2553 160.059 18.7825 160.582 19.4109C161.106 20.0392 161.358 20.806 161.336 21.7113C161.336 22.7124 161.025 23.5911 160.402 24.3472C159.791 25.1034 158.994 25.6785 158.012 26.0725C157.029 26.4666 155.987 26.6317 154.884 26.5678Z" fill="#F2F1F1"/>
</svg>
