<svg width="21" height="22" viewBox="0 0 21 22" fill="none" xmlns="http://www.w3.org/2000/svg">
<path d="M10.817 19.6926H5.70334C4.36599 19.6926 3.30228 19.0419 2.3472 18.1319C0.392034 16.2692 3.60213 14.7807 4.82645 14.0517C6.64444 12.9692 8.77196 12.5721 10.817 12.8606C11.5591 12.9652 12.2818 13.1601 12.9805 13.4453" stroke="#D6D8D8" stroke-width="1.12981" stroke-linecap="round" stroke-linejoin="round"/>
<path d="M14.2787 6.28095C14.2787 8.43167 12.5352 10.1752 10.3845 10.1752C8.23374 10.1752 6.49023 8.43167 6.49023 6.28095C6.49023 4.13023 8.23374 2.38672 10.3845 2.38672C12.5352 2.38672 14.2787 4.13023 14.2787 6.28095Z" stroke="#D6D8D8" stroke-width="1.12981"/>
<path d="M16.0093 19.6944L16.0093 13.6367M12.9805 16.6656H19.0382" stroke="#D6D8D8" stroke-width="1.12981" stroke-linecap="round"/>
</svg>
