<svg width="33" height="34" viewBox="0 0 33 34" fill="none" xmlns="http://www.w3.org/2000/svg">
<g clip-path="url(#clip0_906_2941)">
<path d="M17.8955 16.5795C17.8955 20.5783 14.6822 23.8199 10.7186 23.8199C6.75503 23.8199 3.5415 20.5783 3.5415 16.5795C3.5415 12.5807 6.75479 9.33887 10.7186 9.33887C14.6824 9.33887 17.8955 12.5807 17.8955 16.5795Z" fill="#9CA3AF"/>
<path d="M25.7684 16.5792C25.7684 20.3432 24.1618 23.3957 22.1799 23.3957C20.198 23.3957 18.5913 20.3432 18.5913 16.5792C18.5913 12.8152 20.1977 9.7627 22.1796 9.7627C24.1615 9.7627 25.7682 12.8142 25.7682 16.5792" fill="#9CA3AF"/>
<path d="M28.9888 16.5792C28.9888 19.9508 28.4238 22.6857 27.7267 22.6857C27.0296 22.6857 26.4648 19.9515 26.4648 16.5792C26.4648 13.2068 27.0298 10.4727 27.7267 10.4727C28.4236 10.4727 28.9888 13.2066 28.9888 16.5792Z" fill="#9CA3AF"/>
</g>
<defs>
<clipPath id="clip0_906_2941">
<rect width="28" height="28.0545" fill="white" transform="translate(2.5 2.5)"/>
</clipPath>
</defs>
</svg>
