<svg width="35" height="35" viewBox="0 0 35 35" fill="currentColor" xmlns="http://www.w3.org/2000/svg">
<path fill-rule="evenodd" clip-rule="evenodd" d="M12.2287 9.9369C12.2287 8.50038 12.7994 7.1227 13.8151 6.10693C14.8309 5.09116 16.2086 4.52051 17.6451 4.52051C19.0816 4.52051 20.4593 5.09116 21.4751 6.10693C22.4908 7.1227 23.0615 8.50038 23.0615 9.9369C23.0615 11.3734 22.4908 12.7511 21.4751 13.7669C20.4593 14.7826 19.0816 15.3533 17.6451 15.3533C16.2086 15.3533 14.8309 14.7826 13.8151 13.7669C12.7994 12.7511 12.2287 11.3734 12.2287 9.9369ZM23.0615 14.27C23.0615 13.1208 23.518 12.0187 24.3306 11.206C25.1433 10.3934 26.2454 9.9369 27.3946 9.9369C28.5438 9.9369 29.646 10.3934 30.4586 11.206C31.2712 12.0187 31.7277 13.1208 31.7277 14.27C31.7277 15.4192 31.2712 16.5214 30.4586 17.334C29.646 18.1466 28.5438 18.6031 27.3946 18.6031C26.2454 18.6031 25.1433 18.1466 24.3306 17.334C23.518 16.5214 23.0615 15.4192 23.0615 14.27ZM3.5625 14.27C3.5625 13.1208 4.01902 12.0187 4.83164 11.206C5.64425 10.3934 6.7464 9.9369 7.89561 9.9369C9.04482 9.9369 10.147 10.3934 10.9596 11.206C11.7722 12.0187 12.2287 13.1208 12.2287 14.27C12.2287 15.4192 11.7722 16.5214 10.9596 17.334C10.147 18.1466 9.04482 18.6031 7.89561 18.6031C6.7464 18.6031 5.64425 18.1466 4.83164 17.334C4.01902 16.5214 3.5625 15.4192 3.5625 14.27ZM9.42664 22.0219C10.3076 20.6412 11.5225 19.5048 12.959 18.7179C14.3955 17.931 16.0072 17.5189 17.6451 17.5198C19.017 17.5186 20.3737 17.8071 21.6264 18.3665C22.879 18.9259 23.9994 19.7435 24.9142 20.7659C25.829 21.7882 26.5176 22.9923 26.9348 24.2992C27.352 25.6061 27.4885 26.9864 27.3354 28.3497C27.3167 28.5191 27.2582 28.6817 27.1649 28.8242C27.0715 28.9668 26.9459 29.0853 26.7981 29.1701C24.0127 30.7684 20.8564 31.6071 17.6451 31.6025C14.3158 31.6025 11.1888 30.7185 8.49214 29.1701C8.34436 29.0853 8.21869 28.9668 8.12533 28.8242C8.03197 28.6817 7.97355 28.5191 7.95483 28.3497C7.71226 26.135 8.23137 23.9036 9.42664 22.0234V22.0219Z" fill="currentColor"/>
<path d="M7.65334 20.7754C6.22884 22.9743 5.56515 25.5798 5.76411 28.1922C4.89677 28.0607 4.04373 27.848 3.21624 27.5567L3.05014 27.4989C2.90194 27.4463 2.77217 27.3519 2.67655 27.227C2.58093 27.1022 2.52356 26.9523 2.51138 26.7955L2.49694 26.6208C2.4386 25.8956 2.52692 25.1662 2.75664 24.4759C2.98637 23.7857 3.35279 23.1488 3.83403 22.6032C4.31527 22.0577 4.90148 21.6147 5.55768 21.3006C6.21387 20.9866 6.9266 20.808 7.65334 20.7754ZM29.5269 28.1922C29.7258 25.5798 29.0622 22.9743 27.6376 20.7754C28.3644 20.808 29.0771 20.9866 29.7333 21.3006C30.3895 21.6147 30.9757 22.0577 31.457 22.6032C31.9382 23.1488 32.3046 23.7857 32.5343 24.4759C32.7641 25.1662 32.8524 25.8956 32.7941 26.6208L32.7796 26.7955C32.7672 26.9521 32.7097 27.1016 32.6141 27.2262C32.5185 27.3508 32.3888 27.445 32.2409 27.4975L32.0748 27.5553C31.2558 27.8441 30.4051 28.0593 29.5269 28.1922Z" fill="currentColor"/>
</svg>
