<svg width="20" height="20" viewBox="0 0 20 20" fill="current" xmlns="http://www.w3.org/2000/svg">
<path d="M6.24939 10H11.2494M6.24939 6.66667H8.74939" stroke="#818282" stroke-linecap="round" stroke-linejoin="round"/>
<path d="M7.08264 16.668C7.95796 17.3927 9.01139 17.8545 10.2189 17.9337C11.1703 17.9961 12.1636 17.996 13.113 17.9337C13.44 17.9122 13.7964 17.8352 14.1033 17.7105C14.4448 17.5717 14.6156 17.5023 14.7023 17.5128C14.7891 17.5233 14.915 17.615 15.1669 17.7982C15.6109 18.1213 16.1702 18.3534 16.9997 18.3334C17.4191 18.3234 17.6289 18.3183 17.7227 18.1604C17.8166 18.0024 17.6997 17.7837 17.4658 17.3464C17.1415 16.7398 16.936 16.0454 17.2474 15.489C17.7837 14.6942 18.2392 13.753 18.3058 12.7365C18.3416 12.1903 18.3416 11.6247 18.3058 11.0785C18.2615 10.4012 18.0971 9.75735 17.8336 9.16797" stroke="#818282" stroke-linecap="round" stroke-linejoin="round"/>
<path d="M10.2869 14.5736C13.2498 14.3785 15.61 12.0071 15.8042 9.02999C15.8422 8.44739 15.8422 7.84406 15.8042 7.26146C15.61 4.28437 13.2498 1.91297 10.2869 1.71785C9.27601 1.65128 8.22063 1.65141 7.21184 1.71785C4.24887 1.91297 1.88872 4.28437 1.69452 7.26146C1.65651 7.84406 1.65651 8.44739 1.69452 9.02999C1.76525 10.1143 2.24928 11.1182 2.81912 11.9659C3.14998 12.5594 2.93163 13.3001 2.587 13.9471C2.33851 14.4136 2.21427 14.6469 2.31403 14.8154C2.41379 14.9839 2.63662 14.9893 3.08228 15C3.96361 15.0213 4.55792 14.7738 5.02966 14.4291C5.29722 14.2336 5.431 14.1359 5.5232 14.1247C5.6154 14.1134 5.79685 14.1875 6.15969 14.3355C6.4858 14.4686 6.86445 14.5507 7.21184 14.5736C8.22063 14.64 9.27601 14.6402 10.2869 14.5736Z" stroke="#818282" stroke-linejoin="round"/>
</svg>
