<svg width="32" height="33" viewBox="0 0 32 33" fill="none" xmlns="http://www.w3.org/2000/svg">
<g clip-path="url(#clip0_1794_47155)">
<rect y="0.5" width="32" height="32" fill="white"/>
<path d="M25.0041 7.25L17.2002 13.0461L18.6433 9.62647L25.0041 7.25Z" fill="#E2761B" stroke="#E2761B" stroke-width="0.25" stroke-linecap="round" stroke-linejoin="round"/>
<path d="M6.9873 7.25L14.7285 13.101L13.3559 9.62647L6.9873 7.25Z" fill="#E4761B" stroke="#E4761B" stroke-width="0.25" stroke-linecap="round" stroke-linejoin="round"/>
<path d="M22.1956 20.6855L20.1172 23.8699L24.5642 25.0934L25.8427 20.7561L22.1956 20.6855Z" fill="#E4761B" stroke="#E4761B" stroke-width="0.25" stroke-linecap="round" stroke-linejoin="round"/>
<path d="M6.16406 20.7561L7.43465 25.0934L11.8817 23.8699L9.80328 20.6855L6.16406 20.7561Z" fill="#E4761B" stroke="#E4761B" stroke-width="0.25" stroke-linecap="round" stroke-linejoin="round"/>
<path d="M11.6308 15.3054L10.3916 17.1799L14.8073 17.376L14.6504 12.6309L11.6308 15.3054Z" fill="#E4761B" stroke="#E4761B" stroke-width="0.25" stroke-linecap="round" stroke-linejoin="round"/>
<path d="M20.36 15.3046L17.3012 12.5752L17.1992 17.3752L21.6071 17.1791L20.36 15.3046Z" fill="#E4761B" stroke="#E4761B" stroke-width="0.25" stroke-linecap="round" stroke-linejoin="round"/>
<path d="M11.8818 23.8695L14.5328 22.5753L12.2426 20.7871L11.8818 23.8695Z" fill="#E4761B" stroke="#E4761B" stroke-width="0.25" stroke-linecap="round" stroke-linejoin="round"/>
<path d="M17.458 22.5753L20.1168 23.8695L19.7482 20.7871L17.458 22.5753Z" fill="#E4761B" stroke="#E4761B" stroke-width="0.25" stroke-linecap="round" stroke-linejoin="round"/>
<path d="M20.1168 23.8693L17.458 22.5752L17.6698 24.3085L17.6462 25.0379L20.1168 23.8693Z" fill="#D7C1B3" stroke="#D7C1B3" stroke-width="0.25" stroke-linecap="round" stroke-linejoin="round"/>
<path d="M11.8818 23.8693L14.3524 25.0379L14.3367 24.3085L14.5328 22.5752L11.8818 23.8693Z" fill="#D7C1B3" stroke="#D7C1B3" stroke-width="0.25" stroke-linecap="round" stroke-linejoin="round"/>
<path d="M14.3924 19.642L12.1807 18.9911L13.7414 18.2773L14.3924 19.642Z" fill="#233447" stroke="#233447" stroke-width="0.25" stroke-linecap="round" stroke-linejoin="round"/>
<path d="M17.5996 19.642L18.2506 18.2773L19.8192 18.9911L17.5996 19.642Z" fill="#233447" stroke="#233447" stroke-width="0.25" stroke-linecap="round" stroke-linejoin="round"/>
<path d="M11.8831 23.8699L12.2596 20.6855L9.80469 20.7561L11.8831 23.8699Z" fill="#CD6116" stroke="#CD6116" stroke-width="0.25" stroke-linecap="round" stroke-linejoin="round"/>
<path d="M19.7422 20.6855L20.1187 23.8699L22.1971 20.7561L19.7422 20.6855Z" fill="#CD6116" stroke="#CD6116" stroke-width="0.25" stroke-linecap="round" stroke-linejoin="round"/>
<path d="M21.609 17.1797L17.2012 17.3758L17.609 19.6424L18.26 18.2777L19.8286 18.9915L21.609 17.1797Z" fill="#CD6116" stroke="#CD6116" stroke-width="0.25" stroke-linecap="round" stroke-linejoin="round"/>
<path d="M12.1808 18.9915L13.7494 18.2777L14.3926 19.6424L14.8083 17.3758L10.3926 17.1797L12.1808 18.9915Z" fill="#CD6116" stroke="#CD6116" stroke-width="0.25" stroke-linecap="round" stroke-linejoin="round"/>
<path d="M10.3916 17.1797L12.2426 20.7875L12.1798 18.9915L10.3916 17.1797Z" fill="#E4751F" stroke="#E4751F" stroke-width="0.25" stroke-linecap="round" stroke-linejoin="round"/>
<path d="M19.8265 18.9915L19.748 20.7875L21.6069 17.1797L19.8265 18.9915Z" fill="#E4751F" stroke="#E4751F" stroke-width="0.25" stroke-linecap="round" stroke-linejoin="round"/>
<path d="M14.8073 17.376L14.3916 19.6426L14.9092 22.3172L15.0269 18.7956L14.8073 17.376Z" fill="#E4751F" stroke="#E4751F" stroke-width="0.25" stroke-linecap="round" stroke-linejoin="round"/>
<path d="M17.1991 17.376L16.9873 18.7877L17.0814 22.3172L17.6069 19.6426L17.1991 17.376Z" fill="#E4751F" stroke="#E4751F" stroke-width="0.25" stroke-linecap="round" stroke-linejoin="round"/>
<path d="M17.6075 19.6422L17.082 22.3167L17.4585 22.5755L19.7487 20.7873L19.8271 18.9912L17.6075 19.6422Z" fill="#F6851B" stroke="#F6851B" stroke-width="0.25" stroke-linecap="round" stroke-linejoin="round"/>
<path d="M12.1807 18.9912L12.2434 20.7873L14.5336 22.5755L14.9101 22.3167L14.3924 19.6422L12.1807 18.9912Z" fill="#F6851B" stroke="#F6851B" stroke-width="0.25" stroke-linecap="round" stroke-linejoin="round"/>
<path d="M17.6475 25.0378L17.671 24.3084L17.475 24.1358H14.5181L14.3377 24.3084L14.3534 25.0378L11.8828 23.8691L12.7456 24.575L14.4946 25.7907H17.4985L19.2554 24.575L20.1181 23.8691L17.6475 25.0378Z" fill="#C0AD9E" stroke="#C0AD9E" stroke-width="0.25" stroke-linecap="round" stroke-linejoin="round"/>
<path d="M17.4585 22.5752L17.082 22.3164H14.9095L14.533 22.5752L14.3369 24.3086L14.5173 24.136H17.4742L17.6702 24.3086L17.4585 22.5752Z" fill="#161616" stroke="#161616" stroke-width="0.25" stroke-linecap="round" stroke-linejoin="round"/>
<path d="M25.3335 13.4225L26.0002 10.2225L25.0041 7.25L17.459 12.85L20.3609 15.3049L24.4629 16.5049L25.3727 15.4461L24.9806 15.1637L25.608 14.5912L25.1217 14.2147L25.7492 13.7363L25.3335 13.4225Z" fill="#763D16" stroke="#763D16" stroke-width="0.25" stroke-linecap="round" stroke-linejoin="round"/>
<path d="M6 10.2225L6.66667 13.4225L6.24314 13.7363L6.87059 14.2147L6.39216 14.5912L7.01961 15.1637L6.62745 15.4461L7.52941 16.5049L11.6314 15.3049L14.5333 12.85L6.98824 7.25L6 10.2225Z" fill="#763D16" stroke="#763D16" stroke-width="0.25" stroke-linecap="round" stroke-linejoin="round"/>
<path d="M24.4627 16.5047L20.3608 15.3047L21.6078 17.1792L19.749 20.787L22.1961 20.7557H25.8431L24.4627 16.5047Z" fill="#F6851B" stroke="#F6851B" stroke-width="0.25" stroke-linecap="round" stroke-linejoin="round"/>
<path d="M11.6317 15.3047L7.52974 16.5047L6.16504 20.7557H9.80426L12.2435 20.787L10.3925 17.1792L11.6317 15.3047Z" fill="#F6851B" stroke="#F6851B" stroke-width="0.25" stroke-linecap="round" stroke-linejoin="round"/>
<path d="M17.2006 17.376L17.4594 12.8505L18.6515 9.62695H13.3574L14.5339 12.8505L14.8084 17.376L14.9025 18.8034L14.9104 22.3172H17.0829L17.0986 18.8034L17.2006 17.376Z" fill="#F6851B" stroke="#F6851B" stroke-width="0.25" stroke-linecap="round" stroke-linejoin="round"/>
</g>
<defs>
<clipPath id="clip0_1794_47155">
<rect y="0.5" width="32" height="32" rx="6" fill="white"/>
</clipPath>
</defs>
</svg>
