<svg width="82" height="80" viewBox="0 0 82 80" fill="none" xmlns="http://www.w3.org/2000/svg">
<g filter="url(#filter0_b_1256_35820)">
<g clip-path="url(#clip0_1256_35820)">
<rect y="0.628906" width="82" height="79" rx="39.5" fill="#DDF7FD" fill-opacity="0.08"/>
<g opacity="0.5">
<path d="M3.38477 0.3125L3.38476 59.3974" stroke="url(#paint0_linear_1256_35820)" stroke-width="0.168997"/>
<path d="M17.3555 0.3125L17.4757 67.9861" stroke="url(#paint1_linear_1256_35820)" stroke-width="0.168997"/>
<path d="M31.4453 0.3125L31.5655 67.9861" stroke="url(#paint2_linear_1256_35820)" stroke-width="0.168997"/>
<path d="M45.5361 0.3125L45.5361 59.3974" stroke="url(#paint3_linear_1256_35820)" stroke-width="0.168997"/>
<path d="M59.5068 0.3125L59.5068 59.3974" stroke="url(#paint4_linear_1256_35820)" stroke-width="0.168997"/>
</g>
<g opacity="0.5">
<path d="M-15.0107 66.9414L68.2484 66.9414" stroke="url(#paint5_linear_1256_35820)" stroke-width="0.112665"/>
<path d="M-21.3203 53.875L74.5573 53.875" stroke="url(#paint6_linear_1256_35820)" stroke-width="0.112665"/>
<path d="M-16.7012 40.8047L69.9379 40.8047" stroke="url(#paint7_linear_1256_35820)" stroke-width="0.112665"/>
<path d="M-11.2363 27.7383L64.4743 27.7383" stroke="url(#paint8_linear_1256_35820)" stroke-width="0.112665"/>
</g>
<path d="M42.0007 36.6263C40.5279 36.6263 39.334 37.5217 39.334 38.6263C39.334 39.7309 40.5279 40.6263 42.0007 40.6263C43.4734 40.6263 44.6673 41.5217 44.6673 42.6263C44.6673 43.7309 43.4734 44.6263 42.0007 44.6263M42.0007 36.6263C43.1617 36.6263 44.1495 37.1828 44.5156 37.9596M42.0007 36.6263V35.293M42.0007 44.6263C40.8396 44.6263 39.8518 44.0698 39.4857 43.293M42.0007 44.6263V45.9596" stroke="#79C4EC" stroke-width="2" stroke-linecap="round"/>
<path d="M41.9983 27.293C37.9879 27.293 35.3876 29.985 32.3123 30.9662C31.0618 31.3651 30.4366 31.5646 30.1836 31.8458C29.9306 32.127 29.8565 32.538 29.7083 33.3598C28.1226 42.1543 31.5885 50.2849 39.8544 53.4496C40.7425 53.7896 41.1866 53.9596 42.0026 53.9596C42.8187 53.9596 43.2627 53.7896 44.1508 53.4496C52.4161 50.2849 55.8788 42.1543 54.2926 33.3598C54.1444 32.5378 54.0702 32.1268 53.8172 31.8456C53.5641 31.5644 52.9389 31.365 51.6885 30.9663C48.612 29.9852 46.0088 27.293 41.9983 27.293Z" stroke="#79C4EC" stroke-width="2" stroke-linecap="round" stroke-linejoin="round"/>
</g>
<rect x="0.375" y="1.00391" width="81.25" height="78.25" rx="39.125" stroke="url(#paint9_linear_1256_35820)" stroke-opacity="0.25" stroke-width="0.75"/>
</g>
<defs>
<filter id="filter0_b_1256_35820" x="-4" y="-3.37109" width="90" height="87" filterUnits="userSpaceOnUse" color-interpolation-filters="sRGB">
<feFlood flood-opacity="0" result="BackgroundImageFix"/>
<feGaussianBlur in="BackgroundImageFix" stdDeviation="2"/>
<feComposite in2="SourceAlpha" operator="in" result="effect1_backgroundBlur_1256_35820"/>
<feBlend mode="normal" in="SourceGraphic" in2="effect1_backgroundBlur_1256_35820" result="shape"/>
</filter>
<linearGradient id="paint0_linear_1256_35820" x1="2.37937" y1="66.958" x2="2.37938" y2="-4.36356" gradientUnits="userSpaceOnUse">
<stop offset="0.0520833" stop-color="#24343D" stop-opacity="0"/>
<stop offset="0.260417" stop-color="#4B6A7C" stop-opacity="0.479167"/>
<stop offset="0.5" stop-color="#24343D"/>
<stop offset="0.807292" stop-color="#4C6D80" stop-opacity="0.47"/>
<stop offset="0.916667" stop-color="#24343D" stop-opacity="0"/>
</linearGradient>
<linearGradient id="paint1_linear_1256_35820" x1="16.4856" y1="76.6473" x2="16.3581" y2="-5.04174" gradientUnits="userSpaceOnUse">
<stop offset="0.0520833" stop-color="#24343D" stop-opacity="0"/>
<stop offset="0.260417" stop-color="#4B6A7C" stop-opacity="0.479167"/>
<stop offset="0.5" stop-color="#24343D"/>
<stop offset="0.807292" stop-color="#4C6D80" stop-opacity="0.47"/>
<stop offset="0.916667" stop-color="#24343D" stop-opacity="0"/>
</linearGradient>
<linearGradient id="paint2_linear_1256_35820" x1="30.5755" y1="76.6473" x2="30.4479" y2="-5.04174" gradientUnits="userSpaceOnUse">
<stop offset="0.0520833" stop-color="#24343D" stop-opacity="0"/>
<stop offset="0.260417" stop-color="#4B6A7C" stop-opacity="0.479167"/>
<stop offset="0.5" stop-color="#24343D"/>
<stop offset="0.807292" stop-color="#4C6D80" stop-opacity="0.47"/>
<stop offset="0.916667" stop-color="#24343D" stop-opacity="0"/>
</linearGradient>
<linearGradient id="paint3_linear_1256_35820" x1="44.5307" y1="66.958" x2="44.5307" y2="-4.36356" gradientUnits="userSpaceOnUse">
<stop offset="0.0520833" stop-color="#24343D" stop-opacity="0"/>
<stop offset="0.260417" stop-color="#4B6A7C" stop-opacity="0.479167"/>
<stop offset="0.5" stop-color="#24343D"/>
<stop offset="0.807292" stop-color="#4C6D80" stop-opacity="0.47"/>
<stop offset="0.916667" stop-color="#24343D" stop-opacity="0"/>
</linearGradient>
<linearGradient id="paint4_linear_1256_35820" x1="58.5014" y1="66.958" x2="58.5014" y2="-4.36356" gradientUnits="userSpaceOnUse">
<stop offset="0.0520833" stop-color="#24343D" stop-opacity="0"/>
<stop offset="0.260417" stop-color="#4B6A7C" stop-opacity="0.479167"/>
<stop offset="0.5" stop-color="#24343D"/>
<stop offset="0.807292" stop-color="#4C6D80" stop-opacity="0.47"/>
<stop offset="0.916667" stop-color="#24343D" stop-opacity="0"/>
</linearGradient>
<linearGradient id="paint5_linear_1256_35820" x1="78.9024" y1="67.9468" x2="-21.6" y2="67.9468" gradientUnits="userSpaceOnUse">
<stop offset="0.0520833" stop-color="#24343D" stop-opacity="0"/>
<stop offset="0.260417" stop-color="#4B6A7C" stop-opacity="0.479167"/>
<stop offset="0.5" stop-color="#24343D"/>
<stop offset="0.807292" stop-color="#4C6D80" stop-opacity="0.47"/>
<stop offset="0.916667" stop-color="#24343D" stop-opacity="0"/>
</linearGradient>
<linearGradient id="paint6_linear_1256_35820" x1="86.8259" y1="54.8804" x2="-28.9082" y2="54.8804" gradientUnits="userSpaceOnUse">
<stop offset="0.0520833" stop-color="#24343D" stop-opacity="0"/>
<stop offset="0.260417" stop-color="#4B6A7C" stop-opacity="0.479167"/>
<stop offset="0.5" stop-color="#24343D"/>
<stop offset="0.807292" stop-color="#4C6D80" stop-opacity="0.47"/>
<stop offset="0.916667" stop-color="#24343D" stop-opacity="0"/>
</linearGradient>
<linearGradient id="paint7_linear_1256_35820" x1="81.0244" y1="41.8101" x2="-23.5579" y2="41.8101" gradientUnits="userSpaceOnUse">
<stop offset="0.0520833" stop-color="#24343D" stop-opacity="0"/>
<stop offset="0.260417" stop-color="#4B6A7C" stop-opacity="0.479167"/>
<stop offset="0.5" stop-color="#24343D"/>
<stop offset="0.807292" stop-color="#4C6D80" stop-opacity="0.47"/>
<stop offset="0.916667" stop-color="#24343D" stop-opacity="0"/>
</linearGradient>
<linearGradient id="paint8_linear_1256_35820" x1="74.1624" y1="28.7437" x2="-17.2282" y2="28.7437" gradientUnits="userSpaceOnUse">
<stop offset="0.0520833" stop-color="#24343D" stop-opacity="0"/>
<stop offset="0.260417" stop-color="#4B6A7C" stop-opacity="0.479167"/>
<stop offset="0.5" stop-color="#24343D"/>
<stop offset="0.807292" stop-color="#4C6D80" stop-opacity="0.47"/>
<stop offset="0.916667" stop-color="#24343D" stop-opacity="0"/>
</linearGradient>
<linearGradient id="paint9_linear_1256_35820" x1="17" y1="12.1289" x2="49.875" y2="55.6873" gradientUnits="userSpaceOnUse">
<stop offset="0.022545" stop-color="#8AD5F6" stop-opacity="0.61"/>
<stop offset="0.357136" stop-color="#0B7FB1" stop-opacity="0.55"/>
<stop offset="0.660094" stop-color="#0B7FB1" stop-opacity="0.03"/>
</linearGradient>
<clipPath id="clip0_1256_35820">
<rect y="0.628906" width="82" height="79" rx="39.5" fill="white"/>
</clipPath>
</defs>
</svg>
