<svg width="21" height="20" viewBox="0 0 21 20" fill="none" xmlns="http://www.w3.org/2000/svg">
<path d="M3.65765 7.53123C3.06816 7.85032 1.52256 8.50188 2.46393 9.31721C2.92379 9.71548 3.43595 10.0003 4.07985 10.0003H7.75413C8.39804 10.0003 8.9102 9.71548 9.37005 9.31721C10.3114 8.50188 8.76582 7.85032 8.17634 7.53123C6.794 6.78295 5.03999 6.78295 3.65765 7.53123Z" stroke="#818282" stroke-width="1.25"/>
<path d="M7.79199 3.56093C7.79199 4.60693 6.95253 5.45487 5.91699 5.45487C4.88146 5.45487 4.04199 4.60693 4.04199 3.56093C4.04199 2.51494 4.88146 1.66699 5.91699 1.66699C6.95253 1.66699 7.79199 2.51494 7.79199 3.56093Z" stroke="#818282" stroke-width="1.25"/>
<path d="M3.83398 12.5005C3.83398 15.2648 6.0697 17.5005 8.83398 17.5005L8.1197 16.0719" stroke="#818282" stroke-width="1.25" stroke-linecap="round" stroke-linejoin="round"/>
<path d="M17.167 7.50049C17.167 4.7362 14.9313 2.50049 12.167 2.50049L12.8813 3.92906" stroke="#818282" stroke-width="1.25" stroke-linecap="round" stroke-linejoin="round"/>
<path d="M12.8246 15.8647C12.2352 16.1838 10.6896 16.8354 11.6309 17.6507C12.0908 18.049 12.6029 18.3338 13.2468 18.3338H16.9211C17.565 18.3338 18.0772 18.049 18.537 17.6507C19.4784 16.8354 17.9328 16.1838 17.3433 15.8647C15.961 15.1164 14.207 15.1164 12.8246 15.8647Z" stroke="#818282" stroke-width="1.25"/>
<path d="M16.959 11.8944C16.959 12.9404 16.1195 13.7884 15.084 13.7884C14.0485 13.7884 13.209 12.9404 13.209 11.8944C13.209 10.8484 14.0485 10.0005 15.084 10.0005C16.1195 10.0005 16.959 10.8484 16.959 11.8944Z" stroke="#818282" stroke-width="1.25"/>
</svg>
