<svg width="18" height="18" viewBox="0 0 18 18" fill="current" xmlns="http://www.w3.org/2000/svg">
<path d="M5.24939 9H10.2494M5.24939 5.66667H7.74939" stroke="#818282" stroke-linecap="round" stroke-linejoin="round"/>
<path d="M6.08264 15.668C6.95796 16.3927 8.01139 16.8545 9.2189 16.9337C10.1703 16.9961 11.1636 16.996 12.113 16.9337C12.44 16.9122 12.7964 16.8352 13.1033 16.7105C13.4448 16.5717 13.6156 16.5023 13.7023 16.5128C13.7891 16.5233 13.915 16.615 14.1669 16.7982C14.6109 17.1213 15.1702 17.3534 15.9997 17.3334C16.4191 17.3234 16.6289 17.3183 16.7227 17.1604C16.8166 17.0024 16.6997 16.7837 16.4658 16.3464C16.1415 15.7398 15.936 15.0454 16.2474 14.489C16.7837 13.6942 17.2392 12.753 17.3058 11.7365C17.3416 11.1903 17.3416 10.6247 17.3058 10.0785C17.2615 9.40122 17.0971 8.75735 16.8336 8.16797" stroke="#818282" stroke-linecap="round" stroke-linejoin="round"/>
<path d="M9.28686 13.5736C12.2498 13.3785 14.61 11.0071 14.8042 8.02999C14.8422 7.44739 14.8422 6.84406 14.8042 6.26146C14.61 3.28437 12.2498 0.912974 9.28686 0.717846C8.27601 0.651275 7.22063 0.651411 6.21184 0.717846C3.24887 0.912974 0.888722 3.28437 0.694519 6.26146C0.656515 6.84406 0.656515 7.44739 0.694519 8.02999C0.76525 9.11428 1.24928 10.1182 1.81912 10.9659C2.14998 11.5594 1.93163 12.3001 1.587 12.9471C1.33851 13.4136 1.21427 13.6469 1.31403 13.8154C1.41379 13.9839 1.63662 13.9893 2.08228 14C2.96361 14.0213 3.55792 13.7738 4.02966 13.4291C4.29722 13.2336 4.431 13.1359 4.5232 13.1247C4.6154 13.1134 4.79685 13.1875 5.15969 13.3355C5.4858 13.4686 5.86445 13.5507 6.21184 13.5736C7.22063 13.64 8.27601 13.6402 9.28686 13.5736Z" stroke="#818282" stroke-linejoin="round"/>
</svg>
