<svg width="113" height="113" viewBox="0 0 113 113" fill="none" xmlns="http://www.w3.org/2000/svg">
<path d="M73.4505 3.38672V20.8567C73.4505 23.0659 75.2414 24.8567 77.4505 24.8567H94.9205M73.4505 3.38672H17.5605C15.3514 3.38672 13.5605 5.17758 13.5605 7.38671V104.477C13.5605 106.686 15.3514 108.477 17.5605 108.477H90.9205C93.1297 108.477 94.9205 106.686 94.9205 104.477V24.8567M73.4505 3.38672L94.9205 24.8567" stroke="#555656" stroke-opacity="0.5" stroke-width="4.58108"/>
<path d="M49.1 53.1L43.55 47.55M43.55 47.55L38 42M43.55 47.55L38 53.1M43.55 47.55L49.1 42M75 53.1L69.45 47.55M69.45 47.55L63.9 42M69.45 47.55L63.9 53.1M69.45 47.55L75 42" stroke="#555656" stroke-opacity="0.5" stroke-width="2.5" stroke-linecap="round" stroke-linejoin="round"/>
<path d="M53.5 80.7852C55.5949 79.4085 58.004 80.245 59.5 82.1016" stroke="#555656" stroke-opacity="0.5" stroke-width="2.5" stroke-linecap="round" stroke-linejoin="round"/>
</svg>
