<svg width="21" height="20" viewBox="0 0 21 20" fill="none" xmlns="http://www.w3.org/2000/svg">
<g style="mix-blend-mode:luminosity" clip-path="url(#clip0_1446_31891)">
<path d="M17.4419 3.64039C16.1302 3.0267 14.7427 2.59064 13.3158 2.34375C13.138 2.66508 12.9304 3.09727 12.7872 3.44109C11.2487 3.20977 9.72444 3.20977 8.21429 3.44109C8.07116 3.09734 7.85882 2.66508 7.67945 2.34375C6.25116 2.59075 4.86238 3.02792 3.55015 3.64359C0.938901 7.58961 0.23101 11.4375 0.584916 15.2309C2.31687 16.5243 3.99531 17.31 5.64546 17.8241C6.05557 17.2602 6.41809 16.6631 6.72929 16.0391C6.13681 15.8135 5.56564 15.5355 5.02257 15.2084C5.16548 15.1025 5.30503 14.9921 5.44101 14.8774C8.73179 16.4166 12.3074 16.4166 15.559 14.8774C15.6955 14.9914 15.835 15.1017 15.9773 15.2084C15.4334 15.5364 14.8612 15.8149 14.2675 16.0407C14.5805 16.6673 14.9423 17.2649 15.3513 17.8257C17.003 17.3116 18.683 16.5259 20.415 15.2309C20.8303 10.8334 19.7056 7.02086 17.4419 3.64039ZM7.17765 12.898C6.18976 12.898 5.3796 11.9758 5.3796 10.8527C5.3796 9.72968 6.17249 8.80586 7.17765 8.80586C8.18288 8.80586 8.99296 9.72804 8.97569 10.8527C8.97726 11.9758 8.18288 12.898 7.17765 12.898ZM13.8223 12.898C12.8344 12.898 12.0243 11.9758 12.0243 10.8527C12.0243 9.72968 12.8171 8.80586 13.8223 8.80586C14.8275 8.80586 15.6376 9.72804 15.6203 10.8527C15.6203 11.9758 14.8275 12.898 13.8223 12.898Z" fill="#5865F2"/>
<path d="M17.4419 3.64039C16.1302 3.0267 14.7427 2.59064 13.3158 2.34375C13.138 2.66508 12.9304 3.09727 12.7872 3.44109C11.2487 3.20977 9.72444 3.20977 8.21429 3.44109C8.07116 3.09734 7.85882 2.66508 7.67945 2.34375C6.25116 2.59075 4.86238 3.02792 3.55015 3.64359C0.938901 7.58961 0.23101 11.4375 0.584916 15.2309C2.31687 16.5243 3.99531 17.31 5.64546 17.8241C6.05557 17.2602 6.41809 16.6631 6.72929 16.0391C6.13681 15.8135 5.56564 15.5355 5.02257 15.2084C5.16548 15.1025 5.30503 14.9921 5.44101 14.8774C8.73179 16.4166 12.3074 16.4166 15.559 14.8774C15.6955 14.9914 15.835 15.1017 15.9773 15.2084C15.4334 15.5364 14.8612 15.8149 14.2675 16.0407C14.5805 16.6673 14.9423 17.2649 15.3513 17.8257C17.003 17.3116 18.683 16.5259 20.415 15.2309C20.8303 10.8334 19.7056 7.02086 17.4419 3.64039ZM7.17765 12.898C6.18976 12.898 5.3796 11.9758 5.3796 10.8527C5.3796 9.72968 6.17249 8.80586 7.17765 8.80586C8.18288 8.80586 8.99296 9.72804 8.97569 10.8527C8.97726 11.9758 8.18288 12.898 7.17765 12.898ZM13.8223 12.898C12.8344 12.898 12.0243 11.9758 12.0243 10.8527C12.0243 9.72968 12.8171 8.80586 13.8223 8.80586C14.8275 8.80586 15.6376 9.72804 15.6203 10.8527C15.6203 11.9758 14.8275 12.898 13.8223 12.898Z" fill="#5865F2"/>
</g>
<defs>
<clipPath id="clip0_1446_31891">
<rect width="20" height="20" fill="white" transform="translate(0.5)"/>
</clipPath>
</defs>
</svg>
