<svg width="20" height="20" viewBox="0 0 20 20" fill="none" xmlns="http://www.w3.org/2000/svg">
<g style="mix-blend-mode:luminosity">
<path d="M20 9.99993C20 4.47653 15.5234 0 10 0C4.47656 0 0 4.47653 0 9.99993C0 14.9917 3.65469 19.1288 8.43828 19.8792V12.8929H5.90117V9.99993H8.43828V7.79721C8.43828 5.29293 9.92852 3.90701 12.2137 3.90701C13.3094 3.90701 14.4547 4.10427 14.4547 4.10427V6.56441H13.1945C11.9508 6.56441 11.5672 7.33706 11.5672 8.12612V9.99993H14.3398L13.8961 12.8929H11.5672V19.8792C16.3453 19.1288 20 14.9917 20 9.99993Z" fill="#1877F2"/>
<path d="M13.89 12.8921L14.3342 9.99918H11.5615V8.12536C11.5615 7.33631 11.9506 6.56365 13.1889 6.56365H14.449V4.10351C14.449 4.10351 13.3037 3.90625 12.208 3.90625C9.92324 3.90625 8.43262 5.29257 8.43262 7.79646V9.99918H5.89551V12.8921H8.43262V19.8784C8.94238 19.9604 9.4627 19.9991 9.99434 19.9991C10.526 19.9991 11.0463 19.9554 11.5561 19.8784V12.8921H13.89Z" fill="white"/>
</g>
</svg>
