<svg width="20" height="20" viewBox="0 0 20 20" fill="none" xmlns="http://www.w3.org/2000/svg">
<g style="mix-blend-mode:luminosity" clip-path="url(#clip0_1446_31886)">
<mask id="mask0_1446_31886" style="mask-type:luminance" maskUnits="userSpaceOnUse" x="0" y="0" width="20" height="20">
<path d="M0 9.99998C0 15.5229 4.47713 20 10 20C15.5229 20 20 15.5229 20 9.99998C20 4.47709 15.5229 -4.00543e-05 10 -4.00543e-05C4.47713 -4.00543e-05 0 4.47709 0 9.99998Z" fill="white"/>
</mask>
<g mask="url(#mask0_1446_31886)">
<path d="M0 9.99998C0 15.5229 4.47713 20 10 20C15.5229 20 20 15.5229 20 9.99998C20 4.47709 15.5229 -4.00543e-05 10 -4.00543e-05C4.47713 -4.00543e-05 0 4.47709 0 9.99998Z" fill="url(#paint0_linear_1446_31886)"/>
</g>
<mask id="mask1_1446_31886" style="mask-type:luminance" maskUnits="userSpaceOnUse" x="-2" y="-2" width="24" height="24">
<path d="M-1.34766 -1.35035H21.2784V21.1836H-1.34766V-1.35035Z" fill="white"/>
</mask>
<g mask="url(#mask1_1446_31886)">
<path d="M6.76953 10.7293L7.95597 14.0132C7.95597 14.0132 8.10428 14.3203 8.26318 14.3203C8.42208 14.3203 10.7844 11.8627 10.7844 11.8627L13.4115 6.78852L6.8119 9.88174L6.76953 10.7293Z" fill="#C8DAEA"/>
</g>
<mask id="mask2_1446_31886" style="mask-type:luminance" maskUnits="userSpaceOnUse" x="-2" y="-2" width="24" height="24">
<path d="M-1.34766 -1.35035H21.2784V21.1836H-1.34766V-1.35035Z" fill="white"/>
</mask>
<g mask="url(#mask2_1446_31886)">
<path d="M8.34214 11.5741L8.11434 13.9947C8.11434 13.9947 8.019 14.7362 8.76053 13.9947C9.50206 13.2531 10.2118 12.6811 10.2118 12.6811" fill="#A9C6D8"/>
</g>
<mask id="mask3_1446_31886" style="mask-type:luminance" maskUnits="userSpaceOnUse" x="-2" y="-2" width="24" height="24">
<path d="M-1.34766 -1.35035H21.2784V21.1836H-1.34766V-1.35035Z" fill="white"/>
</mask>
<g mask="url(#mask3_1446_31886)">
<path d="M6.79028 10.8484L4.35003 10.0532C4.35003 10.0532 4.05875 9.935 4.15231 9.66661C4.17164 9.61127 4.21053 9.56423 4.32706 9.48296C4.86791 9.1061 14.3359 5.70295 14.3359 5.70295C14.3359 5.70295 14.6033 5.61295 14.7613 5.67278C14.8335 5.70016 14.8796 5.73109 14.9184 5.84397C14.9326 5.88507 14.9407 5.97245 14.9396 6.05939C14.9388 6.12211 14.9311 6.18016 14.9256 6.27126C14.8679 7.20177 13.1425 14.1457 13.1425 14.1457C13.1425 14.1457 13.0393 14.552 12.6694 14.5659C12.5344 14.5709 12.3707 14.5436 12.175 14.3752C11.4491 13.7508 8.94003 12.0646 8.38571 11.6938C8.35436 11.673 8.34554 11.6458 8.3402 11.6192C8.33241 11.5803 8.3741 11.5316 8.3741 11.5316C8.3741 11.5316 12.7429 7.64813 12.8592 7.24067C12.8682 7.20906 12.8344 7.19346 12.7885 7.20711C12.4983 7.31389 7.46817 10.4902 6.91308 10.841C6.88062 10.8615 6.78961 10.8483 6.78961 10.8483" fill="white"/>
</g>
</g>
<defs>
<linearGradient id="paint0_linear_1446_31886" x1="10" y1="19.9999" x2="10" y2="-0.0001248" gradientUnits="userSpaceOnUse">
<stop stop-color="#1D93D2"/>
<stop offset="1" stop-color="#38B0E3"/>
</linearGradient>
<clipPath id="clip0_1446_31886">
<rect width="20" height="20" fill="white"/>
</clipPath>
</defs>
</svg>
