<svg width="25" height="25" viewBox="0 0 25 25" fill="none" xmlns="http://www.w3.org/2000/svg">
<path fill-rule="evenodd" clip-rule="evenodd" d="M8.94238 7.11035C8.94238 6.11579 9.33747 5.16196 10.0407 4.4587C10.744 3.75544 11.6978 3.36035 12.6924 3.36035C13.6869 3.36035 14.6408 3.75544 15.344 4.4587C16.0473 5.16196 16.4424 6.11579 16.4424 7.11035C16.4424 8.10491 16.0473 9.05874 15.344 9.762C14.6408 10.4653 13.6869 10.8604 12.6924 10.8604C11.6978 10.8604 10.744 10.4653 10.0407 9.762C9.33747 9.05874 8.94238 8.10491 8.94238 7.11035ZM16.4424 10.1104C16.4424 9.3147 16.7585 8.55164 17.3211 7.98903C17.8837 7.42642 18.6467 7.11035 19.4424 7.11035C20.238 7.11035 21.0011 7.42642 21.5637 7.98903C22.1263 8.55164 22.4424 9.3147 22.4424 10.1104C22.4424 10.906 22.1263 11.6691 21.5637 12.2317C21.0011 12.7943 20.238 13.1104 19.4424 13.1104C18.6467 13.1104 17.8837 12.7943 17.3211 12.2317C16.7585 11.6691 16.4424 10.906 16.4424 10.1104ZM2.94238 10.1104C2.94238 9.3147 3.25845 8.55164 3.82106 7.98903C4.38367 7.42642 5.14673 7.11035 5.94238 7.11035C6.73803 7.11035 7.50109 7.42642 8.0637 7.98903C8.62631 8.55164 8.94238 9.3147 8.94238 10.1104C8.94238 10.906 8.62631 11.6691 8.0637 12.2317C7.50109 12.7943 6.73803 13.1104 5.94238 13.1104C5.14673 13.1104 4.38367 12.7943 3.82106 12.2317C3.25845 11.6691 2.94238 10.906 2.94238 10.1104ZM7.00238 15.4774C7.61233 14.5214 8.45346 13.7346 9.448 13.1898C10.4425 12.645 11.5584 12.3597 12.6924 12.3604C13.6422 12.3595 14.5815 12.5592 15.4488 12.9465C16.3161 13.3338 17.0918 13.8999 17.7251 14.6077C18.3585 15.3156 18.8352 16.1492 19.124 17.054C19.4129 17.9588 19.5074 18.9145 19.4014 19.8584C19.3884 19.9756 19.348 20.0882 19.2833 20.1869C19.2187 20.2856 19.1317 20.3676 19.0294 20.4264C17.1009 21.5329 14.9157 22.1136 12.6924 22.1104C10.3874 22.1104 8.22238 21.4984 6.35538 20.4264C6.25307 20.3676 6.16606 20.2856 6.10143 20.1869C6.03679 20.0882 5.99635 19.9756 5.98338 19.8584C5.81544 18.325 6.17484 16.7801 7.00238 15.4784V15.4774Z" fill="#4D5056"/>
<path d="M5.77446 14.6143C4.78822 16.1366 4.32872 17.9406 4.46646 19.7493C3.86597 19.6582 3.27537 19.5109 2.70246 19.3093L2.58746 19.2693C2.48486 19.2328 2.39501 19.1675 2.32881 19.081C2.26261 18.9946 2.22289 18.8908 2.21446 18.7823L2.20446 18.6613C2.16407 18.1592 2.22522 17.6542 2.38427 17.1763C2.54332 16.6984 2.797 16.2575 3.13019 15.8798C3.46337 15.5021 3.86923 15.1953 4.32354 14.9779C4.77785 14.7605 5.27131 14.6368 5.77446 14.6143ZM20.9185 19.7493C21.0562 17.9406 20.5967 16.1366 19.6105 14.6143C20.1136 14.6368 20.6071 14.7605 21.0614 14.9779C21.5157 15.1953 21.9216 15.5021 22.2547 15.8798C22.5879 16.2575 22.8416 16.6984 23.0007 17.1763C23.1597 17.6542 23.2209 18.1592 23.1805 18.6613L23.1705 18.7823C23.1619 18.8906 23.122 18.9942 23.0559 19.0804C22.9897 19.1667 22.8999 19.2319 22.7975 19.2683L22.6825 19.3083C22.1155 19.5083 21.5265 19.6573 20.9185 19.7493Z" fill="#4D5056"/>
</svg>
