<svg width="35" height="35" viewBox="0 0 50 50" fill="currentColor" xmlns="http://www.w3.org/2000/svg">
<path d="M25.6884 5.24211L43.9868 12.5614C44.6984 12.8461 45.2677 13.7 45.2677 14.4523V21.2024C45.2677 22.3206 44.3528 23.2355 43.2346 23.2355H6.63765C5.51942 23.2355 4.60449 22.3206 4.60449 21.2024V14.4523C4.60449 13.7 5.17379 12.8461 5.88539 12.5614L24.1839 5.24211C24.5905 5.07945 25.2817 5.07945 25.6884 5.24211Z" stroke="#909292" stroke-width="1.3618" stroke-miterlimit="10" stroke-linecap="round" stroke-linejoin="round"/>
<path d="M45.2677 45.6009H4.60449V39.5014C4.60449 38.3832 5.51942 37.4683 6.63765 37.4683H43.2346C44.3528 37.4683 45.2677 38.3832 45.2677 39.5014V45.6009Z" stroke="#909292" stroke-width="1.3618" stroke-miterlimit="10" stroke-linecap="round" stroke-linejoin="round"/>
<path d="M8.6709 37.4675V23.2354" stroke="#909292" stroke-width="1.3618" stroke-miterlimit="10" stroke-linecap="round" stroke-linejoin="round"/>
<path d="M16.8027 37.4675V23.2354" stroke="#909292" stroke-width="1.3618" stroke-miterlimit="10" stroke-linecap="round" stroke-linejoin="round"/>
<path d="M24.9365 37.4675V23.2354" stroke="#909292" stroke-width="1.3618" stroke-miterlimit="10" stroke-linecap="round" stroke-linejoin="round"/>
<path d="M33.0693 37.4675V23.2354" stroke="#909292" stroke-width="1.3618" stroke-miterlimit="10" stroke-linecap="round" stroke-linejoin="round"/>
<path d="M41.2012 37.4675V23.2354" stroke="#909292" stroke-width="1.3618" stroke-miterlimit="10" stroke-linecap="round" stroke-linejoin="round"/>
<path d="M2.57129 45.6006H47.3009" stroke="#909292" stroke-width="1.3618" stroke-miterlimit="10" stroke-linecap="round" stroke-linejoin="round"/>
<path d="M24.9355 18.1527C26.6198 18.1527 27.9852 16.7873 27.9852 15.103C27.9852 13.4186 26.6198 12.0532 24.9355 12.0532C23.2512 12.0532 21.8857 13.4186 21.8857 15.103C21.8857 16.7873 23.2512 18.1527 24.9355 18.1527Z" stroke="#909292" stroke-width="1.3618" stroke-miterlimit="10" stroke-linecap="round" stroke-linejoin="round"/>
</svg>
