<svg xmlns="http://www.w3.org/2000/svg" width="59" height="70" viewBox="0 0 59 70" fill="none">
  <g filter="url(#filter0_d_3081_52073)">
    <path d="M24.168 30.832C24.168 28.9464 24.168 28.0036 24.7538 27.4178C25.3395 26.832 26.2824 26.832 28.168 26.832H30.8346C32.7203 26.832 33.6631 26.832 34.2488 27.4178C34.8346 28.0036 34.8346 28.9464 34.8346 30.832V32.1653H24.168V30.832Z" stroke="#79C4EC" stroke-width="1.99999" stroke-linecap="round" stroke-linejoin="round"/>
    <path d="M29.5 20.166L29.5 26.8326" stroke="#79C4EC" stroke-width="1.99999" stroke-linecap="round" stroke-linejoin="round"/>
    <path d="M21.5 32.166H37.5" stroke="#79C4EC" stroke-width="1.99999" stroke-linecap="round" stroke-linejoin="round"/>
    <path d="M30.8821 6.65533L32.29 9.49424C32.4819 9.88943 32.9939 10.2685 33.4258 10.3411L35.9775 10.7685C37.6094 11.0427 37.9933 12.2364 36.8175 13.4139L34.8337 15.414C34.4977 15.7528 34.3137 16.406 34.4177 16.8738L34.9857 19.3498C35.4336 21.3096 34.4017 22.0677 32.6819 21.0435L30.2902 19.616C29.8582 19.3579 29.1463 19.3579 28.7063 19.616L26.3146 21.0435C24.6028 22.0677 23.5629 21.3016 24.0109 19.3498L24.5788 16.8738C24.6828 16.406 24.4988 15.7528 24.1629 15.414L22.1791 13.4139C21.0112 12.2364 21.3872 11.0427 23.019 10.7685L25.5707 10.3411C25.9946 10.2685 26.5066 9.88943 26.6986 9.49424L28.1064 6.65533C28.8743 5.11489 30.1222 5.11489 30.8821 6.65533Z" stroke="#79C4EC" stroke-width="1.99999" stroke-linecap="round" stroke-linejoin="round"/>
  </g>
  <defs>
    <filter id="filter0_d_3081_52073" x="0.498047" y="0.499997" width="58.0039" height="68.666" filterUnits="userSpaceOnUse" color-interpolation-filters="sRGB">
      <feFlood flood-opacity="0" result="BackgroundImageFix"/>
      <feColorMatrix in="SourceAlpha" type="matrix" values="0 0 0 0 0 0 0 0 0 0 0 0 0 0 0 0 0 0 127 0" result="hardAlpha"/>
      <feOffset dy="16"/>
      <feGaussianBlur stdDeviation="10"/>
      <feComposite in2="hardAlpha" operator="out"/>
      <feColorMatrix type="matrix" values="0 0 0 0 0.456424 0 0 0 0 0.687181 0 0 0 0 0.70191 0 0 0 0.15 0"/>
      <feBlend mode="normal" in2="BackgroundImageFix" result="effect1_dropShadow_3081_52073"/>
      <feBlend mode="normal" in="SourceGraphic" in2="effect1_dropShadow_3081_52073" result="shape"/>
    </filter>
  </defs>
</svg>