<svg width="19" height="20" viewBox="0 0 19 20" fill="none" xmlns="http://www.w3.org/2000/svg">
<path d="M9.5 10V15" stroke="#636464" stroke-width="1.5" stroke-linecap="round"/>
<path d="M9.50033 15C8.10562 15 6.89175 15.8434 6.26504 17.0875C5.96571 17.6817 6.39523 18.3333 6.96597 18.3333H12.0347C12.6054 18.3333 13.0349 17.6817 12.7356 17.0875C12.1089 15.8434 10.895 15 9.50033 15Z" stroke="#636464" stroke-width="1.5" stroke-linecap="round"/>
<path d="M3.66699 4.1665H2.82092C1.99881 4.1665 1.58776 4.1665 1.3338 4.47528C1.07983 4.78405 1.15431 5.12981 1.30326 5.82134C1.58777 7.14222 2.20489 8.30267 3.04108 9.1665" stroke="#636464" stroke-width="1.5" stroke-linecap="round"/>
<path d="M15.334 4.1665H16.1801C17.0022 4.1665 17.4132 4.1665 17.6672 4.47528C17.9211 4.78405 17.8467 5.12981 17.6977 5.82134C17.4132 7.14222 16.7961 8.30267 15.9599 9.1665" stroke="#636464" stroke-width="1.5" stroke-linecap="round"/>
<path d="M9.50033 9.99984C12.722 9.99984 15.3337 7.40242 15.3337 4.19835C15.3337 4.11433 15.3319 4.03073 15.3283 3.94758C15.2927 3.11489 15.2749 2.69854 14.7106 2.18252C14.1462 1.6665 13.5209 1.6665 12.2704 1.6665H6.73029C5.47971 1.6665 4.85442 1.6665 4.29009 2.18252C3.72575 2.69854 3.70795 3.11489 3.67234 3.94758C3.66879 4.03073 3.66699 4.11433 3.66699 4.19835C3.66699 7.40242 6.27866 9.99984 9.50033 9.99984Z" stroke="#636464" stroke-width="1.5" stroke-linecap="round"/>
</svg>
