<svg width="16" height="17" viewBox="0 0 16 17" fill="none" xmlns="http://www.w3.org/2000/svg">
<path d="M8.66669 12.5026C8.66669 12.5026 9.33335 12.5026 10 13.8359C10 13.8359 12.1177 10.5026 14 9.83594" stroke="#EBEDED" stroke-linecap="round" stroke-linejoin="round"/>
<path d="M7.33331 15.168H7.1515C4.97736 15.168 3.89029 15.168 3.13536 14.6361C2.91906 14.4837 2.72703 14.303 2.56511 14.0994C1.99998 13.3889 1.99998 12.3657 1.99998 10.3195V8.62251C1.99998 6.64707 1.99998 5.65934 2.3126 4.87047C2.81519 3.60225 3.87807 2.60189 5.22555 2.12887C6.06373 1.83464 7.11319 1.83464 9.2121 1.83464C10.4115 1.83464 11.0112 1.83463 11.4901 2.00277C12.2601 2.27307 12.8675 2.8447 13.1547 3.5694C13.3333 4.02018 13.3333 4.5846 13.3333 5.71342V7.16797" stroke="#EBEDED" stroke-linecap="round" stroke-linejoin="round"/>
<path d="M2.00002 8.50391C2.00002 7.27661 2.99494 6.28168 4.22224 6.28168C4.6661 6.28168 5.18938 6.35946 5.62093 6.24382C6.00437 6.14108 6.30386 5.84158 6.4066 5.45815C6.52224 5.0266 6.44446 4.50332 6.44446 4.05946C6.44446 2.83216 7.43939 1.83724 8.66669 1.83724" stroke="#EBEDED" stroke-linecap="round" stroke-linejoin="round"/>
</svg>
