<svg width="17" height="17" viewBox="0 0 17 17" fill="none" xmlns="http://www.w3.org/2000/svg">
<path d="M9.16675 12.5026C9.16675 12.5026 9.83341 12.5026 10.5001 13.8359C10.5001 13.8359 12.6177 10.5026 14.5001 9.83594" stroke="#141B34" stroke-linecap="round" stroke-linejoin="round"/>
<path d="M7.83325 15.168H7.65143C5.4773 15.168 4.39023 15.168 3.6353 14.6361C3.419 14.4837 3.22697 14.303 3.06505 14.0994C2.49992 13.3889 2.49992 12.3657 2.49992 10.3195V8.62251C2.49992 6.64707 2.49992 5.65934 2.81254 4.87047C3.31513 3.60225 4.37801 2.60189 5.72549 2.12887C6.56367 1.83464 7.61313 1.83464 9.71204 1.83464C10.9114 1.83464 11.5111 1.83463 11.9901 2.00277C12.7601 2.27307 13.3674 2.8447 13.6546 3.5694C13.8333 4.02018 13.8333 4.5846 13.8333 5.71342V7.16797" stroke="#141B34" stroke-linecap="round" stroke-linejoin="round"/>
<path d="M2.50008 8.50391C2.50008 7.27661 3.495 6.28168 4.7223 6.28168C5.16616 6.28168 5.68944 6.35946 6.12099 6.24382C6.50443 6.14108 6.80392 5.84158 6.90667 5.45815C7.0223 5.0266 6.94453 4.50332 6.94453 4.05946C6.94453 2.83216 7.93945 1.83724 9.16675 1.83724" stroke="#141B34" stroke-linecap="round" stroke-linejoin="round"/>
</svg>
