<svg width="86" height="99" viewBox="0 0 86 99" fill="none" xmlns="http://www.w3.org/2000/svg">
<rect x="3.75" y="1.28418" width="78.5" height="78.5" rx="5.65" stroke="#262D2D" stroke-width="1.5"/>
<g filter="url(#filter0_d_368_1286)">
<path d="M47.4626 40.6846C48.2802 37.2464 45.2823 34.2484 41.8441 35.0661C40.2299 35.4644 38.9091 36.7852 38.5109 38.3995C37.6933 41.8377 40.6911 44.8356 44.1293 44.018C45.7645 43.6197 47.0852 42.2989 47.4626 40.6846Z" fill="#A05ED3"/>
<path d="M30.4633 54.5869C30.086 54.5869 29.6876 54.4402 29.3941 54.1676C25.327 50.394 23 45.069 23 39.5344C23 28.507 31.9728 19.5342 43 19.5342C54.0272 19.5342 63 28.507 63 39.5344C63 45.1109 60.7568 50.2682 56.6897 54.1047C56.0608 54.6917 55.0545 54.6708 54.4675 54.0418C53.8805 53.4129 53.9015 52.4066 54.5304 51.8196C57.9685 48.5911 59.8553 44.2514 59.8553 39.5553C59.8553 30.268 52.2872 22.6998 43 22.6998C33.7128 22.6998 26.1447 30.268 26.1447 39.5553C26.1447 44.2933 28.0524 48.654 31.5325 51.8825C32.1614 52.4695 32.2034 53.4758 31.6164 54.1047C31.3019 54.4192 30.8826 54.5869 30.4633 54.5869Z" fill="#A05ED3"/>
<path d="M51.3821 48.9867C51.0047 48.9867 50.6064 48.8399 50.3129 48.5674C49.684 47.9804 49.642 46.9741 50.25 46.3451C51.99 44.5002 52.9544 42.0684 52.9544 39.5526C52.9544 34.0599 48.489 29.6154 43.0173 29.6154C37.5456 29.6154 33.0802 34.0808 33.0802 39.5526C33.0802 42.0893 34.0446 44.5002 35.7846 46.3451C36.3716 46.9741 36.3507 47.9804 35.7217 48.5674C35.0928 49.1753 34.0865 49.1334 33.4995 48.5045C31.2144 46.0726 29.9355 42.886 29.9355 39.5526C29.9355 32.3408 35.8056 26.4707 43.0173 26.4707C50.229 26.4707 56.0991 32.3408 56.0991 39.5526C56.0991 42.886 54.8412 46.0726 52.5351 48.5045C52.2206 48.8189 51.8014 48.9867 51.3821 48.9867Z" fill="#A05ED3"/>
<path d="M39.4354 51.8401L36.4164 55.5928C34.0265 58.5907 36.1649 63.0352 39.9805 63.0352H45.9973C49.8338 63.0352 51.9721 58.5907 49.5612 55.6138L46.5423 51.8611C44.7394 49.555 41.2593 49.555 39.4354 51.8401Z" fill="#A05ED3"/>
</g>
<defs>
<filter id="filter0_d_368_1286" x="0.777779" y="10.6453" width="84.4444" height="87.9454" filterUnits="userSpaceOnUse" color-interpolation-filters="sRGB">
<feFlood flood-opacity="0" result="BackgroundImageFix"/>
<feColorMatrix in="SourceAlpha" type="matrix" values="0 0 0 0 0 0 0 0 0 0 0 0 0 0 0 0 0 0 127 0" result="hardAlpha"/>
<feOffset dy="13.3333"/>
<feGaussianBlur stdDeviation="11.1111"/>
<feComposite in2="hardAlpha" operator="out"/>
<feColorMatrix type="matrix" values="0 0 0 0 0.627451 0 0 0 0 0.368627 0 0 0 0 0.827451 0 0 0 0.25 0"/>
<feBlend mode="normal" in2="BackgroundImageFix" result="effect1_dropShadow_368_1286"/>
<feBlend mode="normal" in="SourceGraphic" in2="effect1_dropShadow_368_1286" result="shape"/>
</filter>
</defs>
</svg>
