<svg width="19" height="20" viewBox="0 0 19 20" fill="none" xmlns="http://www.w3.org/2000/svg">
<path d="M17.2642 5.95132L16.8529 5.23749C16.5418 4.69763 16.3863 4.4277 16.1217 4.32006C15.857 4.21243 15.5577 4.29736 14.9591 4.46723L13.9422 4.75365C13.5601 4.84178 13.1591 4.79178 12.8101 4.61249L12.5294 4.45051C12.2302 4.25886 12 3.97627 11.8726 3.64412L11.5943 2.81296C11.4113 2.26294 11.3198 1.98794 11.102 1.83064C10.8842 1.67334 10.5949 1.67334 10.0163 1.67334L9.08729 1.67334C8.50866 1.67334 8.21934 1.67334 8.00153 1.83064C7.78372 1.98794 7.69223 2.26294 7.50925 2.81296L7.23095 3.64412C7.10355 3.97627 6.87338 4.25886 6.57415 4.45051L6.29341 4.61249C5.94446 4.79178 5.5435 4.84178 5.16133 4.75365L4.14446 4.46723C3.54585 4.29736 3.24655 4.21243 2.9819 4.32006C2.71725 4.4277 2.56171 4.69763 2.25064 5.23749L1.83931 5.95132C1.54772 6.45737 1.40193 6.71039 1.43022 6.97974C1.45852 7.24909 1.6537 7.46614 2.04406 7.90026L2.90326 8.86085C3.11326 9.1267 3.26235 9.59001 3.26235 10.0065C3.26235 10.4233 3.11331 10.8865 2.90328 11.1524L2.04406 12.113C1.6537 12.5471 1.45852 12.7642 1.43022 13.0335C1.40193 13.3029 1.54773 13.5559 1.83931 14.062L2.25062 14.7758C2.5617 15.3156 2.71725 15.5856 2.9819 15.6932C3.24655 15.8008 3.54586 15.7159 4.14448 15.546L5.16129 15.2596C5.54353 15.1714 5.94456 15.2215 6.29356 15.4008L6.57426 15.5628C6.87343 15.7545 7.10354 16.037 7.23092 16.3691L7.50925 17.2004C7.69223 17.7504 7.78372 18.0254 8.00153 18.1827C8.21934 18.34 8.50866 18.34 9.08729 18.34H10.0163C10.5949 18.34 10.8842 18.34 11.102 18.1827C11.3198 18.0254 11.4113 17.7504 11.5943 17.2004L11.8726 16.3691C12 16.037 12.2301 15.7545 12.5293 15.5628L12.81 15.4008C13.159 15.2215 13.56 15.1714 13.9423 15.2596L14.9591 15.546C15.5577 15.7159 15.857 15.8008 16.1217 15.6932C16.3863 15.5856 16.5419 15.3156 16.8529 14.7758L16.8529 14.7758L17.2642 14.062C17.5558 13.5559 17.7016 13.3029 17.6733 13.0335C17.645 12.7642 17.4499 12.5471 17.0595 12.113L16.2003 11.1524C15.9903 10.8865 15.8412 10.4233 15.8412 10.0065C15.8412 9.59001 15.9903 9.1267 16.2003 8.86085L17.0595 7.90026C17.4499 7.46614 17.645 7.24909 17.6733 6.97974C17.7016 6.71039 17.5558 6.45737 17.2642 5.95132Z" stroke="#636464" stroke-width="1.5" stroke-linecap="round"/>
<path d="M12.4329 10.0002C12.4329 11.611 11.1271 12.9168 9.51628 12.9168C7.90545 12.9168 6.59961 11.611 6.59961 10.0002C6.59961 8.38933 7.90545 7.0835 9.51628 7.0835C11.1271 7.0835 12.4329 8.38933 12.4329 10.0002Z" stroke="#636464" stroke-width="1.5"/>
</svg>
