<svg width="33" height="33" viewBox="0 0 33 33" fill="none" xmlns="http://www.w3.org/2000/svg">
<g clip-path="url(#clip0_906_2942)">
<path d="M4.74006 14.6924L20.0288 8.42731C21.538 7.7747 26.6562 5.68634 26.6562 5.68634C26.6562 5.68634 29.0184 4.77269 28.8215 6.99156C28.7559 7.90522 28.231 11.103 27.706 14.5618L26.0656 24.8078C26.0656 24.8078 25.9344 26.3088 24.8189 26.5699C23.7034 26.8309 21.8661 25.6562 21.538 25.3952C21.2756 25.1994 16.6167 22.2626 14.9107 20.8269C14.4514 20.4353 13.9264 19.6522 14.9763 18.7385C17.3385 16.5849 20.1601 13.9092 21.8661 12.2124C22.6535 11.4293 23.4409 9.602 20.1601 11.8209L10.9081 18.0207C10.9081 18.0207 9.85819 18.6733 7.88968 18.0859C5.92117 17.4986 3.62457 16.7155 3.62457 16.7155C3.62457 16.7155 2.04976 15.7365 4.74006 14.6924Z" fill="#9CA3AF"/>
</g>
<defs>
<clipPath id="clip0_906_2942">
<rect width="28" height="28" fill="white" transform="translate(2 2)"/>
</clipPath>
</defs>
</svg>
