<svg width="60" height="60" viewBox="0 0 60 60" fill="none" xmlns="http://www.w3.org/2000/svg">
<g clip-path="url(#clip0_3979_68782)">
<g filter="url(#filter0_d_3979_68782)">
<path d="M52.8015 25.2335C53.3966 23.4658 53.6024 21.5931 53.4052 19.7406C53.208 17.8881 52.6123 16.0985 51.6579 14.4912C50.2429 12.0618 48.0825 10.1384 45.4879 8.99831C42.8934 7.85819 39.9988 7.56026 37.2215 8.14747C35.6437 6.4162 33.6318 5.12494 31.3879 4.40338C29.1441 3.68181 26.7472 3.55535 24.4382 4.03668C22.1291 4.51801 19.989 5.5902 18.233 7.14556C16.4769 8.70091 15.1666 10.6847 14.4338 12.8976C12.5835 13.2719 10.8356 14.0314 9.30675 15.1253C7.7779 16.2193 6.50338 17.6226 5.56836 19.2413C4.13807 21.6667 3.52677 24.4778 3.82285 27.2684C4.11892 30.059 5.30703 32.6844 7.2154 34.7651C6.61811 36.532 6.41023 38.4044 6.60566 40.2569C6.80109 42.1095 7.39532 43.8995 8.34861 45.5072C9.76532 47.9375 11.9277 49.8613 14.5241 51.0014C17.1205 52.1416 20.0168 52.4391 22.7956 51.8512C24.0491 53.2436 25.5894 54.3563 27.3136 55.1148C29.0378 55.8733 30.9062 56.2603 32.794 56.2498C35.6406 56.2524 38.4145 55.3626 40.7151 53.709C43.0157 52.0553 44.7242 49.7234 45.5937 47.0496C47.4438 46.6747 49.1915 45.9149 50.7202 44.821C52.249 43.727 53.5236 42.3241 54.4592 40.7057C55.8726 38.2839 56.4733 35.4833 56.1756 32.7044C55.8779 29.9255 54.6969 27.3104 52.8015 25.2335ZM32.794 52.8137C30.4627 52.8173 28.2044 52.0113 26.4152 50.5369L26.7299 50.3611L37.3264 44.3275C37.5901 44.1749 37.8091 43.9573 37.9618 43.696C38.1145 43.4347 38.1956 43.1388 38.1973 42.8372V28.1003L42.6769 30.6566C42.699 30.6676 42.7182 30.6837 42.7329 30.7035C42.7475 30.7232 42.7572 30.7461 42.7612 30.7703V42.9822C42.7555 45.588 41.7036 48.0855 39.8356 49.9281C37.9676 51.7706 35.4357 52.8082 32.794 52.8137ZM11.3701 43.7894C10.2009 41.7979 9.78114 39.4636 10.1846 37.1969L10.4995 37.3833L21.1064 43.4169C21.3689 43.5688 21.6677 43.6489 21.972 43.6489C22.2763 43.6489 22.5751 43.5688 22.8375 43.4169L35.7947 36.0483V41.1504C35.7935 41.1768 35.7862 41.2027 35.7735 41.226C35.7607 41.2493 35.7428 41.2694 35.7211 41.2849L24.9882 47.3909C22.6976 48.6925 19.9771 49.0443 17.4238 48.369C14.8706 47.6938 12.6934 46.0467 11.3701 43.7894ZM8.57947 21.0215C9.75677 19.0173 11.615 17.4886 13.8253 16.706V29.1249C13.8213 29.4249 13.899 29.7205 14.0503 29.9808C14.2016 30.2411 14.421 30.4566 14.6855 30.6047L27.5797 37.9422L23.0999 40.4983C23.0756 40.511 23.0486 40.5176 23.0211 40.5176C22.9937 40.5176 22.9666 40.511 22.9424 40.4983L12.2306 34.4029C9.94433 33.0956 8.27642 30.948 7.5921 28.4303C6.90778 25.9126 7.26282 23.2299 8.57947 20.9699V21.0215ZM45.384 29.4561L32.4478 22.0461L36.9173 19.4999C36.9415 19.4872 36.9685 19.4806 36.996 19.4806C37.0234 19.4806 37.0505 19.4872 37.0747 19.4999L47.7865 25.6059C49.4244 26.5381 50.7596 27.9106 51.6363 29.5633C52.5129 31.2159 52.8949 33.0805 52.7376 34.9392C52.5803 36.798 51.8902 38.5743 50.7479 40.0607C49.6056 41.5471 48.0582 42.6823 46.2863 43.3337V30.9149C46.277 30.6154 46.1889 30.3234 46.0307 30.0676C45.8725 29.8118 45.6497 29.6012 45.384 29.4561ZM49.8429 22.843L49.528 22.6567L38.9422 16.5715C38.6781 16.4186 38.3775 16.3381 38.0713 16.3381C37.7651 16.3381 37.4645 16.4186 37.2004 16.5715L24.2541 23.9399V18.838C24.2514 18.812 24.2558 18.7858 24.2669 18.7622C24.2779 18.7385 24.2953 18.7182 24.3171 18.7034L35.0289 12.6078C36.6707 11.6748 38.5478 11.2223 40.4407 11.303C42.3336 11.3838 44.1641 11.9945 45.718 13.0638C47.272 14.1331 48.4851 15.6167 49.2156 17.3411C49.9462 19.0656 50.1638 20.9595 49.8432 22.8015L49.8429 22.843ZM21.8092 31.8877L17.3296 29.3419C17.3072 29.3286 17.288 29.3106 17.2734 29.2891C17.2589 29.2677 17.2493 29.2433 17.2453 29.2178V17.0372C17.2478 15.1686 17.7895 13.3393 18.8071 11.7632C19.8247 10.187 21.2761 8.92925 22.9917 8.13683C24.7073 7.34442 26.6162 7.05013 28.4951 7.28839C30.374 7.52665 32.1453 8.2876 33.6019 9.48227L33.287 9.65837L22.6907 15.6915C22.427 15.8441 22.208 16.0617 22.0553 16.323C21.9026 16.5843 21.8215 16.8802 21.8198 17.1818L21.8092 31.8877ZM24.2433 26.7134L30.0135 23.4326L35.7947 26.7134V33.2746L30.0346 36.5551L24.2539 33.2746L24.2433 26.7134Z" fill="#22C55E"/>
</g>
</g>
<defs>
<filter id="filter0_d_3979_68782" x="-33.75" y="-3.75001" width="127.5" height="127.5" filterUnits="userSpaceOnUse" color-interpolation-filters="sRGB">
<feFlood flood-opacity="0" result="BackgroundImageFix"/>
<feColorMatrix in="SourceAlpha" type="matrix" values="0 0 0 0 0 0 0 0 0 0 0 0 0 0 0 0 0 0 127 0" result="hardAlpha"/>
<feOffset dy="30"/>
<feGaussianBlur stdDeviation="18.75"/>
<feComposite in2="hardAlpha" operator="out"/>
<feColorMatrix type="matrix" values="0 0 0 0 0.456424 0 0 0 0 0.687181 0 0 0 0 0.70191 0 0 0 0.15 0"/>
<feBlend mode="normal" in2="BackgroundImageFix" result="effect1_dropShadow_3979_68782"/>
<feBlend mode="normal" in="SourceGraphic" in2="effect1_dropShadow_3979_68782" result="shape"/>
</filter>
<clipPath id="clip0_3979_68782">
<rect width="60" height="60" fill="white"/>
</clipPath>
</defs>
</svg>
