<svg width="60" height="60" viewBox="0 0 60 60" fill="none" xmlns="http://www.w3.org/2000/svg">
<g clip-path="url(#clip0_3977_68749)">
<g filter="url(#filter0_d_3977_68749)">
<path d="M27.6 48.4H26.4C17.3794 48.4 12.8691 48.4 9.85789 46.0219C9.37627 45.6415 8.93085 45.2223 8.52672 44.769C6 41.9349 6 37.69 6 29.2C6 20.71 6 16.4651 8.52672 13.631C8.93085 13.1777 9.37627 12.7584 9.85789 12.3781C12.8691 10 17.3794 10 26.4 10H33.6C42.6206 10 47.1309 10 50.1421 12.3781C50.6237 12.7584 51.0691 13.1777 51.4733 13.631C53.7498 16.1844 53.9752 19.8832 53.9975 26.8" stroke="#DCFCE7" stroke-width="3" stroke-linecap="round" stroke-linejoin="round"/>
<path d="M6 22H54" stroke="#DCFCE7" stroke-width="3" stroke-linejoin="round"/>
<path d="M34.8008 43.6C34.8008 43.6 37.2008 43.6 39.6008 48.4C39.6008 48.4 47.2243 36.4 54.0008 34" stroke="#DCFCE7" stroke-width="3" stroke-linecap="round" stroke-linejoin="round"/>
</g>
</g>
<defs>
<filter id="filter0_d_3977_68749" x="-35.5" y="0.499994" width="131.001" height="121.4" filterUnits="userSpaceOnUse" color-interpolation-filters="sRGB">
<feFlood flood-opacity="0" result="BackgroundImageFix"/>
<feColorMatrix in="SourceAlpha" type="matrix" values="0 0 0 0 0 0 0 0 0 0 0 0 0 0 0 0 0 0 127 0" result="hardAlpha"/>
<feOffset dy="32"/>
<feGaussianBlur stdDeviation="20"/>
<feComposite in2="hardAlpha" operator="out"/>
<feColorMatrix type="matrix" values="0 0 0 0 0.456424 0 0 0 0 0.687181 0 0 0 0 0.70191 0 0 0 0.15 0"/>
<feBlend mode="normal" in2="BackgroundImageFix" result="effect1_dropShadow_3977_68749"/>
<feBlend mode="normal" in="SourceGraphic" in2="effect1_dropShadow_3977_68749" result="shape"/>
</filter>
<clipPath id="clip0_3977_68749">
<rect width="60" height="60" fill="white"/>
</clipPath>
</defs>
</svg>
