<svg width="120" height="120" viewBox="0 0 120 120" fill="none" xmlns="http://www.w3.org/2000/svg">
<g clip-path="url(#clip0_3788_21376)">
<path d="M82.8044 39.7305H106.99V99H82.8044V73.0908H36.1857V99H12V39.7305H36.1857V61.4062H82.8044V39.7305Z" fill="#F2F1F1"/>
<path d="M33.9294 66.3394H85.0548V86.1605H33.9294V66.3394Z" fill="#F2F1F1"/>
<path d="M31.2624 26.652C31.2624 25.1874 32.6391 24 34.3374 24H86.6125C88.3107 24 89.6875 25.1874 89.6875 26.652V43.2272C89.6875 44.6919 88.3107 45.8792 86.6125 45.8792H34.3374C32.6391 45.8792 31.2624 44.6919 31.2624 43.2272V26.652Z" fill="#F2F1F1"/>
<path d="M120.059 80.3894V51.3829H131.252V78.0225C131.252 80.0955 131.844 81.9828 133.028 83.6846C134.212 85.3863 135.79 86.7476 137.763 87.7687C139.736 88.7588 141.907 89.2538 144.275 89.2538C146.678 89.2538 148.849 88.7588 150.786 87.7687C152.759 86.7476 154.32 85.3863 155.468 83.6846C156.651 81.9828 157.243 80.0955 157.243 78.0225V51.3829H168.436L168.49 97.7933H157.297L157.243 92.781C155.414 94.6993 153.136 96.2154 150.409 97.3292C147.683 98.4431 144.759 99 141.638 99C137.656 99 134.032 98.1646 130.768 96.4938C127.503 94.8231 124.902 92.5799 122.965 89.7643C121.028 86.9488 120.059 83.8238 120.059 80.3894Z" fill="#F2F1F1"/>
<path d="M220.466 28.1777H231.659V97.7933H220.466V90.971C218.709 93.3843 216.412 95.3336 213.578 96.8187C210.744 98.2729 207.426 99 203.623 99C199.713 99 196.053 98.3657 192.645 97.0972C189.237 95.8286 186.224 94.0805 183.605 91.8528C181.022 89.5942 178.995 86.9952 177.524 84.0558C176.053 81.1165 175.318 77.9606 175.318 74.5881C175.318 71.2156 176.053 68.0597 177.524 65.1204C178.995 62.1501 181.022 59.5511 183.605 57.3234C186.224 55.0648 189.237 53.3012 192.645 52.0326C196.053 50.7641 199.713 50.1298 203.623 50.1298C207.426 50.1298 210.744 50.8724 213.578 52.3575C216.412 53.8117 218.709 55.73 220.466 58.1124V28.1777ZM203.731 89.6715C206.888 89.6715 209.65 89.0063 212.018 87.6759C214.386 86.3145 216.215 84.489 217.507 82.1994C218.834 79.9098 219.498 77.3727 219.498 74.5881C219.498 71.7725 218.834 69.22 217.507 66.9304C216.179 64.6408 214.332 62.8308 211.964 61.5004C209.632 60.139 206.888 59.4583 203.731 59.4583C200.61 59.4583 197.757 60.139 195.174 61.5004C192.627 62.8617 190.582 64.6872 189.04 66.9768C187.533 69.2664 186.78 71.8035 186.78 74.5881C186.78 77.4037 187.551 79.9563 189.094 82.2458C190.672 84.5045 192.735 86.3145 195.282 87.6759C197.865 89.0063 200.681 89.6715 203.731 89.6715Z" fill="#F2F1F1"/>
<path d="M285.681 51.3829H296.874V97.7933H285.627L285.197 91.0638C283.618 93.4462 281.484 95.3645 278.793 96.8187C276.103 98.2729 272.928 99 269.268 99C265.322 99 261.609 98.3657 258.129 97.0972C254.649 95.7977 251.582 94.0031 248.927 91.7136C246.308 89.424 244.264 86.7941 242.793 83.8238C241.322 80.8226 240.586 77.6048 240.586 74.1704C240.586 70.8598 241.304 67.7503 242.739 64.8419C244.174 61.9026 246.165 59.3345 248.712 57.1378C251.259 54.941 254.201 53.2238 257.537 51.9862C260.91 50.7177 264.515 50.0834 268.354 50.0834C272.264 50.0834 275.708 50.8569 278.686 52.4039C281.699 53.92 284.192 55.8692 286.166 58.2516L285.681 51.3829ZM268.999 89.6715C272.156 89.6715 274.919 89.0063 277.287 87.6759C279.654 86.3145 281.484 84.489 282.775 82.1994C284.103 79.9098 284.766 77.3727 284.766 74.5881C284.766 71.7725 284.103 69.22 282.775 66.9304C281.448 64.6408 279.6 62.8308 277.233 61.5004C274.901 60.139 272.156 59.4583 268.999 59.4583C265.878 59.4583 263.026 60.139 260.443 61.5004C257.86 62.8617 255.815 64.6872 254.309 66.9768C252.802 69.2664 252.048 71.8035 252.048 74.5881C252.048 77.4037 252.82 79.9563 254.362 82.2458C255.941 84.5045 258.004 86.3145 260.551 87.6759C263.134 89.0063 265.95 89.6715 268.999 89.6715Z" fill="#F2F1F1"/>
<path d="M304.514 97.7933L324.209 74.4953L304.622 51.2901H318.451L331.097 66.2342L343.797 51.2901H357.573L338.039 74.4953L357.735 97.7933H343.905L331.097 82.6635L318.344 97.7933H304.514Z" fill="#F2F1F1"/>
<path d="M366.47 51.3829H377.663V97.7933H366.47V51.3829ZM372.174 44.6534C370.452 44.6534 369.017 44.1738 367.869 43.2147C366.721 42.2555 366.147 41.0488 366.147 39.5946C366.147 38.1714 366.721 36.9802 367.869 36.021C369.017 35.0309 370.434 34.5359 372.12 34.5359C373.77 34.5359 375.17 35.0309 376.318 36.021C377.466 36.9802 378.04 38.1714 378.04 39.5946C378.04 41.0488 377.466 42.2555 376.318 43.2147C375.205 44.1738 373.824 44.6534 372.174 44.6534Z" fill="#F2F1F1"/>
<path d="M413.27 99C408.319 99 403.799 97.9016 399.709 95.7049C395.655 93.5081 392.409 90.5688 389.969 86.8869C387.566 83.174 386.364 79.0745 386.364 74.5881C386.364 71.1847 387.063 68.0133 388.462 65.074C389.862 62.1037 391.781 59.5047 394.22 57.277C396.696 55.0184 399.566 53.2548 402.83 51.9862C406.095 50.7177 409.575 50.0834 413.27 50.0834C418.221 50.0834 422.723 51.1818 426.777 53.3785C430.867 55.5753 434.113 58.5301 436.517 62.2429C438.957 65.9558 440.176 70.0708 440.176 74.5881C440.176 77.9606 439.477 81.1165 438.078 84.0558C436.678 86.9952 434.741 89.5942 432.266 91.8528C429.826 94.0805 426.974 95.8286 423.71 97.0972C420.481 98.3657 417.001 99 413.27 99ZM413.27 89.3466C416.248 89.3466 418.92 88.6659 421.288 87.3046C423.656 85.9432 425.521 84.1487 426.885 81.921C428.284 79.6623 428.983 77.218 428.983 74.5881C428.983 71.8963 428.266 69.4211 426.831 67.1624C425.432 64.9038 423.548 63.1093 421.18 61.7788C418.813 60.4175 416.176 59.7368 413.27 59.7368C410.328 59.7368 407.656 60.4175 405.252 61.7788C402.884 63.1402 401.001 64.9502 399.602 67.2089C398.238 69.4675 397.557 71.9272 397.557 74.5881C397.557 77.3418 398.274 79.8325 399.709 82.0602C401.144 84.2879 403.046 86.067 405.413 87.3974C407.817 88.6969 410.436 89.3466 413.27 89.3466Z" fill="#F2F1F1"/>
<path d="M445.667 80.3894V51.3829H456.86V78.0225C456.86 80.0955 457.452 81.9828 458.636 83.6846C459.82 85.3863 461.398 86.7476 463.371 87.7687C465.344 88.7588 467.515 89.2538 469.882 89.2538C472.286 89.2538 474.457 88.7588 476.394 87.7687C478.367 86.7476 479.927 85.3863 481.075 83.6846C482.259 81.9828 482.851 80.0955 482.851 78.0225V51.3829H494.044L494.098 97.7933H482.905L482.851 92.781C481.022 94.6993 478.744 96.2154 476.017 97.3292C473.291 98.4431 470.367 99 467.246 99C463.264 99 459.64 98.1646 456.376 96.4938C453.111 94.8231 450.51 92.5799 448.573 89.7643C446.635 86.9488 445.667 83.8238 445.667 80.3894Z" fill="#F2F1F1"/>
<path d="M521.034 98.6751C518.2 98.5204 515.437 98.0254 512.747 97.19C510.056 96.3546 507.688 95.2253 505.643 93.802C503.634 92.3478 502.128 90.6461 501.123 88.6969L510.648 85.1697C511.114 86.0051 511.922 86.825 513.07 87.6294C514.253 88.4339 515.635 89.0991 517.213 89.6251C518.792 90.1201 520.442 90.3677 522.164 90.3677C523.85 90.3677 525.411 90.1665 526.846 89.7643C528.316 89.3312 529.518 88.6814 530.451 87.8151C531.384 86.9488 531.85 85.9123 531.85 84.7056C531.85 83.3442 531.312 82.2922 530.236 81.5497C529.195 80.7762 527.886 80.1883 526.307 79.7861C524.729 79.3838 523.15 78.9971 521.572 78.6258C518.056 77.9451 514.827 77.0169 511.886 75.8412C508.98 74.6345 506.666 73.103 504.944 71.2466C503.222 69.3592 502.361 67.0541 502.361 64.3314C502.361 61.3611 503.294 58.7931 505.159 56.6273C507.025 54.4305 509.464 52.7443 512.478 51.5685C515.527 50.3928 518.774 49.8049 522.218 49.8049C526.523 49.8049 530.469 50.5939 534.056 52.1719C537.644 53.7498 540.388 55.9156 542.29 58.6693L533.411 63.2175C532.873 62.2893 532.065 61.454 530.989 60.7114C529.913 59.9688 528.693 59.381 527.33 58.9478C525.967 58.4837 524.55 58.2207 523.079 58.1588C521.249 58.0969 519.545 58.2826 517.967 58.7157C516.424 59.118 515.186 59.7677 514.253 60.665C513.321 61.5622 512.854 62.707 512.854 64.0994C512.854 65.4607 513.41 66.4817 514.523 67.1624C515.635 67.8122 517.034 68.3382 518.72 68.7404C520.442 69.1426 522.2 69.5913 523.994 70.0863C527.186 70.9526 530.182 72.0201 532.98 73.2886C535.778 74.5262 538.039 76.0578 539.761 77.8833C541.483 79.7087 542.308 81.9364 542.236 84.5664C542.236 87.4747 541.214 90.0273 539.169 92.2241C537.16 94.4208 534.541 96.0916 531.312 97.2364C528.083 98.3812 524.657 98.8608 521.034 98.6751Z" fill="#F2F1F1"/>
</g>
<defs>
<clipPath id="clip0_3788_21376">
<rect width="120" height="120" fill="white"/>
</clipPath>
</defs>
</svg>
