<svg width="494" height="73" viewBox="0 0 494 73" fill="none" xmlns="http://www.w3.org/2000/svg">
<path d="M54.3546 53.6205C55.0516 55.3049 56.0391 56.9313 57.3169 58.4995C58.5947 60.0097 59.6983 61.1423 60.6276 61.8974C59.2336 64.8015 57.5202 66.9216 55.4873 68.2575C53.8029 69.3611 52.0023 70 50.0855 70.1742C49.04 70.2904 47.8493 70.2033 46.5134 69.9129C45.1775 69.6225 43.7835 68.8093 42.3314 67.4734C40.9374 66.0794 39.5434 63.8722 38.1494 60.8519C37.7428 59.8645 36.8425 59.1675 35.4485 58.7609C34.0545 58.3543 32.5734 58.122 31.0052 58.0639C29.4369 57.9477 28.1591 57.8896 27.1717 57.8896C26.1843 57.8896 24.9645 57.9187 23.5124 57.9768C22.1184 58.0348 20.8406 58.2672 19.6789 58.6738C18.5173 59.0803 17.8203 59.8064 17.5879 60.8519C17.3556 61.7812 17.3266 62.7396 17.5008 63.727C17.6751 64.7144 18.0526 65.3533 18.6334 65.6438C17.646 66.5731 16.6586 67.3863 15.6712 68.0833C14.7419 68.7803 13.7835 69.332 12.7961 69.7386C11.5763 70.2614 10.2985 70.5227 8.96258 70.5227C7.68475 70.5227 6.23267 70.2323 4.60634 69.6515C3.85126 69.3611 3.06713 68.8383 2.25397 68.0833C1.4408 67.3282 0.889011 66.2827 0.598594 64.9468C0.308178 63.6108 0.540511 61.9264 1.29559 59.8935C1.35368 59.7193 1.64409 58.7899 2.16684 57.1055C2.68959 55.4211 3.35755 53.2139 4.17071 50.484C5.04196 47.696 5.9713 44.6176 6.95871 41.2488C8.00421 37.88 9.04971 34.424 10.0952 30.8809C11.1988 27.2798 12.2443 23.8238 13.2317 20.5131C14.2772 17.2023 15.2065 14.211 16.0197 11.5392C16.8329 8.86738 17.4718 6.74734 17.9364 5.17909C18.4011 3.61084 18.6334 2.82672 18.6334 2.82672C19.1562 2.5363 20.1146 2.1878 21.5086 1.78122C22.9606 1.31655 24.4999 1.05518 26.1262 0.997092C27.9268 0.880927 29.6693 1.11326 31.3537 1.69409C33.0962 2.27492 34.4321 3.43659 35.3614 5.17909C35.768 5.87609 36.3779 7.212 37.191 9.18683C38.0042 11.1617 38.9626 13.5431 40.0662 16.3311C41.1697 19.1191 42.3314 22.1104 43.5512 25.3049C44.7709 28.4414 45.9616 31.5779 47.1233 34.7144C48.343 37.7928 49.4466 40.668 50.434 43.3398C51.4214 46.0116 52.2637 48.2769 52.9606 50.1355C53.6576 51.9361 54.1223 53.0978 54.3546 53.6205ZM26.9103 42.3814C28.4205 42.2652 29.2917 41.8296 29.5241 41.0745C29.8145 40.3195 29.9887 39.4482 30.0468 38.4608C30.0468 37.8219 29.9306 37.0378 29.6983 36.1084C29.5241 35.1791 29.2336 34.3659 28.8271 33.6689C28.4786 32.9138 28.0139 32.5363 27.4331 32.5363C26.6199 32.5363 25.7196 33.1171 24.7322 34.2788C23.8029 35.3824 23.2801 36.515 23.1639 37.6767C22.9897 38.7802 23.0768 39.8548 23.4253 40.9003C23.8319 41.9458 24.9936 42.4395 26.9103 42.3814ZM112.339 58.9351C112.339 59.4579 112.426 60.242 112.6 61.2875C112.775 62.333 113.007 63.4076 113.297 64.5111C113.646 65.6147 113.994 66.6021 114.343 67.4734C114.691 68.2865 115.04 68.7803 115.388 68.9545C114.575 69.9419 113.268 70.726 111.468 71.3069C109.667 71.9458 107.867 72.062 106.066 71.6554C104.672 71.2488 103.423 70.8712 102.32 70.5227C101.216 70.1742 99.7059 70.029 97.7891 70.0871C96.3951 70.1452 95.0011 70.2904 93.6071 70.5227C92.2712 70.7551 90.9063 71.0165 89.5123 71.3069C88.8153 71.423 87.5955 71.4521 85.853 71.394C84.1686 71.394 82.3099 71.1907 80.277 70.7841C78.3022 70.3775 76.4726 69.6805 74.7882 68.6931C72.581 67.3572 70.9256 65.4114 69.822 62.8558C68.7185 60.3001 68.0795 57.6864 67.9053 55.0145C67.9053 54.3756 67.8762 53.1268 67.8182 51.2682C67.8182 49.4095 67.7891 47.2023 67.731 44.6467C67.731 42.091 67.702 39.4482 67.6439 36.7183C67.6439 33.9884 67.6149 31.4618 67.5568 29.1384C67.5568 26.757 67.5568 24.8403 67.5568 23.3882C67.5568 21.878 67.5568 21.1229 67.5568 21.1229C68.0795 21.0649 68.9508 21.0068 70.1705 20.9487C71.4484 20.8325 72.8424 20.8325 74.3525 20.9487C75.8627 21.0649 77.3148 21.3553 78.7088 21.8199C80.1609 22.2265 81.3806 22.8945 82.368 23.8238C83.4135 24.7531 84.0234 26.0019 84.1976 27.5702C84.3138 28.848 84.4009 30.0097 84.459 31.0552C84.5171 32.1007 84.5461 33.2623 84.5461 34.5402C84.5461 35.7599 84.4881 37.2991 84.3719 39.1578C84.3138 40.9584 84.2267 43.2527 84.1105 46.0407C83.9943 48.3059 83.9363 50.2517 83.9363 51.878C83.9943 53.5044 84.4009 54.7241 85.156 55.5373C85.9111 56.3504 87.247 56.6989 89.1638 56.5828C90.4416 56.5247 91.4871 56.031 92.3003 55.1016C93.1715 54.1142 93.8685 52.9235 94.3913 51.5295C94.914 50.1355 95.2625 48.7125 95.4367 47.2604C95.6691 45.8083 95.7853 44.5305 95.7853 43.4269C95.7853 43.1946 95.7562 42.2943 95.6981 40.726C95.6981 39.1578 95.6691 37.2991 95.611 35.15C95.611 32.9429 95.582 30.7648 95.5239 28.6157C95.5239 26.4666 95.5239 24.6951 95.5239 23.3011C95.5239 21.849 95.5239 21.1229 95.5239 21.1229C96.0466 21.0649 96.9179 21.0649 98.1376 21.1229C99.3574 21.1229 100.722 21.2391 102.232 21.4714C103.743 21.7038 105.224 22.1104 106.676 22.6912C108.128 23.272 109.348 24.0852 110.335 25.1307C111.381 26.1181 111.99 27.3959 112.165 28.9642C112.513 32.333 112.571 36.4569 112.339 41.3359C112.165 46.1568 112.165 52.0232 112.339 58.9351ZM170.53 59.1965C171.518 60.3582 172.97 61.1713 174.886 61.636C174.596 62.8558 174.219 64.1626 173.754 65.5566C173.347 66.9506 172.679 68.1704 171.75 69.2159C170.879 70.2614 169.601 70.9293 167.916 71.2197C167.161 71.394 166.203 71.3359 165.041 71.0455C163.88 70.7551 162.486 70.4066 160.859 70C159.814 69.7096 158.478 69.6515 156.852 69.8258C155.225 69.9419 153.686 70.1162 152.234 70.3485C150.84 70.5808 149.911 70.7551 149.446 70.8712C148.807 71.0455 148.168 71.1326 147.529 71.1326C146.89 71.1907 146.251 71.2197 145.613 71.2197C142.592 71.2197 139.601 70.697 136.639 69.6515C133.734 68.5479 131.121 66.8635 128.797 64.5983C126.474 62.333 124.703 59.4579 123.483 55.9729C122.321 52.4879 122.002 48.3059 122.524 43.4269C122.873 40.0581 123.773 36.9216 125.225 34.0174C126.735 31.1133 128.594 28.5866 130.801 26.4376C133.008 24.2304 135.361 22.546 137.858 21.3843C140.414 20.1646 142.912 19.5547 145.351 19.5547C145.874 19.5547 146.368 19.5547 146.832 19.5547C147.355 19.5547 147.849 19.5256 148.313 19.4676C149.359 19.2933 150.375 18.7125 151.363 17.7251C152.35 16.7377 153.018 15.5179 153.367 14.0658C153.541 13.2527 153.657 12.2943 153.715 11.1907C153.773 10.0871 153.802 9.41917 153.802 9.18683C153.977 7.85092 154.47 6.71829 155.283 5.78896C156.097 4.80155 157.055 4.01742 158.158 3.43659C159.669 2.62342 161.324 2.04259 163.125 1.69409C164.925 1.34559 166.581 1.17134 168.091 1.17134C169.659 1.11326 170.821 1.17134 171.576 1.34559C171.518 1.69409 171.401 2.94288 171.227 5.09196C171.053 7.24104 170.85 9.94192 170.617 13.1946C170.385 16.4472 170.153 20.0194 169.92 23.9109C169.688 27.7444 169.485 31.607 169.31 35.4985C169.194 39.3901 169.136 43.0203 169.136 46.3892C169.136 49.758 169.252 52.575 169.485 54.8403C169.717 57.1055 170.066 58.5576 170.53 59.1965ZM138.12 46.302C137.946 48.5673 138.207 50.455 138.904 51.9651C139.659 53.4172 140.588 54.5208 141.692 55.2759C142.854 55.9729 143.986 56.3504 145.09 56.4085C147.181 56.4666 148.778 55.9439 149.882 54.8403C151.043 53.6786 151.827 52.1684 152.234 50.3098C152.641 48.393 152.844 46.3601 152.844 44.211C152.844 40.9584 152.205 38.606 150.927 37.1539C149.649 35.7018 147.645 35.0629 144.916 35.2372C143.173 35.3533 141.663 36.1955 140.385 37.7638C139.165 39.332 138.41 42.1781 138.12 46.302ZM227.278 54.2304C227.337 55.5082 227.424 57.0765 227.54 58.9351C227.714 60.7938 228.092 62.5944 228.672 64.3369C229.253 66.0794 230.183 67.4734 231.46 68.5189C230.008 69.5063 228.527 70.2033 227.017 70.6099C225.507 71.0745 224.026 71.1907 222.574 70.9584C222.167 70.8422 221.732 70.697 221.267 70.5227C220.802 70.4066 220.163 70.2323 219.35 70C218.014 69.5934 216.446 69.5063 214.645 69.7386C212.845 69.971 210.957 70.2614 208.982 70.6099C207.066 71.0165 205.178 71.2197 203.319 71.2197C200.299 71.2197 197.278 70.697 194.258 69.6515C191.238 68.5479 188.508 66.8635 186.068 64.5983C183.629 62.333 181.77 59.4579 180.492 55.9729C179.215 52.4879 178.837 48.3059 179.36 43.4269C179.708 40.0581 180.667 36.9797 182.235 34.1917C183.803 31.3456 185.72 28.9061 187.985 26.8732C190.308 24.7822 192.748 23.1849 195.304 22.0813C197.917 20.9196 200.444 20.3679 202.884 20.4259C204.742 20.484 206.165 20.5421 207.153 20.6002C208.198 20.6583 209.534 20.8035 211.16 21.0358C212.148 21.152 213.397 21.0068 214.907 20.6002C216.417 20.1936 217.927 19.758 219.437 19.2933C221.005 18.7706 222.341 18.5092 223.445 18.5092C225.129 18.4511 226.32 18.5092 227.017 18.6834C227.714 18.7996 228.295 18.9158 228.76 19.0319C228.411 20.0774 228.121 21.6457 227.888 23.7367C227.656 25.8277 227.482 28.2091 227.366 30.8809C227.308 33.4947 227.249 36.2246 227.191 39.0707C227.133 41.9167 227.104 44.6467 227.104 47.2604C227.162 49.8742 227.22 52.1975 227.278 54.2304ZM194.52 46.2149C194.636 49.1191 195.158 51.3843 196.088 53.0106C197.075 54.5789 198.237 55.6825 199.573 56.3214C200.967 56.9603 202.303 57.2798 203.581 57.2798C206.136 57.3379 208.024 56.3504 209.244 54.3175C210.463 52.2846 211.044 49.4676 210.986 45.8664C210.986 44.879 210.87 43.7173 210.638 42.3814C210.463 41.0455 210.115 39.7386 209.592 38.4608C209.127 37.183 208.46 36.1084 207.588 35.2372C206.775 34.3659 205.701 33.9303 204.365 33.9303C201.693 33.9303 199.34 34.9177 197.308 36.8925C195.333 38.8674 194.403 41.9748 194.52 46.2149ZM301.046 64.424C301.395 64.9468 301.278 65.6147 300.698 66.4279C300.117 67.241 299.304 68.0542 298.258 68.8674C297.213 69.6225 296.138 70.1742 295.034 70.5227C293.989 70.8712 292.595 70.7841 290.852 70.2614C289.11 69.7386 287.309 68.8964 285.451 67.7348C283.65 66.515 282.14 65.121 280.92 63.5528C280.688 63.2623 280.31 62.7686 279.788 62.0716C279.323 61.3166 278.8 60.5615 278.219 59.8064C277.871 59.2836 277.377 58.6447 276.738 57.8896C276.099 57.1346 275.257 56.4956 274.212 55.9729C273.166 55.3921 271.859 55.1307 270.291 55.1888C267.968 55.3049 265.935 56.1181 264.192 57.6283C262.45 59.0803 260.823 60.6196 259.313 62.2459C257.803 63.8722 256.845 65.2372 256.438 66.3408C256.031 67.3863 255.973 68.3446 256.264 69.2159C255.102 69.8548 253.766 70.2614 252.256 70.4356C250.804 70.668 249.381 70.697 247.987 70.5227C246.593 70.3485 245.431 70.029 244.502 69.5644C244.153 69.3901 243.573 69.0416 242.759 68.5189C241.946 67.9961 241.133 67.4153 240.32 66.7764C239.565 66.0794 238.984 65.3533 238.577 64.5983C238.229 63.8432 238.287 63.1171 238.752 62.4201C239.333 61.607 240.262 60.4163 241.54 58.848C242.876 57.2798 244.299 55.5954 245.809 53.7948C247.377 51.9361 248.858 50.1936 250.252 48.5673C251.646 46.9409 252.721 45.6922 253.476 44.8209C254.986 43.0203 256.002 41.3069 256.525 39.6805C257.048 37.9961 257.338 36.1665 257.396 34.1917C257.455 30.9971 256.641 27.9477 254.957 25.0436C254.55 24.4046 253.795 23.243 252.692 21.5586C251.646 19.8741 250.397 17.9864 248.945 15.8954C247.551 13.7464 246.186 11.6844 244.85 9.70958C243.573 7.67667 242.498 6.02129 241.627 4.74347C240.756 3.40755 240.32 2.73959 240.32 2.73959C241.133 2.39109 242.382 2.04259 244.066 1.69409C245.809 1.34559 247.755 1.1423 249.904 1.08422C252.053 1.02613 254.115 1.25847 256.09 1.78122C258.122 2.24588 259.836 3.17522 261.23 4.56921C261.462 4.80155 261.898 5.35334 262.537 6.22458C263.176 7.03775 263.873 7.96708 264.628 9.01258C265.441 10 266.109 10.9293 266.632 11.8006C267.445 13.0784 268.49 14.153 269.768 15.0242C271.104 15.8954 272.44 16.3892 273.776 16.5053C274.938 16.6215 276.07 16.5344 277.174 16.2439C278.277 15.8954 279.41 15.1694 280.572 14.0658C281.966 12.9042 283.185 11.394 284.231 9.53533C285.276 7.61858 286.119 5.78896 286.758 4.04646C287.455 2.24588 287.832 0.968051 287.89 0.212968C290.794 1.37464 293.06 2.8848 294.686 4.74347C296.312 6.60213 297.358 8.63504 297.822 10.8422C298.287 12.9913 298.287 15.1113 297.822 17.2023C297.416 19.2352 296.632 21.0649 295.47 22.6912C295.18 23.0978 294.454 23.94 293.292 25.2178C292.188 26.4956 290.94 27.9187 289.546 29.4869C288.21 30.9971 286.99 32.3621 285.886 33.5818C285.131 34.395 284.754 35.4695 284.754 36.8054C284.754 38.4318 285.276 40.0871 286.322 41.7715C287.484 43.514 288.761 45.5179 290.155 47.7832C291.607 49.9903 293.06 52.2265 294.512 54.4918C295.964 56.6989 297.271 58.7028 298.432 60.5034C299.594 62.2459 300.465 63.5528 301.046 64.424ZM317.929 18.1607C315.954 18.2188 314.183 17.667 312.615 16.5053C311.104 15.3437 309.943 13.9206 309.13 12.2362C308.375 10.4937 308.084 8.83833 308.258 7.27009C308.549 4.88867 309.623 3.20426 311.482 2.21684C313.341 1.22943 315.286 0.706678 317.319 0.648592C320.223 0.532427 322.489 1.28751 324.115 2.91384C325.741 4.54017 326.555 6.39884 326.555 8.48983C326.555 9.88383 326.235 11.3069 325.596 12.759C325.015 14.211 324.086 15.4598 322.808 16.5053C321.53 17.4927 319.904 18.0445 317.929 18.1607ZM327.164 61.2004C327.223 62.2459 327.542 63.1462 328.123 63.9013C328.762 64.5983 329.517 65.2662 330.388 65.9051C329.981 66.4279 329.459 66.9797 328.82 67.5605C328.181 68.1413 327.223 68.6931 325.945 69.2159C324.725 69.6805 322.953 70.0581 320.63 70.3485C319.875 70.4066 318.917 70.3195 317.755 70.0871C316.593 69.9129 315.432 69.3611 314.27 68.4318C313.166 67.4443 312.266 65.9051 311.569 63.8141C310.872 61.6651 310.582 58.7318 310.698 55.0145C310.756 54.3756 310.756 53.1268 310.698 51.2682C310.698 49.4095 310.669 47.2023 310.611 44.6467C310.611 42.091 310.582 39.4482 310.524 36.7183C310.524 33.9884 310.495 31.4618 310.436 29.1384C310.436 26.757 310.407 24.8403 310.349 23.3882C310.349 21.878 310.349 21.1229 310.349 21.1229C310.872 21.0649 311.743 21.0068 312.963 20.9487C314.241 20.8325 315.635 20.8325 317.145 20.9487C318.655 21.0649 320.107 21.3553 321.501 21.8199C322.953 22.2265 324.173 22.8945 325.161 23.8238C326.206 24.7531 326.816 26.0019 326.99 27.5702C327.281 29.7773 327.397 32.7396 327.339 36.4569C327.281 40.1162 327.193 44.1239 327.077 48.4802C326.961 52.7783 326.99 57.0184 327.164 61.2004ZM385.622 43.4269C386.145 48.3059 385.767 52.4879 384.489 55.9729C383.211 59.4579 381.324 62.333 378.826 64.5983C376.387 66.8635 373.628 68.5479 370.549 69.6515C367.529 70.697 364.509 71.2197 361.488 71.2197C358.526 71.2197 355.506 70.697 352.427 69.6515C349.407 68.5479 346.677 66.8635 344.237 64.5983C341.856 62.333 339.997 59.4579 338.661 55.9729C337.384 52.4879 337.006 48.3059 337.529 43.4269C338.052 38.9545 339.388 35.0339 341.537 31.6651C343.744 28.2962 346.532 25.6534 349.901 23.7367C353.328 21.7619 357.074 20.6583 361.14 20.4259C361.372 20.3679 361.604 20.1936 361.837 19.9032C362.127 19.5547 362.592 19.2643 363.231 19.0319C363.928 18.7415 364.973 18.6544 366.367 18.7706C369.678 19.6999 372.698 21.2972 375.428 23.5624C378.158 25.8277 380.423 28.6447 382.224 32.0136C384.083 35.3824 385.215 39.1868 385.622 43.4269ZM360.704 57.2798C362.563 57.2798 364.16 56.8441 365.496 55.9729C366.832 55.1016 367.906 53.9981 368.72 52.6621C369.533 51.2682 370.114 49.8161 370.462 48.3059C370.869 46.7957 371.072 45.4308 371.072 44.211C371.072 41.7135 370.665 39.7677 369.852 38.3737C369.039 36.9797 367.18 35.7309 364.276 34.6273C363.463 34.2788 362.911 33.8141 362.621 33.2333C362.33 32.6525 361.895 32.333 361.314 32.2749C359.397 32.0426 357.771 32.5653 356.435 33.8432C355.099 35.121 354.083 36.8345 353.386 38.9835C352.689 41.1326 352.34 43.456 352.34 45.9535C352.34 48.4511 352.805 50.5421 353.734 52.2265C354.722 53.9109 355.854 55.1888 357.132 56.06C358.468 56.8732 359.659 57.2798 360.704 57.2798ZM437.526 58.9351C437.526 59.4579 437.613 60.242 437.787 61.2875C437.961 62.333 438.194 63.4076 438.484 64.5111C438.833 65.6147 439.181 66.6021 439.53 67.4734C439.878 68.2865 440.227 68.7803 440.575 68.9545C439.762 69.9419 438.455 70.726 436.655 71.3069C434.854 71.9458 433.053 72.062 431.253 71.6554C429.859 71.2488 428.61 70.8712 427.506 70.5227C426.403 70.1742 424.893 70.029 422.976 70.0871C421.582 70.1452 420.188 70.2904 418.794 70.5227C417.458 70.7551 416.093 71.0165 414.699 71.3069C414.002 71.423 412.782 71.4521 411.04 71.394C409.355 71.394 407.497 71.1907 405.464 70.7841C403.489 70.3775 401.659 69.6805 399.975 68.6931C397.768 67.3572 396.112 65.4114 395.009 62.8558C393.905 60.3001 393.266 57.6864 393.092 55.0145C393.092 54.3756 393.063 53.1268 393.005 51.2682C393.005 49.4095 392.976 47.2023 392.918 44.6467C392.918 42.091 392.889 39.4482 392.831 36.7183C392.831 33.9884 392.802 31.4618 392.744 29.1384C392.744 26.757 392.744 24.8403 392.744 23.3882C392.744 21.878 392.744 21.1229 392.744 21.1229C393.266 21.0649 394.138 21.0068 395.357 20.9487C396.635 20.8325 398.029 20.8325 399.539 20.9487C401.05 21.0649 402.502 21.3553 403.896 21.8199C405.348 22.2265 406.567 22.8945 407.555 23.8238C408.6 24.7531 409.21 26.0019 409.384 27.5702C409.501 28.848 409.588 30.0097 409.646 31.0552C409.704 32.1007 409.733 33.2623 409.733 34.5402C409.733 35.7599 409.675 37.2991 409.559 39.1578C409.501 40.9584 409.413 43.2527 409.297 46.0407C409.181 48.3059 409.123 50.2517 409.123 51.878C409.181 53.5044 409.588 54.7241 410.343 55.5373C411.098 56.3504 412.434 56.6989 414.351 56.5828C415.628 56.5247 416.674 56.031 417.487 55.1016C418.358 54.1142 419.055 52.9235 419.578 51.5295C420.101 50.1355 420.449 48.7125 420.624 47.2604C420.856 45.8083 420.972 44.5305 420.972 43.4269C420.972 43.1946 420.943 42.2943 420.885 40.726C420.885 39.1578 420.856 37.2991 420.798 35.15C420.798 32.9429 420.769 30.7648 420.711 28.6157C420.711 26.4666 420.711 24.6951 420.711 23.3011C420.711 21.849 420.711 21.1229 420.711 21.1229C421.233 21.0649 422.105 21.0649 423.324 21.1229C424.544 21.1229 425.909 21.2391 427.419 21.4714C428.929 21.7038 430.411 22.1104 431.863 22.6912C433.315 23.272 434.535 24.0852 435.522 25.1307C436.567 26.1181 437.177 27.3959 437.352 28.9642C437.7 32.333 437.758 36.4569 437.526 41.3359C437.352 46.1568 437.352 52.0232 437.526 58.9351ZM470.277 19.3804C474.575 19.3804 478.234 19.9903 481.254 21.2101C484.333 22.4298 486.685 23.94 488.311 25.7406C489.938 27.5411 490.722 29.3127 490.664 31.0552C490.664 31.9845 490.257 33.03 489.444 34.1917C488.631 35.3533 487.556 36.3408 486.22 37.1539C484.943 37.909 483.52 38.1994 481.951 38.0252C482.358 36.9797 482.097 35.9923 481.167 35.0629C480.238 34.1336 478.902 33.3785 477.159 32.7977C475.417 32.1588 473.529 31.8103 471.496 31.7522C469.173 31.636 467.605 31.8974 466.792 32.5363C465.978 33.1171 465.514 33.756 465.398 34.453C465.223 35.2081 465.572 35.8761 466.443 36.4569C467.314 36.9797 468.447 37.4734 469.841 37.938C471.293 38.3446 472.803 38.7222 474.371 39.0707C475.998 39.3611 477.479 39.6225 478.815 39.8548C480.209 40.0871 481.283 40.3195 482.038 40.5518C485.523 41.5973 488.079 42.9622 489.705 44.6467C491.332 46.273 492.377 48.0155 492.842 49.8742C493.365 51.7328 493.568 53.5624 493.452 55.363C493.336 58.2672 492.581 60.7067 491.187 62.6815C489.851 64.5983 488.166 66.1375 486.133 67.2991C484.158 68.4608 482.067 69.332 479.86 69.9129C477.711 70.4356 475.678 70.7841 473.762 70.9584C471.903 71.1326 470.48 71.2197 469.492 71.2197C466.472 71.1617 463.626 70.8422 460.954 70.2614C458.34 69.7386 456.075 69.0416 454.158 68.1704C452.3 67.2991 450.964 66.3698 450.151 65.3824C449.57 64.6854 449.018 63.698 448.495 62.4201C447.973 61.1423 447.653 59.7773 447.537 58.3253C447.479 56.8151 447.798 55.3921 448.495 54.0561C449.192 52.6621 450.47 51.5295 452.329 50.6583C452.677 51.8199 453.607 52.8654 455.117 53.7948C456.685 54.7241 458.544 55.4792 460.693 56.06C462.9 56.6409 465.078 57.0474 467.227 57.2798C469.318 57.454 471.293 57.425 473.152 57.1926C475.01 56.9603 476.027 56.2924 476.201 55.1888C476.317 54.6079 476.027 54.0271 475.33 53.4463C474.633 52.8654 473.355 52.3717 471.496 51.9651C469.522 51.5005 467.779 51.152 466.269 50.9197C464.817 50.6292 463.365 50.3098 461.913 49.9613C459.183 49.2643 456.801 48.1607 454.768 46.6505C452.735 45.1404 451.196 43.3398 450.151 41.2488C449.163 39.0997 448.815 36.8345 449.105 34.453C449.57 31.0261 450.819 28.2091 452.852 26.0019C454.943 23.7948 457.527 22.1394 460.606 21.0358C463.684 19.9322 466.908 19.3804 470.277 19.3804Z" fill="url(#paint0_linear_4540_35161)"/>
<defs>
<linearGradient id="paint0_linear_4540_35161" x1="497.363" y1="53.4335" x2="-3.36283" y2="53.4335" gradientUnits="userSpaceOnUse">
<stop stop-color="#79C4EC"/>
<stop offset="1" stop-color="#4D5CDD"/>
</linearGradient>
</defs>
</svg>
