<svg width="313" height="50" viewBox="0 0 313 50" fill="none" xmlns="http://www.w3.org/2000/svg">
<path d="M41.8227 10.486H56.0754V49.999H41.8227V32.7262H14.3503V49.999H0.0976562V10.486H14.3503V24.9365H41.8227V10.486Z" fill="#F2F1F1"/>
<path d="M13.0207 28.2253H43.1489V41.4394H13.0207V28.2253Z" fill="#F2F1F1"/>
<path d="M11.449 1.76704C11.449 0.790591 12.2603 -0.000976562 13.2611 -0.000976562H44.0668C45.0676 -0.000976562 45.8789 0.790591 45.8789 1.76704V12.8171C45.8789 13.7936 45.0676 14.5852 44.0668 14.5852H13.2611C12.2603 14.5852 11.449 13.7936 11.449 12.8171V1.76704Z" fill="#F2F1F1"/>
<path d="M63.7768 37.592V18.2543H70.3728V36.014C70.3728 37.396 70.7217 38.6542 71.4193 39.7887C72.117 40.9232 73.0472 41.8308 74.21 42.5115C75.3727 43.1715 76.6518 43.5016 78.0471 43.5016C79.4635 43.5016 80.7426 43.1715 81.8842 42.5115C83.047 41.8308 83.9666 40.9232 84.6431 39.7887C85.3408 38.6542 85.6896 37.396 85.6896 36.014V18.2543H92.2857L92.3174 49.1946H85.7213L85.6896 45.853C84.6114 47.1319 83.269 48.1426 81.6622 48.8852C80.0555 49.6277 78.3325 49.999 76.4932 49.999C74.1465 49.999 72.0113 49.4421 70.0874 48.3282C68.1636 47.2144 66.6309 45.7189 65.4892 43.8419C64.3476 41.9649 63.7768 39.8815 63.7768 37.592Z" fill="#F2F1F1"/>
<path d="M122.947 2.78414H129.543V49.1946H122.947V44.6464C121.911 46.2552 120.558 47.5547 118.888 48.5448C117.218 49.5143 115.262 49.999 113.021 49.999C110.717 49.999 108.56 49.5762 106.552 48.7305C104.544 47.8848 102.768 46.7194 101.224 45.2342C99.7023 43.7285 98.5078 41.9958 97.641 40.0362C96.7742 38.0767 96.3408 35.9728 96.3408 33.7244C96.3408 31.4761 96.7742 29.3722 97.641 27.4126C98.5078 25.4324 99.7023 23.6998 101.224 22.2146C102.768 20.7089 104.544 19.5331 106.552 18.6874C108.56 17.8417 110.717 17.4189 113.021 17.4189C115.262 17.4189 117.218 17.9139 118.888 18.904C120.558 19.8735 121.911 21.1524 122.947 22.7406V2.78414ZM113.085 43.78C114.945 43.78 116.573 43.3365 117.968 42.4496C119.364 41.542 120.442 40.325 121.203 38.7986C121.985 37.2722 122.376 35.5808 122.376 33.7244C122.376 31.8474 121.985 30.1457 121.203 28.6193C120.421 27.0929 119.332 25.8862 117.937 24.9993C116.562 24.0917 114.945 23.6379 113.085 23.6379C111.245 23.6379 109.565 24.0917 108.042 24.9993C106.541 25.9068 105.336 27.1238 104.427 28.6502C103.539 30.1766 103.095 31.868 103.095 33.7244C103.095 35.6015 103.55 37.3032 104.459 38.8296C105.389 40.3353 106.605 41.542 108.106 42.4496C109.628 43.3365 111.288 43.78 113.085 43.78Z" fill="#F2F1F1"/>
<path d="M161.378 18.2543H167.974V49.1946H161.346L161.093 44.7082C160.163 46.2965 158.905 47.5754 157.319 48.5448C155.733 49.5143 153.862 49.999 151.706 49.999C149.381 49.999 147.192 49.5762 145.142 48.7305C143.091 47.8641 141.283 46.6678 139.719 45.1414C138.176 43.615 136.971 41.8617 136.104 39.8815C135.237 37.8807 134.804 35.7355 134.804 33.446C134.804 31.2389 135.227 29.1659 136.072 27.227C136.918 25.2674 138.091 23.5554 139.592 22.0909C141.093 20.6264 142.827 19.4816 144.793 18.6565C146.78 17.8108 148.905 17.388 151.167 17.388C153.471 17.388 155.501 17.9036 157.256 18.935C159.031 19.9457 160.501 21.2452 161.664 22.8334L161.378 18.2543ZM151.548 43.78C153.408 43.78 155.036 43.3365 156.431 42.4496C157.826 41.542 158.905 40.325 159.666 38.7986C160.448 37.2722 160.839 35.5808 160.839 33.7244C160.839 31.8474 160.448 30.1457 159.666 28.6193C158.883 27.0929 157.795 25.8862 156.399 24.9993C155.025 24.0917 153.408 23.6379 151.548 23.6379C149.708 23.6379 148.028 24.0917 146.505 24.9993C144.983 25.9068 143.778 27.1238 142.89 28.6502C142.002 30.1766 141.558 31.868 141.558 33.7244C141.558 35.6015 142.013 37.3032 142.922 38.8296C143.852 40.3353 145.068 41.542 146.569 42.4496C148.091 43.3365 149.751 43.78 151.548 43.78Z" fill="#F2F1F1"/>
<path d="M172.476 49.1946L184.083 33.6625L172.54 18.1924H180.69L188.142 28.1552L195.626 18.1924H203.744L192.233 33.6625L203.839 49.1946H195.689L188.142 39.108L180.626 49.1946H172.476Z" fill="#F2F1F1"/>
<path d="M208.987 18.2543H215.583V49.1946H208.987V18.2543ZM212.348 13.7679C211.334 13.7679 210.488 13.4482 209.811 12.8088C209.135 12.1694 208.797 11.3649 208.797 10.3954C208.797 9.44661 209.135 8.65248 209.811 8.01305C210.488 7.35299 211.323 7.02296 212.317 7.02296C213.289 7.02296 214.114 7.35299 214.79 8.01305C215.467 8.65248 215.805 9.44661 215.805 10.3954C215.805 11.3649 215.467 12.1694 214.79 12.8088C214.135 13.4482 213.321 13.7679 212.348 13.7679Z" fill="#F2F1F1"/>
<path d="M236.566 49.999C233.649 49.999 230.985 49.2668 228.575 47.8023C226.186 46.3378 224.273 44.3782 222.835 41.9236C221.419 39.4484 220.71 36.7153 220.71 33.7244C220.71 31.4555 221.123 29.3412 221.947 27.3817C222.772 25.4015 223.903 23.6688 225.34 22.1837C226.799 20.6779 228.49 19.5022 230.414 18.6565C232.338 17.8108 234.389 17.388 236.566 17.388C239.484 17.388 242.137 18.1202 244.526 19.5847C246.936 21.0492 248.849 23.0191 250.266 25.4943C251.703 27.9695 252.422 30.7129 252.422 33.7244C252.422 35.9728 252.01 38.0767 251.185 40.0362C250.361 41.9958 249.219 43.7285 247.76 45.2342C246.323 46.7194 244.642 47.8848 242.718 48.7305C240.816 49.5762 238.765 49.999 236.566 49.999ZM236.566 43.5634C238.321 43.5634 239.896 43.1097 241.291 42.2021C242.687 41.2945 243.786 40.0981 244.589 38.613C245.414 37.1072 245.826 35.4777 245.826 33.7244C245.826 31.9299 245.403 30.2797 244.558 28.774C243.733 27.2682 242.623 26.0719 241.228 25.1849C239.833 24.2773 238.279 23.8235 236.566 23.8235C234.833 23.8235 233.258 24.2773 231.841 25.1849C230.446 26.0925 229.336 27.2992 228.511 28.8049C227.708 30.3107 227.306 31.9505 227.306 33.7244C227.306 35.5602 227.729 37.2207 228.575 38.7058C229.421 40.1909 230.541 41.377 231.936 42.2639C233.353 43.1303 234.896 43.5634 236.566 43.5634Z" fill="#F2F1F1"/>
<path d="M255.658 37.592V18.2543H262.254V36.014C262.254 37.396 262.603 38.6542 263.3 39.7887C263.998 40.9232 264.928 41.8308 266.091 42.5115C267.254 43.1715 268.533 43.5016 269.928 43.5016C271.344 43.5016 272.624 43.1715 273.765 42.5115C274.928 41.8308 275.848 40.9232 276.524 39.7887C277.222 38.6542 277.571 37.396 277.571 36.014V18.2543H284.167L284.198 49.1946H277.602L277.571 45.853C276.492 47.1319 275.15 48.1426 273.543 48.8852C271.936 49.6277 270.213 49.999 268.374 49.999C266.027 49.999 263.892 49.4421 261.968 48.3282C260.044 47.2144 258.512 45.7189 257.37 43.8419C256.229 41.9649 255.658 39.8815 255.658 37.592Z" fill="#F2F1F1"/>
<path d="M300.072 49.7824C298.401 49.6793 296.773 49.3493 295.188 48.7924C293.602 48.2354 292.207 47.4825 291.002 46.5337C289.818 45.5642 288.93 44.4298 288.338 43.1303L293.951 40.7788C294.226 41.3357 294.702 41.8824 295.378 42.4187C296.076 42.9549 296.89 43.3984 297.82 43.7491C298.75 44.0791 299.723 44.2441 300.737 44.2441C301.731 44.2441 302.651 44.1101 303.496 43.8419C304.363 43.5531 305.071 43.12 305.621 42.5424C306.171 41.9649 306.446 41.2739 306.446 40.4694C306.446 39.5618 306.128 38.8605 305.494 38.3655C304.881 37.8498 304.109 37.4579 303.179 37.1897C302.249 36.9216 301.319 36.6638 300.389 36.4162C298.317 35.9624 296.414 35.3436 294.68 34.5598C292.968 33.7554 291.604 32.7343 290.59 31.4967C289.575 30.2385 289.068 28.7018 289.068 26.8866C289.068 24.9064 289.617 23.1944 290.717 21.7505C291.816 20.286 293.253 19.1619 295.029 18.378C296.826 17.5942 298.74 17.2023 300.769 17.2023C303.306 17.2023 305.632 17.7283 307.746 18.7803C309.86 19.8322 311.477 21.2761 312.598 23.1119L307.365 26.1441C307.048 25.5253 306.572 24.9683 305.938 24.4733C305.304 23.9782 304.585 23.5863 303.782 23.2976C302.978 22.9881 302.143 22.8128 301.277 22.7716C300.198 22.7303 299.194 22.8541 298.264 23.1428C297.355 23.411 296.625 23.8442 296.076 24.4423C295.526 25.0405 295.251 25.8037 295.251 26.7319C295.251 27.6395 295.579 28.3202 296.234 28.774C296.89 29.2071 297.714 29.5578 298.708 29.826C299.723 30.0941 300.759 30.3932 301.816 30.7232C303.697 31.3008 305.463 32.0124 307.112 32.8581C308.761 33.6832 310.092 34.7042 311.107 35.9212C312.122 37.1382 312.608 38.6233 312.566 40.3766C312.566 42.3155 311.963 44.0172 310.758 45.4817C309.574 46.9462 308.031 48.0601 306.128 48.8233C304.226 49.5865 302.207 49.9062 300.072 49.7824Z" fill="#F2F1F1"/>
</svg>
