<svg width="100" height="100" viewBox="0 0 100 100" fill="none" xmlns="http://www.w3.org/2000/svg">
<path d="M73.9556 58.0132C79.1333 58.0132 83.3306 62.2106 83.3306 67.3882V71.1594C83.3306 75.7164 81.3412 80.0463 77.8837 83.0147C71.361 88.6146 62.0262 91.3514 49.9846 91.3514C37.945 91.3514 28.6166 88.6155 22.1047 83.0168C18.6521 80.0486 16.666 75.7219 16.666 71.1687V67.3882C16.666 62.2106 20.8633 58.0132 26.041 58.0132H73.9556ZM73.9556 64.2632H26.041C24.3151 64.2632 22.916 65.6623 22.916 67.3882V71.1687C22.916 73.9006 24.1076 76.4966 26.1792 78.2776C31.4212 82.7844 39.3213 85.1014 49.9846 85.1014C60.6512 85.1014 68.5588 82.783 73.8124 78.2726C75.887 76.4915 77.0806 73.8936 77.0806 71.1594V67.3882C77.0806 65.6623 75.6815 64.2632 73.9556 64.2632ZM49.5619 8.04415L49.986 8.01562C51.568 8.01562 52.8755 9.19127 53.0824 10.7166L53.111 11.1406L53.1077 14.2615L67.6929 14.2636C72.8706 14.2636 77.0679 18.4609 77.0679 23.6386V42.4077C77.0679 47.5854 72.8706 51.7827 67.6929 51.7827H32.2763C27.0986 51.7827 22.9013 47.5854 22.9013 42.4077V23.6386C22.9013 18.4609 27.0986 14.2636 32.2763 14.2636L46.8577 14.2615L46.861 11.1406C46.861 9.55856 48.0366 8.25108 49.5619 8.04415ZM67.6929 20.5136H32.2763C30.5504 20.5136 29.1513 21.9127 29.1513 23.6386V42.4077C29.1513 44.1336 30.5504 45.5327 32.2763 45.5327H67.6929C69.4188 45.5327 70.8179 44.1336 70.8179 42.4077V23.6386C70.8179 21.9127 69.4188 20.5136 67.6929 20.5136ZM40.6066 26.7636C43.4815 26.7636 45.812 29.0941 45.812 31.9689C45.812 34.8438 43.4815 37.1743 40.6066 37.1743C37.7318 37.1743 35.4013 34.8438 35.4013 31.9689C35.4013 29.0941 37.7318 26.7636 40.6066 26.7636ZM59.3264 26.7636C62.2012 26.7636 64.5317 29.0941 64.5317 31.9689C64.5317 34.8438 62.2012 37.1743 59.3264 37.1743C56.4515 37.1743 54.121 34.8438 54.121 31.9689C54.121 29.0941 56.4515 26.7636 59.3264 26.7636Z" fill="#FFE4E6"/>
</svg>
