<svg width="600" height="600" viewBox="0 0 600 600" fill="none" xmlns="http://www.w3.org/2000/svg">
<path d="M299.939 6.22834e-06C371.358 -0.01454 440.44 25.4509 494.763 71.8174C549.085 118.184 585.084 182.409 596.286 252.945C607.488 323.481 593.159 395.699 555.874 456.614C518.59 517.529 460.797 563.144 392.887 585.257L300 300L299.939 6.22834e-06Z" fill="#365802"/>
<path d="M392.601 585.35C317.01 609.881 234.775 603.416 163.946 567.374C93.1168 531.333 39.4825 468.66 14.8162 393.114L300 300L392.601 585.35Z" fill="#177402"/>
<path d="M14.7232 392.829C-4.87015 332.615 -4.90859 267.746 14.6134 207.51C34.1354 147.273 72.2167 94.7584 123.405 57.4844L300 300L14.7232 392.829Z" fill="#F3A108"/>
<path d="M123.647 57.307C174.789 20.1444 236.364 0.0878093 299.583 0L299.999 299.999L123.647 57.307Z" fill="#6C47E0"/>
<path d="M71.1314 226.415H75.0518L77.0227 228.95L78.9616 231.209L82.6158 235.79H78.3118L75.7976 232.7L74.5085 230.868L71.1314 226.415ZM82.946 223.091C82.946 225.47 82.495 227.494 81.593 229.163C80.6982 230.832 79.4766 232.107 77.9283 232.988C76.3871 233.862 74.6541 234.298 72.7294 234.298C70.7905 234.298 69.0504 233.858 67.5092 232.977C65.968 232.097 64.75 230.822 63.8551 229.153C62.9602 227.484 62.5128 225.463 62.5128 223.091C62.5128 220.712 62.9602 218.688 63.8551 217.018C64.75 215.349 65.968 214.078 67.5092 213.205C69.0504 212.324 70.7905 211.884 72.7294 211.884C74.6541 211.884 76.3871 212.324 77.9283 213.205C79.4766 214.078 80.6982 215.349 81.593 217.018C82.495 218.688 82.946 220.712 82.946 223.091ZM78.2692 223.091C78.2692 221.55 78.0384 220.25 77.5767 219.192C77.1222 218.134 76.4794 217.331 75.6484 216.784C74.8175 216.237 73.8445 215.964 72.7294 215.964C71.6143 215.964 70.6413 216.237 69.8104 216.784C68.9794 217.331 68.3331 218.134 67.8714 219.192C67.4169 220.25 67.1896 221.55 67.1896 223.091C67.1896 224.632 67.4169 225.932 67.8714 226.99C68.3331 228.048 68.9794 228.851 69.8104 229.398C70.6413 229.945 71.6143 230.218 72.7294 230.218C73.8445 230.218 74.8175 229.945 75.6484 229.398C76.4794 228.851 77.1222 228.048 77.5767 226.99C78.0384 225.932 78.2692 224.632 78.2692 223.091ZM96.7715 227.033V217.636H101.31V234H96.9526V231.028H96.7821C96.4128 231.987 95.7985 232.757 94.9391 233.339C94.0868 233.922 93.0463 234.213 91.8176 234.213C90.7239 234.213 89.7615 233.964 88.9306 233.467C88.0996 232.97 87.4498 232.263 86.981 231.347C86.5194 230.431 86.285 229.334 86.2779 228.055V217.636H90.8162V227.246C90.8233 228.212 91.0826 228.975 91.5939 229.536C92.1053 230.097 92.7907 230.378 93.65 230.378C94.1969 230.378 94.7083 230.254 95.1841 230.005C95.66 229.749 96.0435 229.373 96.3347 228.876C96.633 228.379 96.7786 227.764 96.7715 227.033ZM112.397 234.32C110.714 234.32 109.265 233.979 108.051 233.297C106.843 232.608 105.913 231.635 105.26 230.378C104.606 229.114 104.279 227.619 104.279 225.893C104.279 224.21 104.606 222.732 105.26 221.461C105.913 220.19 106.833 219.199 108.019 218.489C109.212 217.778 110.611 217.423 112.216 217.423C113.296 217.423 114.301 217.597 115.231 217.945C116.169 218.286 116.985 218.801 117.681 219.49C118.385 220.179 118.931 221.045 119.322 222.089C119.713 223.126 119.908 224.341 119.908 225.733V226.979H106.091V224.167H115.636C115.636 223.513 115.494 222.935 115.21 222.43C114.926 221.926 114.532 221.532 114.027 221.248C113.53 220.957 112.951 220.811 112.291 220.811C111.602 220.811 110.991 220.971 110.458 221.29C109.933 221.603 109.521 222.026 109.223 222.558C108.924 223.084 108.772 223.67 108.765 224.316V226.99C108.765 227.8 108.914 228.499 109.212 229.089C109.517 229.678 109.947 230.133 110.501 230.452C111.055 230.772 111.712 230.932 112.472 230.932C112.976 230.932 113.438 230.861 113.857 230.719C114.276 230.577 114.635 230.364 114.933 230.08C115.231 229.795 115.458 229.447 115.615 229.036L119.812 229.312C119.599 230.321 119.162 231.202 118.502 231.955C117.848 232.7 117.003 233.283 115.966 233.702C114.936 234.114 113.747 234.32 112.397 234.32ZM136.485 222.303L132.33 222.558C132.259 222.203 132.106 221.884 131.872 221.599C131.637 221.308 131.328 221.077 130.945 220.907C130.569 220.729 130.118 220.641 129.592 220.641C128.889 220.641 128.296 220.79 127.813 221.088C127.33 221.379 127.088 221.77 127.088 222.26C127.088 222.651 127.245 222.981 127.557 223.251C127.87 223.521 128.406 223.737 129.166 223.901L132.127 224.497C133.718 224.824 134.904 225.349 135.686 226.074C136.467 226.798 136.858 227.75 136.858 228.929C136.858 230.001 136.542 230.942 135.909 231.752C135.284 232.562 134.425 233.194 133.331 233.648C132.245 234.096 130.991 234.32 129.571 234.32C127.404 234.32 125.679 233.869 124.393 232.967C123.115 232.058 122.365 230.822 122.145 229.259L126.609 229.025C126.744 229.685 127.071 230.19 127.589 230.538C128.108 230.879 128.772 231.049 129.581 231.049C130.377 231.049 131.016 230.896 131.499 230.591C131.989 230.278 132.238 229.877 132.245 229.387C132.238 228.975 132.064 228.638 131.723 228.375C131.382 228.105 130.856 227.899 130.146 227.757L127.312 227.192C125.714 226.873 124.525 226.319 123.743 225.531C122.969 224.742 122.582 223.737 122.582 222.516C122.582 221.464 122.866 220.559 123.434 219.799C124.01 219.039 124.816 218.453 125.853 218.041C126.897 217.629 128.118 217.423 129.517 217.423C131.584 217.423 133.211 217.86 134.397 218.734C135.59 219.607 136.286 220.797 136.485 222.303ZM148.419 217.636V221.045H138.565V217.636H148.419ZM140.802 213.716H145.34V228.972C145.34 229.391 145.404 229.717 145.532 229.952C145.66 230.179 145.838 230.339 146.065 230.431C146.299 230.523 146.569 230.57 146.874 230.57C147.088 230.57 147.301 230.552 147.514 230.516C147.727 230.474 147.89 230.442 148.004 230.42L148.718 233.798C148.49 233.869 148.171 233.95 147.759 234.043C147.347 234.142 146.846 234.202 146.257 234.224C145.163 234.266 144.204 234.121 143.38 233.787C142.563 233.453 141.928 232.935 141.473 232.232C141.019 231.528 140.795 230.641 140.802 229.568V213.716Z" fill="white"/>
<path d="M68.4974 285V280.575L77.7818 272.447C78.4779 271.817 79.0703 271.241 79.5592 270.719C80.048 270.189 80.4209 269.658 80.6778 269.128C80.9346 268.59 81.0631 268.005 81.0631 267.376C81.0631 266.671 80.9098 266.071 80.6032 265.574C80.2966 265.068 79.874 264.679 79.3354 264.405C78.7969 264.132 78.1796 263.995 77.4835 263.995C76.7792 263.995 76.1619 264.14 75.6316 264.43C75.1013 264.712 74.687 265.122 74.3887 265.661C74.0987 266.199 73.9537 266.854 73.9537 267.624H68.1245C68.1245 265.893 68.514 264.397 69.2928 263.137C70.0717 261.878 71.1655 260.908 72.5741 260.229C73.991 259.541 75.6358 259.197 77.5084 259.197C79.439 259.197 81.1169 259.521 82.5421 260.167C83.9673 260.813 85.0694 261.716 85.8482 262.876C86.6354 264.028 87.029 265.366 87.029 266.891C87.029 267.86 86.8343 268.822 86.4448 269.775C86.0554 270.727 85.3552 271.78 84.3443 272.931C83.3417 274.083 81.9165 275.463 80.0688 277.07L77.0237 279.879V280.041H87.3397V285H68.4974ZM101.344 285.621C99.1234 285.621 97.2094 285.095 95.6019 284.043C93.9944 282.982 92.7556 281.462 91.8856 279.482C91.0156 277.493 90.5847 275.102 90.593 272.31C90.6013 269.518 91.0363 267.148 91.898 265.201C92.7681 263.245 94.0027 261.758 95.6019 260.739C97.2094 259.711 99.1234 259.197 101.344 259.197C103.565 259.197 105.479 259.711 107.086 260.739C108.702 261.758 109.945 263.245 110.815 265.201C111.685 267.156 112.116 269.526 112.108 272.31C112.108 275.111 111.673 277.505 110.803 279.494C109.932 281.483 108.694 283.003 107.086 284.055C105.487 285.099 103.573 285.621 101.344 285.621ZM101.344 280.588C102.67 280.588 103.743 279.912 104.563 278.562C105.383 277.203 105.789 275.119 105.781 272.31C105.781 270.471 105.595 268.954 105.222 267.761C104.849 266.56 104.331 265.665 103.668 265.076C103.005 264.488 102.231 264.194 101.344 264.194C100.027 264.194 98.9618 264.861 98.1498 266.195C97.3378 267.521 96.9276 269.559 96.9193 272.31C96.9111 274.174 97.0892 275.72 97.4538 276.946C97.8267 278.172 98.3487 279.088 99.0198 279.693C99.691 280.289 100.466 280.588 101.344 280.588ZM129.887 280.227V278.885C129.887 277.841 130.111 276.876 130.558 275.989C131.014 275.102 131.673 274.39 132.535 273.851C133.396 273.313 134.449 273.043 135.692 273.043C136.959 273.043 138.024 273.313 138.886 273.851C139.756 274.382 140.41 275.09 140.85 275.977C141.297 276.855 141.521 277.824 141.521 278.885V280.227C141.521 281.271 141.297 282.237 140.85 283.123C140.402 284.01 139.743 284.722 138.873 285.261C138.003 285.8 136.943 286.069 135.692 286.069C134.432 286.069 133.371 285.8 132.51 285.261C131.648 284.722 130.993 284.01 130.546 283.123C130.107 282.237 129.887 281.271 129.887 280.227ZM133.852 278.885V280.227C133.852 280.758 133.98 281.267 134.237 281.756C134.503 282.245 134.987 282.489 135.692 282.489C136.412 282.489 136.897 282.253 137.146 281.781C137.394 281.3 137.519 280.782 137.519 280.227V278.885C137.519 278.33 137.398 277.808 137.158 277.319C136.926 276.822 136.437 276.573 135.692 276.573C134.996 276.573 134.515 276.822 134.25 277.319C133.985 277.808 133.852 278.33 133.852 278.885ZM116.688 265.661V264.318C116.688 263.258 116.915 262.288 117.371 261.41C117.835 260.523 118.498 259.815 119.36 259.284C120.222 258.746 121.266 258.477 122.492 258.477C123.76 258.477 124.824 258.746 125.686 259.284C126.556 259.815 127.215 260.523 127.662 261.41C128.11 262.288 128.334 263.258 128.334 264.318V265.661C128.334 266.721 128.106 267.691 127.65 268.569C127.203 269.447 126.544 270.147 125.674 270.669C124.804 271.191 123.743 271.452 122.492 271.452C121.241 271.452 120.18 271.187 119.31 270.657C118.448 270.127 117.794 269.422 117.346 268.544C116.907 267.666 116.688 266.705 116.688 265.661ZM120.69 264.318V265.661C120.69 266.216 120.818 266.734 121.075 267.214C121.34 267.686 121.813 267.923 122.492 267.923C123.221 267.923 123.706 267.686 123.946 267.214C124.195 266.734 124.319 266.216 124.319 265.661V264.318C124.319 263.763 124.203 263.241 123.971 262.752C123.739 262.255 123.246 262.006 122.492 262.006C121.796 262.006 121.319 262.259 121.063 262.765C120.814 263.27 120.69 263.788 120.69 264.318ZM118.564 285L136.064 259.545H139.458L121.958 285H118.564Z" fill="white"/>
<path d="M133.631 454H125.896V432.182H133.695C135.889 432.182 137.778 432.619 139.362 433.492C140.946 434.359 142.164 435.605 143.016 437.232C143.876 438.858 144.305 440.804 144.305 443.07C144.305 445.342 143.876 447.295 143.016 448.929C142.164 450.562 140.939 451.816 139.341 452.69C137.75 453.563 135.847 454 133.631 454ZM130.509 450.048H133.439C134.803 450.048 135.95 449.806 136.88 449.323C137.817 448.833 138.521 448.077 138.989 447.054C139.465 446.024 139.703 444.696 139.703 443.07C139.703 441.457 139.465 440.14 138.989 439.117C138.521 438.094 137.821 437.342 136.891 436.859C135.96 436.376 134.813 436.134 133.45 436.134H130.509V450.048ZM147.722 454V432.182H162.424V435.985H152.335V441.184H161.668V444.987H152.335V450.197H162.467V454H147.722ZM170.417 432.182L174.817 439.618H174.987L179.408 432.182H184.618L177.96 443.091L184.767 454H179.462L174.987 446.553H174.817L170.342 454H165.058L171.887 443.091L165.186 432.182H170.417ZM194.48 454V432.182H199.093V450.197H208.447V454H194.48ZM211.417 454V437.636H215.955V454H211.417ZM213.696 435.527C213.022 435.527 212.443 435.303 211.96 434.856C211.484 434.401 211.246 433.858 211.246 433.226C211.246 432.601 211.484 432.065 211.96 431.617C212.443 431.163 213.022 430.935 213.696 430.935C214.371 430.935 214.946 431.163 215.422 431.617C215.905 432.065 216.147 432.601 216.147 433.226C216.147 433.858 215.905 434.401 215.422 434.856C214.946 435.303 214.371 435.527 213.696 435.527ZM230.404 460.136V451.379H230.265C230.052 451.834 229.75 452.285 229.36 452.732C228.976 453.173 228.475 453.538 227.857 453.83C227.247 454.121 226.501 454.266 225.62 454.266C224.377 454.266 223.252 453.947 222.243 453.308C221.242 452.661 220.446 451.713 219.857 450.463C219.274 449.206 218.983 447.665 218.983 445.839C218.983 443.964 219.285 442.406 219.889 441.163C220.492 439.913 221.295 438.979 222.296 438.361C223.305 437.736 224.409 437.423 225.61 437.423C226.526 437.423 227.289 437.58 227.9 437.892C228.518 438.197 229.015 438.581 229.392 439.043C229.775 439.497 230.066 439.945 230.265 440.385H230.457V437.636H234.931V460.136H230.404ZM227.058 450.655C227.79 450.655 228.408 450.456 228.912 450.058C229.423 449.653 229.814 449.089 230.084 448.364C230.361 447.64 230.499 446.791 230.499 445.818C230.499 444.845 230.365 444 230.095 443.283C229.825 442.565 229.434 442.011 228.923 441.621C228.411 441.23 227.79 441.035 227.058 441.035C226.313 441.035 225.684 441.237 225.173 441.642C224.661 442.047 224.274 442.608 224.012 443.325C223.749 444.043 223.617 444.874 223.617 445.818C223.617 446.77 223.749 447.612 224.012 448.343C224.281 449.067 224.669 449.636 225.173 450.048C225.684 450.452 226.313 450.655 227.058 450.655ZM249.068 447.033V437.636H253.607V454H249.249V451.028H249.079C248.71 451.987 248.095 452.757 247.236 453.339C246.384 453.922 245.343 454.213 244.115 454.213C243.021 454.213 242.058 453.964 241.227 453.467C240.396 452.97 239.747 452.263 239.278 451.347C238.816 450.431 238.582 449.334 238.575 448.055V437.636H243.113V447.246C243.12 448.212 243.379 448.975 243.891 449.536C244.402 450.097 245.088 450.378 245.947 450.378C246.494 450.378 247.005 450.254 247.481 450.005C247.957 449.749 248.34 449.373 248.632 448.876C248.93 448.379 249.075 447.764 249.068 447.033ZM257.237 454V437.636H261.775V454H257.237ZM259.517 435.527C258.842 435.527 258.263 435.303 257.78 434.856C257.304 434.401 257.066 433.858 257.066 433.226C257.066 432.601 257.304 432.065 257.78 431.617C258.263 431.163 258.842 430.935 259.517 430.935C260.191 430.935 260.767 431.163 261.243 431.617C261.725 432.065 261.967 432.601 261.967 433.226C261.967 433.858 261.725 434.401 261.243 434.856C260.767 435.303 260.191 435.527 259.517 435.527ZM271.441 454.266C270.198 454.266 269.072 453.947 268.063 453.308C267.062 452.661 266.267 451.713 265.677 450.463C265.095 449.206 264.803 447.665 264.803 445.839C264.803 443.964 265.105 442.406 265.709 441.163C266.313 439.913 267.115 438.979 268.117 438.361C269.125 437.736 270.23 437.423 271.43 437.423C272.346 437.423 273.11 437.58 273.72 437.892C274.338 438.197 274.835 438.581 275.212 439.043C275.595 439.497 275.887 439.945 276.085 440.385H276.224V432.182H280.752V454H276.277V451.379H276.085C275.872 451.834 275.57 452.285 275.18 452.732C274.796 453.173 274.296 453.538 273.678 453.83C273.067 454.121 272.321 454.266 271.441 454.266ZM272.879 450.655C273.61 450.655 274.228 450.456 274.732 450.058C275.244 449.653 275.634 449.089 275.904 448.364C276.181 447.64 276.32 446.791 276.32 445.818C276.32 444.845 276.185 444 275.915 443.283C275.645 442.565 275.254 442.011 274.743 441.621C274.232 441.23 273.61 441.035 272.879 441.035C272.133 441.035 271.504 441.237 270.993 441.642C270.482 442.047 270.095 442.608 269.832 443.325C269.569 444.043 269.438 444.874 269.438 445.818C269.438 446.77 269.569 447.612 269.832 448.343C270.102 449.067 270.489 449.636 270.993 450.048C271.504 450.452 272.133 450.655 272.879 450.655ZM284.483 454V437.636H289.021V454H284.483ZM286.763 435.527C286.088 435.527 285.509 435.303 285.026 434.856C284.55 434.401 284.312 433.858 284.312 433.226C284.312 432.601 284.55 432.065 285.026 431.617C285.509 431.163 286.088 430.935 286.763 430.935C287.438 430.935 288.013 431.163 288.489 431.617C288.972 432.065 289.213 432.601 289.213 433.226C289.213 433.858 288.972 434.401 288.489 434.856C288.013 435.303 287.438 435.527 286.763 435.527ZM301.361 437.636V441.045H291.506V437.636H301.361ZM293.743 433.716H298.282V448.972C298.282 449.391 298.346 449.717 298.474 449.952C298.601 450.179 298.779 450.339 299.006 450.431C299.241 450.523 299.51 450.57 299.816 450.57C300.029 450.57 300.242 450.552 300.455 450.516C300.668 450.474 300.831 450.442 300.945 450.42L301.659 453.798C301.432 453.869 301.112 453.95 300.7 454.043C300.288 454.142 299.787 454.202 299.198 454.224C298.104 454.266 297.145 454.121 296.322 453.787C295.505 453.453 294.869 452.935 294.415 452.232C293.96 451.528 293.736 450.641 293.743 449.568V433.716ZM307.119 460.136C306.544 460.136 306.004 460.09 305.499 459.998C305.002 459.913 304.59 459.803 304.264 459.668L305.286 456.28C305.819 456.443 306.298 456.532 306.725 456.546C307.158 456.56 307.531 456.461 307.843 456.248C308.163 456.035 308.422 455.673 308.621 455.161L308.887 454.469L303.017 437.636H307.79L311.178 449.653H311.348L314.768 437.636H319.573L313.213 455.768C312.907 456.649 312.492 457.416 311.966 458.07C311.448 458.73 310.791 459.238 309.995 459.593C309.2 459.955 308.241 460.136 307.119 460.136Z" fill="white"/>
<path d="M186.403 505V500.575L195.688 492.447C196.384 491.817 196.976 491.241 197.465 490.719C197.954 490.189 198.327 489.658 198.584 489.128C198.84 488.59 198.969 488.005 198.969 487.376C198.969 486.671 198.816 486.071 198.509 485.574C198.202 485.068 197.78 484.679 197.241 484.405C196.703 484.132 196.085 483.995 195.389 483.995C194.685 483.995 194.068 484.14 193.537 484.43C193.007 484.712 192.593 485.122 192.294 485.661C192.004 486.199 191.859 486.854 191.859 487.624H186.03C186.03 485.893 186.42 484.397 187.199 483.137C187.977 481.878 189.071 480.908 190.48 480.229C191.897 479.541 193.542 479.197 195.414 479.197C197.345 479.197 199.023 479.521 200.448 480.167C201.873 480.813 202.975 481.716 203.754 482.876C204.541 484.028 204.935 485.366 204.935 486.891C204.935 487.86 204.74 488.822 204.351 489.775C203.961 490.727 203.261 491.78 202.25 492.931C201.247 494.083 199.822 495.463 197.975 497.07L194.929 499.879V500.041H205.245V505H186.403ZM218.467 505.348C216.611 505.348 214.962 505.012 213.52 504.341C212.078 503.67 210.939 502.746 210.102 501.57C209.273 500.393 208.843 499.042 208.809 497.518H214.775C214.825 498.454 215.206 499.208 215.919 499.78C216.631 500.343 217.481 500.625 218.467 500.625C219.237 500.625 219.921 500.455 220.518 500.115C221.114 499.776 221.582 499.299 221.922 498.686C222.262 498.065 222.427 497.352 222.419 496.548C222.427 495.728 222.258 495.011 221.91 494.398C221.57 493.785 221.098 493.308 220.493 492.969C219.896 492.621 219.208 492.447 218.43 492.447C217.692 492.438 216.992 492.6 216.329 492.931C215.674 493.263 215.177 493.714 214.838 494.286L209.406 493.267L210.512 479.545H226.844V484.505H215.571L214.987 490.508H215.136C215.558 489.804 216.238 489.223 217.174 488.768C218.119 488.304 219.192 488.072 220.393 488.072C221.918 488.072 223.277 488.428 224.47 489.141C225.671 489.845 226.616 490.823 227.304 492.074C228 493.325 228.348 494.759 228.348 496.374C228.348 498.123 227.934 499.672 227.105 501.023C226.285 502.373 225.133 503.434 223.65 504.205C222.175 504.967 220.447 505.348 218.467 505.348ZM245.981 500.227V498.885C245.981 497.841 246.205 496.876 246.653 495.989C247.108 495.102 247.767 494.39 248.629 493.851C249.491 493.313 250.543 493.043 251.786 493.043C253.054 493.043 254.118 493.313 254.98 493.851C255.85 494.382 256.505 495.09 256.944 495.977C257.391 496.855 257.615 497.824 257.615 498.885V500.227C257.615 501.271 257.391 502.237 256.944 503.123C256.496 504.01 255.838 504.722 254.968 505.261C254.098 505.8 253.037 506.069 251.786 506.069C250.526 506.069 249.466 505.8 248.604 505.261C247.742 504.722 247.088 504.01 246.64 503.123C246.201 502.237 245.981 501.271 245.981 500.227ZM249.946 498.885V500.227C249.946 500.758 250.075 501.267 250.332 501.756C250.597 502.245 251.081 502.489 251.786 502.489C252.507 502.489 252.991 502.253 253.24 501.781C253.489 501.3 253.613 500.782 253.613 500.227V498.885C253.613 498.33 253.493 497.808 253.252 497.319C253.02 496.822 252.532 496.573 251.786 496.573C251.09 496.573 250.609 496.822 250.344 497.319C250.079 497.808 249.946 498.33 249.946 498.885ZM232.782 485.661V484.318C232.782 483.258 233.01 482.288 233.465 481.41C233.929 480.523 234.592 479.815 235.454 479.284C236.316 478.746 237.36 478.477 238.586 478.477C239.854 478.477 240.919 478.746 241.78 479.284C242.65 479.815 243.309 480.523 243.757 481.41C244.204 482.288 244.428 483.258 244.428 484.318V485.661C244.428 486.721 244.2 487.691 243.744 488.569C243.297 489.447 242.638 490.147 241.768 490.669C240.898 491.191 239.837 491.452 238.586 491.452C237.335 491.452 236.274 491.187 235.404 490.657C234.543 490.127 233.888 489.422 233.441 488.544C233.001 487.666 232.782 486.705 232.782 485.661ZM236.784 484.318V485.661C236.784 486.216 236.912 486.734 237.169 487.214C237.434 487.686 237.907 487.923 238.586 487.923C239.315 487.923 239.8 487.686 240.04 487.214C240.289 486.734 240.413 486.216 240.413 485.661V484.318C240.413 483.763 240.297 483.241 240.065 482.752C239.833 482.255 239.34 482.006 238.586 482.006C237.89 482.006 237.414 482.259 237.157 482.765C236.908 483.27 236.784 483.788 236.784 484.318ZM234.659 505L252.159 479.545H255.552L238.052 505H234.659Z" fill="white"/>
<path d="M199.065 70.9851V67.1818H216.984V70.9851H210.305V89H205.745V70.9851H199.065ZM224.934 89.3196C223.251 89.3196 221.802 88.9787 220.588 88.2969C219.381 87.608 218.45 86.6349 217.797 85.3778C217.143 84.1136 216.817 82.6186 216.817 80.8928C216.817 79.2095 217.143 77.7322 217.797 76.4609C218.45 75.1896 219.37 74.1989 220.556 73.4886C221.749 72.7784 223.148 72.4233 224.753 72.4233C225.833 72.4233 226.838 72.5973 227.768 72.9453C228.706 73.2862 229.523 73.8011 230.219 74.4901C230.922 75.179 231.469 76.0455 231.859 77.0895C232.25 78.1264 232.445 79.3409 232.445 80.733V81.9794H218.628V79.1669H228.173C228.173 78.5135 228.031 77.9347 227.747 77.4304C227.463 76.9261 227.069 76.532 226.564 76.2479C226.067 75.9567 225.488 75.8111 224.828 75.8111C224.139 75.8111 223.528 75.9709 222.996 76.2905C222.47 76.603 222.058 77.0256 221.76 77.5582C221.461 78.0838 221.309 78.6697 221.302 79.3161V81.9901C221.302 82.7997 221.451 83.4993 221.749 84.0888C222.055 84.6783 222.484 85.1328 223.038 85.4524C223.592 85.772 224.249 85.9318 225.009 85.9318C225.513 85.9318 225.975 85.8608 226.394 85.7188C226.813 85.5767 227.172 85.3636 227.47 85.0795C227.768 84.7955 227.996 84.4474 228.152 84.0355L232.349 84.3125C232.136 85.321 231.699 86.2017 231.039 86.9545C230.385 87.7003 229.54 88.2827 228.503 88.7017C227.474 89.1136 226.284 89.3196 224.934 89.3196ZM240.073 89.3089C239.029 89.3089 238.099 89.1278 237.282 88.7656C236.465 88.3963 235.819 87.853 235.343 87.1357C234.874 86.4112 234.64 85.5092 234.64 84.4297C234.64 83.5206 234.807 82.7571 235.14 82.1392C235.474 81.5213 235.929 81.0241 236.504 80.6477C237.079 80.2713 237.733 79.9872 238.464 79.7955C239.203 79.6037 239.977 79.4688 240.787 79.3906C241.738 79.2912 242.506 79.1989 243.088 79.1136C243.67 79.0213 244.093 78.8864 244.356 78.7088C244.618 78.5312 244.75 78.2685 244.75 77.9205V77.8565C244.75 77.1818 244.537 76.6598 244.111 76.2905C243.692 75.9212 243.095 75.7365 242.321 75.7365C241.504 75.7365 240.854 75.9176 240.371 76.2798C239.888 76.6349 239.569 77.0824 239.412 77.6222L235.215 77.2812C235.428 76.2869 235.847 75.4276 236.472 74.7031C237.097 73.9716 237.903 73.4105 238.89 73.0199C239.885 72.6222 241.035 72.4233 242.342 72.4233C243.251 72.4233 244.121 72.5298 244.952 72.7429C245.79 72.956 246.532 73.2862 247.179 73.7337C247.832 74.1811 248.347 74.7564 248.724 75.4595C249.1 76.1555 249.288 76.9901 249.288 77.9631V89H244.984V86.7308H244.856C244.594 87.2422 244.242 87.6932 243.802 88.0838C243.361 88.4673 242.832 88.7692 242.214 88.9893C241.596 89.2024 240.883 89.3089 240.073 89.3089ZM241.373 86.1768C242.04 86.1768 242.63 86.0455 243.141 85.7827C243.653 85.5128 244.054 85.1506 244.345 84.696C244.636 84.2415 244.782 83.7266 244.782 83.1513V81.4148C244.64 81.5071 244.444 81.5923 244.196 81.6705C243.954 81.7415 243.681 81.8089 243.376 81.8729C243.07 81.9297 242.765 81.983 242.459 82.0327C242.154 82.0753 241.877 82.1143 241.628 82.1499C241.096 82.228 240.631 82.3523 240.233 82.5227C239.835 82.6932 239.526 82.924 239.306 83.2152C239.086 83.4993 238.976 83.8544 238.976 84.2805C238.976 84.8984 239.199 85.3707 239.647 85.6974C240.101 86.017 240.677 86.1768 241.373 86.1768ZM252.809 89V72.6364H257.134V75.5234H257.326C257.667 74.5646 258.235 73.8082 259.031 73.2543C259.826 72.7003 260.778 72.4233 261.886 72.4233C263.008 72.4233 263.963 72.7038 264.752 73.2649C265.54 73.8189 266.066 74.5717 266.328 75.5234H266.499C266.833 74.5859 267.436 73.8366 268.31 73.2756C269.191 72.7074 270.231 72.4233 271.431 72.4233C272.958 72.4233 274.198 72.9098 275.149 73.8828C276.108 74.8487 276.588 76.2195 276.588 77.995V89H272.06V78.8899C272.06 77.9808 271.818 77.299 271.335 76.8445C270.852 76.3899 270.249 76.1626 269.524 76.1626C268.7 76.1626 268.058 76.4254 267.596 76.951C267.134 77.4695 266.904 78.1548 266.904 79.0071V89H262.504V78.794C262.504 77.9915 262.273 77.3523 261.811 76.8764C261.357 76.4006 260.757 76.1626 260.011 76.1626C259.507 76.1626 259.052 76.2905 258.647 76.5462C258.249 76.7947 257.933 77.1463 257.699 77.6009C257.465 78.0483 257.347 78.5739 257.347 79.1776V89H252.809Z" fill="white"/>
<path d="M215.729 114.545V140H209.589V120.288H209.439L203.747 123.768V118.448L210.024 114.545H215.729ZM231.883 140.621C229.662 140.621 227.748 140.095 226.141 139.043C224.533 137.982 223.295 136.462 222.425 134.482C221.555 132.493 221.124 130.102 221.132 127.31C221.14 124.518 221.575 122.148 222.437 120.201C223.307 118.245 224.542 116.758 226.141 115.739C227.748 114.711 229.662 114.197 231.883 114.197C234.104 114.197 236.018 114.711 237.625 115.739C239.241 116.758 240.484 118.245 241.354 120.201C242.224 122.156 242.655 124.526 242.647 127.31C242.647 130.111 242.212 132.505 241.342 134.494C240.472 136.483 239.233 138.003 237.625 139.055C236.026 140.099 234.112 140.621 231.883 140.621ZM231.883 135.588C233.209 135.588 234.282 134.912 235.102 133.562C235.923 132.203 236.329 130.119 236.32 127.31C236.32 125.471 236.134 123.954 235.761 122.761C235.388 121.56 234.87 120.665 234.207 120.076C233.544 119.488 232.77 119.194 231.883 119.194C230.566 119.194 229.501 119.861 228.689 121.195C227.877 122.521 227.467 124.559 227.458 127.31C227.45 129.174 227.628 130.72 227.993 131.946C228.366 133.172 228.888 134.088 229.559 134.693C230.23 135.289 231.005 135.588 231.883 135.588ZM260.426 135.227V133.885C260.426 132.841 260.65 131.876 261.097 130.989C261.553 130.102 262.212 129.39 263.074 128.851C263.935 128.313 264.988 128.043 266.231 128.043C267.498 128.043 268.563 128.313 269.425 128.851C270.295 129.382 270.949 130.09 271.389 130.977C271.836 131.855 272.06 132.824 272.06 133.885V135.227C272.06 136.271 271.836 137.237 271.389 138.123C270.941 139.01 270.282 139.722 269.412 140.261C268.542 140.8 267.482 141.069 266.231 141.069C264.971 141.069 263.911 140.8 263.049 140.261C262.187 139.722 261.532 139.01 261.085 138.123C260.646 137.237 260.426 136.271 260.426 135.227ZM264.391 133.885V135.227C264.391 135.758 264.52 136.267 264.776 136.756C265.042 137.245 265.526 137.489 266.231 137.489C266.951 137.489 267.436 137.253 267.685 136.781C267.933 136.3 268.058 135.782 268.058 135.227V133.885C268.058 133.33 267.938 132.808 267.697 132.319C267.465 131.822 266.976 131.573 266.231 131.573C265.535 131.573 265.054 131.822 264.789 132.319C264.524 132.808 264.391 133.33 264.391 133.885ZM247.227 120.661V119.318C247.227 118.258 247.455 117.288 247.91 116.41C248.374 115.523 249.037 114.815 249.899 114.284C250.761 113.746 251.805 113.477 253.031 113.477C254.299 113.477 255.364 113.746 256.225 114.284C257.095 114.815 257.754 115.523 258.201 116.41C258.649 117.288 258.873 118.258 258.873 119.318V120.661C258.873 121.721 258.645 122.691 258.189 123.569C257.742 124.447 257.083 125.147 256.213 125.669C255.343 126.191 254.282 126.452 253.031 126.452C251.78 126.452 250.719 126.187 249.849 125.657C248.987 125.127 248.333 124.422 247.885 123.544C247.446 122.666 247.227 121.705 247.227 120.661ZM251.229 119.318V120.661C251.229 121.216 251.357 121.734 251.614 122.214C251.879 122.686 252.352 122.923 253.031 122.923C253.76 122.923 254.245 122.686 254.485 122.214C254.734 121.734 254.858 121.216 254.858 120.661V119.318C254.858 118.763 254.742 118.241 254.51 117.752C254.278 117.255 253.785 117.006 253.031 117.006C252.335 117.006 251.859 117.259 251.602 117.765C251.353 118.27 251.229 118.788 251.229 119.318ZM249.103 140L266.603 114.545H269.997L252.497 140H249.103Z" fill="white"/>
<path d="M365.896 278V256.182H380.342V259.985H370.509V265.184H379.384V268.987H370.509V278H365.896ZM387.821 278.309C386.777 278.309 385.847 278.128 385.03 277.766C384.213 277.396 383.567 276.853 383.091 276.136C382.622 275.411 382.388 274.509 382.388 273.43C382.388 272.521 382.555 271.757 382.888 271.139C383.222 270.521 383.677 270.024 384.252 269.648C384.827 269.271 385.481 268.987 386.212 268.795C386.951 268.604 387.725 268.469 388.535 268.391C389.487 268.291 390.254 268.199 390.836 268.114C391.418 268.021 391.841 267.886 392.104 267.709C392.366 267.531 392.498 267.268 392.498 266.92V266.857C392.498 266.182 392.285 265.66 391.859 265.29C391.44 264.921 390.843 264.737 390.069 264.737C389.252 264.737 388.602 264.918 388.119 265.28C387.636 265.635 387.317 266.082 387.161 266.622L382.963 266.281C383.176 265.287 383.595 264.428 384.22 263.703C384.845 262.972 385.651 262.411 386.638 262.02C387.633 261.622 388.783 261.423 390.09 261.423C390.999 261.423 391.869 261.53 392.7 261.743C393.538 261.956 394.281 262.286 394.927 262.734C395.58 263.181 396.095 263.756 396.472 264.46C396.848 265.156 397.036 265.99 397.036 266.963V278H392.732V275.731H392.604C392.342 276.242 391.99 276.693 391.55 277.084C391.109 277.467 390.58 277.769 389.962 277.989C389.344 278.202 388.631 278.309 387.821 278.309ZM389.121 275.177C389.788 275.177 390.378 275.045 390.889 274.783C391.401 274.513 391.802 274.151 392.093 273.696C392.384 273.241 392.53 272.727 392.53 272.151V270.415C392.388 270.507 392.192 270.592 391.944 270.67C391.702 270.741 391.429 270.809 391.124 270.873C390.818 270.93 390.513 270.983 390.207 271.033C389.902 271.075 389.625 271.114 389.376 271.15C388.844 271.228 388.379 271.352 387.981 271.523C387.583 271.693 387.274 271.924 387.054 272.215C386.834 272.499 386.724 272.854 386.724 273.281C386.724 273.898 386.947 274.371 387.395 274.697C387.849 275.017 388.425 275.177 389.121 275.177ZM400.557 278V261.636H405.096V278H400.557ZM402.837 259.527C402.162 259.527 401.583 259.303 401.1 258.856C400.625 258.401 400.387 257.858 400.387 257.226C400.387 256.601 400.625 256.065 401.1 255.617C401.583 255.163 402.162 254.935 402.837 254.935C403.512 254.935 404.087 255.163 404.563 255.617C405.046 256.065 405.287 256.601 405.287 257.226C405.287 257.858 405.046 258.401 404.563 258.856C404.087 259.303 403.512 259.527 402.837 259.527ZM408.731 278V261.636H413.131V264.491H413.301C413.6 263.476 414.1 262.709 414.803 262.19C415.507 261.665 416.316 261.402 417.232 261.402C417.46 261.402 417.705 261.416 417.968 261.445C418.23 261.473 418.461 261.512 418.66 261.562V265.589C418.447 265.525 418.152 265.468 417.776 265.418C417.399 265.369 417.055 265.344 416.742 265.344C416.075 265.344 415.478 265.489 414.953 265.781C414.434 266.065 414.022 266.462 413.717 266.974C413.419 267.485 413.269 268.075 413.269 268.742V278H408.731ZM428.035 278V256.182H432.648V274.197H442.002V278H428.035ZM449.637 278.309C448.593 278.309 447.663 278.128 446.846 277.766C446.029 277.396 445.383 276.853 444.907 276.136C444.439 275.411 444.204 274.509 444.204 273.43C444.204 272.521 444.371 271.757 444.705 271.139C445.039 270.521 445.493 270.024 446.069 269.648C446.644 269.271 447.297 268.987 448.029 268.795C448.767 268.604 449.542 268.469 450.351 268.391C451.303 268.291 452.07 268.199 452.652 268.114C453.235 268.021 453.657 267.886 453.92 267.709C454.183 267.531 454.314 267.268 454.314 266.92V266.857C454.314 266.182 454.101 265.66 453.675 265.29C453.256 264.921 452.659 264.737 451.885 264.737C451.069 264.737 450.419 264.918 449.936 265.28C449.453 265.635 449.133 266.082 448.977 266.622L444.779 266.281C444.993 265.287 445.412 264.428 446.037 263.703C446.662 262.972 447.468 262.411 448.455 262.02C449.449 261.622 450.6 261.423 451.907 261.423C452.816 261.423 453.686 261.53 454.517 261.743C455.355 261.956 456.097 262.286 456.743 262.734C457.397 263.181 457.912 263.756 458.288 264.46C458.664 265.156 458.853 265.99 458.853 266.963V278H454.549V275.731H454.421C454.158 276.242 453.806 276.693 453.366 277.084C452.926 277.467 452.397 277.769 451.779 277.989C451.161 278.202 450.447 278.309 449.637 278.309ZM450.937 275.177C451.605 275.177 452.194 275.045 452.706 274.783C453.217 274.513 453.618 274.151 453.909 273.696C454.201 273.241 454.346 272.727 454.346 272.151V270.415C454.204 270.507 454.009 270.592 453.76 270.67C453.519 270.741 453.245 270.809 452.94 270.873C452.635 270.93 452.329 270.983 452.024 271.033C451.718 271.075 451.441 271.114 451.193 271.15C450.66 271.228 450.195 271.352 449.797 271.523C449.4 271.693 449.091 271.924 448.87 272.215C448.65 272.499 448.54 272.854 448.54 273.281C448.54 273.898 448.764 274.371 449.211 274.697C449.666 275.017 450.241 275.177 450.937 275.177ZM472.867 271.033V261.636H477.406V278H473.048V275.028H472.878C472.509 275.987 471.894 276.757 471.035 277.339C470.183 277.922 469.142 278.213 467.913 278.213C466.82 278.213 465.857 277.964 465.026 277.467C464.195 276.97 463.545 276.263 463.077 275.347C462.615 274.431 462.381 273.334 462.374 272.055V261.636H466.912V271.246C466.919 272.212 467.178 272.975 467.69 273.536C468.201 274.097 468.886 274.378 469.746 274.378C470.293 274.378 470.804 274.254 471.28 274.005C471.756 273.749 472.139 273.373 472.43 272.876C472.729 272.379 472.874 271.764 472.867 271.033ZM485.574 268.54V278H481.036V261.636H485.361V264.523H485.553C485.915 263.572 486.522 262.819 487.374 262.265C488.227 261.704 489.26 261.423 490.475 261.423C491.611 261.423 492.602 261.672 493.447 262.169C494.292 262.666 494.949 263.376 495.418 264.3C495.887 265.216 496.121 266.31 496.121 267.581V278H491.583V268.391C491.59 267.389 491.334 266.608 490.816 266.047C490.297 265.479 489.583 265.195 488.674 265.195C488.063 265.195 487.524 265.326 487.055 265.589C486.593 265.852 486.231 266.235 485.968 266.739C485.713 267.237 485.581 267.837 485.574 268.54ZM507.091 278.32C505.415 278.32 503.973 277.964 502.766 277.254C501.566 276.537 500.642 275.543 499.996 274.271C499.357 273 499.037 271.537 499.037 269.882C499.037 268.206 499.36 266.736 500.007 265.472C500.66 264.2 501.587 263.21 502.787 262.499C503.988 261.782 505.415 261.423 507.07 261.423C508.498 261.423 509.748 261.683 510.82 262.201C511.892 262.719 512.741 263.447 513.366 264.385C513.991 265.322 514.336 266.423 514.4 267.688H510.117C509.996 266.871 509.676 266.214 509.158 265.717C508.647 265.212 507.975 264.96 507.145 264.96C506.441 264.96 505.827 265.152 505.301 265.536C504.783 265.912 504.378 266.462 504.087 267.187C503.796 267.911 503.65 268.788 503.65 269.818C503.65 270.862 503.792 271.75 504.076 272.482C504.368 273.213 504.776 273.771 505.301 274.154C505.827 274.538 506.441 274.729 507.145 274.729C507.663 274.729 508.128 274.623 508.54 274.41C508.959 274.197 509.304 273.888 509.574 273.483C509.85 273.071 510.032 272.577 510.117 272.002H514.4C514.328 273.252 513.988 274.353 513.377 275.305C512.773 276.249 511.939 276.988 510.873 277.521C509.808 278.053 508.547 278.32 507.091 278.32ZM521.844 268.54V278H517.305V256.182H521.716V264.523H521.907C522.277 263.558 522.873 262.801 523.697 262.254C524.521 261.7 525.555 261.423 526.797 261.423C527.934 261.423 528.925 261.672 529.77 262.169C530.622 262.659 531.282 263.366 531.751 264.289C532.227 265.205 532.461 266.303 532.454 267.581V278H527.916V268.391C527.923 267.382 527.667 266.597 527.149 266.036C526.638 265.475 525.92 265.195 524.997 265.195C524.379 265.195 523.832 265.326 523.356 265.589C522.888 265.852 522.518 266.235 522.248 266.739C521.986 267.237 521.851 267.837 521.844 268.54Z" fill="white"/>
<path d="M412.187 324.774V319.977L422.615 303.545H426.878V310.058H424.404L418.302 319.728V319.927H433.403V324.774H412.187ZM424.479 329V323.308L424.603 321.207V303.545H430.358V329H424.479ZM446.373 329.348C444.516 329.348 442.868 329.012 441.426 328.341C439.984 327.67 438.845 326.746 438.008 325.57C437.179 324.393 436.748 323.042 436.715 321.518H442.681C442.731 322.454 443.112 323.208 443.825 323.78C444.537 324.343 445.387 324.625 446.373 324.625C447.143 324.625 447.827 324.455 448.423 324.115C449.02 323.776 449.488 323.299 449.828 322.686C450.168 322.065 450.333 321.352 450.325 320.548C450.333 319.728 450.163 319.011 449.815 318.398C449.476 317.785 449.003 317.308 448.398 316.969C447.802 316.621 447.114 316.447 446.335 316.447C445.598 316.438 444.898 316.6 444.235 316.931C443.58 317.263 443.083 317.714 442.743 318.286L437.312 317.267L438.418 303.545H454.75V308.505H443.477L442.892 314.508H443.042C443.464 313.804 444.144 313.223 445.08 312.768C446.025 312.304 447.098 312.072 448.299 312.072C449.824 312.072 451.183 312.428 452.376 313.141C453.577 313.845 454.522 314.823 455.21 316.074C455.906 317.325 456.254 318.759 456.254 320.374C456.254 322.123 455.839 323.672 455.011 325.023C454.19 326.373 453.039 327.434 451.555 328.205C450.081 328.967 448.353 329.348 446.373 329.348ZM473.887 324.227V322.885C473.887 321.841 474.111 320.876 474.558 319.989C475.014 319.102 475.673 318.39 476.535 317.851C477.396 317.313 478.449 317.043 479.692 317.043C480.959 317.043 482.024 317.313 482.886 317.851C483.756 318.382 484.41 319.09 484.85 319.977C485.297 320.855 485.521 321.824 485.521 322.885V324.227C485.521 325.271 485.297 326.237 484.85 327.123C484.402 328.01 483.743 328.722 482.873 329.261C482.003 329.8 480.943 330.069 479.692 330.069C478.432 330.069 477.371 329.8 476.51 329.261C475.648 328.722 474.993 328.01 474.546 327.123C474.107 326.237 473.887 325.271 473.887 324.227ZM477.852 322.885V324.227C477.852 324.758 477.98 325.267 478.237 325.756C478.503 326.245 478.987 326.489 479.692 326.489C480.412 326.489 480.897 326.253 481.146 325.781C481.394 325.3 481.519 324.782 481.519 324.227V322.885C481.519 322.33 481.398 321.808 481.158 321.319C480.926 320.822 480.437 320.573 479.692 320.573C478.996 320.573 478.515 320.822 478.25 321.319C477.985 321.808 477.852 322.33 477.852 322.885ZM460.688 309.661V308.318C460.688 307.258 460.915 306.288 461.371 305.41C461.835 304.523 462.498 303.815 463.36 303.284C464.222 302.746 465.266 302.477 466.492 302.477C467.76 302.477 468.824 302.746 469.686 303.284C470.556 303.815 471.215 304.523 471.662 305.41C472.11 306.288 472.334 307.258 472.334 308.318V309.661C472.334 310.721 472.106 311.691 471.65 312.569C471.203 313.447 470.544 314.147 469.674 314.669C468.804 315.191 467.743 315.452 466.492 315.452C465.241 315.452 464.18 315.187 463.31 314.657C462.448 314.127 461.794 313.422 461.346 312.544C460.907 311.666 460.688 310.705 460.688 309.661ZM464.69 308.318V309.661C464.69 310.216 464.818 310.734 465.075 311.214C465.34 311.686 465.813 311.923 466.492 311.923C467.221 311.923 467.706 311.686 467.946 311.214C468.195 310.734 468.319 310.216 468.319 309.661V308.318C468.319 307.763 468.203 307.241 467.971 306.752C467.739 306.255 467.246 306.006 466.492 306.006C465.796 306.006 465.319 306.259 465.063 306.765C464.814 307.27 464.69 307.788 464.69 308.318ZM462.564 329L480.064 303.545H483.458L465.958 329H462.564Z" fill="white"/>
</svg>
