<svg width="60" height="60" viewBox="0 0 60 60" fill="none" xmlns="http://www.w3.org/2000/svg">
<g clip-path="url(#clip0_3979_68774)">
<g filter="url(#filter0_d_3979_68774)">
<path d="M52.3568 42.7128C50.716 32.8407 45.608 25.4895 41.1674 21.1716C39.8752 19.9151 39.2292 19.2869 37.802 18.7054C36.3748 18.124 35.148 18.124 32.6944 18.124H27.3056C24.852 18.124 23.6252 18.124 22.198 18.7054C20.7708 19.2869 20.1248 19.9151 18.8326 21.1716C14.392 25.4895 9.28401 32.8407 7.64317 42.7128C6.42232 50.058 13.1982 55.6245 20.7708 55.6245H39.2292C46.8018 55.6245 53.5777 50.058 52.3568 42.7128Z" stroke="#ECFCCB" stroke-width="3.75003" stroke-linecap="round"/>
<path d="M31.6586 28.125C31.6586 27.0895 30.8191 26.25 29.7836 26.25C28.748 26.25 27.9086 27.0895 27.9086 28.125L31.6586 28.125ZM27.9086 45.6252C27.9086 46.6608 28.748 47.5003 29.7836 47.5003C30.8191 47.5003 31.6586 46.6608 31.6586 45.6252H27.9086ZM32.4651 33.0097C33.0917 33.8341 34.268 33.9944 35.0925 33.3678C35.9169 32.7412 36.0772 31.5649 35.4506 30.7404L32.4651 33.0097ZM26.869 40.8808C26.0973 40.1902 24.912 40.2559 24.2214 41.0275C23.5308 41.7991 23.5965 42.9845 24.3681 43.6751L26.869 40.8808ZM29.7836 34.7484C28.1653 34.7484 27.4286 34.4843 27.1355 34.2869C27.0011 34.1963 26.876 34.0937 26.876 33.5987H23.126C23.126 35.0527 23.6531 36.4624 25.0403 37.397C26.269 38.2247 27.9236 38.4985 29.7836 38.4985V34.7484ZM26.876 33.5987C26.876 33.36 27.0031 32.9899 27.515 32.6122C28.0264 32.2349 28.8223 31.9449 29.7836 31.9449V28.1948C28.1035 28.1948 26.5081 28.6948 25.2885 29.5947C24.0695 30.4941 23.126 31.8885 23.126 33.5987H26.876ZM33.126 40.1523C33.126 40.7072 32.9288 41.0015 32.5073 41.2546C31.9722 41.5761 31.0539 41.8061 29.7836 41.8061V45.5562C31.3948 45.5562 33.0852 45.2821 34.4383 44.4693C35.9052 43.5881 36.876 42.118 36.876 40.1523H33.126ZM29.7836 38.4985C31.4169 38.4985 32.2686 38.7498 32.6723 39.0131C32.9074 39.1664 33.126 39.3908 33.126 40.1523H36.876C36.876 38.3932 36.225 36.8531 34.7209 35.8721C33.3855 35.0012 31.6285 34.7484 29.7836 34.7484V38.4985ZM31.6586 30.0699L31.6586 28.125L27.9086 28.125L27.9086 30.0699L31.6586 30.0699ZM27.9086 43.6812V45.6252H31.6586V43.6812H27.9086ZM29.7836 31.9449C31.1207 31.9449 32.0728 32.4936 32.4651 33.0097L35.4506 30.7404C34.2053 29.1021 32.0324 28.1948 29.7836 28.1948V31.9449ZM29.7836 41.8061C28.4501 41.8061 27.4138 41.3683 26.869 40.8808L24.3681 43.6751C25.7282 44.8923 27.7142 45.5562 29.7836 45.5562V41.8061Z" fill="#ECFCCB"/>
<path d="M18.1396 11.7323C17.6238 10.9815 16.8762 9.96255 18.4205 9.73017C20.0078 9.49133 21.6561 10.5779 23.2694 10.5556C24.729 10.5354 25.4726 9.88804 26.2703 8.96375C27.1104 7.99047 28.4111 5.625 29.998 5.625C31.585 5.625 32.8857 7.99047 33.7258 8.96375C34.5235 9.88804 35.2671 10.5354 36.7267 10.5556C38.34 10.5779 39.9883 9.49132 41.5756 9.73017C43.1199 9.96255 42.3723 10.9815 41.8565 11.7323L39.5244 15.1267C38.5268 16.5788 38.028 17.3048 36.9842 17.715C35.9403 18.1252 34.5914 18.1252 31.8935 18.1252H28.1026C25.4047 18.1252 24.0558 18.1252 23.0119 17.715C21.9681 17.3048 21.4693 16.5788 20.4717 15.1267L18.1396 11.7323Z" stroke="#ECFCCB" stroke-width="3.75003"/>
</g>
</g>
<defs>
<filter id="filter0_d_3979_68774" x="-51.5192" y="-19.1073" width="163.038" height="168.036" filterUnits="userSpaceOnUse" color-interpolation-filters="sRGB">
<feFlood flood-opacity="0" result="BackgroundImageFix"/>
<feColorMatrix in="SourceAlpha" type="matrix" values="0 0 0 0 0 0 0 0 0 0 0 0 0 0 0 0 0 0 127 0" result="hardAlpha"/>
<feOffset dy="34.2859"/>
<feGaussianBlur stdDeviation="28.5716"/>
<feComposite in2="hardAlpha" operator="out"/>
<feColorMatrix type="matrix" values="0 0 0 0 0.456424 0 0 0 0 0.687181 0 0 0 0 0.70191 0 0 0 0.3 0"/>
<feBlend mode="normal" in2="BackgroundImageFix" result="effect1_dropShadow_3979_68774"/>
<feBlend mode="normal" in="SourceGraphic" in2="effect1_dropShadow_3979_68774" result="shape"/>
</filter>
<clipPath id="clip0_3979_68774">
<rect width="60" height="60" fill="white"/>
</clipPath>
</defs>
</svg>
