<svg width="60" height="60" viewBox="0 0 60 60" fill="none" xmlns="http://www.w3.org/2000/svg">
<path d="M53.4388 17.8687C53.4391 17.7354 53.4 17.6049 53.3263 17.4937L46.8763 7.0125C46.7908 6.87553 46.672 6.76243 46.5311 6.68374C46.3901 6.60506 46.2315 6.56335 46.07 6.5625H13.9325C13.7711 6.56335 13.6125 6.60506 13.4715 6.68374C13.3305 6.76243 13.2118 6.87553 13.1263 7.0125L6.69503 17.4C6.62172 17.5043 6.58243 17.6287 6.58253 17.7563V22.125C6.57243 22.7212 6.71535 23.31 6.99766 23.8352C7.27996 24.3604 7.69221 24.8045 8.19503 25.125V52.5C8.19503 52.7486 8.2938 52.9871 8.46962 53.1629C8.64543 53.3387 8.88389 53.4375 9.13253 53.4375H50.8888C51.1374 53.4375 51.3759 53.3387 51.5517 53.1629C51.7275 52.9871 51.8263 52.7486 51.8263 52.5V25.2375C52.3276 24.92 52.7391 24.4792 53.0214 23.9572C53.3038 23.4353 53.4475 22.8496 53.4388 22.2562V17.8875V17.8687ZM14.4575 8.4375H45.545L50.8138 16.875H9.18878L14.4575 8.4375ZM45.1325 18.75V22.1812C45.1693 22.5685 45.0523 22.9548 44.8067 23.2565C44.5611 23.5582 44.2067 23.7512 43.82 23.7937H41.945C41.1763 23.7937 40.8763 23.5688 40.745 23.3813C40.6508 22.9886 40.6129 22.5846 40.6325 22.1812V18.75H45.1325ZM38.7013 18.75V22.1812C38.7381 22.5685 38.6211 22.9548 38.3755 23.2565C38.1299 23.5582 37.7755 23.7512 37.3888 23.7937H35.5138C34.5013 23.7937 34.3888 23.3813 34.2763 22.9875V22.8562C34.2763 22.65 34.2763 22.4062 34.2763 22.1812V18.75H38.7013ZM32.27 18.75V22.1812C32.3068 22.5685 32.1898 22.9548 31.9442 23.2565C31.6986 23.5582 31.3442 23.7512 30.9575 23.7937H29.0825C28.6958 23.7512 28.3414 23.5582 28.0958 23.2565C27.8503 22.9548 27.7332 22.5685 27.77 22.1812V18.75H32.27ZM25.8575 18.75V22.1812C25.8895 22.5675 25.7707 22.9512 25.526 23.2518C25.2813 23.5524 24.9298 23.7466 24.545 23.7937H22.67C22.2833 23.7512 21.9289 23.5582 21.6833 23.2565C21.4378 22.9548 21.3207 22.5685 21.3575 22.1812V18.75H25.8575ZM19.4263 20.25V22.125C19.4287 22.379 19.3744 22.6303 19.2674 22.8606C19.1604 23.0909 19.0032 23.2944 18.8075 23.4563C18.5975 23.5957 18.3616 23.6913 18.1138 23.7375H16.2388C15.8521 23.6949 15.4977 23.5019 15.2521 23.2002C15.0065 22.8985 14.8895 22.5123 14.9263 22.125V18.75H19.4825L19.4263 20.25ZM9.63878 23.8313C9.28159 23.7593 8.96281 23.5597 8.74199 23.2699C8.52116 22.98 8.41338 22.6197 8.43878 22.2562V18.75H12.995V22.1812C13.001 22.4312 12.9501 22.6792 12.8461 22.9066C12.7422 23.1339 12.5879 23.3347 12.395 23.4937C11.8647 23.7274 11.2859 23.8303 10.7075 23.7937H9.84503L9.63878 23.8313ZM25.7075 51.5625H16.4825V34.4063H25.8575L25.7075 51.5625ZM49.9513 51.5625H27.5825L27.7325 33.4688C27.7244 33.2169 27.6243 32.9768 27.4513 32.7937C27.2752 32.624 27.0396 32.5298 26.795 32.5313H15.545C15.2964 32.5313 15.0579 32.63 14.8821 32.8058C14.7063 32.9817 14.6075 33.2201 14.6075 33.4688V51.5625H10.0513V25.7437H11.6825C12.3731 25.7232 13.0354 25.4649 13.5575 25.0125C13.6304 24.9756 13.6995 24.9316 13.7638 24.8813C14.0745 25.1834 14.4457 25.4164 14.8528 25.5651C15.26 25.7137 15.6939 25.7746 16.1263 25.7437H18.0013C18.6913 25.7379 19.3565 25.4852 19.8763 25.0313C19.9705 24.9861 20.0586 24.9294 20.1388 24.8625C20.7821 25.4394 21.6185 25.7539 22.4825 25.7437H24.3575C24.6118 25.7444 24.8647 25.7065 25.1075 25.6313C25.6487 25.5556 26.1635 25.3497 26.6075 25.0313C27.0427 25.3531 27.5523 25.5595 28.0888 25.6313C28.3377 25.7081 28.597 25.746 28.8575 25.7437H30.7325C30.986 25.7352 31.2377 25.6974 31.4825 25.6313C31.9909 25.5607 32.4705 25.3533 32.87 25.0313C33.5353 25.5523 34.3711 25.8063 35.2138 25.7437H37.0888C37.8794 25.7824 38.6596 25.551 39.3013 25.0875C39.7428 25.4232 40.2683 25.6308 40.82 25.6875C41.0759 25.7082 41.3329 25.7082 41.5888 25.6875H43.8763H44.495C45.0909 25.6354 45.6645 25.4356 46.1638 25.1063C46.4505 25.2746 46.7599 25.4009 47.0825 25.4813C47.468 25.6687 47.8914 25.7649 48.32 25.7625H49.9513V51.5625ZM51.5638 22.2562C51.5885 22.6224 51.4781 22.9849 51.2535 23.2752C51.0289 23.5654 50.7057 23.7633 50.345 23.8313C50.2513 23.8313 50.1575 23.8313 50.2513 23.8313H49.2388C48.7472 23.836 48.2566 23.7857 47.7763 23.6813C47.5322 23.5252 47.333 23.3082 47.1982 23.0518C47.0634 22.7954 46.9977 22.5083 47.0075 22.2188V18.75H51.5638V22.2562Z" fill="#FEF9C3"/>
<path d="M44.4582 32.5303H31.7457C31.5003 32.5302 31.2647 32.6264 31.0894 32.7982C30.9141 32.97 30.8132 33.2036 30.8082 33.449L30.677 42.0928C30.6704 42.2175 30.6904 42.3421 30.7357 42.4585C30.781 42.5749 30.8504 42.6803 30.9395 42.7678C31.0261 42.8593 31.1309 42.9316 31.2471 42.98C31.3634 43.0285 31.4886 43.052 31.6145 43.049H44.4582C44.7069 43.049 44.9453 42.9502 45.1212 42.7744C45.297 42.5986 45.3957 42.3602 45.3957 42.1115V33.4678C45.3957 33.2191 45.297 32.9807 45.1212 32.8049C44.9453 32.629 44.7069 32.5303 44.4582 32.5303ZM43.5207 41.249H32.5707L32.6832 34.4803H43.5207V41.249Z" fill="#FEF9C3"/>
</svg>
