<svg width="60" height="60" viewBox="0 0 60 60" fill="none" xmlns="http://www.w3.org/2000/svg">
<g clip-path="url(#clip0_3977_68750)">
<g filter="url(#filter0_d_3977_68750)">
<path d="M8.57129 14.572H23.5713C27.1217 14.572 29.9999 18.0258 29.9999 22.2863C29.9999 26.5468 27.1217 30.0006 23.5713 30.0006M23.5713 30.0006C27.1217 30.0006 29.9999 33.4544 29.9999 37.7148C29.9999 41.9753 27.1217 45.4291 23.5713 45.4291H8.57129M23.5713 30.0006H10.7141M10.357 14.572V45.4291M13.9284 10.7148V14.572M22.857 10.7148V14.572M13.9284 45.4291V49.2863M22.857 45.4291V49.2863" stroke="#F3E8FF" stroke-width="3.21429" stroke-linecap="round"/>
<path d="M51.4288 30.0007H35.3574M51.4288 30.0007C51.4288 31.5012 47.1553 34.3046 46.0717 35.3578M51.4288 30.0007C51.4288 28.5002 47.1553 25.6968 46.0717 24.6436" stroke="#F3E8FF" stroke-width="3.21429" stroke-linecap="round" stroke-linejoin="round"/>
</g>
</g>
<defs>
<filter id="filter0_d_3977_68750" x="-35.8933" y="0.535988" width="131.787" height="127.5" filterUnits="userSpaceOnUse" color-interpolation-filters="sRGB">
<feFlood flood-opacity="0" result="BackgroundImageFix"/>
<feColorMatrix in="SourceAlpha" type="matrix" values="0 0 0 0 0 0 0 0 0 0 0 0 0 0 0 0 0 0 127 0" result="hardAlpha"/>
<feOffset dy="34.2857"/>
<feGaussianBlur stdDeviation="21.4286"/>
<feComposite in2="hardAlpha" operator="out"/>
<feColorMatrix type="matrix" values="0 0 0 0 0.456424 0 0 0 0 0.687181 0 0 0 0 0.70191 0 0 0 0.15 0"/>
<feBlend mode="normal" in2="BackgroundImageFix" result="effect1_dropShadow_3977_68750"/>
<feBlend mode="normal" in="SourceGraphic" in2="effect1_dropShadow_3977_68750" result="shape"/>
</filter>
<clipPath id="clip0_3977_68750">
<rect width="60" height="60" fill="white"/>
</clipPath>
</defs>
</svg>
