<svg width="60" height="60" viewBox="0 0 60 60" fill="none" xmlns="http://www.w3.org/2000/svg">
<path d="M35.3699 11.7998C34.2789 9.97323 32.2824 8.75 30.0001 8.75C27.7179 8.75 25.7214 9.97323 24.6305 11.7998C23.5295 11.2039 22.3457 10.7417 21.1006 10.4349C22.7593 7.2077 26.1219 5 30.0001 5C33.8784 5 37.2409 7.2077 38.8996 10.4349C37.6546 10.7417 36.4706 11.2039 35.3699 11.7998Z" fill="#F3F4F6"/>
<path d="M23.4601 18.5937C24.7844 18.1357 26.1718 17.8129 27.606 17.6418C25.3328 14.5252 21.6529 12.5 17.5 12.5C10.5964 12.5 5 18.0964 5 25C5 29.1528 7.02517 32.8328 10.1418 35.106C10.3129 33.6718 10.6357 32.2845 11.0937 30.96C9.63952 29.3977 8.75 27.3028 8.75 25C8.75 20.1675 12.6675 16.25 17.5 16.25C19.8028 16.25 21.8977 17.1395 23.4601 18.5937Z" fill="#F3F4F6"/>
<path d="M49.8588 35.106C52.9753 32.8328 55.0005 29.1528 55.0005 25C55.0005 18.0964 49.404 12.5 42.5005 12.5C38.3478 12.5 34.6678 14.5252 32.3945 17.6418C33.8288 17.8129 35.216 18.1357 36.5405 18.5937C38.1028 17.1395 40.1978 16.25 42.5005 16.25C47.333 16.25 51.2505 20.1675 51.2505 25C51.2505 27.3028 50.361 29.3977 48.9068 30.96C49.3648 32.2845 49.6875 33.6718 49.8588 35.106Z" fill="#F3F4F6"/>
<path d="M23.75 33.125C23.75 32.0895 24.5895 31.25 25.625 31.25H36.25C37.0312 31.25 37.7305 31.7343 38.0052 32.4655C38.2795 33.1955 38.0732 34.019 37.4875 34.5335L37.4855 34.5355L37.455 34.563C37.427 34.5883 37.3818 34.63 37.3213 34.6872C37.2003 34.802 37.0182 34.9795 36.7905 35.216C36.3345 35.69 35.7 36.3965 35.0085 37.3065C33.6182 39.1355 32.0393 41.7325 31.184 44.8682C30.9115 45.8675 29.8808 46.4565 28.8818 46.184C27.8825 45.9115 27.2935 44.8808 27.566 43.8818C28.5857 40.1425 30.4443 37.1145 32.0228 35.0373L32.0513 35H25.625C24.5895 35 23.75 34.1605 23.75 33.125Z" fill="#F3F4F6"/>
<path d="M30 55C39.665 55 47.5 47.165 47.5 37.5C47.5 27.835 39.665 20 30 20C20.335 20 12.5 27.835 12.5 37.5C12.5 47.165 20.335 55 30 55ZM30 51.25C22.4061 51.25 16.25 45.094 16.25 37.5C16.25 29.906 22.4061 23.75 30 23.75C37.594 23.75 43.75 29.906 43.75 37.5C43.75 45.094 37.594 51.25 30 51.25Z" fill="#F3F4F6"/>
</svg>
