<svg width="60" height="60" viewBox="0 0 60 60" fill="none" xmlns="http://www.w3.org/2000/svg">
<g clip-path="url(#clip0_3979_68775)">
<g filter="url(#filter0_d_3979_68775)">
<path d="M20.0029 53.1239C20.0029 49.5884 20.0029 47.8207 21.1013 46.7224C22.1996 45.624 23.9674 45.624 27.5029 45.624H32.5029C36.0385 45.624 37.8062 45.624 38.9046 46.7224C40.0029 47.8207 40.0029 49.5884 40.0029 53.1239V55.6239H20.0029V53.1239Z" stroke="#2563EB" stroke-width="3.74997" stroke-linecap="round" stroke-linejoin="round"/>
<path d="M30 33.124L30 45.6238" stroke="#2563EB" stroke-width="3.74997" stroke-linecap="round" stroke-linejoin="round"/>
<path d="M15 55.624H45" stroke="#2563EB" stroke-width="3.74997" stroke-linecap="round" stroke-linejoin="round"/>
<path d="M32.5915 7.79124L35.2312 13.1142C35.5911 13.8552 36.551 14.5659 37.3609 14.702L42.1454 15.5035C45.2051 16.0176 45.925 18.2557 43.7202 20.4635L40.0006 24.2138C39.3707 24.8489 39.0257 26.0738 39.2207 26.9509L40.2856 31.5934C41.1255 35.268 39.1907 36.6895 35.9661 34.769L31.4816 32.0924C30.6717 31.6085 29.3368 31.6085 28.5119 32.0924L24.0274 34.769C20.8178 36.6895 18.868 35.2529 19.7079 31.5934L20.7728 26.9509C20.9677 26.0738 20.6228 24.8489 19.9928 24.2138L16.2733 20.4635C14.0835 18.2557 14.7884 16.0176 17.8481 15.5035L22.6326 14.702C23.4275 14.5659 24.3874 13.8552 24.7473 13.1142L27.387 7.79124C28.8269 4.90292 31.1666 4.90292 32.5915 7.79124Z" stroke="#2563EB" stroke-width="3.74997" stroke-linecap="round" stroke-linejoin="round"/>
</g>
</g>
<defs>
<filter id="filter0_d_3979_68775" x="-24.3789" y="-3.75001" width="108.758" height="128.749" filterUnits="userSpaceOnUse" color-interpolation-filters="sRGB">
<feFlood flood-opacity="0" result="BackgroundImageFix"/>
<feColorMatrix in="SourceAlpha" type="matrix" values="0 0 0 0 0 0 0 0 0 0 0 0 0 0 0 0 0 0 127 0" result="hardAlpha"/>
<feOffset dy="30"/>
<feGaussianBlur stdDeviation="18.75"/>
<feComposite in2="hardAlpha" operator="out"/>
<feColorMatrix type="matrix" values="0 0 0 0 0.456424 0 0 0 0 0.687181 0 0 0 0 0.70191 0 0 0 0.15 0"/>
<feBlend mode="normal" in2="BackgroundImageFix" result="effect1_dropShadow_3979_68775"/>
<feBlend mode="normal" in="SourceGraphic" in2="effect1_dropShadow_3979_68775" result="shape"/>
</filter>
<clipPath id="clip0_3979_68775">
<rect width="60" height="60" fill="white"/>
</clipPath>
</defs>
</svg>
