<svg width="60" height="60" viewBox="0 0 60 60" fill="none" xmlns="http://www.w3.org/2000/svg">
<g clip-path="url(#clip0_3979_68795)">
<path d="M4.19506 46.1528L13.6571 47.2424L17.3123 56.048C17.4845 56.465 17.8679 56.7584 18.3167 56.8142C18.3707 56.8214 18.4223 56.825 18.4751 56.825C18.8687 56.825 19.2413 56.6408 19.4819 56.3234L29.3993 43.1678C29.4497 43.1024 29.4905 43.0316 29.5259 42.959L30.3509 42.536L31.4639 43.1066C31.4777 43.1264 31.4873 43.1486 31.5017 43.1678L41.4203 56.3234C41.6603 56.642 42.0329 56.825 42.4259 56.825C42.4787 56.825 42.5315 56.8214 42.5855 56.8142C43.0343 56.7578 43.4177 56.465 43.5899 56.048L47.2439 47.2424L56.3735 46.1528C56.8223 46.1024 57.3227 45.8144 57.5021 45.3992C57.6791 44.9834 57.6215 44.504 57.3485 44.1428L48.4031 31.985L51.0161 30.293C51.5609 29.9414 51.7499 29.2358 51.4541 28.6604L49.0049 23.8814L51.4541 19.1036C51.7493 18.5282 51.5609 17.8214 51.0161 17.4698L46.5089 14.5544L46.2383 9.18857C46.2053 8.54297 45.6887 8.02577 45.0431 7.99457L39.6785 7.72517L36.7655 3.21497C36.4151 2.67137 35.7071 2.48237 35.1329 2.77757L30.3503 5.22677L25.5725 2.77757C24.9959 2.48237 24.2903 2.67197 23.9387 3.21497L21.0233 7.72457L15.6605 7.99397C15.0149 8.02577 14.4977 8.54237 14.4653 9.18797L14.1947 14.5538L9.68626 17.4692C9.14266 17.8208 8.95366 18.5276 9.24886 19.1018L11.6957 23.8808L9.24886 28.6598C8.95366 29.2352 9.14206 29.9408 9.68626 30.2924L12.3359 32.0066L3.32686 44.1512C3.05746 44.5136 3.00346 44.9888 3.18166 45.4028C3.36106 45.8162 3.74626 46.1024 4.19506 46.1528ZM46.2185 44.8238C45.7637 44.8754 45.3737 45.1706 45.1991 45.5924L42.1055 53.048L36.0857 45.0632C36.3563 44.9774 36.5999 44.804 36.7655 44.549L39.6785 40.037L45.0431 39.7712C45.6887 39.737 46.2059 39.2216 46.2383 38.576L46.4879 33.632L54.2315 43.9022L46.2185 44.8238ZM14.2337 23.3084L12.0119 18.9692L16.1051 16.3208C16.4447 16.1006 16.6595 15.7304 16.6781 15.3272L16.9241 10.4546L21.7943 10.211C22.1987 10.1912 22.5701 9.97637 22.7891 9.63677L25.4363 5.54117L29.7755 7.76417C30.1367 7.94957 30.5633 7.94957 30.9251 7.76417L35.2655 5.54117L37.9115 9.63557C38.1305 9.97637 38.5019 10.1912 38.9063 10.211L43.7777 10.4546L44.0237 15.3272C44.0435 15.7304 44.2583 16.1006 44.5979 16.3208L48.6911 18.968L46.4669 23.3072C46.2815 23.6684 46.2815 24.0956 46.4669 24.4568L48.6911 28.796L44.5979 31.4444C44.2583 31.6634 44.0435 32.0324 44.0237 32.438L43.7777 37.3094L38.9063 37.5506C38.5019 37.5716 38.1305 37.7852 37.9115 38.126L35.2655 42.2228L30.9251 39.9998C30.7433 39.9074 30.5465 39.8606 30.3497 39.8606C30.1529 39.8606 29.9561 39.9074 29.7755 39.9998L25.4363 42.2228L22.7891 38.126C22.5701 37.7852 22.1987 37.5716 21.7943 37.5506L16.9241 37.3094L16.6781 32.438C16.6595 32.0324 16.4447 31.6634 16.1051 31.4444L12.0119 28.7948L14.2337 24.4556C14.4185 24.0956 14.4185 23.6678 14.2337 23.3084ZM14.2193 33.698L14.4653 38.5754C14.4983 39.221 15.0149 39.737 15.6605 39.7706L21.0233 40.0364L23.9387 44.5484C24.1367 44.8556 24.4511 45.0404 24.7883 45.0992L18.7943 53.048L15.6995 45.5924C15.5249 45.1706 15.1349 44.8754 14.6801 44.8238L6.65026 43.9004L14.2193 33.698Z" fill="#EF4444"/>
<path d="M27.1427 35.6726C28.2101 35.9606 29.2955 36.1028 30.3725 36.1028C32.5007 36.1028 34.6007 35.546 36.4955 34.4564C39.3491 32.816 41.3927 30.1628 42.2507 26.9834C43.3649 22.8476 42.2861 18.5048 39.3623 15.3692C38.8877 14.8604 38.0921 14.8316 37.5821 15.305C37.0721 15.7796 37.0445 16.5776 37.5191 17.0876C39.8441 19.5824 40.7045 23.0384 39.8171 26.3288C39.1349 28.8566 37.5095 30.968 35.2397 32.2736C32.9699 33.5792 30.3269 33.9224 27.7997 33.239C22.5803 31.8302 19.4795 26.441 20.8871 21.224C21.5705 18.6938 23.1959 16.5836 25.4657 15.2768C27.7355 13.97 30.3791 13.628 32.9057 14.3114C33.5783 14.4944 34.2683 14.0948 34.4513 13.4234C34.6319 12.752 34.2347 12.0608 33.5633 11.879C30.3863 11.0198 27.0641 11.4524 24.2093 13.0928C21.3557 14.7332 19.3121 17.3888 18.4541 20.5658C16.6841 27.125 20.5817 33.902 27.1427 35.6726Z" fill="#EF4444"/>
<path d="M31.5819 16.6583C31.3695 16.2269 30.9315 15.9551 30.4521 15.9551C29.9727 15.9551 29.5347 16.2269 29.3223 16.6583L27.6819 19.9805L24.0165 20.5127C23.5419 20.5817 23.1471 20.9147 22.9995 21.3719C22.8507 21.8267 22.9749 22.3271 23.3181 22.6631L25.9713 25.2497L25.3431 28.9025C25.2621 29.3735 25.4565 29.8517 25.8459 30.1343C26.2329 30.4157 26.7471 30.4529 27.1725 30.2303L30.4527 28.5065L33.7329 30.2303C33.9183 30.3275 34.1187 30.3743 34.3191 30.3743C34.5807 30.3743 34.8417 30.2933 35.0595 30.1343C35.4483 29.8517 35.6421 29.3735 35.5611 28.9025L34.9341 25.2497L37.5873 22.6631C37.9293 22.3265 38.0535 21.8261 37.9047 21.3719C37.7571 20.9147 37.3635 20.5823 36.8889 20.5127L33.2235 19.9805L31.5819 16.6583ZM32.6997 23.9087C32.4033 24.1979 32.2671 24.6155 32.3373 25.0229L32.6445 26.8103L31.0377 25.9667C30.8535 25.8707 30.6519 25.8227 30.4515 25.8227C30.2499 25.8227 30.0483 25.8707 29.8641 25.9667L28.2585 26.8103L28.5645 25.0229C28.6359 24.6149 28.5003 24.1979 28.2033 23.9087L26.9025 22.6397L28.6989 22.3793C29.1093 22.3181 29.4627 22.0619 29.6469 21.6905L30.4509 20.0615L31.2537 21.6905C31.4379 22.0619 31.7925 22.3187 32.2029 22.3793L33.9981 22.6397L32.6997 23.9087Z" fill="#EF4444"/>
</g>
<defs>
<clipPath id="clip0_3979_68795">
<rect width="54.6" height="54.6" fill="white" transform="translate(3 2.40039)"/>
</clipPath>
</defs>
</svg>
